<svg id="Layer_1" data-name="Layer 1" xmlns="http://www.w3.org/2000/svg" viewBox="0 0 488 600"><defs><style>.cls-1{fill:#144514;}</style></defs><path class="cls-1" d="M0,342V310c1.65-11.32,2.72-22.77,5.07-33.94,8.82-41.89,28.33-77.58,63.79-102.71,35-24.79,73.54-33.77,115.49-21,13.81,4.22,27.18,9.91,40.62,15.27,14.95,6,29.7,6.29,44.7.17,11.55-4.72,23.23-9.12,35-13.36,41.21-14.91,81.45-12.26,120.4,7.64,19.32,9.87,34.79,24.32,47.31,42.41-2.29,1.6-4.36,3-6.36,4.44-36.59,26.85-57.42,62.16-58.28,108.28C406.49,382.47,449.16,423.35,488,440v2a32.19,32.19,0,0,0-1.41,3.11,319.14,319.14,0,0,1-39,79c-13.44,19.67-27,39.25-45.22,55.07-17.95,15.63-38.35,22.71-62.27,19-13.37-2.07-25.46-7.54-37.68-12.79q-43.56-18.75-88.07-2.4c-16.64,6.12-32.57,14.31-50.36,17H149c-26-4.59-43.69-21.45-59.51-40.78-8.63-10.55-16.81-21.51-24.67-32.65C32.28,480.49,13,429.05,4,373.6,2.33,363.13,1.32,352.54,0,342Z"/><path class="cls-1" d="M363,0c7.08,59.87-36.43,122.26-95.2,136.15-6.4,1.51-13.18,1.31-19.78,2-4.78.52-5.85-2.06-6.09-6.18a100.81,100.81,0,0,1,7.52-44.44c18.69-46.06,52.39-74.73,100.78-86.12C352.48.93,354.74.48,357,0Z"/></svg>