<svg width="510" height="554" viewBox="0 0 510 554" fill="none" xmlns="http://www.w3.org/2000/svg">
<path d="M150.479 340.449V502.285C150.479 517.351 152.932 529.574 168.009 529.574H342.331C357.409 529.574 359.861 517.351 359.861 502.285V339.843C359.861 324.777 381.847 312.554 396.924 312.554H458.269C481.721 312.554 494.238 285.012 478.868 267.347L275.622 33.8055C273.059 30.8566 269.893 28.492 266.338 26.8716C262.783 25.2511 258.921 24.4126 255.014 24.4126C251.107 24.4126 247.245 25.2511 243.69 26.8716C240.135 28.492 236.969 30.8566 234.406 33.8055L31.1603 268.099C15.8094 285.793 28.4146 313.336 51.8464 313.277L113.299 313.121C128.396 313.111 150.479 325.354 150.479 340.449Z" stroke="black" stroke-width="50" stroke-miterlimit="10"/>
</svg>
