<svg width="80" height="78" viewBox="0 0 80 78" fill="none" xmlns="http://www.w3.org/2000/svg">
<path d="M34.6638 38.3927C34.089 41.3066 35.0435 46.0735 39.0566 45.5825C43.0697 45.0916 40.3697 38.6936 39.2148 36.7404C38.7296 35.9221 36.2669 34.2276 36.0507 36.2125C35.7712 38.8519 36.441 42.1988 39.5734 42.695C42.3578 43.1384 42.9853 39.9552 42.2101 37.8806C41.3453 35.5315 38.6822 33.3091 36.1298 34.6182C33.7832 35.8218 33.3296 38.8942 34.1945 41.1588C35.1015 43.529 37.4218 45.2605 39.9952 44.9491C40.5504 44.901 41.0904 44.7425 41.5835 44.4828C42.0767 44.2231 42.5131 43.8675 42.8672 43.4369C43.2213 43.0062 43.486 42.5091 43.6457 41.9747C43.8054 41.4403 43.857 40.8794 43.7974 40.3248C43.5706 37.9176 41.63 35.4893 39.1568 35.1937C36.4462 34.8716 35.0277 37.1996 35.323 39.6491C35.6394 42.2516 37.8542 45.1497 40.5964 45.4294C43.4388 45.7145 44.6833 43.0223 44.7308 40.5887C44.7835 37.8648 43.8554 34.8189 41.5246 33.1982C39.1937 31.5776 36.2511 32.1002 35.1701 34.8241C33.4035 39.1845 38.1232 48.354 43.6075 45.6195C46.3814 44.2417 45.39 40.8262 44.5779 38.5246C43.6234 35.8271 41.6089 32.9765 38.4818 32.7812C30.9566 32.3166 34.0416 45.0969 39.2412 46.5486C45.2265 48.2167 44.6411 35.4629 38.0494 35.7374C35.6974 35.8324 37.2636 39.5804 39.104 39.5065C39.932 39.4748 40.0533 40.2192 40.0533 40.9688C40.0533 41.3541 39.9847 42.2199 39.6367 42.4997C39.046 42.9748 38.8193 42.5788 38.466 42.2463C37.1265 40.9846 36.6783 36.9938 39.0566 36.5556C41.1079 36.1755 42.9958 41.3066 41.2714 42.1618C39.0249 43.2598 37.9175 38.6988 38.3658 37.3527C38.8456 35.9169 40.2958 35.6424 40.9603 37.1152C41.259 37.9849 41.3422 38.9142 41.2029 39.8233C41.0816 40.7154 40.4013 42.2674 39.2095 41.4069C38.4185 40.8315 38.524 39.0895 39.5997 39.005C41.2609 38.8731 39.4152 42.0246 37.754 41.1641C36.9894 40.7682 37.0263 39.7124 37.4851 38.9786C37.675 38.6777 38.4976 37.7909 38.9195 38.0073C39.2359 38.1657 39.1199 40.5781 39.3783 38.1551L36.2142 37.6272C36.7536 38.4876 37.1624 39.4234 37.4271 40.4039C37.522 40.9494 37.6328 41.4879 37.7593 42.0193C37.7676 41.4585 37.8401 40.9006 37.9755 40.3564C38.3289 38.5616 35.0277 36.1333 34.5794 38.4138L34.6638 38.3927Z" fill="#031E03"/>
<path d="M72.042 19.4044C65.1443 17.9633 58.331 18.2589 51.4756 19.6684C44.7256 21.0515 37.6856 22.709 31.194 25.0318C24.8145 27.3872 18.7914 30.6151 13.296 34.6235C10.6336 36.5082 8.06747 38.5255 5.60732 40.6679C3.27646 42.7108 0.913971 45.0863 0.434089 48.2906C-0.4413 54.1608 4.39443 58.8959 9.39891 60.9125C12.0356 61.9683 14.8253 62.1372 17.6307 61.9683C21.1289 61.7938 24.6147 61.4255 28.0721 60.865C35.0911 59.635 41.8938 57.0747 48.5066 54.4828C54.486 52.2171 60.2268 49.3649 65.6453 45.9679C70.8923 42.5947 76.44 38.3135 78.7339 32.2427C80.8433 26.7157 77.2521 21.2626 72.0209 19.378C69.6214 18.5123 70.4388 22.3659 72.2107 22.9994C78.0642 25.1109 75.4644 30.7541 72.7802 34.3543C69.7058 38.4771 65.2551 41.3964 60.8834 44.0042C51.523 49.5734 40.5543 53.8124 29.9811 56.3885C24.7604 57.6554 18.7803 58.5739 13.3856 58.2308C7.15243 57.8243 0.666121 52.292 5.82353 46.253C9.30927 42.1671 14.3085 38.8203 18.7645 35.8958C23.3405 32.8449 28.2705 30.3631 33.4457 28.5053C39.4205 26.3937 45.8067 24.9367 51.9871 23.5748C58.6949 22.0914 65.4449 21.5635 72.2107 22.9783C74.7419 23.5062 73.8876 19.7476 72.0209 19.3569L72.042 19.4044Z" fill="#031E03"/>
<path d="M47.1567 1.31894C36.6098 8.64078 30.3977 20.7084 24.7762 31.9366C21.7019 38.2347 19.5901 44.9594 18.5114 51.8856C17.9841 55.111 17.636 58.3628 17.4198 61.6252C17.2036 64.8875 16.8925 68.4349 18.1739 71.5917C20.3255 76.897 25.9733 78.7763 31.252 77.4249C37.2795 75.8782 40.702 70.8632 44.3196 66.2073C48.8125 60.4268 51.792 53.7121 54.6397 47.0237C57.3977 40.5307 59.8656 33.8739 61.3105 26.9639C62.6975 20.2966 63.4199 13.434 61.01 6.90401C58.948 1.34533 52.9574 -1.59502 47.51 1.15001C45.5852 2.12133 47.742 5.65292 49.3821 4.84524C51.5494 3.75251 54.2283 3.26157 56.2903 4.91387C58.2309 6.49754 58.6422 9.66488 58.9639 11.9929C59.7127 17.3404 58.4998 22.9941 57.1867 28.178C55.6756 33.8575 53.7238 39.4102 51.349 44.7854C49.0235 50.2174 46.603 55.66 43.3334 60.5905C40.6176 64.6658 37.1952 69.8972 32.8815 72.41C30.5876 73.7402 27.5132 74.5849 24.8923 73.9936C21.512 73.2546 20.7315 70.3776 20.6735 67.263C20.4995 55.301 23.4315 42.6264 29.2059 32.1636C34.8168 21.9859 39.9163 11.4703 49.7248 4.64993C51.3069 3.53608 48.7756 0.210361 47.1461 1.34533L47.1567 1.31894Z" fill="#031E03"/>
<path d="M8.49182 16.084C10.7699 28.9012 19.218 39.7019 27.1228 49.6632C31.2651 54.7805 36.1061 59.2889 41.5035 63.0557C44.2219 64.9795 47.0382 66.7609 49.941 68.3927C52.9785 70.1031 56.2005 72.0879 59.6968 72.6158C66.1567 73.5871 69.9325 67.9546 70.4124 62.1372C70.9398 55.7233 67.0374 49.2514 63.8575 43.9672C60.24 37.9598 55.5572 32.6915 50.8216 27.5604C46.4394 22.8093 41.8252 18.2748 36.6414 14.4053C31.2678 10.4039 25.7096 7.01486 18.9648 6.0805C12.8529 5.23059 8.1965 9.40621 8.41798 15.6089C8.48654 17.4882 11.9723 19.2461 11.8774 16.6647C11.7877 14.3261 12.6209 12.1037 14.6248 10.7576C16.7975 9.30063 19.3234 9.64904 21.7334 10.1875C27.0068 11.3647 31.5156 14.2998 35.7607 17.5463C44.6621 24.4506 52.4828 32.6478 58.9638 41.8662C60.591 44.2346 62.0433 46.7188 63.3091 49.2989C64.6275 51.9067 66.2253 54.5197 66.7737 57.4284C67.3222 60.3371 66.837 64.0376 64.9491 66.4553C62.6499 69.4063 59.18 69.3218 55.9843 67.9651C45.9648 63.6786 36.1773 56.3885 29.401 47.8525C21.9232 38.4296 13.9129 28.3205 11.7614 16.179C11.3975 14.1361 7.9803 13.3759 8.46018 16.0735L8.49182 16.084Z" fill="#031E03"/>
</svg>
