<svg id="Layer_5" data-name="Layer 5" xmlns="http://www.w3.org/2000/svg" viewBox="0 0 568.89 469.94"><path d="M323.63,252.69c-1.09,5.52.72,14.55,8.33,13.62s2.49-13.05.3-16.75c-.92-1.55-5.59-4.76-6-1-.53,5,.74,11.34,6.68,12.28,5.28.84,6.47-5.19,5-9.12-1.64-4.45-6.69-8.66-11.53-6.18-4.45,2.28-5.31,8.1-3.67,12.39,1.72,4.49,6.12,7.77,11,7.18a7.94,7.94,0,0,0,7.21-8.76c-.43-4.56-4.11-9.16-8.8-9.72-5.14-.61-7.83,3.8-7.27,8.44.6,4.93,4.8,10.42,10,10.95,5.39.54,7.75-4.56,7.84-9.17.1-5.16-1.66-10.93-6.08-14s-10-2.08-12.05,3.08c-3.35,8.26,5.6,25.63,16,20.45,5.26-2.61,3.38-9.08,1.84-13.44-1.81-5.11-5.63-10.51-11.56-10.88-14.27-.88-8.42,23.33,1.44,26.08,11.35,3.16,10.24-21-2.26-20.48-4.46.18-1.49,7.28,2,7.14,1.57-.06,1.8,1.35,1.8,2.77,0,.73-.13,2.37-.79,2.9-1.12.9-1.55.15-2.22-.48-2.54-2.39-3.39-9.95,1.12-10.78,3.89-.72,7.47,9,4.2,10.62-4.26,2.08-6.36-6.56-5.51-9.11.91-2.72,3.66-3.24,4.92-.45a10.76,10.76,0,0,1,.46,5.13c-.23,1.69-1.52,4.63-3.78,3-1.5-1.09-1.3-4.39.74-4.55,3.15-.25-.35,5.72-3.5,4.09-1.45-.75-1.38-2.75-.51-4.14.36-.57,1.92-2.25,2.72-1.84.6.3.38,4.87.87.28l-6-1a19.43,19.43,0,0,1,2.3,5.26q.27,1.55.63,3.06a13.88,13.88,0,0,1,.41-3.15c.67-3.4-5.59-8-6.44-3.68Z"/><path d="M394.51,216.72c-13.08-2.73-26-2.17-39,.5-12.8,2.62-26.15,5.76-38.46,10.16a139.76,139.76,0,0,0-33.94,18.17A184.62,184.62,0,0,0,268.53,257c-4.42,3.87-8.9,8.37-9.81,14.44-1.66,11.12,7.51,20.09,17,23.91,5,2,10.29,2.32,15.61,2a179.81,179.81,0,0,0,19.8-2.09c13.31-2.33,26.21-7.18,38.75-12.09a183.85,183.85,0,0,0,32.5-16.13c9.95-6.39,20.47-14.5,24.82-26,4-10.47-2.81-20.8-12.73-24.37-4.55-1.64-3,5.66.36,6.86,11.1,4,6.17,14.69,1.08,21.51-5.83,7.81-14.27,13.34-22.56,18.28-17.75,10.55-38.55,18.58-58.6,23.46-9.9,2.4-21.24,4.14-31.47,3.49-11.82-.77-24.12-11.25-14.34-22.69,6.61-7.74,16.09-14.08,24.54-19.62a128.43,128.43,0,0,1,27.84-14c11.33-4,23.44-6.76,35.16-9.34,12.72-2.81,25.52-3.81,38.35-1.13,4.8,1,3.18-6.12-.36-6.86Z"/><path d="M347.32,182.46c-20,13.87-31.78,36.73-42.44,58A132.6,132.6,0,0,0,293,278.25c-1,6.11-1.66,12.27-2.07,18.45s-1,12.9,1.43,18.88c4.08,10.05,14.79,13.61,24.8,11.05,11.43-2.93,17.92-12.43,24.78-21.25,8.52-10.95,14.17-23.67,19.57-36.34,5.23-12.3,9.91-24.91,12.65-38,2.63-12.63,4-25.63-.57-38-3.91-10.53-15.27-16.1-25.6-10.9-3.65,1.84.44,8.53,3.55,7,4.11-2.07,9.19-3,13.1.13,3.68,3,4.46,9,5.07,13.41,1.42,10.13-.88,20.84-3.37,30.66a213.87,213.87,0,0,1-11.07,31.46c-4.41,10.29-9,20.6-15.2,29.94-5.15,7.72-11.64,17.63-19.82,22.39-4.35,2.52-10.18,4.12-15.15,3-6.41-1.4-7.89-6.85-8-12.75-.33-22.66,5.23-46.67,16.18-66.49,10.64-19.28,20.31-39.2,38.91-52.12,3-2.11-1.8-8.41-4.89-6.26Z"/><path d="M274,210.43c4.32,24.28,20.34,44.74,35.33,63.61a133,133,0,0,0,27.27,25.37,182.63,182.63,0,0,0,16,10.11c5.76,3.24,11.87,7,18.5,8,12.25,1.84,19.41-8.83,20.32-19.85,1-12.15-6.4-24.41-12.43-34.42-6.86-11.38-15.74-21.36-24.72-31.08-8.31-9-17.06-17.59-26.89-24.92-10.19-7.58-20.73-14-33.52-15.77-11.59-1.61-20.42,6.3-20,18.05.13,3.56,6.74,6.89,6.56,2-.17-4.43,1.41-8.64,5.21-11.19,4.12-2.76,8.91-2.1,13.48-1.08,10,2.23,18.55,7.79,26.6,13.94a214.34,214.34,0,0,1,44,46.07,111.88,111.88,0,0,1,8.24,14.08c2.5,4.94,5.53,9.89,6.57,15.4s.12,12.52-3.46,17.1c-4.36,5.59-10.94,5.43-17,2.86-19-8.12-37.56-21.93-50.41-38.1-14.18-17.85-29.37-37-33.45-60-.69-3.87-7.17-5.31-6.26-.2Z"/></svg>