<svg width="22" height="31" viewBox="0 0 22 31" fill="none" xmlns="http://www.w3.org/2000/svg">
<path d="M0 2.85048C0 1.27678 1.23177 0 2.75 0V2.85048V26.2125L10.2036 20.6957C10.6792 20.3394 11.3266 20.3394 11.8021 20.6957L19.25 26.2125V2.85048H2.75V0H19.25C20.7682 0 22 1.27678 22 2.85048V28.9799C22 29.5144 21.7135 30.0013 21.2552 30.2448C20.7969 30.4883 20.2469 30.4467 19.8286 30.1379L11 23.6055L2.17135 30.1379C1.75313 30.4467 1.20313 30.4883 0.744792 30.2448C0.286458 30.0013 0 29.5144 0 28.9799V2.85048Z" fill="#031E03"/>
</svg>
