<svg width="485" height="554" viewBox="0 0 485 554" fill="none" xmlns="http://www.w3.org/2000/svg">
<path d="M103.929 0C46.5513 0 0 46.5273 0 103.875V450.125C0 507.473 46.5513 554 103.929 554H415.714H450.357C469.519 554 485 538.527 485 519.375C485 500.223 469.519 484.75 450.357 484.75V415.5C469.519 415.5 485 400.027 485 380.875V34.625C485 15.473 469.519 0 450.357 0H415.714H103.929ZM103.929 415.5H381.071V484.75H103.929C84.7667 484.75 69.2857 469.277 69.2857 450.125C69.2857 430.973 84.7667 415.5 103.929 415.5ZM138.571 155.812C138.571 146.291 146.366 138.5 155.893 138.5H363.75C373.277 138.5 381.071 146.291 381.071 155.812C381.071 165.334 373.277 173.125 363.75 173.125H155.893C146.366 173.125 138.571 165.334 138.571 155.812ZM155.893 207.75H363.75C373.277 207.75 381.071 215.541 381.071 225.062C381.071 234.584 373.277 242.375 363.75 242.375H155.893C146.366 242.375 138.571 234.584 138.571 225.062C138.571 215.541 146.366 207.75 155.893 207.75Z" fill="black"/>
</svg>
