<svg width="400" height="554" viewBox="0 0 400 554" fill="none" xmlns="http://www.w3.org/2000/svg">
<path d="M0 51.9375C0 23.2637 22.3958 0 50 0V51.9375V477.609L185.521 377.088C194.167 370.596 205.937 370.596 214.583 377.088L350 477.609V51.9375H50V0H350C377.604 0 400 23.2637 400 51.9375V528.031C400 537.769 394.792 546.642 386.458 551.078C378.125 555.515 368.125 554.757 360.521 549.131L200 430.107L39.4792 549.131C31.875 554.757 21.875 555.515 13.5417 551.078C5.20833 546.642 0 537.769 0 528.031V51.9375Z" fill="black"/>
</svg>
