<svg id="Layer_2" data-name="Layer 2" xmlns="http://www.w3.org/2000/svg" viewBox="0 0 551.74 469.94"><path d="M196.84,283.15c-1.06.5-.83-.16-.38-.86.32-.49.76-1,1.15-1.54l.54-1.17,1.26-.22c2.48-1.68,2.75-1.95,2.21-2s-1.48.08-.53-.73c3.9-3.28,5.44-6.52,9.44-9.75l-.61,1.83-.25.37.37-.41c1-1.09,2.8-2.57.64-2-.7-.46,0-1.46,1.76-2.9a3,3,0,0,1,1.74-1.29c4-3.1,7.45-7.18,12.24-9a8.67,8.67,0,0,0,1.82-1.47A65.16,65.16,0,0,1,240,243.22c6.31-3.87,12.27-8.41,18.34-12.81,2.69-2,4.55-3.06,4.46-1.29,0,.59.45.94,2.06-.48.68-.6,2.55-1.63,1.35-1.88s.35-2,1.89-2.94c3.54-2.23,6.7-4.82,10.07-7.2s4.36-2.44,4.86-.74a5.13,5.13,0,0,0,.71,1.15l7.37-7.58c-.9.65-1.84,1.28-2.69,2-1,.79-2,2.06-3,2.15-.65.05-.86-.56-.64-1.19.33-.91,1.73-2.1,3.24-3,1.82-1,2.83-1,3.6-.71a43.08,43.08,0,0,1,9.33-7.94c9.88-6.66,20-13.1,29.51-20.33,3.73-2.79,4.29-2.83,5.57-1.08l-.18.34.29-.37c1.72-.91,4.48-1.94,2.83-2.68-1.25-.56-.47-1.88,2.27-3.31,4.86-2.49,8.7-5.87,13.06-8.73,2.75-1.79,5.18-4.11,7.89-4.25.85,0,1.75-.93,2.44-1.59a29.48,29.48,0,0,1,7.89-5.38,30.93,30.93,0,0,1,5-1.82,30.21,30.21,0,0,1,5.38-.94,53,53,0,0,0,6.39-.63,34.93,34.93,0,0,1,4.29-.54c1.42-.08,2.86-.1,4.3-.1a79,79,0,0,1,8.24.43c13.95,1.22,28.12,2.31,41.42,6.1,7.18,2,15.07,2.79,21.43,6.33a36.52,36.52,0,0,1,5.58,1.42c1.83.6,3.67,1.24,5.48,2s3.6,1.54,5.41,2.28,3.64,1.41,5.46,2.1c2.95,1.07,7.71,2.47,8.61,5.1.43,1.19,2.91,1.58,3.57,1.63a17.21,17.21,0,0,1,3.56.73,32.7,32.7,0,0,1,3.6,1.49,72.52,72.52,0,0,1,7.31,4c1.93,1.18,2.22,1.89,2,2.47-1.55-.73-3.12-1.42-2.78-.35a6.1,6.1,0,0,0,1.75,1.29c2.82,1.34.73-.58,1.1-.88,1.29.51,2.64,1.17,4,1.85a26.2,26.2,0,0,0,3.86,1.82c2.36.83,2.15,2.78,3.93,3.19a21,21,0,0,1,6,3.26l2.4,1.66c0,1.37-2.28,1-2.87,1.91l-.4-.09.45.16c1.18,1,1.11,2.13,2.82,3.11,2.53,1.52.27-.92.45-1.33.25-.56,1.32-.22,2.42.24s2.24,1.08,2.53.61c2,2.1,2.17,3.15,2.07,3.65a2.09,2.09,0,0,0,0,1.94c.29.38.56.8.84,1.2l-.6-.35c.14.3.33.76.47,1.14a5.24,5.24,0,0,1,.22.69,7.26,7.26,0,0,1,1.75,1.65,12.06,12.06,0,0,1,1.28,2.62,15.37,15.37,0,0,1,.55,3.3,16.05,16.05,0,0,1-.27,3.58,21,21,0,0,1-1,3.51c-.2.57-.46,1.08-.7,1.63A16.36,16.36,0,0,1,549,228l-.84,1.49-.89,1.39c-.58.95-1.21,1.75-1.78,2.61-.89.11-.59-.88-.19-1.94s.86-2.29.49-2.5a.8.8,0,0,0-1,.19c-.82,1.06-.36,1.05-.26,1.32.23.72-.61,1.75-1.56,2.67s-1.93,1.84-1.92,2.75a6,6,0,0,1-.16,1.85,7.59,7.59,0,0,1-1.7,2.85c-2.06,1.29,0-2.47-3.47.54a2.77,2.77,0,0,0-2.12.39,4.08,4.08,0,0,0-2.51,2.11c-2.23,2.14-2.23,2.14-1.84,3.34l2-3.37,2.32-1.89c.67-.12,1.39-.29,2.1-.43.61.29.5,1.37-.71,2.45-3,2.61-4.82,5.49-7.83,7.92-4.73,3.84-9.21,7.9-13.61,12.05-1.15,1.09-1.73,1.5-2.5,1.33-1.12-.26-1.67.15-2.21,1.36a8.93,8.93,0,0,1-5,5.09,2.59,2.59,0,0,0-1.34,1.29c-3.17,4.7-8.5,8-12.64,12.11a7.55,7.55,0,0,1-1.77.93c-.77.4-.26-1-1.55.31-.25.24.68.22,1.46-.17a7.18,7.18,0,0,1-1,1.62l-10.82,10.15c-3.59,3.4-7.2,6.75-10.88,10-3.09,2.71-6.08,5.42-9,8.19s-5.7,5.63-8.43,8.61c-2.08,2.26-4.49,5.18-6.34,4.59l.11-.34-.25.41c-1.58,1.59-2.25,3.31-4.75,4.93-2,1.34-4,3.88-5.64,6-1.24,1.59-2.64,3.21-4.07,4.78-3.46,3.79-3.49,3.78-5.08,2.37.66-1.36,2.9-3.59,1.88-4.34-1.11,1.91-2,3.4-2.09,4.45-1.63,3.51-5.47,7.5-8.46,10.66-4.59,4.8-8.63,10.5-14.21,14.44l-9.38,10.05a32.45,32.45,0,0,1-3.73,4.2l-3.44,3.34-1.77,1.7c-.29.29-.58.57-.86.87l-.42.46-.21.24-.05.06,0,0s0,0,0,0l0-.1-.4-.83.22,1,0,.11v.06l-.14-.45h0v.2c0,.09.06.57-.05.42,0,0,0,.15,0,.15s0,.11-.06.09l-.16,0-.64-.12-1.27-.22a4.94,4.94,0,0,0-2.31,0c-.37,0-.5-.12-.49-.33a6.08,6.08,0,0,1,1.1-1.92c.1-.09.17-.21.28-.26a4.17,4.17,0,0,0-.44.29,9.07,9.07,0,0,0-2.46,2.1,6,6,0,0,1-.87,1.31,6.1,6.1,0,0,1-1.3,1c-.29.2-.55.38-.37.66a.52.52,0,0,0,.15.19l.05.05a1.62,1.62,0,0,1,.06.17l.08.29,0,.15v0h0c-.39,3.07.89-6.85-.89,6.87v-.06l0-.13-.07-.53-.14-1.1-.27-2.34-.27-2.49-.13-1.29v-.08h-.54q-1.16,0-2.31-.09l-.58,0-.28,0-.5,0-2,.1q-.58-2.57-1.18-5.13a15.66,15.66,0,0,0-.73-2.31c-.26-.73-.52-1.46-.79-2.19-.53-1.45-1.07-2.87-1.64-4.28l-.06-.13,0-.07-.08-.13-.15-.26-.3-.52c-.21-.34-.42-.67-.64-1a6.79,6.79,0,0,1-.67-1.38c-.89-2.3-1.95-5.74-2.84-6.46-2.06-1.84-3.24-4.48-5-6.23a29.14,29.14,0,0,1-3.54-4.69,21,21,0,0,0-1.76-2.36,12.18,12.18,0,0,0-2.29-2,1.49,1.49,0,0,1-.6-1.72c.22-.46.89-.44,1.7-.14s1.86.69.55-1a3.11,3.11,0,0,0-2.4-1.26,6.67,6.67,0,0,1-3.94-.93,32.58,32.58,0,0,1-5.28-4.13,83.39,83.39,0,0,0-14.26-10.38,20.43,20.43,0,0,1-3.67-2.71,27.85,27.85,0,0,0-3-2.64l-.35-.3.18.27c0,.88-.9,1-2.88.14-1.46-.65-1.79-1.3-1.45-1.74l.33,0-.42-.06c-2.16-1.33.85-1.41-2-2.92a.58.58,0,0,1,.24-.44l.39,0-.52-.12c-.15,0-.41-.05-.42,0a1.54,1.54,0,0,0,.15.51c-.06.18,0,.46-.21.52-3.14.77-3.43.54-6.81-3.25-.17,1-1.1,1.34-2.36,1.19a11.4,11.4,0,0,1-4.44-1.65c-6.19-3.62-14.86-4.95-20.26-8.83-7.65-2.26-14.87-5.17-22.37-7.45-9.06-2.72-18.1-5.25-27.46-6.26-3.31-.34-6.63-.6-9.93-.67-.82,0-1.64,0-2.47,0s-1.65,0-2.46,0c-1.67,0-3.23.06-4.78.21a30.42,30.42,0,0,0-8.85,2.13,12,12,0,0,0-6.36,5.94,5.27,5.27,0,0,1,.23-4.51,11.55,11.55,0,0,1,4.37-4.66,31.17,31.17,0,0,1,12.05-4.23,60.52,60.52,0,0,1,12.4-.43,33.15,33.15,0,0,0,3.4.12,73.65,73.65,0,0,1,18.91,1.64c6.23,1.3,12.33,3.09,18.29,4.89,14.14,4.25,28.36,8.47,42.13,13.89A157,157,0,0,1,346.1,348a94.31,94.31,0,0,1,13.78,16.47l2.87,4.57c.87,1.57,1.81,3.12,2.65,4.69l3.67,7.14c.13.27.25.55.37.86a28,28,0,0,1,1,3.44c.28,1.07.45,2.17.69,3.24l0,.2s0-.1,0-.14a2.57,2.57,0,0,1-.08-.4,3.55,3.55,0,0,1,0-.8,4.81,4.81,0,0,1,.42-1.57,18.5,18.5,0,0,1,3.52-4.54l10.46-11.25,11.92-12.74c1.52-1.63,3.11-3.22,4.71-4.78,12.54-12.34,24.62-25,37-37.39,6.91-6.88,14.06-13.56,21.11-20.32q15-14.49,30.45-28.67c11.65-10.74,23.6-21.22,35.27-31.93L528.2,232c.73-.7,1.46-1.39,2.16-2.1a47.63,47.63,0,0,0,3.85-4.31,24.42,24.42,0,0,0,2.77-4.35,9.19,9.19,0,0,0,1-3.83,6.74,6.74,0,0,0-.55-2.76,8.91,8.91,0,0,0-2.07-2.78c-2.05-2-5.83-4.46-9.14-6.53-2.21-1.42-4.55-2.87-6.78-4.36a196.58,196.58,0,0,0-37.33-18.71,212.48,212.48,0,0,0-32.75-10.16,237.15,237.15,0,0,0-45-5.9c-1.38-.07-2.76,0-4.15,0H396c-2.79,0-5.53.06-7.82.27a28.76,28.76,0,0,0-3.23.47,19.08,19.08,0,0,0-2.8.8,37.59,37.59,0,0,0-6.16,3c-2.2,1.29-4.68,2.89-7.09,4.42l-7.25,4.59c-4.81,3.11-9.64,6.2-14.41,9.37-10.55,6.94-20.77,14.62-31.28,21.34-15.33,9.83-29.9,21-45.11,31-6.59,4.33-13.15,9.19-19.61,13.93s-13.09,8.95-19.55,13.72c-6.65,4.9-13.5,9.48-20.27,14.18-2.46,1.7-5.66,4.52-6.3,2.72-1.07.59-2.31,1.33-2.11.43a3.18,3.18,0,0,1,1.47-1.47c1.2-.69,1,0,1.27.22,4.84-2.93,5.71-3.75,6-6.1.21-1.7-.72-2.69.16-4.83l.14-.28-.3.34c-4.43,2.21-10.1,6.82-12.75,5.62a8,8,0,0,0-.89.67,2.18,2.18,0,0,1,.25.82A2.44,2.44,0,0,1,196.84,283.15Zm60,26.36-.52-.11.4.21Zm20.58,7.11-.43-.22-.05.12Zm5.51,3.68-.52-.14.38.23Zm7.57,2.67a1.07,1.07,0,0,1,.22-.5l.43,0-.51-.1c-.15,0-.41,0-.42,0a1.51,1.51,0,0,0,.14.51l.42.31Zm17.35,1.47a8.73,8.73,0,0,0-1.21-.65,7.64,7.64,0,0,0,.77,1.1,6.24,6.24,0,0,0,1.06.6C309,325.34,308.33,324.84,307.86,324.44Zm5.87,9.05-.33-.23v.22Zm9.74,5.94c.09-.05-.15-.36-.24-.54a6.79,6.79,0,0,0-.86-.06c-.32,0-.18.25.32.57A2.68,2.68,0,0,0,323.47,339.43Zm9.78,6.68a2.94,2.94,0,0,0-.34-.47c-.5-.48-.8-.63-.73-.38,0,.08.32.31.49.48Zm3.08-3.33a3.16,3.16,0,0,0-.36-.48c-.51-.5-.82-.66-.75-.39,0,.08.33.32.5.49Zm14.51,23.34-.19-.33-.1.2Zm4.7,6.44.11-.16-.27-.15Zm4.4,8.22a3.13,3.13,0,0,0-.46-1.12.7.7,0,0,0-.65-.29c-.22.05-.13.44.17.92S359.85,381.26,359.94,380.78Zm9.84,16a5,5,0,0,1,.15.51l0,.14,0,.07v0h0c.48-3.67-.64,5-.53,4.1v0l-.06-.44c-.07-.55-.15-1.08-.21-1.59-.15-1-.28-1.89-.4-2.74-.06-.42-.12-.84-.18-1.24l-.09-.61c-.06-.13-.16-.12-.24-.19l-1-.58L367,394l.15.26a8,8,0,0,0,1.16.9s.1.05.14.11l0,.38.08.77.19,1.51c.12,1,.25,1.92.39,2.79.07.41.15.83.22,1.25l0,.07v0h0c1.17-8.94.33-2.48.58-4.47h0v0l0-.11-.07-.24A2.71,2.71,0,0,0,369.78,396.79Zm12.68-11.18c-.09-.42-.71-.1-1.58.92-1.29,1.5-2,2.73-1.83,3.31.07.32.55.28,1.58-.9A8.27,8.27,0,0,0,382.46,385.61Zm14.32-15.05-.28.24.19.06Zm4.84-4c-.66.56-.74,1.09-.38,1.19l.61.16c-.08.31-1.14,1.06-.59,1.09l.69-1.13a5.14,5.14,0,0,0,.37-1C402.36,366.45,402.3,366,401.62,366.55Zm3.57-5.55c-.34,1.1-.32,1.8.82,1.59C407,360.8,406.56,360.48,405.19,361ZM418,350.1l-.25.37-.09.3.24-.37Zm.85-4-.21.41-.18.37.3-.43ZM429.16,328a4.33,4.33,0,0,0,.47-.51c0-.12.1-.31,0-.35a1.28,1.28,0,0,0-.45.3C428.8,328,428.78,328.18,429.16,328Zm6.4,3.77c-.25,0-.53,0-.73.16-.56.48-1.07,1.07-1.51,1.53-.06.46.18.43.66,0S435,332.34,435.56,331.79Zm5.49-4.47-.22,0-.06.29Zm11.24-11.2-.32.39.4-.29Zm.65-11.37.4-.28-.07-.11Zm7.94,3.21a5,5,0,0,0-4,3.53l-.24.41.34-.45C458.07,310,459.78,309.51,460.88,308Zm13.53-12.33-.35.38.4-.26Zm15.69-16.08a2,2,0,0,0-.49.4c-.34.5-.24.62.23.29a4.43,4.43,0,0,0,.43-.53C490.22,279.65,490.22,279.52,490.1,279.55Zm4.3-3.07-.28.24h.24ZM505,266.65c-1.32,1.12-2.13,1.76-2.85,2.45-1,.92-2.18,2.08-1.06,2,.71-.06,1.53-.9,2.11-1.77Zm7.72-6.47-.28.38c-.09.31-1.15.95-.68,1.07l.83-1.14Zm4.54-4.14a4.17,4.17,0,0,0-.6.4c-.62.56-.67.75-.14.46a3.41,3.41,0,0,0,.59-.51A1,1,0,0,0,517.27,256Zm2.91-.39a4.28,4.28,0,0,0-.49.55l.44-.19a3.94,3.94,0,0,0,.58-.51C521,255.07,520.78,255.13,520.18,255.65Zm13.43-20.92c-.23-.19-.68,0-1.34.51a.83.83,0,0,0-.23.47c.06.31.31.45,1-.11A3.35,3.35,0,0,0,533.61,234.73Zm-1.28-3.82c-.23-.36-.74-.16-1.27.47a3.22,3.22,0,0,0-.73,1.39c0,.37.68.14,1.23-.49A6.75,6.75,0,0,0,532.33,230.91ZM538.7,225l-.3.28.08.15Zm9.28-1.21-.32.18a5.77,5.77,0,0,0-.23.8c-.07.62.13.49.48-.34A1.91,1.91,0,0,0,548,223.79ZM530.3,196.46c-.27.06,0,.38.43.6a.89.89,0,0,0,.75,0c.24-.11.06-.35-.37-.58A3.85,3.85,0,0,0,530.3,196.46Zm-3.63.85.06.31a3.74,3.74,0,0,0,.63.29c.52.12.45-.07-.17-.46A1.48,1.48,0,0,0,526.67,197.31Zm-3.91-2,.45.26-.31-.32Zm-9.34-4.89c0,.22.54.65,1,.73,1,.18,1.35-.07,1-.81C514.29,190,513.48,189.87,513.42,190.38Zm-2-8.84.46.12.4,0-.49-.14Zm-5.63-1.4c-.05,0,.12.26.22.32a3.58,3.58,0,0,0,.65.23c.06-.05.23-.1.16-.16C506.38,180.15,506,180,505.76,180.14Zm-3.37,3.7c.4.34.79.48,1,.35.05,0-.11-.27-.19-.31a3.51,3.51,0,0,0-.63-.19C502.5,183.74,502.32,183.79,502.39,183.84Zm-8.46-10.59c.29.94,1.95,1.81,3.46,2.8a11.41,11.41,0,0,0,1.26,1.24c.44.35.92.39.59,0a15.92,15.92,0,0,0-1.61-1.26C496.11,175.11,497.28,174.23,493.93,173.25Zm-2.65,2.84c0,.09-.06.17,0,.27.38.39.74.52.9.32s-.13-.24-.29-.34A5.92,5.92,0,0,0,491.28,176.09Zm-3.1,5.88.45,0,3,1.37.34.25-.17-.23A5.18,5.18,0,0,0,488.6,182Zm-2.06-10.57a5.62,5.62,0,0,0,1.08.75c1.17.39,1.8.32,2,0s-.19-.48-.67-.55C487.72,171.45,486.94,171.44,486.12,171.4Zm-16.2-5.7.45.05.35,0-.48-.06Zm-8.1-2.52h.44c.67,0,1.4.08,2,0s1.39,0,.29-.56a3.31,3.31,0,0,0-1.22,0,5.94,5.94,0,0,0-1.17.45Zm-6.17-1.81c-.27.11.12.34.73.42a6,6,0,0,0,1.14,0c.12-.17-.16-.37-.77-.44A2.49,2.49,0,0,0,455.65,161.37Zm-34-2.26a2.71,2.71,0,0,0-.64.08c-.22.2.06.36.7.41a1.58,1.58,0,0,0,.63,0C422.51,159.37,422.23,159.19,421.6,159.11Zm-2.49-2.59c1.65-.58,3.5-.93,3.45-1.83C417.57,154.35,417.58,154.36,419.11,156.52Zm-12-3.39a3.1,3.1,0,0,0,2,0c.57-.25,0-.5-.65-.7a3,3,0,0,0-2,0C406.19,152.67,406.47,152.92,407.12,153.13ZM382.74,153c.05.2.47.21,1.13,0s1.51-.44,2.16-.66.28-.31-.55-.23A5.17,5.17,0,0,0,382.74,153Zm-18.93,8.74c.32.33.7.21,1.16-.21s1.37-1.14,1.45-1.42c.15-.51-.73-.09-1.4.45A14.06,14.06,0,0,0,363.81,161.75Zm-18.33,11.76a2.23,2.23,0,0,0,2.08-.11c1.22-.6,1.29-1.15,1.15-1.5s-.7-.61-2.16.27C345.78,172.63,345.37,173.1,345.48,173.51Zm-24,14.59.43-.36-.44.17Zm0,2,1-1,.15-.3-.29.34C322.21,189.39,321.06,189.88,321.53,190.07Zm-4.9,2.68.38-.33-.44.22Zm2.14,9.74c-.18.31-1.35.82-.85,1l.94-1,.23-.35Zm-6.25-5.08a5.17,5.17,0,0,0,1.13-.81c0-1-.76-1.37-3.43-.36C310.81,196.91,310.55,198,312.52,197.41Zm-17.13,11.78c3-1.53,5.48-3.76,9.51-6.53C300.24,204.6,298,207.09,295.39,209.19Zm-3.72,8.05a1.61,1.61,0,0,0,1.07-.67c.09-.13.09-.29,0-.28a1.66,1.66,0,0,0-1.07.67C291.65,217.06,291.57,217.25,291.67,217.24Zm-15.6,5.22,1.36-.77c3.18-1.42,2.71-2.46,3-3.33.34-1.07-.11-1.67-3.32.24.92.64,2.16,1,.37,3.06C277,221.89,276.58,221.65,276.07,222.46Zm-4.52,2.88c.1,0,.22.06.31,0a2.12,2.12,0,0,0,.48-.45c.24-.41,0-.4-.48,0A1.48,1.48,0,0,0,271.55,225.34Zm-19.84,19.78c0-.05-.26,0-.42.09a3.8,3.8,0,0,0-.52.43c.08,0,.11.11.24.08C251.53,245.6,251.8,245.36,251.71,245.12Zm4.57-8.84c1.78-.46,3.33-1.84,5.56-4-2.36,1-4,1.71-5.55,3.4C256.08,235.93,256.08,236.34,256.28,236.28Zm-12.08,5.86.32,0a8.75,8.75,0,0,0,1.75-.06,3.32,3.32,0,0,0,2.24-1.46c.42-.72-.16-.81-1.16-.29s-1.82,1.11-2.74,1.68Zm3.94,11.08c.36-.14.71-.23,1.1-.41s1-.65.81-.79-.63.13-1,.34A6.67,6.67,0,0,0,248.14,253.22Zm-11.75-2.65a8.75,8.75,0,0,0,2.87-2.22c.32-.39,0-.5-.46-.19A8.09,8.09,0,0,0,236.39,250.57Zm1.12,2.78c1.78-1.59,2.59-2.56,2.57-3.27a5.82,5.82,0,0,0-1.15.65A3.17,3.17,0,0,0,237.51,253.35Zm-8,.62a1.61,1.61,0,0,0,.51-.35c.38-.46.29-.57-.2-.29a4.15,4.15,0,0,0-.46.47C229.43,253.86,229.42,254,229.53,254Zm-16.2,9.47.27-.07.11-.24Zm-1.52,5.71c4-3.12,4.94-4.83,4.65-6.13l.14-.29-.3.34C216,264.55,213.71,266.7,211.81,269.15Z"/><path d="M202,272a3.06,3.06,0,0,0,.78-1.3c0-.35-.57-.21-1.29.32-1.12.83-1.12,1.25-.91,1.6C200.94,272.67,201.29,272.82,202,272Z"/><path d="M197.41,291a4.32,4.32,0,0,0,1.06-1c.27-.6-.46-.22-1.07.14a3.43,3.43,0,0,0-1.48,1.32C196,292,196.76,291.45,197.41,291Z"/><path d="M194.38,283.69c.1-.38.11-.72-.77-.22s-1,1-.91,1.33.31.26.59.12A1.81,1.81,0,0,0,194.38,283.69Z"/><path d="M189.45,294c0,.73-.46.56-.9.24a11.09,11.09,0,0,1-.91-.8l-.81-.38.28-.85c-.54-1.7-.66-1.89-.94-1.51s-.48,1-.82.36c-1.51-2.59-3.87-3.47-5.31-6l1.37.3.24.16-.23-.24c-.6-.65-1.3-1.79-1.47-.32-.65.54-1.22.11-2-1a1.05,1.05,0,0,1-.62-1.08c-1.56-2.46-3.93-4.42-4.43-7.47a2.87,2.87,0,0,0-.82-1.06,17,17,0,0,1-2.7-3.25,30.91,30.91,0,0,1-2.24-3.53c-.52-.93-1.08-1.84-1.67-2.74a28.27,28.27,0,0,0-2-2.54c-1.4-1.63-2.79-3.28-4.28-4.83-1.36-1.36-2.09-2.39-.66-2.91.48-.17.81-.64-.22-1.39-.43-.31-1.13-1.37-1.42-.38s-1.55.4-2.21-.42a58.39,58.39,0,0,0-5.31-4.8c-1.8-1.66-1.88-2.25-.53-3.36a11.24,11.24,0,0,0,.89-1l-6-2.26c.52.39,1,.82,1.57,1.16s1.64.6,1.71,1.31c.06.47-.41.88-.9,1a2.77,2.77,0,0,1-2.31-1.13,2.42,2.42,0,0,1-.64-2.39,17.59,17.59,0,0,1-3.24-1.14,20.32,20.32,0,0,1-3.24-2c-.7-.5-1.38-1-2.1-1.52l-2.18-1.39q-2.19-1.4-4.41-2.76c-1.53-.81-3.09-1.58-4.65-2.32a33.06,33.06,0,0,0-4.82-2c-2.56-.83-2.71-1.19-1.91-3.21l.25-.09-.29,0c-1-.63-2.28-1.92-2.33-.28-.05,1.27-1,1.48-2.56.62a18.06,18.06,0,0,0-4.26-1.68l-2.17-.57c-.73-.17-1.47-.3-2.19-.5-1.83-.49-3.8-.39-4.77-2.06-.3-.53-1.06-.49-1.63-.39a14,14,0,0,1-5.09-.3c-.82-.2-1.63-.45-2.44-.73s-1.65-.52-2.47-.81a7,7,0,0,0-3.26-.54c-3.16.38-6.73-.34-9.7-.92-1-.21-2.06-.39-3.09-.55l-5.25-.75c-3.5-.51-7-1-10.27-1.69-1.63-.33-3.29-.65-4.78-1.05s-3-.77-4.45-1.17c-2.89-.8-5.66-1.65-8.22-2.55-1-.34-2.13-.69-3.31-1l-.91-.24a2.94,2.94,0,0,1-.79-.25c-.33-.18-.69-.36-1.05-.54,1.82-1.27,3.64-2.56,5.75-3.87a54.6,54.6,0,0,1,7.2-3.81,57.38,57.38,0,0,1,8.82-6.14c3.36-2,6.63-4,9.66-6.21l1-.72.63-.52a11.77,11.77,0,0,1,1.39-.95,3.15,3.15,0,0,1,3-.33c.93.45,1.75-.95,1.93-1.35,1.29-2.82,4.31-4.43,7.18-6.19,1.15-.7,1.7-.51,2.08,0-.77.69-1.52,1.41-.7,1.77a2.36,2.36,0,0,0,1.22-.52c1.42-1.24-.31-.83-.46-1.26,1.13-1.27,2.81-2.28,3.77-3.63s2.29-.09,2.81-1.17a7.94,7.94,0,0,1,3-2.89l1.45-1c1,.72.54,2.21,1.13,3.1l-.1.26.16-.26c.88-.37,1.68.21,2.48-.65,1.16-1.26-.64-.62-.94-1-.78-.92,1.18-2.56.5-3.42,2.38-1.34,2,.46,3.26.27l.49-.47,0,.44.84-.33c0-4.12,5-5.75,8.5-8.19,1.24.76-1,2.23-.51,3,.14.22.47.52.7.42.69-.28.35-.55.3-.79-.22-1.31,2.65-1.05,2.64-2.45a3.23,3.23,0,0,1,1.17-3c1.38-.33.16,2.07,2.44.77a1.83,1.83,0,0,0,1.5.37,1.67,1.67,0,0,0,1.73-1c1.52-1.13,1.52-1.13,1.16-2.28-.47.86-.85,1.57-1.23,2.28l-1.61.9-1.49-.32a1.16,1.16,0,0,1,.34-1.83c2-1.33,3.24-3.2,5.32-4.35a108.06,108.06,0,0,0,9.42-6c.8-.56,1.21-.72,1.8-.32.84.57,1.22.39,1.56-.46.61-1.46,1.35-2.59,3.46-2.71.62,0,.7-.34.93-.66,2.14-3,5.95-4,8.87-6.1.29-.21.84-.14,1.28-.21s.23.92,1.13.26c.17-.12-.51-.41-1.07-.34.22-.35.37-.83.69-1,5.13-3.24,10.19-6.69,15.48-9.54a91.13,91.13,0,0,0,12.59-7.93c1.5-1.15,3.26-2.71,4.64-1.55l-.09.25.19-.25c1.15-.76,1.63-1.95,3.46-2.4,1.49-.36,2.9-1.77,4.14-3a30.27,30.27,0,0,1,3-2.48c2.56-1.86,2.58-1.83,3.76-.06-.5.88-2.15,1.89-1.39,2.9a6.88,6.88,0,0,0,1.54-2.91c1.21-2.31,4-4.18,6.28-5.65,1.7-1.12,3.36-2.5,5.27-3.74a17.08,17.08,0,0,1,6.55-2.73,40.17,40.17,0,0,1,4.8-1.85,33.62,33.62,0,0,1,5.21-1.21c3.27-1,6.49-.33,9.25,0,2.4.25,1.35,1.7.57,2.62l-.2.14.3-.08c.8-.16,1.63-.26,1.9-.79.64-1.23,1.29-2.53,4.33-.81a1.82,1.82,0,0,0,1,.15,14.82,14.82,0,0,1,6.88,0,28.92,28.92,0,0,0,6.92.78,2.9,2.9,0,0,1,1,.13c1.6.45,3.85,1.63,4.6,1.41,1.91-.54,3.73.34,5.41.28a9.94,9.94,0,0,1,3.88.87,7.69,7.69,0,0,0,3.94.66c.61-.09.92.58.93,1s-.39.86-1,1.15-1.31.65,0,1.08a1.67,1.67,0,0,0,1.81-.45c1.54-1.75,3.25-2,7.12-.88s7.48,2.29,11.29,3.18c2.4.53,3.24,1.91,4.91,2.82l.25.18-.13-.21c-.07-.8.57-1.22,2-.94,1,.2,1.26.76,1,1.25l-.23.11.29,0c1.49.73-.56,1.54,1.4,2.25a1,1,0,0,1-.17.47l-.26.08h.34c.1,0,.28,0,.29-.1a1.53,1.53,0,0,0-.1-.45c.05-.18,0-.43.15-.54,2.11-1.4,2.4-1.33,4.54,1.63.32-2,2.6-2,4.61-.72,3.94,2.49,9.65,3,12.61,6.44a57.9,57.9,0,0,1,6.77,3.13c2.16,1.18,4.28,2.39,6.49,3.51a151.64,151.64,0,0,1,15.68,9.41,41.85,41.85,0,0,1,9.82,9,24.43,24.43,0,0,1,5.12,11.69,4.82,4.82,0,0,1-2.56-1.45,14.72,14.72,0,0,1-1.15-1.2l-1.1-1.4a37.49,37.49,0,0,0-4.87-5.05c-1.78-1.54-3.61-3-5.44-4.55a6.83,6.83,0,0,0-1.64-1.1c-6.78-2.78-13.22-6.52-20.05-9.76a183.9,183.9,0,0,0-24.88-9.62L298.59,112c-2.85-.84-5.69-1.76-8.56-2.52a144.77,144.77,0,0,0-17.35-3.9c-8.31-1.28-16.57-3.34-25-3.41a35.45,35.45,0,0,1-4.52-.49c-5.49-.6-11.18-1.27-16.15-.84a24.12,24.12,0,0,0-7,1.66,44.84,44.84,0,0,0-6.78,3.53c-1.09.67-2.24,1.35-3.4,2-9.27,5.37-18.12,11.38-27.05,17.26-5,3.26-10.09,6.32-15.1,9.54l-21.39,13.87c-8.1,5.27-16.34,10.36-24.24,15.91-4.42,3.11-9.24,5.77-13.67,8.87-4.16,2.91-8.67,5.36-12.64,8.52a41.56,41.56,0,0,1-4.21,2.87c-3.77,2.33-7.41,4.82-11,7.33L75.06,196l-2.72,1.89-.34.24-.08.05,0,0,0,0-.07.08-.14.15c-.27.29-.52.5-.73.7s-.37.36-.3.46,0,0,0,0a9.84,9.84,0,0,1,1.32,0,2.31,2.31,0,0,0,.37,0h.13l.31,0,3.59.36a148.66,148.66,0,0,1,21.9,3.36l2.77.62c.92.23,1.82.52,2.73.78l5.44,1.6c.91.25,1.79.59,2.68.91l2.66,1c1.76.67,3.57,1.24,5.29,2,3.8,1.68,7.75,3.1,11.44,5l2.8,1.37a30,30,0,0,1,2.74,1.48c1.78,1.06,3.53,2.15,5.22,3.29,9.78,6.82,19.57,13.9,27.27,23,.83,1,1.73,1.9,2.55,2.91l2.52,3,2.56,3c.86,1,1.61,2,2.42,3.07s1.56,2.08,2.3,3.14l1.1,1.58c.34.54.66,1.1,1,1.65,1.3,2.22,2.62,4.41,4,6.59s2.56,4.68,3.75,7.05,2.08,4.89,3.13,7.31c.8,1.74,2.08,4.16.28,4.55.13.78.34,1.68-.39,1.51-.32-.07-.64-.55-.75-1.08-.17-.86.36-.71.65-.9a8.33,8.33,0,0,0-1.31-3.38,2.66,2.66,0,0,0-2.1-.88c-1.43-.11-2.6.57-4.18,0l-.2-.09.2.2c.26,1.53.93,3.25,1.3,4.81s.27,3-.73,3.93a2.67,2.67,0,0,0,.24.61,3.21,3.21,0,0,1,.81-.15A1.06,1.06,0,0,1,189.45,294Zm142-176.41.31.1-.21-.19Zm-12.33-5.71.26.16.05-.11ZM315.89,109l.33.08-.23-.19ZM311,107.44a1.84,1.84,0,0,1-.19.51l-.29,0h.33c.11,0,.28-.05.29-.11a1.48,1.48,0,0,0-.05-.46l-.27-.23Zm-11.51,2.27a3.64,3.64,0,0,0,.78.3,3.93,3.93,0,0,0-.49-.83,2.21,2.21,0,0,0-.69-.29C298.78,109.17,299.21,109.45,299.51,109.71ZM295.33,103l.24.1,0-.2Zm-7.08-1.85c-.05.08.15.25.23.38a4.32,4.32,0,0,0,.57-.28c.2-.16.09-.3-.29-.38C288.58,101,288.33,101.05,288.25,101.18Zm-7.54-1.26a2.27,2.27,0,0,0,.32.22c.42.15.64.12.54,0s-.26-.1-.41-.15Zm-1.15,4.38a1.16,1.16,0,0,0,.31.22c.41.15.63.12.53-.07s-.26-.1-.4-.15Zm-15.63-8.7.24.07,0-.19Zm-5.21-.46,0,.18.19-.12Zm-6-.78a1.38,1.38,0,0,0,.76.18.6.6,0,0,0,.4-.41c.07-.22-.17-.34-.53-.33S252.52,94,252.73,94.36Zm-12.8-1c2.17.4,3.49-.15,5-.07l.28.15-.19-.19A5.53,5.53,0,0,0,239.93,93.35Zm-11.42-1.14c-.1.36.22.58.84.5.91-.11,1.46-.45,1.51-.95,0-.27-.17-.61-.82-.54C229.08,91.33,228.93,91.86,228.51,92.21Zm-13.82,3.07.24-.07-.12-.14Zm-4.07,1.23c.54-.2.67-.61.41-.84l-.44-.4c.1-.23,1-.41.57-.67l-.65.67a3.56,3.56,0,0,0-.39.7C210.06,96.29,210.06,96.71,210.62,96.51Zm-3,3.2c.29-.78.32-1.38-.54-1.65C206.29,99.19,206.6,99.62,207.62,99.71Zm-9.57,4.16.19-.22.07-.21-.18.22Zm-.63,3,.16-.25.13-.24-.22.24Zm-7.53,11.22c-.06,0-.23.16-.34.25s-.08.22,0,.28.26,0,.33-.08C190.16,118.26,190.17,118.09,189.89,118.08Zm-4.75-5.49c.19,0,.4.2.54.13a11.23,11.23,0,0,0,1.11-.72c0-.36-.14-.43-.49-.22S185.53,112.32,185.14,112.59Zm-4,1.73.16.12,0-.22ZM173,119.65l.23-.21-.29.1Zm-.26,9.31-.29.1.06.12Zm-5.93-5.49a2.13,2.13,0,0,0,2.85-1.57l.17-.26-.24.25C168.84,122.75,167.58,122.55,166.8,123.47Zm-9.68,5.69.25-.2-.29.08Zm-11,8.3a.65.65,0,0,0,.34-.17c.23-.31.16-.44-.18-.32-.1,0-.2.19-.3.3S146,137.45,146.08,137.46ZM143,138.64l.19-.12-.18-.08Zm-7.41,4.88c.92-.53,1.49-.81,2-1.16.68-.46,1.52-1.06.7-1.35-.53-.19-1.1.27-1.49.81S136.16,142.73,135.61,143.52Zm-5.4,3,.19-.23c.06-.23.81-.45.46-.69l-.57.69Zm-3.13,2.09a1.9,1.9,0,0,0,.42-.15c.43-.28.45-.43.08-.34a1,1,0,0,0-.41.24C127.1,148.45,127.11,148.55,127.08,148.63Zm-2.13-.58a2.42,2.42,0,0,0,.33-.31l-.32,0c-.13.08-.34.16-.4.25C124.37,148.28,124.53,148.31,125,148.05Zm-8.76,13.61c.17.25.5.27,1,0a.41.41,0,0,0,.16-.31c-.06-.29-.25-.49-.76-.26C116.42,161.18,116.31,161.48,116.19,161.66Zm1,3.68c.17.38.57.39,1,0a1.61,1.61,0,0,0,.57-.94c0-.32-.52-.34-.94,0A3.41,3.41,0,0,0,117.15,165.34Zm-5.58,2.07.29-.07,0-.15Zm-6.8-4.93.24.13a1.58,1.58,0,0,0,.32-.31c.15-.32,0-.38-.39-.12C104.85,162.23,104.82,162.38,104.77,162.48Zm-15,12.06c0,.23.27.22.48,0a.65.65,0,0,0,.1-.56c-.06-.23-.25-.22-.47,0A2.73,2.73,0,0,0,89.72,174.54Zm.17,3.14.24.12a1.73,1.73,0,0,0,.3-.31c.16-.32,0-.37-.37-.12C90,177.43,90,177.57,89.89,177.68Zm-2,1.81.26-.2-.28.06Zm-5.07,4.09c.16.14.57,0,.71-.29.3-.6.17-1-.42-1.16C82.62,182.73,82.42,183.25,82.77,183.58ZM76,179.93l.18-.24.1-.25-.19.25ZM74,183c0,.06.21.08.27,0a2.87,2.87,0,0,0,.29-.31c0-.08,0-.22-.08-.21C74.09,182.55,73.9,182.74,74,183Zm1.93,4.51c.34-.06.52-.25.47-.48,0-.05-.22-.07-.26,0a1.63,1.63,0,0,0-.27.31C75.85,187.34,75.84,187.49,75.89,187.48Zm-9.44-1c.72.4,1.77,0,2.79-.44A5.76,5.76,0,0,0,70.4,186c.34-.08.47-.37.15-.37a6.53,6.53,0,0,0-1.24.3C68.29,186.3,67.94,185,66.45,186.48ZM67.78,190c.06,0,.1.14.19.14.37,0,.56-.15.46-.38,0-.05-.2-.06-.31,0A1.54,1.54,0,0,0,67.78,190Zm3.33,5.73.14-.27,1.75-1,.28-.06-.22,0a2.12,2.12,0,0,0-1.84,1.15Zm-8.73-5a4.45,4.45,0,0,0,1.08-.34c.73-.58.89-1.07.67-1.42s-.49-.12-.73.2A17.21,17.21,0,0,0,62.38,190.74Zm-11.06,7.41.13-.2,0-.15-.16.21Zm-5.63,3.59,0-.15c.06-.25.24-.54.2-.76s.1-.57-1.17,0c-.19.09-.24.4-.12.49a3,3,0,0,0,.93.32Zm-4.56,2.78a1.78,1.78,0,0,0,1.08-.43c.14-.16,0-.24-.05-.35a2,2,0,0,0-1.15.46C40.85,204.36,40.9,204.5,41.13,204.52Zm24.63,2.61a1.62,1.62,0,0,0,.44-.07c.26-.18.2-.33-.13-.37a1,1,0,0,0-.42.07C65.37,206.94,65.42,207.07,65.76,207.13Zm0,2.38c-1.53.55-3.3.77-3.92,1.59,2,.27,3.07.35,3.53.15S65.77,210.52,65.79,209.51ZM73.47,213a1.17,1.17,0,0,0-1.22,0c-.37.24,0,.5.33.71a1.15,1.15,0,0,0,1.21.06C74,213.49,73.85,213.24,73.47,213Zm13.91,2.57c0-.2-.16-.34-.54-.31a7.85,7.85,0,0,0-1.24.19c-.31.08-.2.24.23.33A1.87,1.87,0,0,0,87.38,215.59ZM98.51,218c.06-.46-.14-.62-.51-.62s-1.07,0-1.24.18.21.51.72.52S98.32,218,98.51,218Zm12.2,3.91c-.07-.4,0-.92-.65-1.35s-1-.1-1.2.23-.16.9.76,1.3C110.11,222.27,110.49,222.23,110.71,221.89Zm14.55,7.68-.32-.1.2.21Zm1.33-1.16-.87-.12-.23.07h.28C126,228.32,126.55,228.86,126.59,228.41Zm2.66,2-.29-.1.22.2Zm6.52-6.87c.25,0,.81.58.85.11l-.89-.17h-.28Zm-2.7,7.38a1.81,1.81,0,0,0-.73-.39c-.7.54-.85,1.3.2,2.71C132.93,232.46,133.75,232.07,133.07,230.93Zm10.32,6.87c-1.36-1.53-3.23-2.31-5.63-4C139.6,236.38,141.62,236.86,143.39,237.8Zm6.35-.73a.67.67,0,0,0-.57-.53c-.11,0-.23.06-.22.13a.67.67,0,0,0,.57.54C149.59,237.16,149.75,237.15,149.74,237.07Zm4.25,9.8-.59-.74c-1.06-1.88-1.9-1.11-2.57-1-.83.17-1.29.75.13,2.42.53-.94.79-2,2.42-1.46C153.56,246.38,153.36,246.78,154,246.87Zm2.16,2.34c0-.08.07-.2,0-.24a.76.76,0,0,0-.34-.2c-.32,0-.33.13,0,.36C155.9,249.2,156,249.18,156.15,249.21Zm14.55,9.14s0,.2,0,.3a1.56,1.56,0,0,0,.29.28c0-.07.12-.11.11-.2C171.09,258.37,170.92,258.22,170.7,258.35Zm-6.85-1.11c-.18-1.21-1.11-2-2.73-3a14.61,14.61,0,0,0,.93,1.86,3.22,3.22,0,0,0,1.31,1.3C163.53,257.49,163.87,257.38,163.85,257.24Zm3.19,7.47,0-.23a6.65,6.65,0,0,0,.26-1.3,1.21,1.21,0,0,0-.89-1.3c-.55-.11-.7.33-.41.94s.63,1.08,1,1.62Zm10-5.4a4.29,4.29,0,0,0-.18-.77c-.13-.37-.4-.62-.55-.47s0,.46.15.68A3.11,3.11,0,0,0,177.07,259.31Zm-4.31,9.32a3,3,0,0,0-1.38-1.64c-.27-.15-.42.08-.24.38A3.06,3.06,0,0,0,172.76,268.63Zm2.59-1.34c-1-1-1.73-1.42-2.33-1.27a1.85,1.85,0,0,0,.35.72C174,267.49,174.52,267.33,175.35,267.29Zm-1.23,5.79a.58.58,0,0,0-.18-.31c-.31-.2-.43-.12-.3.19,0,.09.19.17.3.25S174.11,273.16,174.12,273.08ZM178,283.36v-.18l-.17-.05Zm4.48.61a6.23,6.23,0,0,0-2.09-2.46,2.22,2.22,0,0,0-1.86-.29l-.21-.06.21.17a3.71,3.71,0,0,1,1.86.9l1,.82C181.71,283.35,182.06,283.67,182.44,284Z"/><path d="M181.7,290.57a1.4,1.4,0,0,0-.87-.47c-.29,0-.37.39-.16.84.34.71.72.7,1.09.54C181.88,291.26,182.14,291,181.7,290.57Z"/><path d="M196.56,293.94a2,2,0,0,0-.49-.78c-.44-.22-.37.3-.28.74s.28,1,.63,1.08C196.89,295,196.73,294.42,196.56,293.94Z"/><path d="M189,295.66c-.29-.07-.59-.09-.49.51s.54.69.82.64a.4.4,0,0,0,.34-.38A.79.79,0,0,0,189,295.66Z"/><path d="M340.53,396.88c-.14.3-.54.35-.86.33a5.67,5.67,0,0,1-.62-.12l-.64,0,.46-.44c-.08-.6-.14-.65-.48-.41s-.67.56-.82.36c-.62-.78-2.34-.63-2.85-1.44l1.1-.2H336l-.12-.05c-.33-.15-.6-.5-1.18.22-.7.4-1.12.37-1.37,0-.32,0-.34-.13-.16-.36-.47-.82-1.94-1.1-1.11-2.57.07-.13-.12-.28-.27-.35a2.59,2.59,0,0,1-1.28-2.37,8.7,8.7,0,0,0-1.62-3.86c-.34-.52-.39-1,.87-1.57.42-.19.88-.53.48-.76-.16-.1-.17-.58-.83.06s-1.3.55-1.39.2a7.66,7.66,0,0,0-1.24-2c-.44-.66-.12-1.07,1.3-2,.31-.19.6-.42,1.1-.78l-2.73-.46a3.21,3.21,0,0,0,.42.48c.21.15.75.11.44.55a2.8,2.8,0,0,1-1.09.77c-.53.21-.87,0-.91-.33s.34-.94.8-1.42a2.33,2.33,0,0,1-2.28-1.14c-.61-.95-1.25-1.89-1.95-2.78a8.56,8.56,0,0,0-2.53-2.29c-.79-.46-.65-.72.92-2.21l.18-.08-.17,0c-.11-.41,0-1.27-1-.08-.75.9-1.41,1.16-1.58.52-.29-1.15-1.46-1.35-2.22-2-.47-.41-1.36-.37-.75-1.65.19-.4-.16-.38-.42-.36a2,2,0,0,1-1.72-.59,4.13,4.13,0,0,1-.87-1.54c-.15-.39-.28-.73-.78-.74-1.3,0-1.95-1-2.53-1.81-1.62-2.15-4.12-3.23-5.71-5.41-.85-1.22-2.81-1-3.07-2.94-1.79.06-2.32-1.8-3.86-2.16-.62-.14-1.7-.14-1-1.93.33-.84-.46-.46-.68-.33-1.6,1-2.35.16-3.24-.42-.36-.23-.22-.69.09-1.23.37,0,.75,0,1-.71a.36.36,0,0,0-.25-.4c-.66-.06-.5.71-.75,1.08-.69.13-1.2-.23-1.94.07s0-1.31-.56-.93a1.35,1.35,0,0,1-1.53.09l-.5-.23a23.06,23.06,0,0,1,1.78-2.71l.14-.1-.15.07c-.18-.29.16-1.15-.31-1.06-.69.13-.36.79-.56,1.19-.54,1.07-1.42,1-1.91,2-.69-.53.3-1.51.21-2.12l-.25,0,.25-.27-.17-.28c-2.28,2.73-3.06.78-4.38.4.41-1.25,1.2-.94,1.61-1.72.12-.23.28-.63.23-.7s-.3.17-.43.35c-.71,1-.57-.86-1.32.1-.47.6-1,1.37-1.62,1.38-.18-.6,1.1-1.51.39-2a2.31,2.31,0,0,0,.18-1.15c0-.55-.18-.59-.56-.33-.62-.13-.62-.13-1.21.88l1.21-.83.49.34-.16,1.11c-.23.58-.67,1.18-1,1.06-.71-.3-1.7.27-2.31-.18a10.59,10.59,0,0,0-3.27-1.38c-.3-.08-.4-.21-.21-.84.26-.9.16-1-.28-.61-.75.67-1.32,1-1.47-.12,0-.34-.19-.17-.36-.08-1.54.86-2.22-.63-3.36-.86-.11,0-.11-.39-.16-.61s.42-.79.07-.85c-.07,0-.18.6-.11.88-.18.12-.42.38-.53.33a28.51,28.51,0,0,1-5.4-2.1A9.49,9.49,0,0,0,257,334.1c-.63,0-1.46.14-1.08-1.53l.12-.14-.13.08c-.44-.1-1,.53-1.36-.19s-1-.34-1.67-.17a3.88,3.88,0,0,1-1.34.14c-1-.07-1-.08-.41-2.11.43-.4,1-.22,1.38-1.41a4.15,4.15,0,0,0-1.4,1.33,3,3,0,0,1-3,.7c-1.3-.25-2.92.41-3.85-1.11l-2.69-.49c-1,.35-1.65-.55-2.41-.9s0-1.67.49-2.55l.1-.13-.11.07a1.21,1.21,0,0,0-.8.73c-.51,1.19-1,2.43-1.61.79,0-.12-.2-.2-.28-.14-1.76,1.28-2.81-.95-4.43-.37a.33.33,0,0,1-.31-.07c-.44-.38-1-1.32-1.28-1.06-.76.65-1.21-.07-1.81.18-1,.39-1.36-1.42-2.44-.66-.23.16-.22-.45-.16-.82a2.72,2.72,0,0,1,.54-1.22c.24-.34.57-.78.18-1.05-.19-.14-.47.11-.71.65-.83,1.87-1.47,2.37-2.66,1.82a11.16,11.16,0,0,0-3.56-1.15c-.78-.09-.91-1.21-1.4-1.74l-.07-.12,0,.17c-.08.75-.36,1.29-.83,1.31s-.36-.47-.22-1l.1-.16-.12.12c-.45-.36.39-1.59-.24-1.83a2.07,2.07,0,0,1,.12-.49l.1-.13-.13.08c0,.06-.11.11-.11.16a2.82,2.82,0,0,0,0,.41,2.14,2.14,0,0,1-.12.54c-.93,1.82-1,1.81-1.47-.52-.33,1.94-1.17,2.52-1.77,1.82-1.18-1.39-3.23-.29-4-2.63-1.61-.24-3-1.38-4.48-2a51.33,51.33,0,0,0-5.5-2.08c-2.68-.72-5.33-1.77-7.31-4.86.68-1.47,1.54-1.71,2.38-1.64,1.63.14,3.32-.12,4.87.51a.88.88,0,0,0,.67.08c2.74-1.05,5.15,0,7.55.82a55.76,55.76,0,0,0,8.72,2c3.94.63,7.69,2.16,11.68,2.5,2.86.24,5.45,1.61,8.4,1.41a4,4,0,0,1,1.5.36,42.63,42.63,0,0,0,5.45,1.38c1.84.39,3.71.69,5.57,1a8.69,8.69,0,0,1,1.32.39,94.83,94.83,0,0,0,10.49,2.69c2,.51,3.84,1.23,5.77,1.84l4.13,1.31c1.37.45,2.74.94,4.11,1.42,1.56.53,3.08,1.18,4.61,1.8s3.09,1.19,4.69,1.71c1.78.58,3.36,1.66,5.1,2.34s3.07,1.71,4.84,2.14a5.61,5.61,0,0,1,1.61.74c2.61,1.6,5.49,2.75,8.23,4.2,1.1.63,2.17,1.31,3.25,2l3.26,2a38.63,38.63,0,0,1,4.2,2.89c1.32,1.06,2.64,2.14,4,3.12a81.14,81.14,0,0,1,10.94,10.28c.94,1,2,1.91,3,2.92a18,18,0,0,1,2.61,3.24c2,3.51,4.89,6.42,6.33,10.28a41.84,41.84,0,0,0,2.4,4.72,12.61,12.61,0,0,1,1,2.44,19.35,19.35,0,0,0,.85,2.5,18.89,18.89,0,0,1,.89,2.56c.23.88.37,1.8.56,2.69.14.65.78,1.37-.94,2-.07.32-.09.66-.7.76-.27.05-.45-.08-.42-.28s.49-.41.79-.56c.09-1.34-.14-1.53-1.81-1.12a31.34,31.34,0,0,1-3.62,1h-.16l.12,0c-.45,1.29.34,2.53-1.9,3.81a.31.31,0,0,0,.07.21,6.32,6.32,0,0,1,.76-.27C340.32,396.55,340.66,396.58,340.53,396.88ZM208,316.23h-.11l.06.11Zm4.16,1.66-.08-.08,0,.12Zm.92,1.9-.11,0,.06.11Zm1.65.18a4.54,4.54,0,0,1,.12-.53l.11-.12-.12.08c0,.06-.11.11-.12.17s0,.28,0,.42l.08.16Zm4.51-4.82c0-.09-.17-.07-.26-.11a4.66,4.66,0,0,0,.09.68c0,.1.15.1.22.14A.71.71,0,0,0,219.25,315.15Zm.71,5.55-.07-.05,0,.18Zm2.31.48a.83.83,0,0,0,0-.34c-.08.13-.17.24-.24.38s-.08.3.05.32A1.51,1.51,0,0,0,222.27,321.18Zm2.53,0a.91.91,0,0,0-.08-.17c-.13-.09-.21,0-.2.13s.08.06.12.09Zm1.09-4.39c0-.06,0-.15-.08-.17s-.21,0-.2.13.08.07.12.1Zm4.1,6.61-.07-.05,0,.19Zm1.72.05,0-.18-.09.13Zm1.9.4c0-.08-.16-.18-.22-.13a1,1,0,0,0-.22.41c-.07.21,0,.32.11.29A.6.6,0,0,0,233.61,323.87Zm4.11.63c-.63-.38-1.19.15-1.67.12l-.06-.14,0,.18C236.43,325.24,236.89,325.46,237.72,324.5Zm3.33,1.41c.13-.34.1-.59-.1-.56s-.55.34-.7.82c-.08.26-.11.59.1.57S240.84,326.21,241.05,325.91Zm4,.95-.06-.05,0,.17Zm1,1c-.14-.13-.31.15-.37.47l-.1.54c-.1.14-.28-.15-.33.27l.34-.22a2.76,2.76,0,0,0,.31-.37C246,328.29,246.18,327.94,246,327.82Zm1.63-.92a2.46,2.46,0,0,0-.6,1.59A1.61,1.61,0,0,0,247.66,326.9Zm2.78,2.3-.11.06-.1.12.11-.06Zm1.33-1.92-.12.1-.12.11.13-.05Zm5.63-4.12s.1,0,.15,0a.76.76,0,0,0,.12-.19s0-.14-.07-.14A.26.26,0,0,0,257.4,323.16Zm-1.93,6.9c0-.14.05-.38,0-.41a1.35,1.35,0,0,0-.42-.1c-.16.25-.18.41-.05.45A2.32,2.32,0,0,0,255.47,330.06Zm1.13,1,0-.18-.1.14Zm3.07.77-.11,0,.07.1Zm4.26-6.76.07.1.05-.12Zm-2,7.54c.07-1.1-.24-1.26-.94-.5l-.13.09.14,0C261.41,332,261.42,332.85,261.89,332.63Zm3.31,1.51h-.11l.06.11Zm4.61.49s-.07-.1-.11-.08-.22.23-.14.34.1,0,.16,0A.79.79,0,0,0,269.81,334.63Zm.72,1-.06,0,0,.17Zm2.74.91a3.67,3.67,0,0,0-.66-.37c-.26-.07-.59-.14-.7.56-.07.44.18.45.46.3Zm1.7,1.08-.12.05c-.12.13-.25-.16-.37.22l.37-.16Zm1.16.4c0-.05-.05-.13-.09-.15s-.24,0-.18.2.08.07.14.07S276.08,338,276.13,338Zm-.25,1.67s-.11,0-.16,0v.18s.1.09.14.06S276,339.73,275.88,339.66Zm7.3-4.14c.13-.27.13-.48,0-.6s-.13.06-.17.12c-.15.22-.26.48-.13.63S283.07,335.58,283.18,335.52Zm2-3.07c.2-.36.2-.6,0-.61a.79.79,0,0,0-.52.29c-.17.23-.16.54,0,.56S285,332.52,285.14,332.45Zm1.21,2,0-.12-.08.11Zm-2.67,7.4.07-.23c-.06,0-.11,0-.17,0s-.2.25-.07.31S283.62,341.85,283.68,341.81Zm6.47,1.11c.14-.16.14-.31,0-.28a1,1,0,0,0-.32.3c-.13.19-.13.3,0,.29A2.5,2.5,0,0,0,290.15,342.92Zm1.81-2.13.07-.22s-.11,0-.16,0-.22.23-.08.3S291.9,340.83,292,340.79Zm1,.08-.11,0,0,.12Zm2.24.47c.09-.19,0-.33-.15-.24a1.47,1.47,0,0,0-.7,1A1.38,1.38,0,0,0,295.19,341.34Zm-2.44,6.35-.14,0-.14.1.14-.05Zm1.68-.65s.05-.18,0-.19-.11,0-.17,0-.13.15-.12.18S294.28,347.22,294.43,347Zm2.78-4c0-.17-.12-.17-.26,0s-.06.18,0,.18.11,0,.17,0S297.22,343.1,297.21,343.08Zm-1.14,6.3A1.41,1.41,0,0,0,296,348a3.66,3.66,0,0,0,0-.65c0-.15-.2-.05-.22.14a1.69,1.69,0,0,0,.11.56C296.08,348.38,295.26,349.41,296.07,349.38Zm2.22-2.95c0-.07.09-.14.09-.2,0-.23-.05-.24-.2,0a.29.29,0,0,0,0,.2S298.24,346.42,298.29,346.43Zm3.69-5.5-.16.08-.55-.43,0-.12,0,.15c0,.42.15.66.61.42ZM298.13,349c0-.15,0-.38,0-.39-.26,0-.53.17-.77.51s-.14.34,0,.28S297.86,349.17,298.13,349Zm2.91,1.7-.13,0-.14.09.14,0Zm1.34,1-.14.07a3.83,3.83,0,0,0-.62.22c-.18.09-.45.19-.38.49,0,0,.26-.06.39-.16s.4-.34.6-.51Zm.94.85c.14-.12.15-.27,0-.28a1.43,1.43,0,0,0-.36.13c-.13.16-.15.29,0,.3A.65.65,0,0,0,303.32,352.57Zm7.82.94c.06,0,.14,0,.18,0s.21-.29.1-.37a.17.17,0,0,0-.18,0C311.08,353.28,311.05,353.41,311.14,353.51Zm-1.05,2.18a4.4,4.4,0,0,0-1.84,1.27C309.08,357.47,309.09,357.47,310.09,355.69Zm.24,3.46c0-.24-.14-.28-.37-.15a.68.68,0,0,0-.33.59c0,.22.1.32.36.18A.87.87,0,0,0,310.33,359.15Zm3,3.55c.13-.15.15-.27,0-.29a2.49,2.49,0,0,0-.54,0c-.16,0-.22.17-.13.28S313,362.88,313.32,362.7Zm2.72,2.59c.3-.34.31-.46.15-.47a.93.93,0,0,0-.57,0c-.29.21-.24.41-.05.46A1.66,1.66,0,0,0,316,365.29Zm3,3c.2-.29.57-.68.51-1s-.41-.06-.68.18-.61.67-.43.95S318.69,368.56,319,368.3Zm2.8,4.75-.1-.05,0,.14Zm1.37-.92-.39,0-.16.07.14,0C322.92,372.11,322.89,372.45,323.17,372.13Zm.28,1.19-.11,0v.12ZM331,367.9c.16,0,.14.31.43,0l-.42,0-.17,0Zm-5.61,5.34c0-.09-.16-.22-.2-.19a2.77,2.77,0,0,0-1.38,1.82C324.44,374.29,325.12,373.94,325.36,373.24Zm2.43,3.27c0-.83-.71-1.1-1.29-1.87C326.27,376.07,327.22,376.12,327.79,376.51Zm4.44-1.47c.11-.16.07-.26-.11-.25a.51.51,0,0,0-.2.12c-.12.17-.07.25.09.25A.75.75,0,0,0,332.23,375Zm-2.08,5.4,0-.36c.2-1-.74-.33-1.25-.13-.66.26-1.25.7-1.11,1.47.82-.68,1.53-1.39,2.35-1.33C330.11,380.21,329.77,380.5,330.15,380.44Zm.31,1.05c.05-.06.14-.13.13-.15a.1.1,0,0,0-.13-.06c-.21,0-.28.13-.19.22S330.4,381.49,330.46,381.49Zm6.49,2.3a.28.28,0,0,0-.11.16c0,.05.06.07.09.1a.84.84,0,0,0,.17-.13C337.23,383.72,337.16,383.67,337,383.79Zm-4.62.82c.41-.66,0-.89-.66-1.15-.2.72-.37,1.22.23,1.34A.74.74,0,0,0,332.33,384.61Zm-.83,3.47.12-.13a8.32,8.32,0,0,0,.71-.76c.21-.26.33-.58-.12-.52a.87.87,0,0,0-.71.61,2.12,2.12,0,0,0,.07.67Zm10-5.18a3,3,0,0,0,.16-.37c0-.17-.07-.24-.25-.13a.44.44,0,0,0-.15.33C341.27,382.82,341.41,382.85,341.5,382.9Zm-7.1,6a.42.42,0,0,0-.42-.57c-.15,0-.36.14-.34.26C333.68,388.85,334,388.86,334.4,388.87Zm2.58-1.31a1.2,1.2,0,0,0-1.33-.14s-.07.24,0,.3C335.84,388,336.29,387.78,337,387.56Zm-3.14,3.26a.08.08,0,0,0,0-.12c-.17,0-.29,0-.3.17s.09,0,.14.06S333.81,390.86,333.84,390.82Zm-.37,4.12.07-.09-.13,0Zm3.63-.82c-.49-.84-1.36-.79-2.48-.34l-.15,0,.12,0A5,5,0,0,1,337.1,394.12Z"/><path d="M334.52,397.33a1,1,0,0,0-.61,0c-.25.07-.44.27-.39.42s.41.14.78,0C334.47,397.6,334.76,397.42,334.52,397.33Z"/><path d="M346.91,395.09c0-.1-.14-.23-.26-.22a.39.39,0,0,0-.42.39c0,.18,0,.35.31.32S347,395.25,346.91,395.09Z"/><path d="M339.72,397.71c-.24,0-.5.11-.55.34s.31.16.57.07a.83.83,0,0,0,.4-.25C340.23,397.65,340,397.67,339.72,397.71Z"/><path d="M322.68,425.7c-.1.32-.49.42-.81.43s-.42,0-.64-.05l-.63.11.4-.5c-.15-.59-.22-.64-.53-.37s-.6.64-.78.46c-.72-.74-2.44-.43-3.07-1.22l1.08-.29h.17l-.14,0c-.35-.12-.67-.45-1.17.33-.65.46-1.1.47-1.37.12-.32,0-.35-.12-.2-.37-.54-.83-2.05-1.06-1.34-2.64.06-.13-.14-.28-.29-.35a2.8,2.8,0,0,1-1.51-2.41,10,10,0,0,0-1.87-4c-.35-.54-.4-1,.85-1.61.42-.19.87-.54.48-.78-.17-.11-.18-.6-.84,0s-1.29.55-1.39.19a6.89,6.89,0,0,0-1.3-2c-.46-.68-.12-1.1,1.31-2,.32-.19.61-.42,1.12-.77l-2.75-.55a2.53,2.53,0,0,0,.42.5c.21.16.76.14.44.58a3,3,0,0,1-1.11.75c-.54.19-.87,0-.92-.38s.35-.94.83-1.41a2.43,2.43,0,0,1-2.31-1.26c-1.18-2-2.26-4.14-4.28-5.52-.77-.54-.61-.79,1.08-2.15l.18-.06-.17,0c-.08-.42.09-1.27-1-.17-.82.83-1.51,1-1.63.37-.23-1.18-1.39-1.51-2.07-2.26-.42-.48-1.32-.56-.57-1.78.23-.39-.12-.41-.38-.42-1.67-.07-2.1-1.21-2.41-2.46-.1-.41-.19-.76-.69-.85a3.41,3.41,0,0,1-2.32-2.19c-1.24-2.47-3.7-3.86-4.88-6.35-.65-1.36-2.66-1.48-2.53-3.5-1.73-.34-2-2.19-3.44-2.87-.59-.27-1.66-.49-.61-2.11.49-.76-.36-.55-.61-.46-1.76.62-2.36-.33-3.09-1.12-.3-.32-.07-.74.35-1.2.35.1.73.18,1.13-.47a.39.39,0,0,0-.15-.46c-.63-.21-.64.59-1,.9-.69,0-1.11-.51-1.92-.37s.31-1.27-.36-1a1.41,1.41,0,0,1-1.54-.24l-.45-.34a24.49,24.49,0,0,1,2.34-2.24l.16-.07-.16,0c-.11-.32.41-1.08-.06-1.1-.7,0-.53.68-.82,1-.76.92-1.6.64-2.29,1.47-.56-.69.62-1.41.68-2l-.25,0,.3-.21-.1-.32c-2.84,2.13-3.19.06-4.36-.67.71-1.13,1.39-.61,2-1.27.17-.2.42-.55.39-.63-.1-.26-.33.08-.5.24-.93.82-.33-1-1.3-.25-.59.47-1.29,1.08-1.91.95,0-.62,1.44-1.21.85-1.82a2.29,2.29,0,0,0,.45-1.07c.17-.52,0-.61-.47-.45-.58-.27-.58-.27-1.4.57l1.38-.52.41.44-.42,1c-.37.5-.94,1-1.2.79-.63-.45-1.74-.14-2.24-.72a10.54,10.54,0,0,0-2.82-2.19c-.27-.16-.32-.31,0-.87.48-.81.41-.94-.11-.67-.9.46-1.55.66-1.38-.51,0-.34-.14-.22-.33-.17-1.72.43-2-1.17-3.06-1.67-.1-.05,0-.41,0-.63s.62-.65.29-.8c-.07,0-.32.53-.33.82-.21.07-.51.26-.61.19a27.81,27.81,0,0,1-4.63-3.49,9,9,0,0,0-4-2.56c-.61-.18-1.45-.26-.63-1.77l.15-.1-.15.05c-.39-.22-1.09.23-1.24-.57-.13-.65-.91-.61-1.55-.61a3.77,3.77,0,0,1-1.32-.23c-1-.35-1-.35.18-2.15.52-.27,1,.07,1.7-1a4.13,4.13,0,0,0-1.7.91,3,3,0,0,1-3.11-.09c-1.19-.57-2.92-.35-3.39-2.09l-2.42-1.19c-1,.06-1.44-.93-2.07-1.46s.44-1.61,1.14-2.34l.12-.09-.12,0a1.27,1.27,0,0,0-1,.5c-.8,1-1.61,2.09-1.75.36,0-.11-.14-.24-.23-.2-2,.82-2.44-1.63-4.12-1.48a.3.3,0,0,1-.28-.15c-.32-.47-.59-1.53-.94-1.36-.9.47-1.15-.33-1.79-.23-1,.16-1-1.69-2.17-1.2-.26.11-.1-.49.05-.83a2.8,2.8,0,0,1,.81-1.06c.32-.27.74-.62.44-1-.15-.18-.48,0-.85.47-1.25,1.61-2,1.95-3,1.13a10.55,10.55,0,0,0-3.1-2c-.74-.24-.6-1.35-1-2l0-.13,0,.16c-.25.72-.64,1.18-1.1,1.1s-.24-.53,0-1l.12-.13-.13.08c-.36-.44.74-1.46.18-1.82a3.13,3.13,0,0,1,.22-.45l.14-.11-.15.05c0,.05-.13.09-.15.14a2.48,2.48,0,0,0-.1.39,2.59,2.59,0,0,1-.24.5c-1.31,1.57-1.38,1.54-1.3-.81-.75,1.81-1.68,2.2-2.09,1.39-.84-1.6-3-1-3.29-3.42-1.52-.52-2.59-1.88-3.93-2.73a51.73,51.73,0,0,0-4.88-3l-1.31-.58c-.46-.19-.81-.38-1.3-.59a8.39,8.39,0,0,0-1.58-.54,3.52,3.52,0,0,0-1.47,0,10.06,10.06,0,0,1-.27-1.21,2.88,2.88,0,0,1,0-1,1.85,1.85,0,0,1,.85-1.29,7,7,0,0,1,2.76-1,5.72,5.72,0,0,1,2.95.34,1.47,1.47,0,0,0,.79.17,7.09,7.09,0,0,1,2.18,0,7.68,7.68,0,0,1,1.85.51,28,28,0,0,1,3.39,1.78c1.32.74,2.68,1.35,4.05,2s2.72,1.21,4.11,1.76c1.85.75,3.62,1.69,5.4,2.59a32.53,32.53,0,0,0,5.4,2.56,28.27,28.27,0,0,1,3.85,1.83,13.87,13.87,0,0,0,4,1.62,4.34,4.34,0,0,1,1.34.75,42.07,42.07,0,0,0,4.93,2.7c1.67.86,3.36,1.68,5.07,2.49a8.68,8.68,0,0,1,1.17.71,51.27,51.27,0,0,0,4.6,2.8c1.56.88,3.17,1.71,4.74,2.59,1.75,1,3.4,2.13,5,3.26l7.19,4.72c2.68,1.85,5.15,4,8,5.67,1.61.92,2.78,2.4,4.31,3.42s2.51,2.37,4.14,3.11a5.09,5.09,0,0,1,1.41,1,87.55,87.55,0,0,0,7,5.69c1.94,1.54,3.61,3.37,5.51,5,2.53,2.13,4.65,4.66,6.95,7,1.72,1.7,3.32,3.5,4.88,5.33s2.94,3.8,4.45,5.67c.82,1,1.76,2,2.66,3a14.37,14.37,0,0,1,2.27,3.25c1.7,3.48,4.51,6.19,5.8,9.92a25.16,25.16,0,0,0,2.38,4.43,14.22,14.22,0,0,1,1.06,2.27,17,17,0,0,0,.93,2.34,31.51,31.51,0,0,1,1.77,4.91c.2.6.9,1.21-.73,2,0,.31,0,.64-.62.82-.26.09-.45,0-.44-.22s.44-.45.73-.64c-.06-1.3-.3-1.45-1.92-.87a28.82,28.82,0,0,1-3.51,1.4l-.16,0,.13,0c-.3,1.32.63,2.46-1.44,4a.32.32,0,0,0,.1.2c.24-.12.48-.27.72-.36S322.78,425.39,322.68,425.7Zm-119.22-105h-.11l.05.12Zm3.69,2.43-.06-.1-.06.11Zm.47,2.06h-.11l0,.12Zm1.54.52c.07-.17.15-.33.23-.49l.14-.09-.14.05s-.13.09-.15.14-.08.27-.12.41l0,.16ZM214.6,322c0-.1-.15-.12-.23-.17a4.24,4.24,0,0,0-.07.68c0,.1.13.13.19.18A.71.71,0,0,0,214.6,322ZM214,327.5l-.06-.06-.06.17Zm2.11,1a.79.79,0,0,0,.05-.33,3.11,3.11,0,0,0-.32.31c-.14.16-.14.27,0,.32A2.13,2.13,0,0,0,216.13,328.48Zm2.4.64c0-.07,0-.15,0-.18s-.2-.08-.23.07.06.08.1.11Zm2.12-4c0-.06,0-.15,0-.18s-.2-.08-.23.08.06.08.1.12Zm2.33,7.37-.06-.06-.07.17Zm1.64.45.07-.17-.11.1Zm1.71.88c0-.08-.11-.22-.18-.19a1.1,1.1,0,0,0-.32.35c-.11.19-.09.3,0,.31A.63.63,0,0,0,226.33,333.81Zm3.76,1.66c-.5-.53-1.18-.15-1.64-.3l0-.15,0,.18C228.66,335.86,229,336.18,230.09,335.47Zm2.84,2.18c.21-.29.25-.54,0-.56s-.63.19-.89.61c-.15.23-.26.55-.06.57S232.64,337.88,232.93,337.65Zm3.53,2,0-.07-.08.16Zm.71,1.2c-.1-.16-.34.06-.48.35l-.24.5c-.14.11-.23-.22-.39.17l.38-.13a1.76,1.76,0,0,0,.4-.27C237,341.27,237.28,341,237.17,340.82Zm1.8-.46a2.52,2.52,0,0,0-1,1.37A1.57,1.57,0,0,0,239,340.36Zm2.07,2.92-.12,0-.13.09.13,0Zm1.8-1.5-.15.07-.14.07.14,0Zm6.5-2.46s.09,0,.13.06a.93.93,0,0,0,.18-.16s0-.14,0-.14A.24.24,0,0,0,249.34,339.32Zm-3.71,6.14c0-.14.15-.35.11-.4a1,1,0,0,0-.37-.2c-.22.19-.28.34-.17.41A2.08,2.08,0,0,0,245.63,345.46Zm.8,1.29.08-.16-.13.1Zm2.76,1.54h-.12l0,.11Zm5.91-5.4,0,.11.08-.1Zm-4,6.72c.36-1.05.1-1.28-.78-.72l-.15.05h.15C250.83,348.85,250.61,349.7,251.13,349.61ZM253.9,352l-.11,0,0,.12Zm4.31,1.68c0-.05,0-.11-.08-.1s-.27.16-.23.29.11,0,.17,0S258.2,353.69,258.21,353.64Zm.46,1.11-.06-.05-.07.15Zm2.4,1.58a4.33,4.33,0,0,0-.53-.53c-.23-.14-.52-.3-.81.35-.18.41,0,.49.36.42Zm1.37,1.49-.13,0c-.15.1-.2-.22-.41.11l.4-.05Zm1,.69c0-.06,0-.14,0-.17s-.24,0-.23.15a.15.15,0,0,0,.12.1S263.4,358.54,263.45,358.51Zm-.65,1.56s-.11,0-.17,0l0,.17s.07.11.12.1S262.92,360.17,262.8,360.07Zm8.11-2.25c.19-.24.25-.44.14-.59s-.14,0-.2.08-.36.4-.27.58S270.8,357.84,270.91,357.82Zm2.65-2.52c.28-.3.34-.53.14-.59a.77.77,0,0,0-.57.17c-.23.18-.3.48-.11.54S273.4,355.34,273.56,355.3Zm.67,2.21v-.14l-.1.1Zm-4.35,6.55.12-.2c-.05,0-.1-.05-.16,0s-.26.2-.15.29S269.82,364.09,269.88,364.06Zm6.07,2.56c.17-.13.2-.28.06-.27a1,1,0,0,0-.38.23c-.17.15-.19.25-.08.27S275.82,366.71,276,366.62Zm2.23-1.69.13-.2c-.06,0-.11,0-.17,0s-.26.18-.14.28S278.12,365,278.18,364.93Zm1,.28-.1,0v.13Zm2.05.94c.13-.16.09-.32-.08-.27a1.52,1.52,0,0,0-.89.81A1.35,1.35,0,0,0,281.19,366.15Zm-3.73,5.71-.14,0-.16.06.15,0Zm1.79-.29s.09-.15.07-.17-.11,0-.17,0-.16.12-.16.15C279,371.71,279.07,371.72,279.25,371.57Zm3.54-3.3c0-.17-.09-.19-.26,0a.32.32,0,0,0-.08.17.51.51,0,0,0,.18,0C282.68,368.36,282.79,368.29,282.79,368.27Zm-2.39,5.94a1.43,1.43,0,0,0,.18-1.39,3.24,3.24,0,0,0,.16-.63c0-.16-.18-.1-.24.09a1.82,1.82,0,0,0,0,.57C280.6,373.24,279.59,374.08,280.4,374.21Zm2.75-2.44c0-.06.12-.13.13-.18.08-.22,0-.25-.19-.09a.32.32,0,0,0-.07.19C283,371.74,283.1,371.74,283.15,371.77Zm4.71-4.66-.17,0-.45-.52v-.13l-.06.15c-.07.41,0,.67.5.52Zm-5.38,7.19c0-.16.09-.37,0-.39-.24-.1-.55.06-.84.34s-.21.31-.05.28S282.19,374.38,282.48,374.3Zm2.58,2.19h-.13l-.15.06h.13Zm1.12,1.24-.16,0a3.69,3.69,0,0,0-.64.1c-.19.05-.48.1-.46.41,0,.05.26,0,.41-.08a6.89,6.89,0,0,0,.68-.39Zm.77,1c.16-.09.19-.24.05-.27a1.14,1.14,0,0,0-.38.07c-.15.13-.19.25-.05.28A.57.57,0,0,0,287,378.74Zm7.59,2.18c.06,0,.13,0,.19,0s.24-.25.15-.34a.19.19,0,0,0-.18,0C294.51,380.68,294.46,380.81,294.54,380.92Zm-1.37,2a4.41,4.41,0,0,0-2,1C291.92,384.5,291.9,384.52,293.17,382.91Zm-.3,3.5c.05-.24-.1-.31-.35-.22a.65.65,0,0,0-.4.54c-.05.22,0,.34.31.24A.9.9,0,0,0,292.87,386.41Zm2.52,3.95c.15-.13.18-.25,0-.28a1.86,1.86,0,0,0-.54-.06c-.16,0-.24.14-.16.26S295.06,390.5,295.39,390.36Zm2.46,2.91c.33-.31.36-.43.21-.46a1,1,0,0,0-.58,0c-.32.17-.28.38-.1.45A1.61,1.61,0,0,0,297.85,393.27Zm2.64,3.38c.23-.27.62-.62.59-.93s-.41-.1-.7.11-.67.61-.51.91C300,396.89,300.16,396.88,300.49,396.65Zm2.52,5-.1-.06,0,.13Zm1.44-.83-.4,0-.17.05H304C304.19,400.81,304.15,401.14,304.45,400.84Zm.21,1.22-.11-.05v.12Zm7.8-5c.17,0,.12.31.43,0l-.41,0-.17,0Zm-5.9,5c0-.09-.14-.23-.18-.2a2.72,2.72,0,0,0-1.48,1.76C305.59,403.12,306.29,402.8,306.56,402.11Zm2.31,3.42c0-.83-.7-1.12-1.25-1.92C307.33,405,308.31,405.13,308.87,405.53Zm4.49-1.35c.11-.16.07-.25-.1-.24a.39.39,0,0,0-.21.11c-.12.16-.07.25.09.25A.75.75,0,0,0,313.36,404.18Zm-2.12,5.36,0-.36c.18-.95-.77-.33-1.3-.13s-1.26.68-1.09,1.45c.82-.67,1.53-1.37,2.37-1.31C311.19,409.31,310.85,409.6,311.24,409.54Zm.31,1.07c0-.05.14-.13.13-.15a.14.14,0,0,0-.14-.06c-.2,0-.28.13-.19.23S311.48,410.62,311.55,410.61Zm6.52,2.25a.25.25,0,0,0-.1.17s.06.06.1.09.13-.09.16-.14C318.35,412.78,318.29,412.74,318.07,412.86Zm-4.62.95c.37-.66,0-.9-.69-1.17-.19.73-.37,1.26.26,1.37A.81.81,0,0,0,313.45,413.81Zm-.65,3.54.11-.14c.23-.26.49-.52.68-.78s.29-.6-.15-.53a.82.82,0,0,0-.69.63,2.15,2.15,0,0,0,.1.68Zm9.78-5.58a2.87,2.87,0,0,0,.15-.37c0-.17-.08-.24-.25-.12a.43.43,0,0,0-.14.34C322.35,411.7,322.49,411.72,322.58,411.77Zm-6.82,6.29a.43.43,0,0,0-.44-.56c-.16,0-.36.15-.34.28C315,418.07,315.4,418.07,315.76,418.06Zm2.52-1.43a1.2,1.2,0,0,0-1.34-.09.37.37,0,0,0,0,.31C317.16,417.09,317.59,416.89,318.28,416.63Zm-2.92,3.44s0-.11,0-.11-.29.05-.29.18.09,0,.14.06A.57.57,0,0,0,315.36,420.07Zm0,4.3.07-.09-.13,0Zm3.56-1.1c-.58-.81-1.42-.71-2.51-.17l-.15,0,.12,0C317.31,422.83,317.91,423.17,318.89,423.27Z"/><path d="M316.71,426.76a1.14,1.14,0,0,0-.62.05c-.24.1-.4.32-.33.48s.44.11.79-.09C316.71,427,317,426.84,316.71,426.76Z"/><path d="M328.79,423.14a.28.28,0,0,0-.27-.18.4.4,0,0,0-.38.43c0,.19.06.34.34.27S328.85,423.29,328.79,423.14Z"/><path d="M322,426.63c-.24.07-.49.17-.51.41s.33.13.58,0,.34-.22.36-.3C322.48,426.51,322.21,426.57,322,426.63Z"/><path d="M48.16,230.33a.86.86,0,0,1,.07-.91c.11-.18.24-.33.35-.5l.24-.58L49,229c.53.21.6.17.55-.24s-.19-.85,0-.89c.94-.18,1.61-1.78,2.56-1.85L51.8,227l-.08.13.1-.09c.28-.22.71-.29.38-1.14,0-.8.22-1.18.65-1.2.16-.28.29-.22.4.05.94,0,2-1.09,2.81.38.06.13.29,0,.43,0a2.38,2.38,0,0,1,2.7.32,9.47,9.47,0,0,0,4.05,1.09c.61.08,1,.34.61,1.68-.12.45-.16,1,.25.87.18-.06.53.24.49-.68s.43-1.34.75-1.19a8.76,8.76,0,0,0,2.25.38c.76.16.82.7.48,2.33-.08.36-.11.73-.21,1.34L70,229.69a3.05,3.05,0,0,0-.6-.06c-.24,0-.59.45-.67-.09a2.89,2.89,0,0,1,.23-1.31c.22-.52.58-.63.86-.39a2,2,0,0,1,.38,1.58,2.22,2.22,0,0,1,2.38-.75c1.06.29,2.12.61,3.19.82a11,11,0,0,0,3.3.29c.88-.08.92.21.49,2.34l-.09.16.11-.13c.3.27.67,1,.82-.51.1-1.16.49-1.76,1-1.33.86.76,1.91.26,2.86.41.6.09,1.34-.42,1.45,1,0,.45.32.25.52.1,1.31-.91,2.27-.21,3.17.63.29.28.54.52,1,.3a3.09,3.09,0,0,1,3,.46,8.83,8.83,0,0,0,1.74.74c.59.21,1.19.4,1.79.58a10.85,10.85,0,0,1,3.42,1.54c1.13.84,2.89,0,3.63,1.75,1.61-.53,2.54,1.1,4,1.08.6,0,1.63-.25,1.28,1.65-.16.88.5.34.69.15,1.33-1.29,2.2-.69,3.12-.28.37.16.3.63.08,1.22-.34,0-.71.13-.85.87,0,.15.16.35.28.34.62-.05.38-.78.57-1.18.62-.24,1.14,0,1.8-.36s.11,1.3.63.83a1.27,1.27,0,0,1,1.45-.3l.49.16a26,26,0,0,1-1.45,2.89l-.13.12.13-.09c.19.26-.07,1.15.36,1,.62-.21.28-.82.44-1.24.42-1.12,1.26-1.14,1.66-2.15.69.45-.19,1.52-.07,2.11l.24-.05-.22.3.18.25c2-2.91,2.9-1.12,4.14-.81-.37,1.27-1.12,1-1.49,1.8-.1.23-.25.64-.2.71s.28-.19.4-.38c.65-1.06.52.83,1.22-.16.44-.61.93-1.39,1.53-1.42.17.59-1,1.54-.39,2a2.4,2.4,0,0,0-.18,1.14c-.06.55.15.57.51.3.57.1.57.1,1.16-.91l-1.15.86-.46-.31.17-1.11c.23-.58.65-1.18.93-1.07.67.27,1.63-.32,2.21.11a9.49,9.49,0,0,0,3.07,1.39c.28.08.36.21.15.82-.32.89-.23,1,.22.61.77-.66,1.36-1,1.38.17,0,.34.16.19.33.11,1.54-.74,2,.79,3.08,1.1.1,0,.05.4.07.61s-.5.74-.17.83a1.63,1.63,0,0,0,.22-.85c.18-.11.44-.34.54-.29,1.62.84,3.41,1.43,4.79,2.66a8.26,8.26,0,0,0,3.91,2.18c.59.13,1.41.15.65,1.68l-.14.11.13-.05c.38.17,1.05-.31,1.21.45s.87.52,1.5.48a3.29,3.29,0,0,1,1.27.18c.93.31.91.34-.24,2.12-.5.27-1-.05-1.64,1a4.17,4.17,0,0,0,1.63-.94,2.71,2.71,0,0,1,2.94.1c1.1.56,2.8.38,3.13,2.07.75.4,1.51.8,2.23,1.25,1,0,1.25,1,1.78,1.62s-.65,1.54-1.4,2.19l-.13.08.12,0a1.26,1.26,0,0,0,1-.41c.9-.93,1.83-1.9,1.71-.19,0,.11.09.25.19.22,2.06-.59,2.07,1.81,3.71,1.85a.3.3,0,0,1,.23.19c.21.51.26,1.56.63,1.45.93-.3,1,.52,1.6.55,1,0,.5,1.8,1.76,1.55.27-.05,0,.49-.25.79a3.17,3.17,0,0,1-1,.87c-.36.2-.84.46-.65.84.1.2.44.09.9-.29,1.57-1.31,2.35-1.49,3.09-.52a11.9,11.9,0,0,0,2.36,2.54c.59.42.13,1.45.25,2.12v.13l.07-.15c.45-.61.95-.94,1.34-.74s0,.56-.33.94l-.16.09.14-.05c.19.51-1.13,1.18-.75,1.66a3,3,0,0,1-.35.36l-.15.07h.14c.06,0,.15-.05.18-.09a3.88,3.88,0,0,0,.23-.33,1.89,1.89,0,0,1,.38-.41c1.69-1.12,1.77-1.06.9,1.1,1.29-1.48,2.27-1.59,2.38-.72s.73,1.28,1.22,1.81a2.13,2.13,0,0,1,.51,2.32c1.11,1,1.49,2.6,2.29,3.82,1,1.48,1.82,3.05,2.87,4.45a9.27,9.27,0,0,1,2.28,7.57c-1.41.78-2.17.53-2.73,0-1.08-.94-2.45-1.6-3.17-2.88a.71.71,0,0,0-.43-.4,5.85,5.85,0,0,1-3-1.72,21.06,21.06,0,0,1-2-2.58,29.21,29.21,0,0,0-5.37-5.51c-2.67-2.15-4.67-5.07-7.73-6.75a20.3,20.3,0,0,1-2.88-2.23,8,8,0,0,0-3.15-1.86,2.87,2.87,0,0,1-1.06-.77,36,36,0,0,0-8.11-5.08,5.63,5.63,0,0,1-1-.63,26.41,26.41,0,0,0-3.83-2.44c-1.36-.69-2.79-1.26-4.16-1.91-1.54-.7-2.92-1.66-4.43-2.41l-6.56-3-1.85-.86-1.88-.8a29.85,29.85,0,0,0-3.85-1.38c-1.47-.41-2.72-1.37-4.23-1.71s-2.59-1.2-4.09-1.26a3.51,3.51,0,0,1-1.37-.4,14,14,0,0,0-3.53-1.13c-1.21-.26-2.43-.49-3.62-.8-1-.26-1.94-.57-2.9-.87s-2-.49-3-.66a29.8,29.8,0,0,1-3.88-1l-1.91-.59c-.65-.16-1.3-.3-2-.41A54,54,0,0,1,83,247.66c-1.87-.54-3.78-.93-5.67-1.36-2.1-.45-4.31-.39-6.32-1.13A27.12,27.12,0,0,0,66.5,244c-.76-.15-1.51-.33-2.27-.51A12.47,12.47,0,0,1,62,242.8a16.79,16.79,0,0,0-4-.92,9,9,0,0,1-2-.61,10.25,10.25,0,0,0-2-.55,22.55,22.55,0,0,1-4.16-1.27c-.51-.18-1.25.07-1.08-1.75a.84.84,0,0,1-.3-1c.07-.27.23-.36.37-.24s.12.61.12,1c.94.68,1.15.57,1.52-1.1a31.44,31.44,0,0,1,.73-3.7l.06-.14-.08.09c-.82-1-2.14-.87-2.28-3.45a.39.39,0,0,0-.21,0,7.17,7.17,0,0,1-.08.81C48.52,230.31,48.35,230.59,48.16,230.33ZM178.65,288.6l.09,0v-.12Zm-2.21-3.39v.11l.09-.09Zm.32-2,.1,0v-.12Zm-1.21-.89-.38.38-.15.05h.14c.06,0,.14,0,.18-.09a3,3,0,0,0,.25-.34l0-.16Zm-6.1,2.07c0,.1.09.14.14.2a4.78,4.78,0,0,0,.29-.61c0-.09-.07-.15-.1-.21A.76.76,0,0,0,169.45,284.37Zm2.31-5,0,.07.11-.15Zm-1.6-1.43a.83.83,0,0,0-.14.3c.12-.07.25-.13.38-.22s.21-.22.12-.29A1.88,1.88,0,0,0,170.16,277.92Zm-2-1.05c0,.06,0,.13,0,.17s.16.11.22,0,0-.08,0-.12Zm-3,3.38c0,.06,0,.13,0,.17s.16.11.23,0,0-.08-.05-.13Zm-.26-7.36,0,.07.1-.16Zm-1.41-.69-.1.14.13-.08ZM162,271.14c0,.07.06.21.14.19a1,1,0,0,0,.36-.29c.15-.17.15-.29,0-.3A.67.67,0,0,0,162,271.14Zm-3.26-1.93c.39.55,1.09.25,1.49.43v.15l0-.17C160.17,269,159.85,268.61,158.75,269.21Zm-2.31-2.36c-.23.27-.3.51-.12.55s.6-.14.91-.53c.16-.21.31-.51.13-.56S156.74,266.65,156.44,266.85Zm-3.12-2,0,.06.09-.15Zm-.57-1.16c.09.15.33-.06.49-.34l.27-.48c.14-.11.2.21.38-.16l-.37.11a3.54,3.54,0,0,0-.41.26C152.92,263.22,152.66,263.5,152.75,263.66Zm-1.74.44a2.74,2.74,0,0,0,1.05-1.33A1.69,1.69,0,0,0,151,264.1Zm-1.75-2.85.11,0,.13-.09-.12,0Zm-1.76,1.51.15-.07.13-.08-.13,0Zm-6.08,2.81s-.08,0-.12,0a.87.87,0,0,0-.16.17s0,.13,0,.13A.26.26,0,0,0,141.42,265.57Zm3.56-6.22c0,.14-.15.35-.11.39a1,1,0,0,0,.35.17c.21-.2.26-.35.16-.42A2.7,2.7,0,0,0,145,259.35Zm-.77-1.18-.08.17.13-.12Zm-2.63-1.26h.11l0-.1Zm-5.29,5.91,0-.1-.07.11Zm3.44-7c-.29,1.07,0,1.27.75.64l.14-.07-.14,0C140,256.52,140.21,255.66,139.73,255.8ZM137,254h.1l0-.11Zm-4.19-.86s0,.1.08.08.24-.2.18-.32-.1,0-.15,0A.85.85,0,0,0,132.77,253.09Zm-.55-1,.06,0,.05-.16ZM129.81,251a2.75,2.75,0,0,0,.56.39c.24.09.53.18.71-.5.11-.44-.12-.47-.4-.33Zm-1.51-1,.12-.06c.12-.12.22.17.35-.2l-.35.15Zm-1.06-.39c0,.05,0,.13.08.14s.21,0,.18-.19a.14.14,0,0,0-.13-.07S127.29,249.56,127.24,249.6Zm.33-1.65s.1,0,.16,0v-.17s-.08-.09-.13-.06S127.44,247.89,127.57,248Zm-6.87,4.32c-.12.28-.14.49,0,.6s.12-.07.16-.13c.14-.23.24-.49.13-.63S120.79,252.22,120.7,252.27Zm-1.83,3.14c-.19.37-.2.61,0,.6a.8.8,0,0,0,.46-.33c.16-.23.17-.53,0-.54S119,255.33,118.87,255.41Zm-1-1.82,0,.12.08-.13Zm2.39-7.45-.06.23s.11,0,.15,0,.19-.26.06-.31S120.33,246.1,120.28,246.14Zm-6-.26c-.11.18-.1.32,0,.26a.81.81,0,0,0,.26-.34c.11-.2.1-.3,0-.28S114.32,245.75,114.23,245.88Zm-1.46,2.36,0,.23s.1,0,.14-.05.18-.26,0-.3S112.82,248.19,112.77,248.24Zm-.88.09h.1l0-.12Zm-2,0c-.07.19,0,.31.15.19a1.76,1.76,0,0,0,.52-1.08A1.47,1.47,0,0,0,109.9,248.29Zm1.44-6.61.12-.08.11-.12-.12.08Zm-1.47,1s0,.18,0,.18.1,0,.15-.05.1-.18.09-.2C110.07,242.44,110,242.47,109.87,242.68Zm-2,4.43c0,.16.13.13.23-.07a.34.34,0,0,0,0-.19.34.34,0,0,0-.15.07A1.21,1.21,0,0,0,107.91,247.11Zm.07-6.3a1.45,1.45,0,0,0,.32,1.33,3.69,3.69,0,0,0,.09.62c0,.15.18,0,.17-.18a1.73,1.73,0,0,0-.19-.51C108.14,241.77,108.72,240.59,108,240.81Zm-1.49,3.36a.68.68,0,0,0,0,.22c0,.22.08.22.18,0a.28.28,0,0,0,0-.2S106.54,244.17,106.49,244.17Zm-2.38,6.18.13-.11.51.26,0,.11v-.15c-.07-.4-.21-.59-.57-.24Zm2.07-8.73c0,.15,0,.37.11.36.24,0,.45-.29.6-.67s.06-.36-.06-.26S106.4,241.42,106.18,241.62Zm-3-.83.11-.06.1-.12-.11.06Zm-1.42-.5.11-.11a4.61,4.61,0,0,0,.5-.4c.14-.14.36-.33.22-.58,0,0-.22.14-.31.26a7.66,7.66,0,0,0-.41.68Zm-1-.48c-.1.16-.06.3.07.26s.19-.16.28-.24.06-.32-.07-.28A.62.62,0,0,0,100.76,239.81Zm-7,2s-.11,0-.14.09c-.09.2-.08.34,0,.37a.16.16,0,0,0,.14-.08C93.93,242,93.92,241.87,93.81,241.82Zm.21-2.41a4.81,4.81,0,0,0,1.15-1.88C94.29,237.39,94.29,237.39,94,239.41Zm-1.4-3c.08.23.23.2.38,0a.7.7,0,0,0,.07-.66c-.08-.21-.2-.25-.38,0A1,1,0,0,0,92.62,236.4Zm-3.92-1.76c0,.2,0,.31.12.26a1.8,1.8,0,0,0,.44-.28.17.17,0,0,0,0-.3C89.07,234.24,88.88,234.34,88.7,234.64Zm-3.38-.93c-.09.45,0,.56.09.49s.36-.15.44-.33c.15-.33,0-.48-.16-.42A1.78,1.78,0,0,0,85.32,233.71Zm-3.85-.87c0,.35-.1.87.1,1.09s.35-.19.44-.54.15-.89-.14-1S81.58,232.45,81.47,232.84Zm-4.75-2.2.11,0-.07-.11Zm-.5,1.57.3-.23.08-.15-.1.1C76.42,232.07,76.24,231.78,76.22,232.21Zm-.89-.73.1,0-.08-.08Zm-2.31,9c-.08.14-.25-.13-.27.3l.28-.27.1-.14Zm1-7.67c0,.08.24.05.26,0a2.91,2.91,0,0,0-.08-2.28A4.93,4.93,0,0,0,74,232.79ZM70.31,232c.52.6,1.17.29,2,.46C71.64,231.28,70.93,231.92,70.31,232Zm-2,4.15c0,.2.11.24.21.1a.44.44,0,0,0,.06-.23c0-.19-.11-.22-.21-.1A.87.87,0,0,0,68.29,236.18Zm-2.1-5.26.26.22c.51.79.7-.32.91-.83s.36-1.39-.27-1.81c-.08,1.06-.07,2.06-.63,2.62C66.38,231,66.4,230.6,66.19,230.92Zm-.92-.44c0,.07,0,.19,0,.2a.14.14,0,0,0,.13-.07c.1-.18.09-.3,0-.29S65.31,230.43,65.27,230.48Zm-5.41,3.61a.29.29,0,0,0,0-.19s-.08,0-.12,0a.81.81,0,0,0,0,.22C59.76,234.35,59.82,234.33,59.86,234.09Zm2-4.18c.23.71.62.57,1.23.22-.39-.62-.66-1.09-1.11-.67A.8.8,0,0,0,61.91,229.91Zm-2.14-2.75,0,.17a10.12,10.12,0,0,0,.16,1c.09.32.26.61.47.22a.87.87,0,0,0,0-.94,1.9,1.9,0,0,0-.55-.35Zm-1.68,11.11a3,3,0,0,0,.17.36c.09.13.19.08.2-.13a.42.42,0,0,0-.14-.32C58.26,238.14,58.17,238.24,58.09,238.27ZM57.53,229a.38.38,0,0,0,.66,0c.1-.11.1-.38,0-.44S57.73,228.71,57.53,229Zm-.38,2.87a1.18,1.18,0,0,0,.81-1s-.14-.2-.22-.2C57.44,230.69,57.34,231.16,57.15,231.86Zm-.87-4.4a.07.07,0,0,0,.11,0c.12-.13.13-.27,0-.35s-.08.06-.13.09S56.26,227.41,56.28,227.46ZM53,225l0,.11,0-.12Zm-1.06,3.56c.92,0,1.3-.77,1.48-2l.06-.14-.09.08C53.12,227.51,52.53,227.81,51.94,228.57Z"/><path d="M50.37,224.8a1,1,0,0,0,.29-.54c.06-.26,0-.52-.2-.54s-.32.3-.35.7C50.15,224.63,50.17,225,50.37,224.8Z"/><path d="M47.18,236.84a.22.22,0,0,0,.25-.13.43.43,0,0,0-.14-.55c-.13-.11-.27-.14-.35.12C46.89,236.73,47,236.8,47.18,236.84Z"/><path d="M47.78,229.23c.07-.23.12-.49-.06-.65s-.27.2-.3.48a1.05,1.05,0,0,0,.06.47C47.64,229.71,47.73,229.46,47.78,229.23Z"/><path d="M38.13,266.38a.87.87,0,0,1,0-.91c.09-.2.2-.35.3-.53l.18-.6.23.59c.53.17.59.13.51-.28s-.24-.83,0-.89c.89-.26,1.4-1.9,2.32-2.06l-.26,1.09-.07.14.09-.09c.26-.25.67-.36.27-1.18-.07-.79.13-1.18.54-1.25.13-.28.26-.24.39,0,.9-.06,1.82-1.25,2.72.15.08.12.29,0,.42-.07a2.24,2.24,0,0,1,2.62.06,8.62,8.62,0,0,0,4,.7c.59,0,1,.25.74,1.62-.07.45-.05,1,.33.83.16-.07.53.19.41-.71s.28-1.38.6-1.26a7.79,7.79,0,0,0,2.2.14c.75.07.86.6.7,2.27,0,.36,0,.73-.07,1.35l1.91-1.8a2.32,2.32,0,0,0-.59,0c-.23.06-.52.51-.65,0a3,3,0,0,1,.08-1.33c.16-.54.5-.68.79-.48s.48.87.53,1.53a2.12,2.12,0,0,1,2.22-1,17,17,0,0,0,6.35.33c.84-.18.9.1.74,2.27l-.07.17.09-.14c.32.23.77.93.73-.61,0-1.17.27-1.8.78-1.44.91.64,1.87,0,2.8.05.58,0,1.23-.58,1.51.79.08.43.33.19.51,0,1.14-1.08,2.15-.52,3.11.19.32.23.59.44,1,.16a2.88,2.88,0,0,1,2.9.05c2.32.9,4.84.59,7.06,1.8,1.19.66,2.76-.48,3.72,1.18,1.48-.81,2.6.67,4,.4.57-.11,1.52-.51,1.47,1.41,0,.89.53.25.68,0,1.08-1.49,2-1,3-.79.37.1.38.57.26,1.19-.33.11-.66.25-.68,1,0,.15.2.32.32.28.59-.17.24-.84.37-1.26.56-.37,1.1-.16,1.67-.69s.3,1.26.73.72a1.24,1.24,0,0,1,1.34-.56,5,5,0,0,1,.5.08,27.88,27.88,0,0,1-.94,3.09l-.1.14.11-.11c.22.22.11,1.14.5.92.56-.32.14-.85.23-1.3.22-1.17,1-1.33,1.24-2.4.74.32.07,1.53.27,2.09l.22-.09-.16.33.21.22c1.45-3.23,2.59-1.61,3.84-1.55-.15,1.31-.91,1.2-1.14,2a1.72,1.72,0,0,0-.07.73c.17.18.23-.23.31-.45.46-1.16.65.71,1.16-.39.31-.68.66-1.54,1.23-1.69.25.56-.75,1.71,0,2a2.59,2.59,0,0,0,0,1.15c0,.55.24.53.54.2.57,0,.57,0,1-1.1-.37.39-.66.72-1,1.05l-.49-.22,0-1.11c.13-.62.43-1.29.71-1.23.69.13,1.51-.62,2.14-.3a9,9,0,0,0,3.16.78c.28,0,.38.14.28.78-.15.92,0,1,.31.55.62-.79,1.13-1.24,1.36-.12.07.33.19.15.34,0,1.34-1,2.07.37,3.13.46.1,0,.12.38.18.58s-.35.83,0,.85a1.68,1.68,0,0,0,.06-.88c.15-.13.36-.42.47-.39a23.14,23.14,0,0,1,5,1.61,7.81,7.81,0,0,0,4.14,1.29c.59,0,1.36-.16.93,1.5l-.11.13.12-.08c.39.09.94-.53,1.23.18s.94.32,1.52.15a3.44,3.44,0,0,1,1.25-.14c.95.1.94.13.19,2.12-.41.37-.94.17-1.35,1.35a4.6,4.6,0,0,0,1.37-1.27,2.59,2.59,0,0,1,2.81-.57c1.16.3,2.73-.27,3.38,1.31l2.39.66c1-.25,1.41.7,2,1.14s-.29,1.64-.87,2.45l-.11.11.11-.05a1.25,1.25,0,0,0,.84-.63c.65-1.11,1.34-2.27,1.58-.59,0,.11.14.21.23.17,1.83-1.07,2.34,1.26,3.91.9a.25.25,0,0,1,.26.11c.32.41.6,1.42.92,1.22.82-.52,1.06.25,1.64.12,1-.21.87,1.61,2,1.06.24-.12.09.47,0,.82a3.25,3.25,0,0,1-.77,1.09c-.3.28-.69.65-.42,1,.14.16.43,0,.78-.51,1.19-1.65,1.89-2,2.8-1.28a10.6,10.6,0,0,0,2.83,1.8c.66.25.46,1.35.73,2l0,.13,0-.16c.29-.71.69-1.16,1.1-1.07s.18.53-.1,1l-.12.13.13-.08c.29.44-.8,1.42-.33,1.79a3.75,3.75,0,0,1-.24.44l-.13.1.13-.05c.06-.05.13-.08.15-.13s.09-.25.14-.38a2.14,2.14,0,0,1,.26-.5c1.34-1.52,1.42-1.48,1.11.82.87-1.76,1.77-2.12,2.08-1.32.6,1.58,2.73,1,2.65,3.44,1.29.64,2.05,2.07,3.11,3,.64.57,1.26,1.18,1.89,1.76.32.29.64.58,1,.85l.68.54.69.61a7.77,7.77,0,0,1,2.52,4.45,5,5,0,0,1-.5,3.17,2.87,2.87,0,0,1-1.27,1.18,2.24,2.24,0,0,1-1.43.1,8,8,0,0,0-.58-1.57,1,1,0,0,0-.35-.35,5.14,5.14,0,0,0-.65-.76,4.79,4.79,0,0,1-.91-1.17c-.07-.13-.16-.28-.34-.27-.57,0-1,0-1.34,0a5.56,5.56,0,0,1-1.51-.61,21.48,21.48,0,0,1-2.58-1.91,26.54,26.54,0,0,0-3.13-2.13c-1.08-.64-2.23-1.15-3.36-1.68a48.56,48.56,0,0,1-4.41-2.45,20.28,20.28,0,0,0-4.59-2c-2.33-.65-4.15-2.39-6.72-2.45a2.93,2.93,0,0,1-1.18-.5,29.32,29.32,0,0,0-4.33-1.81c-1.48-.51-3-.84-4.55-1.23a5.32,5.32,0,0,1-1.07-.4,23.79,23.79,0,0,0-4.19-1.51c-1.46-.36-2.93-.64-4.39-1-1.62-.36-3.13-1-4.75-1.4l-6.89-1.61a56.45,56.45,0,0,0-7.87-1.55,11.83,11.83,0,0,1-2.2-.48,12.57,12.57,0,0,0-2.2-.42c-1.42-.09-2.71-.74-4.18-.54a3.46,3.46,0,0,1-1.4-.16c-2.35-.66-4.86-.47-7.26-.73-1-.09-2-.26-3-.38s-2-.2-3-.21c-2.67,0-5.22-.81-7.86-.84a52.32,52.32,0,0,1-5.74-.53c-1.91-.26-3.82-.45-5.73-.64-2.11-.2-4.27.16-6.32-.37-3-.79-6.09-.49-9.12-1.4a16.21,16.21,0,0,0-4-.53,9.47,9.47,0,0,1-2-.42,10.64,10.64,0,0,0-2-.38,21.91,21.91,0,0,1-4.19-.93c-.51-.13-1.22.17-1.19-1.65a.85.85,0,0,1-.36-.95c0-.26.19-.38.34-.27s.16.61.18,1c1,.61,1.18.47,1.41-1.22a32.17,32.17,0,0,1,.41-3.74l0-.15-.08.09c-.87-.91-2.13-.68-2.48-3.24a.21.21,0,0,0-.19,0c0,.26,0,.54,0,.8S38.33,266.62,38.13,266.38Zm136.21,34.06h.1l0-.12Zm-2.94-2.62,0,.1.07-.1Zm-.19-2h.1l0-.12Zm-1.36-.54a4.53,4.53,0,0,1-.27.48l-.13.08.13,0c0-.05.13-.09.15-.14a2.08,2.08,0,0,0,.15-.39v-.16Zm-5.28,3.6c0,.1.12.11.18.16a4.27,4.27,0,0,0,.13-.66c0-.1-.1-.13-.15-.18A.8.8,0,0,0,164.57,298.89Zm1-5.43.05.06.07-.17Zm-1.86-.93a1,1,0,0,0-.06.32,2.27,2.27,0,0,0,.31-.31c.14-.16.15-.27,0-.31A2.13,2.13,0,0,0,163.71,292.53Zm-2.19-.47c0,.06,0,.14,0,.17s.17.07.21-.08-.06-.07-.09-.11Zm-2.08,4a.42.42,0,0,0,0,.17c.09.11.17.07.21-.09s0-.08-.08-.11Zm-1.91-7,.05.06.06-.18Zm-1.5-.32-.06.17.11-.11Zm-1.59-.64c0,.08.1.2.17.16a1.12,1.12,0,0,0,.28-.37c.1-.2.08-.31,0-.3A.69.69,0,0,0,154.44,288.09ZM150.93,287c.48.44,1.08,0,1.5.07l0,.14,0-.18C152.22,286.42,151.84,286.16,150.93,287Zm-2.7-1.72c-.17.31-.18.56,0,.55s.54-.27.75-.72c.12-.25.2-.58,0-.57S148.47,285,148.23,285.28Zm-3.4-1.22,0,.05.05-.17Zm-.78-1c.11.13.3-.13.39-.44l.16-.53c.11-.13.23.16.33-.24l-.33.19a3.68,3.68,0,0,0-.33.35C144.12,282.6,143.93,282.93,144.05,283.06Zm-1.57.82a2.82,2.82,0,0,0,.73-1.53A1.77,1.77,0,0,0,142.48,283.88Zm-2.24-2.37.1-.06.1-.11-.1.05Zm-1.37,1.85.12-.1.11-.1-.12,0Zm-5.28,4.09s-.08,0-.12,0a1.06,1.06,0,0,0-.12.2s0,.13.05.12S133.6,287.62,133.59,287.45Zm2.19-6.82c0,.14-.07.37,0,.4a.78.78,0,0,0,.37.09c.16-.24.18-.4.07-.44A1.44,1.44,0,0,0,135.78,280.63Zm-1-1,0,.18.1-.14Zm-2.74-.67.1,0-.06-.09Zm-3.94,6.88,0-.09-.05.12Zm2-7.57c-.07,1.11.2,1.25.83.46l.12-.09-.12.05C130.52,278.92,130.52,278.05,130.09,278.28Zm-3-1.21.1,0,0-.1Zm-4.16,0s.07.09.1.06.19-.25.11-.35-.09,0-.14.06A.84.84,0,0,0,122.93,277.07Zm-.7-.87.06,0,0-.17Zm-2.5-.53a2.64,2.64,0,0,0,.62.25c.23,0,.53.07.58-.63,0-.45-.19-.43-.44-.24Zm-1.63-.74.1-.08c.1-.15.25.12.31-.27l-.32.21Zm-1.08-.19c0,.05.06.13.1.13s.2-.07.14-.22a.11.11,0,0,0-.13,0S117.06,274.69,117,274.74Zm0-1.67s.1,0,.15-.05l0-.17s-.09-.07-.13,0S116.92,273,117.05,273.07Zm-5.85,5.52c-.08.29,0,.5.08.58s.1-.08.13-.15c.1-.25.15-.52,0-.64S111.28,278.51,111.2,278.59ZM110,282c-.12.39-.09.62.08.59a.82.82,0,0,0,.39-.41c.11-.26.07-.56-.09-.53S110.07,281.9,110,282Zm-1.26-1.6,0,.12,0-.14Zm1.07-7.75,0,.24s.1,0,.14-.06.14-.3,0-.32S109.81,272.61,109.77,272.66Zm-5.84.8c-.08.2-.05.34.06.26a1,1,0,0,0,.2-.38c.07-.22,0-.32,0-.28S104,273.32,103.93,273.46Zm-1,2.58,0,.23s.1,0,.14-.07.13-.28,0-.3S102.93,276,102.89,276Zm-.84.24h.1l-.06-.11Zm-1.93.31c0,.21.07.31.17.18a1.72,1.72,0,0,0,.33-1.16A1.54,1.54,0,0,0,100.12,276.59Zm.37-6.75.1-.09.1-.14-.11.09Zm-1.25,1.22c0,.06,0,.19,0,.19s.09-.05.13-.08a1.22,1.22,0,0,0,.06-.21C99.39,270.8,99.3,270.84,99.24,271.06ZM98,275.76c.06.14.15.1.21-.12a.32.32,0,0,0,0-.18s-.09.06-.14.09A.87.87,0,0,0,98,275.76Zm-.88-6.23a1.42,1.42,0,0,0,.51,1.25,3.16,3.16,0,0,0,.17.61c.07.13.18,0,.14-.21a1.84,1.84,0,0,0-.26-.48C97.44,270.45,97.82,269.19,97.14,269.53Zm-.93,3.56a.57.57,0,0,0,0,.22c0,.22.11.2.17,0a.27.27,0,0,0,0-.2S96.25,273.08,96.21,273.09Zm-1.37,6.48.1-.14.54.18,0,.1v-.15c-.13-.38-.3-.55-.59-.14Zm.69-8.95c.06.14.1.36.16.34.23,0,.38-.36.47-.76s0-.37-.09-.25S95.71,270.39,95.53,270.62Zm-3-.33.09-.09.08-.13-.1.08ZM91.13,270l.09-.12c.14-.16.29-.29.42-.47s.3-.38.13-.61c0,0-.19.17-.26.31s-.2.48-.3.73Zm-1.08-.31c-.07.17,0,.31.1.24s.16-.18.24-.28,0-.32-.1-.26A.57.57,0,0,0,90.05,269.7Zm-6.43,3s-.11,0-.12.11c-.07.21,0,.35.07.37a.17.17,0,0,0,.13-.11C83.76,272.88,83.73,272.75,83.62,272.72Zm-.13-2.41a4.91,4.91,0,0,0,.87-2C83.48,268.27,83.49,268.28,83.49,270.31Zm-1.74-2.77c.11.21.25.16.36-.07a.71.71,0,0,0,0-.67c-.1-.2-.22-.22-.36,0A1,1,0,0,0,81.75,267.54Zm-4-1.21c0,.2,0,.31.14.24a1.76,1.76,0,0,0,.4-.33c.1-.12.08-.26-.05-.3S77.88,266,77.75,266.33Zm-3.37-.45c0,.45,0,.55.15.46s.32-.19.38-.38c.11-.35,0-.48-.2-.39A1.43,1.43,0,0,0,74.38,265.88Zm-3.81-.39c0,.36,0,.89.22,1.07s.32-.23.37-.59,0-.9-.26-1S70.63,265.1,70.57,265.49Zm-4.83-1.59.11,0-.08-.11Zm-.3,1.62.26-.26.07-.17-.09.12C65.61,265.35,65.41,265.09,65.44,265.52Zm-.94-.62.09,0-.08-.07Zm-1.25,9.19c-.06.15-.26-.1-.23.32l.25-.29.07-.15Zm.09-7.73c0,.07.24,0,.25,0a3,3,0,0,0-.32-2.26A5,5,0,0,0,63.34,266.36ZM59.72,266c.56.53,1.15.15,2,.22C60.92,265.11,60.3,265.82,59.72,266Zm-1.53,4.34c0,.19.13.22.21.08a.49.49,0,0,0,0-.24c0-.19-.13-.21-.22-.08S58.17,270.3,58.19,270.35Zm-2.56-5,.26.18c.58.74.66-.39.8-.92s.21-1.42-.44-1.77a4.33,4.33,0,0,1-.35,2.68C55.81,265.45,55.79,265,55.63,265.36ZM54.7,265a1,1,0,0,0,0,.19.12.12,0,0,0,.12-.07c.08-.2.06-.31-.06-.29S54.73,265,54.7,265Zm-4.9,4.11a.3.3,0,0,0-.07-.18s-.08,0-.12,0a.66.66,0,0,0,0,.21C49.72,269.39,49.78,269.37,49.8,269.12Zm1.6-4.35c.29.68.65.5,1.2.09-.43-.57-.73-1-1.13-.56A.76.76,0,0,0,51.4,264.77Zm-2.32-2.54.05.17a9.13,9.13,0,0,0,.25,1c.12.32.3.59.47.18a.88.88,0,0,0-.13-.93,1.9,1.9,0,0,0-.56-.3Zm-.62,11.22a2.17,2.17,0,0,0,.19.34c.1.13.19.06.19-.14a.43.43,0,0,0-.17-.31C48.61,273.31,48.53,273.41,48.46,273.45Zm-1.38-9.18a.36.36,0,0,0,.64,0c.09-.12.06-.38,0-.43S47.26,264,47.08,264.27ZM47,267.16a1.16,1.16,0,0,0,.7-1.06s-.15-.19-.23-.18C47.14,266,47.09,266.45,47,267.16Zm-1.22-4.3s.09.06.11,0,.1-.28,0-.35-.07.06-.11.1A.81.81,0,0,0,45.74,262.86Zm-3.35-2.17,0,.1,0-.12Zm-.74,3.63c.89-.1,1.19-.88,1.26-2.09l.05-.14-.08.09C42.7,263.17,42.16,263.52,41.65,264.32Z"/><path d="M39.84,260.69a1.11,1.11,0,0,0,.24-.56c0-.27-.08-.52-.24-.53s-.29.32-.28.73C39.62,260.54,39.66,260.87,39.84,260.69Z"/><path d="M37.67,273a.23.23,0,0,0,.24-.15.44.44,0,0,0-.19-.54c-.13-.09-.27-.12-.33.15C37.37,272.86,37.53,272.92,37.67,273Z"/><path d="M37.69,265.32c0-.24.07-.51-.12-.65s-.24.23-.25.5a1,1,0,0,0,.09.46C37.58,265.8,37.64,265.54,37.69,265.32Z"/><path d="M64.93,246.45a3.84,3.84,0,0,1,.47.79l.2.48.27.54-.36-.49c-.2-.08-.2,0,0,.3a3.49,3.49,0,0,1,.47.77c-.07.31.67,1.77.55,2l-.51-1-.06-.13,0,.09a2.07,2.07,0,0,0,.56,1c.42.67.59,1,.53,1.12.13.26.08.24-.09,0-.17.14.27,1.24-.66.14-.08-.09-.08,0,0,.11.17.65-.15.54-.56.28a.87.87,0,0,0-1.14,0c-.13.06-.33-.07-1-1.25-.24-.39-.55-.86-.53-.65s-.21-.08.32.66.7,1.19.57,1.13c-.3-.13-.32.14-.49.21s-.48-.34-1.38-1.75l-.74-1.13c.24.65.45,1.24.66,1.82,0,0,.09,0,.1-.11s-.19-.51.13-.1.54.79.73,1.11c.27.48.29.66.13.54a6.11,6.11,0,0,1-.95-1.17c.39.86.41,1.18.19,1.22-.56.08-1.19.07-1.23.91,0,.33-.18.12-1.42-1.67l-.09-.15.07.13c-.19-.12-.67-.59.24.64.69.94,1,1.52.73,1.33-.51-.33-.29.37-.44.54s.17.72-.69-.32c-.27-.33-.16-.08-.08.1.5,1.13.05.93-.49.6-.18-.11-.34-.2-.22.11.3.8-.07.72-.38.66-.85-.18-.86.79-1.83.46-.52-.18,0,1.12-1.09.11.39,1-.61.28-.54.9,0,.25.23.84-1-.6-.57-.67-.2,0-.07.18.88,1.43.54,1.37.32,1.47s-.4-.3-.79-.79a2.26,2.26,0,0,0-.61-.95c-.1-.11-.22-.18-.21-.11.08.3.53.69.8,1s.05.47.37,1-.83-.82-.5-.28.35.73.31.84a.6.6,0,0,1-.06.11c-.75-.87-1.32-1.71-2-2.54l-.08-.14.06.12c-.15-.09-.75-.79-.62-.5a4.75,4.75,0,0,0,.84,1c.76.93.84,1.31,1.52,2.15-.23,0-1-1.08-1.37-1.41l0,.13-.21-.29-.16-.08c2.07,2.79,1,2,.89,2.38-.86-1-.76-1.16-1.32-1.84a6.05,6.05,0,0,0-.48-.55c-.12-.07.15.25.28.42.76,1-.48-.27.24.69a9.83,9.83,0,0,1,1.1,1.62c-.37-.3-1.12-1.47-1.33-1.43a10.63,10.63,0,0,0-.77-.81c-.36-.36-.36-.28-.14.06,0,.21,0,.21.72,1.12L50,258.37l.16,0,.74.77a4.79,4.79,0,0,1,.8,1.11c-.09.15.4,1,.19,1s-.46.27-.53.58c0,.09-.09,0-.52-.44-.63-.69-.68-.71-.38-.27.53.77.84,1.26.09.58-.22-.21-.1,0,0,.1.72,1.21-.2.54-.23.88,0,0-.26-.21-.39-.33s-.57-.69-.58-.57a6.33,6.33,0,0,0,.6.61,3.71,3.71,0,0,1,.28.44c-.28.32-.41.83-.94.85s-.75.21-.65.83c0,.24.2.65-1-.59l-.1-.13.06.1c0,.1.42.72,0,.39s-.17.17,0,.52a1.77,1.77,0,0,1,.19.59c0,.35,0,.33-1.45-1.24a6.36,6.36,0,0,0-1-1.43,12.79,12.79,0,0,0,1,1.39c.8,1.1.71,1.36.65,1.56s.43,1.32-.6.63l-.23.62c.3.57-.31.2-.54.23a9.83,9.83,0,0,1-1.82-1.84l-.09-.12,0,.08a3.38,3.38,0,0,0,.55.75c.86.95,1.76,1.94.61,1-.08,0-.14-.06-.09,0,1,1.44-.59.3-.13,1.21,0,.06,0,.08,0,.06-.26-.1-.92-.54-.73-.28.49.68,0,.35.18.7.3.57-1-.5-.43.34.12.18-.32-.22-.59-.48a10.8,10.8,0,0,1-.89-1c-.25-.3-.58-.69-.76-.74s.08.22.48.65c1.37,1.48,1.74,2,1.37,2s-.71,0-.78.35-.87-.5-1.25-.69l-.09-.06.12.1a4,4,0,0,1,1,1.1c0,.11-.34-.2-.72-.57l-.11-.13.08.1c-.26-.09-1.17-1.14-1.34-1.1l-.36-.35-.1-.12.07.09a.87.87,0,0,0,.12.14l.3.27c.13.13.29.27.4.39,1.34,1.45,1.33,1.47-.37.11,1.43,1.35,1.86,2,1.35,1.7-1-.54-.18.77-1.9-.48-.16.33-1,0-1.43.07a4.39,4.39,0,0,0-1.54.3c-.52.34-1.3.45-3.65-.88-1.12-1.11-1.3-1.51-1.25-1.72.1-.4-.08-1.06.39-1.13.07,0,.13,0,.06-.15-.79-1.48,0-1.54.62-1.76a2.87,2.87,0,0,0,1.45-1.42c.47-.82,1.56-1,1.76-2.08.15-.76,1.09-.72.88-1.85,0-.2.13-.2.23-.26a4,4,0,0,0,1.35-2.29.49.49,0,0,1,.21-.24c.74-.41,1-1.37,1.32-2.19.2-.46.6-.7.85-1.11.35-.58.72-1.16,1.11-1.72a7,7,0,0,0,1.27-2c.14-.49.67-.52.83-1s.66-.43.64-1.09a.38.38,0,0,1,.2-.39c.61-.34.76-1.26,1.15-1.88a12.67,12.67,0,0,0,1.08-1.4c.37-.77,1.15-1,1.62-1.65a9,9,0,0,1,2.67-2c.51-.35.7-1.16,1.46-1.12,1.11.06,1.54-.89,2.79-.58a1.75,1.75,0,0,0,1.23-.22c.36-.16,1,.19,1.4.09a3.73,3.73,0,0,1,1.55.27c.19,0,.22-.3,1.14,1.27a2.2,2.2,0,0,1,.58.77c.12.23.15.35,0,.27a4.27,4.27,0,0,1-.53-.79c-.55-.4-.53-.26.29,1.21.59,1.07,1.31,2.22,1.84,3.25l.06.13,0-.09a7.48,7.48,0,0,1,2.24,2.51s0,0,.06,0l-.41-.69C64.88,246.54,64.76,246.27,64.93,246.45ZM37.25,269v0l.08.05Zm1.21-.18-.06,0,.08.09Zm1.39.94v0l.09.06Zm.12-.38-.39-.38-.09-.11.06.09.13.15.31.28.11.07Zm-3.57-4.48c-.07-.05-.06,0-.09,0l.51.41c.07.05.06,0,.09,0A2.55,2.55,0,0,0,36.4,264.92Zm4.05,3.36h0l.13.13Zm.32-.41-.24-.2.27.32c.14.15.22.21.23.19Zm0-.77a.49.49,0,0,0-.12-.08c-.06,0,0,.05.09.14s.05,0,.07,0Zm-3.21-3.2a.49.49,0,0,0-.12-.08c-.06,0,0,.05.1.15a.07.07,0,0,0,.07,0Zm4.72,3h0l.13.13Zm0-.53-.13-.12.09.11Zm.23-.36c-.05-.05-.12-.06-.09,0a4,4,0,0,0,.31.34c.15.16.22.21.2.16A2.23,2.23,0,0,0,42.49,266Zm.34-.95c-.25,0,.14.5.14.65l-.1-.08.13.11C43.4,266,43.54,266,42.83,265.06Zm.89-.2c-.24-.26-.41-.41-.39-.33a3.09,3.09,0,0,0,.6.77c.19.2.43.43.4.35A5,5,0,0,0,43.72,264.86Zm.51-.76h0l.12.13Zm.63.28c-.08,0,.12.21.35.44l.38.39c.11.13-.09,0,.2.29l-.17-.26-.27-.36A2.89,2.89,0,0,0,44.86,264.38Zm-.71-1.18a9.59,9.59,0,0,0,1.13,1.25A6.36,6.36,0,0,0,44.15,263.2Zm1.46.5,0,.08.09.11,0-.08ZM44.21,262l.08.12.08.11,0-.08ZM41,257.14s0,0,0-.05l-.14-.17s-.09-.08-.09-.06A.74.74,0,0,0,41,257.14Zm4.87,5.25-.28-.27c-.05,0,0,.06,0,.09.17.22.28.33.31.31S45.91,262.43,45.91,262.39Zm.63.23-.13-.13.1.13Zm.31-.68,0,.05.06,0Zm-4.91-6.09.07,0-.09-.1Zm5.28,5.72c-.76-.75-.84-.72-.27.05l.07.11,0-.09C46.81,261.34,47.41,261.91,47.22,261.57Zm.74-.36v.05l.07,0Zm-.09-1.61s-.06,0,0,0a.87.87,0,0,0,.24.28s0-.07,0-.1Zm.57.32h0l.11.13Zm.33-.6c-.08,0-.16,0-.17.06s0,.16.44.65c.3.32.28.22.15,0Zm.52-.07.05.09c.1.14-.08,0,.18.3l-.14-.26Zm.13-.26s-.08-.07-.09-.06.05.13.15.21,0,0,0,0Zm1.12,1.17s0,.06,0,.09l.11.1s0,0,0,0S50.57,260.14,50.54,260.16Zm-3.59-6c-.19-.23-.33-.37-.39-.38a.56.56,0,0,0,.1.16,1.88,1.88,0,0,0,.42.45A1.26,1.26,0,0,0,47,254.18Zm-2.24-2.85c-.26-.32-.42-.47-.4-.38a2.8,2.8,0,0,0,.26.43c.17.22.37.41.36.34A2.38,2.38,0,0,0,44.71,251.33Zm1.12.66-.08-.06.09.11Zm5.1,5.89-.15-.18a.23.23,0,0,0,0,.09c.11.16.19.26.21.23S51,257.93,50.93,257.88Zm-.27-2.54c-.13-.17-.22-.26-.17-.17a3.42,3.42,0,0,0,.23.34c.14.19.21.25.19.19ZM49,253.12l-.15-.17a.31.31,0,0,0,0,.09c.09.16.18.25.2.22Zm-.11-.46v0l.08.06Zm-.07-.87c-.14-.16-.21-.21-.13-.07a6.74,6.74,0,0,0,.73.95A5.76,5.76,0,0,0,48.85,251.79Zm4.35,5.09.06.1.08.13-.05-.1Zm-.7-1.29-.12-.13s0,.07,0,.1l.13.18C52.66,255.83,52.64,255.78,52.5,255.59Zm-2.94-3.85q-.15-.12.06.15a.52.52,0,0,0,.12.13.8.8,0,0,0-.05-.11Zm4.07,4.35a2.86,2.86,0,0,0-.84-.78,5,5,0,0,0-.4-.4c-.09-.08,0,.08.12.2s.22.19.33.28S53.8,256.55,53.63,256.09Zm-2.21-2.94-.14-.17c-.14-.15-.14-.12,0,.08l.13.14S51.43,253.17,51.42,253.15Zm-4-5.25.08.13-.16.05-.08-.06.11.11c.25.24.38.31.14-.09Zm5.67,6.88c-.09-.08-.23-.24-.23-.21a2.69,2.69,0,0,0,.45.71c.16.21.24.28.17.16Zm.44-.65,0,.09.08.12,0-.09Zm.32-.2.07.13c.08.15.15.29.26.47a1.7,1.7,0,0,0,.37.5,2.29,2.29,0,0,0-.17-.31l-.43-.64Zm.31-.06c-.1-.15-.19-.24-.17-.16s.11.19.16.29.2.25.17.17A2.36,2.36,0,0,0,54.12,253.87Zm-1.19-4.12a1.39,1.39,0,0,0-.06-.13c-.12-.17-.21-.27-.23-.25s0,.06,0,.11S52.89,249.75,52.93,249.75Zm1.49,1.82a16.8,16.8,0,0,0,1.16,1.81C55.68,253.15,55.68,253.15,54.42,251.57Zm1.93,1.73c-.14-.14-.13-.07,0,.14a2.47,2.47,0,0,0,.41.52c.13.13.16.12,0-.12A3.06,3.06,0,0,0,56.35,253.3Zm1.24,0c-.12-.16-.19-.23-.16-.15a2.33,2.33,0,0,0,.15.36c.05.11.14.22.18.22S57.77,253.55,57.59,253.26Zm.7-.45c-.26-.37-.33-.44-.3-.34a3,3,0,0,0,.18.4c.19.29.29.36.26.26A1.61,1.61,0,0,0,58.29,252.81Zm.81-.51a7.57,7.57,0,0,0-.67-.81c-.14-.1.09.26.29.55s.53.74.63.74S59.32,252.64,59.1,252.3Zm1.65.27v.06l.07.07Zm-.88-1.38.11.27.08.15L60,251.5C59.94,251.37,60.12,251.53,59.87,251.19Zm.51.33,0,.06.05,0Zm-5.05-7.73c-.07-.14.11,0-.14-.32l.12.29.07.14Zm4.42,6.34c0-.06,0,0,0,.06A10.9,10.9,0,0,0,61.07,252,19.13,19.13,0,0,0,59.75,250.13Zm.86-.37c-.41-.34-.3.08-.49.17C60.9,250.71,60.6,250,60.61,249.76Zm-2.17-3.87c-.11-.15-.15-.16-.08,0a1.2,1.2,0,0,0,.13.21c.11.14.14.15.08,0A1.16,1.16,0,0,0,58.44,245.89Zm3.27,3.67-.15-.1c-.52-.52.09.43.37.9A4.48,4.48,0,0,0,63,251.75a16.51,16.51,0,0,1-1.43-2.28C61.62,249.52,61.87,249.88,61.71,249.56Zm.38.16-.11-.15s0,0,0,.07.16.27.17.23Zm-1.23-4.17.11.15s0,0,0,0l-.12-.18C60.73,245.32,60.73,245.35,60.86,245.55Zm2,3.9c-.43-.54-.4-.33-.29.09.4.42.7.75.53.31A2.36,2.36,0,0,0,62.89,249.45Zm1.83,1.8-.1-.13c-.19-.28-.41-.57-.59-.81s-.37-.45-.18-.09a3.28,3.28,0,0,0,.52.77,1.37,1.37,0,0,0,.27.17Zm-5.91-9.55-.22-.26c-.09-.09-.08,0,0,.15a1.09,1.09,0,0,0,.21.24S58.82,241.75,58.81,241.7ZM64,249.25c-.18-.17-.21-.13-.11.13a1.71,1.71,0,0,0,.24.36C64.28,249.8,64.15,249.53,64,249.25Zm-1.52-2.46a2.46,2.46,0,0,0,.42,1s.13.14.14.12A4.16,4.16,0,0,0,62.51,246.79Zm2.55,3.48s0,0,0,0a.82.82,0,0,0,.19.3s0-.06,0-.1Zm1.87,1.51-.06-.09.06.11ZM65.2,248.6c-.15.18.19.88.81,1.91l.07.13,0-.08A12.93,12.93,0,0,1,65.2,248.6Z"/><path d="M67.48,251.52a3,3,0,0,0,.24.5,1.32,1.32,0,0,0,.32.43c.06,0-.11-.31-.31-.65C67.6,251.62,67.42,251.34,67.48,251.52Z"/><path d="M61.69,240.76s0,.05,0,.15a1.1,1.1,0,0,0,.32.45c.08.06.12.06,0-.18S61.74,240.76,61.69,240.76Z"/><path d="M65.57,247.32a2.39,2.39,0,0,0,.36.54s-.06-.21-.2-.45a2.88,2.88,0,0,0-.26-.39C65.35,246.89,65.47,247.12,65.57,247.32Z"/><path d="M62.92,214.59a4.85,4.85,0,0,1,.37.83l.18.49.22.56-.28-.54c-.15-.12-.14-.08,0,.28a6.4,6.4,0,0,1,.38.82c0,.26.59,1.77.53,1.94l-.43-1,0-.13,0,.09a3.57,3.57,0,0,0,.46,1.07,4.29,4.29,0,0,1,.47,1.15c.1.26.07.23-.06,0-.1.08.3,1.18-.44,0-.06-.1,0,0,0,.09.18.63,0,.44-.35.1-.47-.52-.6-.37-.79-.32s-.23-.15-.84-1.37c-.21-.41-.47-.91-.43-.72s-.16-.12.28.67.62,1.24.52,1.15-.21,0-.32.07-.38-.43-1.16-1.9l-.65-1.19.67,1.79s.06,0,0-.08-.18-.5.08-.06c.18.29.47.84.64,1.17.25.5.28.66.15.52a12.21,12.21,0,0,1-.8-1.28c.37.86.43,1.15.27,1.13-.38-.06-.83-.22-.75.51,0,.29-.12.06-1.24-1.81l-.08-.15.07.13c-.15-.14-.56-.67.25.62.61,1,.93,1.58.7,1.34-.41-.4-.16.27-.24.38s.22.67-.54-.44c-.25-.35-.13-.11-.05.06.52,1.11.17.82-.27.41-.15-.13-.28-.25-.15,0,.34.77.06.62-.17.49-.65-.34-.51.49-1.27,0-.42-.27.22,1-.79-.14.45,1-.42.11-.26.66.06.22.32.76-.86-.73-.54-.69-.15-.06,0,.14.91,1.41.65,1.29.5,1.33a3.93,3.93,0,0,1-.74-.84,3.58,3.58,0,0,0-.62-.93c-.1-.12-.21-.2-.18-.14a6.68,6.68,0,0,0,.79,1.05,7.17,7.17,0,0,0,.46,1c.31.51-.78-.86-.43-.33s.4.68.39.77,0,0,0,.08c-.72-.89-1.31-1.72-2-2.55l-.09-.14.07.12c-.13-.11-.72-.82-.57-.55a8.13,8.13,0,0,0,.83,1c.74.93.87,1.27,1.55,2.12a16.17,16.17,0,0,1-1.31-1.47l.07.13-.22-.29-.13-.1c2.09,2.77,1.11,1.88,1.12,2.18-.85-1-.8-1.12-1.36-1.8l-.47-.56c-.11-.08.16.24.3.42.76,1-.43-.33.3.62a14.09,14.09,0,0,1,1.16,1.58,17.45,17.45,0,0,0-1.3-1.46c-.28-.34-.54-.62-.75-.83-.35-.37-.32-.3-.09,0,0,.17,0,.17.77,1.07l-.74-1h.12l.71.79a7.81,7.81,0,0,1,.84,1.09c-.05.11.49.89.33.85s-.29.13-.28.38c0,.07-.06,0-.49-.46-.62-.69-.67-.72-.34-.3.56.74.9,1.2.18.49-.21-.2-.08,0,0,.09.81,1.13,0,.4,0,.68a4.86,4.86,0,0,1-.37-.34c-.16-.15-.59-.67-.57-.58a7.78,7.78,0,0,0,.6.61c.1.15.31.4.3.42-.14.21-.12.6-.53.53s-.54,0-.32.56c.09.2.31.56-.9-.65l-.11-.13.08.1c0,.07.49.65,0,.3s-.09.11.12.42a2.52,2.52,0,0,1,.28.52c.1.27.08.25-1.43-1.24a9.83,9.83,0,0,0-1.16-1.34c.37.45.63.78,1.11,1.29.89,1,.88,1.21.88,1.36s.67,1.13-.32.41l0,.46c.38.5-.2.11-.37.1a16.67,16.67,0,0,1-1.92-1.74l-.1-.11,0,.07a6.08,6.08,0,0,0,.62.68c.93.88,1.9,1.8.76.93-.08-.06-.13-.07-.07,0,1.15,1.28-.4.15.21.94,0,.05,0,.06,0,0-.24-.12-.88-.56-.66-.32.57.6.08.27.32.57.4.48-.94-.53-.25.2.14.16-.32-.22-.61-.46s-.69-.6-1-.88a4.89,4.89,0,0,0-.81-.68c-.09,0,.12.18.56.58,1.5,1.34,2,1.8,1.64,1.76s-.56-.06-.54.16-.84-.49-1.2-.69l-.09-.06.13.1a7,7,0,0,1,1.09,1c0,.09-.33-.19-.75-.53l-.13-.12.1.09c-.24-.1-1.27-1-1.4-1l-.39-.31-.11-.11.07.09.14.12.32.24.43.35c1.5,1.29,1.5,1.3-.27,0,1.54,1.22,2.07,1.75,1.57,1.48-1-.53.08.57-1.7-.59,0,.23-.83-.11-1.18-.1a3.22,3.22,0,0,0-1.21.09c-.34.22-1,.23-3.37-1-1.27-.93-1.53-1.26-1.54-1.42,0-.31-.35-.85.05-.88,0,0,.1,0,0-.12-1.06-1.23-.36-1.24.1-1.38a1.4,1.4,0,0,0,.91-1.06c.21-.63,1.1-.7,1-1.56,0-.62.77-.5.35-1.46-.07-.17.07-.16.14-.2.55-.3.6-1.06.69-1.8a.2.2,0,0,1,.13-.17c.54-.27.54-1.08.7-1.74.1-.37.39-.54.53-.86s.41-.91.65-1.36a4.15,4.15,0,0,0,.77-1.56c0-.4.48-.36.55-.75s.49-.29.38-.89c0-.19,0-.27.13-.31.46-.21.47-1,.73-1.52s.57-.63.75-1.1c.23-.64.85-.72,1.18-1.24.48-.76,1.33-1,2-1.37.38-.23.5-.95,1.12-.77.89.27,1.2-.54,2.21,0a1.11,1.11,0,0,0,1,0c.27-.08.8.39,1.1.37s.79.33,1.21.58c.15.09.16-.23.91,1.43a3.06,3.06,0,0,1,.46.84c.1.25.12.36,0,.27a6.8,6.8,0,0,1-.43-.86c-.43-.49-.41-.36.26,1.19.49,1.12,1.07,2.35,1.51,3.41l0,.14,0-.09a10.52,10.52,0,0,1,1.75,2.84s0,0,0,0L63,215C62.89,214.65,62.79,214.38,62.92,214.59ZM45.39,228.77l0,0,.08,0Zm1,0-.06,0,.09.08Zm1.41.88,0,0,.09.05Zm0-.28-.43-.34-.1-.09.07.07.15.13.33.25.11.07Zm-4.14-3.92c-.07,0-.05,0-.07,0l.52.38c.08,0,.07,0,.09,0A4.92,4.92,0,0,0,43.63,225.42Zm4.24,3.1h0l.14.12Zm.16-.28-.26-.19.32.28c.15.14.23.2.23.18Zm-.22-.61a.49.49,0,0,0-.12-.08s0,0,.12.12,0,0,0,0Zm-3.45-2.92-.13-.09s0,0,.12.14,0,0,.06,0ZM49,227.66h0l.14.12Zm-.14-.42-.14-.12.11.11ZM49,227c-.07,0-.12-.07-.08,0s.21.21.33.32.24.19.21.14A5.23,5.23,0,0,0,49,227Zm0-.71c-.22-.07.24.42.27.53l-.1-.07.13.11C49.71,227.08,49.81,227.09,49,226.27Zm.68,0c-.26-.25-.44-.4-.4-.32a4.47,4.47,0,0,0,.67.7c.2.19.45.41.41.34A9.14,9.14,0,0,0,49.7,226.23Zm.23-.54,0,0,.13.12Zm.57.31c-.07,0,.15.19.38.41l.4.38c.12.12-.07,0,.23.26l-.19-.24-.31-.33A6.07,6.07,0,0,0,50.5,226Zm-.85-1.06c.36.38.72.74,1.21,1.19A10.48,10.48,0,0,0,49.65,224.94Zm1.3.63,0,.07.1.1-.06-.07Zm-1.52-1.65.09.11.09.1-.06-.07Zm-3.58-4.46s0,0,0,0l-.15-.17-.09-.06A1.13,1.13,0,0,0,45.85,219.46Zm5,5.08-.28-.27s0,0,0,.07a2,2,0,0,0,.32.31S50.9,224.57,50.89,224.54Zm.56.29-.13-.13.11.13Zm.1-.51,0,.05.05,0Zm-5.19-5.84.06,0-.09-.1Zm5.4,5.6c-.76-.75-.82-.74-.2,0l.08.1,0-.07C51.39,223.81,52,224.38,51.76,224.08Zm.51-.18,0,0,.06.05Zm-.4-1.36s0,0,0,0a1.12,1.12,0,0,0,.24.27s0-.05,0-.08Zm.52.36h0l.11.12Zm.14-.44c-.06,0-.12,0-.13,0s0,.13.48.62c.29.32.26.23.12,0Zm.39,0,.06.08c.1.14-.07,0,.19.29l-.16-.25Zm0-.2s-.07-.07-.08-.06a.49.49,0,0,0,.16.2s0,0,0,0Zm1.1,1.19a.45.45,0,0,0,0,.08l.1.11s0,0,0,0S54.09,223.47,54.07,223.48Zm-3.91-5.72a2,2,0,0,0-.37-.39.72.72,0,0,0,.1.15,3,3,0,0,0,.42.46Zm-2.26-2.83c-.26-.32-.41-.47-.38-.39a2.7,2.7,0,0,0,.27.41c.17.22.37.42.35.35S48,215,47.9,214.93Zm1,.75-.07-.07.09.11Zm5,5.95-.15-.19a.31.31,0,0,0,0,.09c.11.16.2.25.21.23A1.15,1.15,0,0,0,53.94,221.63Zm-.65-2.23c-.12-.17-.21-.27-.16-.18a3.92,3.92,0,0,0,.24.34c.14.19.2.25.18.2Zm-1.63-2.21-.15-.18.05.09c.1.15.18.25.19.23S51.69,217.23,51.66,217.19Zm-.16-.43v0l.07.06Zm-.18-.77c-.13-.17-.2-.22-.11-.09a9.22,9.22,0,0,0,.72,1A7.63,7.63,0,0,0,51.32,216Zm4.19,5.22.06.1.09.13-.06-.1ZM54.76,220l-.11-.13s0,.06.05.1l.13.17C54.92,220.2,54.89,220.15,54.76,220Zm-2.88-3.89c-.09-.09-.06,0,.07.14a1.36,1.36,0,0,0,.11.14.48.48,0,0,0-.05-.11Zm3.83,4.54a4.37,4.37,0,0,0-.77-.83l-.37-.42c-.08-.09,0,.06.12.19l.3.3C55.14,220,55.91,221,55.71,220.61Zm-2.16-3-.13-.18c-.14-.15-.13-.12,0,.08a.94.94,0,0,0,.12.14S53.55,217.66,53.55,217.64Zm-3.92-5.34.08.13-.13,0-.07-.07.1.12c.24.25.35.33.11-.06Zm5.42,7.07-.2-.23a4,4,0,0,0,.45.71c.16.21.23.29.15.17Zm.24-.48.05.08.08.13,0-.09Zm.22-.11.07.12.27.47a3.1,3.1,0,0,0,.35.51,2.29,2.29,0,0,0-.17-.31l-.43-.64Zm.22,0c-.1-.15-.18-.25-.14-.17s.1.18.15.28.19.25.16.18A2.21,2.21,0,0,0,55.73,218.79Zm-1.46-3.87a1.33,1.33,0,0,0-.06-.12c-.11-.18-.2-.29-.21-.27s0,.06,0,.11S54.24,214.92,54.27,214.92Zm1.38,1.91c.37.64.61,1.08,1.12,1.83C56.81,218.48,56.81,218.47,55.65,216.83Zm1.69,1.92c-.13-.16-.11-.09,0,.12a3.37,3.37,0,0,0,.38.55c.11.14.13.14,0-.1S57.45,218.88,57.34,218.75Zm.91.23c-.11-.17-.17-.24-.14-.16l.16.34a.69.69,0,0,0,.17.24S58.42,219.28,58.25,219Zm.46-.24c-.24-.39-.3-.46-.26-.37a3.73,3.73,0,0,0,.18.4c.18.3.26.38.23.28S58.74,218.8,58.71,218.74Zm.53-.27c-.19-.29-.47-.74-.58-.86s.09.24.28.55a3.91,3.91,0,0,0,.54.8S59.45,218.82,59.24,218.47Zm1.23.62,0,0,.06.08Zm-.79-1.43.11.27.07.15,0-.11C59.75,217.83,59.89,218,59.68,217.66Zm.41.41v.06l0,.05ZM55.57,210c-.06-.14.09.06-.13-.31l.12.29.06.14Zm3.91,6.67c0-.06,0,0,0,0a18.59,18.59,0,0,0,1.17,1.9C60.19,217.87,59.84,217.21,59.48,216.68Zm.58-.13c-.32-.4-.2,0-.34,0C60.37,217.47,60.09,216.78,60.06,216.55Zm-1.94-4c-.1-.16-.12-.17-.06,0a2.12,2.12,0,0,0,.11.21c.1.16.12.17.06,0Zm2.73,4.06-.12-.13c-.42-.58.11.41.35.9a7.73,7.73,0,0,0,.89,1.5,25.86,25.86,0,0,1-1.24-2.39C60.78,216.57,61,217,60.85,216.63Zm.29.23-.1-.16s0,0,0,.07.14.28.14.25S61.16,216.92,61.14,216.86Zm-1.23-4.06A.57.57,0,0,0,60,213s0,0,0,0l-.1-.19C59.8,212.56,59.8,212.58,59.91,212.8Zm1.77,4c-.35-.59-.32-.39-.2,0,.33.47.57.84.41.41A4.11,4.11,0,0,0,61.68,216.81Zm1.46,2.07-.09-.15-.48-.87c-.16-.27-.31-.5-.14-.12a5.36,5.36,0,0,0,.44.82,1.58,1.58,0,0,0,.2.22Zm-5-10.06-.18-.29c-.08-.1-.07,0,0,.15a1.45,1.45,0,0,0,.17.26S58.16,208.86,58.15,208.82Zm4.32,8.08c-.13-.19-.16-.16-.06.1a1.87,1.87,0,0,0,.2.38C62.7,217.47,62.58,217.19,62.47,216.9Zm-1.27-2.59a3.75,3.75,0,0,0,.38,1s.1.16.11.14A7.3,7.3,0,0,0,61.2,214.31Zm2.08,3.78s0-.05,0,0a1.25,1.25,0,0,0,.16.31.78.78,0,0,0,0-.09Zm1.42,1.83,0-.09,0,.11Zm-1.45-3.31c-.09.13.2.84.71,1.93l.05.14,0-.09A18.87,18.87,0,0,1,63.25,216.61Z"/><path d="M65,219.83c0,.1.12.32.2.52a2.08,2.08,0,0,0,.26.47,2.5,2.5,0,0,0-.27-.67C65.13,220,65,219.66,65,219.83Z"/><path d="M60.3,208.58s0,0,0,.14a2,2,0,0,0,.25.49c.07.08.1.09,0-.16C60.39,208.64,60.34,208.59,60.3,208.58Z"/><path d="M63.42,215.54a5.36,5.36,0,0,0,.28.58s-.05-.21-.16-.47a3,3,0,0,0-.21-.41C63.24,215.09,63.34,215.33,63.42,215.54Z"/><path d="M368.23,391.25a2.36,2.36,0,0,1,.81.43c.16.11.27.22.41.33l.5.33-.56-.22c-.24.07-.22.11.15.28s.78.32.8.41c.07.37,1.43,1.29,1.4,1.62l-.91-.59-.11-.08.07.07c.16.18.19.35,1,.63s1,.59,1,.74c.23.17.17.19-.08.1-.12.27.76,1.1-.63.68-.12,0-.07.07,0,.15.43.56.06.7-.47.73-.8.06-1,.48-1.2.84-.11.17-.36.17-1.53-.55-.39-.24-.89-.51-.78-.31s-.25.07.57.46,1.17.75,1,.78c-.36.08-.28.4-.43.59s-.63,0-2.07-.87l-1.17-.67,1.35,1.45c0-.06.08-.1.06-.19s-.38-.4.09-.19a9.31,9.31,0,0,1,1.16.67c.45.31.54.48.33.48a4.91,4.91,0,0,1-1.41-.58c.71.64.84,1,.62,1.17-.57.5-1.19.85-1,1.89,0,.52-.27.42-2.1-.75L365,401l.11.11c-.26,0-.93-.14.38.65,1,.59,1.49,1.07,1.07,1.15-.73.11-.41.94-.64,1.42-.14.29.17,1-.95.29-.35-.24-.21,0-.12.25.61,1.34-.05,1.56-.74,1.55-.23,0-.42,0-.31.42.27,1.11-.24,1.4-.65,1.57-1.08.47-1.38,2.34-2.5,2.45-.57,0-.38,2.19-1.36.95,0,1.78-.81.9-1,2.09-.08.49-.17,1.61-.83-.73-.31-1.09-.2,0-.16.38.28,2.51-.11,2.59-.41,2.9-.12.13-.26-.47-.41-1.34a4.61,4.61,0,0,0-.14-1.71c-.05-.2-.14-.29-.15-.17a7.3,7.3,0,0,0,.28,1.86c0,.82-.2,1-.19,2.05s-.4-1.42-.36-.4a3.2,3.2,0,0,1-.19,1.71,2.72,2.72,0,0,1-.15.28c-.22-1.65-.28-3.28-.46-4.85v0c-.1-.15-.26-1.48-.29-.93a8.56,8.56,0,0,0,.22,1.94c.2,1.76,0,2.56.2,4.18-.25.12-.32-2.05-.48-2.67l0,.28,0-.58-.09-.16c.24,5.56-.39,4.21-.72,5.07-.14-2,.08-2.44,0-3.85,0-.4-.06-1.07-.08-1.12s0,.51,0,.88c0,1.19-.07.81-.14.68s-.1-.16-.1.64a17.34,17.34,0,0,1-.14,3.06,25.94,25.94,0,0,0-.19-3c0-.67-.06-1.25-.11-1.68,0-.76-.1-.63-.14,0-.13.28-.13.28-.15,2,.06-.73.11-1.33.15-1.93l.14.09.1,1.6a9.58,9.58,0,0,1-.06,2.1c-.19.07-.36,1.42-.56,1.18a.61.61,0,0,0-.92-.09c-.07.05-.1-.06-.08-.88,0-1.18,0-1.24-.09-.57-.14,1.16-.27,1.8-.34.58,0-.36-.05-.11-.08.07-.17.8-.31.84-.44.73l-.19-.24c-.1-.1-.2-.19-.31-.18a3.05,3.05,0,0,1-.08-.61c0-.27.13-1,0-.93a5.67,5.67,0,0,0,0,1c-.06.17-.14.5-.19.48-.68-.31-1.37-.36-1.89-1.08s-.82-1-1.38-.66c-.21.12-.53.45-.08-1.48l.06-.17-.06.11c-.12,0-.42.76-.38,0s-.25-.2-.5.1a1.07,1.07,0,0,1-.46.39c-.33.1-.32.07.45-2.38a6.36,6.36,0,0,0,.8-1.83,14.91,14.91,0,0,0-.78,1.74c-.63,1.39-.93,1.31-1.14,1.24s-1.13.89-.82-.88c-.22-.1-.44-.22-.67-.35-.5.53-.3-.55-.37-.95a14.19,14.19,0,0,1,1.44-3.17l.09-.16-.06.09a3.27,3.27,0,0,0-.61.94c-.77,1.49-1.6,3-.93,1,.05-.14.05-.24,0-.17-.65.83-.76.53-.8.11s0-.93-.47-.64c-.06,0-.07,0-.06-.1.08-.49.51-1.65.24-1.37-.69.72-.37-.2-.73,0-.62.33.52-1.86-.39-1.18-.19.13.25-.56.54-1a11.82,11.82,0,0,1,1.06-1.28,3.3,3.3,0,0,0,.82-1.14c0-.17-.23.06-.7.63-1.64,1.95-2.23,2.3-2.22,1.39a5,5,0,0,0-.27-2.26c-.18-.35.66-1.41.93-2l.08-.13-.13.15c-.62.63-1.13,1-1.29.84s.27-.53.72-.91l.15-.09-.12,0c.15-.44,1.37-1.17,1.37-1.54.14-.12.28-.24.43-.35l.13-.07-.1,0a1,1,0,0,0-.17.1l-.32.31c-.16.13-.33.3-.47.39-1.71,1.15-1.73,1,0-.84-1.62,1.31-2.36,1.42-2,.72a1.5,1.5,0,0,0,.19-.81.65.65,0,0,0,0-.18s0-.05,0-.08,0-.34.85-1c-.15,0,.35-.71.36-1.08s.08-1-.18-1.22-.48-.85-.24-3.05c.67-1.43,1.12-1.85,1.42-1.9.59-.11,1.42-.46,1.78,0a.16.16,0,0,0,.24.05c1.68-.93,2.19.21,2.59,1a11,11,0,0,0,.87,1.4c.14.2.29.4.44.59s.21.22.32.33a2.2,2.2,0,0,1,.45,1.08c.09.4.21.8.51.88s.23.36.28.62.14.45.48.13c.12-.11.07.1.06.22,0,.86.42.88.81.72.05,0,.07,0,.07.15,0,.8.55.38.93.07.21-.17.33.15.54.05a3.12,3.12,0,0,0,.45-.29l.23-.18c.07,0,.11-.28.16-.4a7.8,7.8,0,0,0,.55-2c0-.28.07-.34.11-.39s.09-.06.12-.36c0-.49.16-.07.12-1,0-.31,0-.36,0-.35s.05-1,0-1.41a2.53,2.53,0,0,0-.09-.74c-.15-.46,0-.21-.11-.48s0-.12,0-.17l-.06-.06a3.61,3.61,0,0,1,.11-.46,1.21,1.21,0,0,1,.61-.81c1.07-.5,1.06-1.62,2.35-2a2,2,0,0,0,1.05-.89c.26-.35,1-.42,1.33-.74a4.32,4.32,0,0,1,1.54-.7c.21-.07.06-.41,1.66.46a1.87,1.87,0,0,1,.9.34c.23.14.3.24.18.23a4.19,4.19,0,0,1-.87-.4c-.7,0-.62.09.84,1,1.05.62,2.25,1.24,3.22,1.88l.12.08-.07-.06a6.28,6.28,0,0,1,3.3.84s0,0,0,0l-.7-.39C368.22,391.37,368,391.19,368.23,391.25Zm-26.74,7.87h0l-.06.07Zm-.12,1.1.05-.05-.1.07Zm-1.25,1.14h0l-.07.07Zm.4.59.45-.33.13-.05-.1,0a.91.91,0,0,0-.17.09l-.34.27-.1.13Zm5.15-2.61c.06-.07,0-.07,0-.1l-.48.49c-.07.08,0,.09,0,.12A2.13,2.13,0,0,0,345.67,399.34ZM341.53,404v-.06l-.15.15Zm.33,1c.08-.08.16-.22.25-.33l-.37.31c-.17.15-.25.27-.23.32S341.74,405.09,341.86,405Zm.75.51a1.19,1.19,0,0,0,.1-.18c0-.12,0-.07-.16.09a.16.16,0,0,0,0,.11Zm3.62-4.36.09-.15c0-.09,0,0-.14.11s0,.06,0,.09Zm-3.63,7.49,0-.06-.14.21Zm.5.17.12-.21-.11.15Zm.3.54c.05-.1.07-.23,0-.17s-.21.31-.33.5-.2.38-.14.35A2.86,2.86,0,0,0,343.4,409.32Zm.8.73c0-.44-.42.23-.55.2l.06-.17-.09.22C343.4,411,343.44,411.26,344.2,410.05Zm.19,1.58c.2-.41.32-.72.25-.68a4.12,4.12,0,0,0-.6,1c-.15.33-.33.74-.25.7A6.73,6.73,0,0,0,344.39,411.63Zm.67.84v-.06l-.09.22Zm-.11,1.06c0-.13-.15.22-.29.61l-.24.67c-.09.18,0-.15-.2.35l.18-.3a5.36,5.36,0,0,0,.24-.48A4.57,4.57,0,0,0,345,413.53Zm.79-1.27a17.69,17.69,0,0,0-.75,2A9.41,9.41,0,0,0,345.74,412.26Zm0,2.39,0,.08-.06.16,0-.09Zm1-2.42-.07.14-.06.14.05-.08Zm2.85-7.19c0,.06,0,0,0,0l.11-.39a1,1,0,0,0,0-.19A5.13,5.13,0,0,0,349.51,405Zm-2.62,9.87c0-.16.1-.44.1-.47s-.07,0-.1-.05c-.1.31-.14.49-.11.52S346.85,414.91,346.89,414.91Zm.11,1,0-.21-.05.18Zm.77.3,0,0v.09Zm2.58-10.7,0,.15.05-.26Zm-2,11.13c.13-1.2.07-1.31-.24-.36l-.05.12.05-.08C348.27,416,348.18,416.93,348.35,416.6Zm.93.92,0,0v.1Zm1.47-.6c0-.05,0-.08,0-.05a.71.71,0,0,0,0,.4s0-.06.05-.09S350.75,417,350.75,416.92Zm.17.64h0v.18Zm.58-.51c-.06,0-.1-.07-.14,0s-.12.17-.14,1c0,.51,0,.4.11.08S351.42,417.52,351.5,417.05Zm.39.2,0,.13c0,.22-.05,0-.06.46l.07-.39Zm.26-.24s0-.13,0-.12-.05.18,0,.35,0,0,0,0S352.14,417.09,352.15,417Zm.06,2.19s0,.07,0,.12l0,.21s0,.05,0,0S352.25,419.2,352.21,419.2Zm.89-11a6.3,6.3,0,0,0-.05-.91,2.66,2.66,0,0,0,0,.35,8.05,8.05,0,0,0,0,1.07A4.46,4.46,0,0,0,353.1,408.18ZM353,401.7a3.9,3.9,0,0,0,0-.94v.92a5.24,5.24,0,0,0,0,.84C353,402.41,353,401.94,353,401.7Zm.25,1.88,0-.15v.15Zm.81,12.56,0-.36c0,.06,0,.09,0,.19,0,.34,0,.52.05.46A2,2,0,0,0,354.05,416.14Zm1-5.08c0-.31-.07-.48-.07-.3s0,.42.06.64.06.46.07.34Zm-.44-4.15-.06-.35v.18c0,.31.06.49.08.44S354.63,407,354.62,406.91Zm0-.84v.07l0,.12Zm.11-1.5c-.05-.3-.09-.4-.06-.15.06.53.16,1.15.29,1.78A15.67,15.67,0,0,0,354.76,404.57Zm1.93,9v.18l0,.24v-.19Zm-.15-2.29a1.87,1.87,0,0,0-.06-.22,1.16,1.16,0,0,0,0,.19c0,.1,0,.27.06.29S356.6,411.58,356.54,411.27Zm-1.33-6.61c0-.17,0-.07,0,.25a1.33,1.33,0,0,0,.06.23s0-.12,0-.18Zm2.25,7.2a2.65,2.65,0,0,0-.54-1.19c-.08-.22-.17-.49-.24-.63s0,.13.05.33a2.47,2.47,0,0,0,.21.43C357.07,411,357.45,412.68,357.46,411.86Zm-1.14-4.76-.07-.28c-.09-.24-.09-.18,0,.14a2,2,0,0,0,.07.22S356.32,407.13,356.32,407.1Zm-2.24-8.82.05.21-.06,0,0-.12.05.2c.13.44.19.59.05,0Zm3.25,11.35c-.06-.13-.15-.36-.15-.31a4.48,4.48,0,0,0,.21,1.16c.08.34.14.44.11.24S357.39,410,357.33,409.63Zm.59-1.31,0,.14,0,.2,0-.14Zm.36-.44,0,.18.15.73a2,2,0,0,0,.25.72,2.44,2.44,0,0,0-.09-.47c-.09-.29-.19-.63-.29-.94Zm.31-.23c-.07-.21-.15-.33-.13-.2a3.5,3.5,0,0,0,.1.42c.08.24.15.34.14.22A3.46,3.46,0,0,0,358.59,407.65Zm-.91-5.95a.46.46,0,0,0-.06-.16c-.11-.22-.2-.33-.21-.31s0,.09,0,.15C357.58,401.6,357.66,401.71,357.68,401.7Zm1.43,2.16a20.62,20.62,0,0,0,1.08,2.25C360.32,405.67,360.31,405.69,359.11,403.86Zm1.94,1.64c-.15-.14-.14,0,0,.23a1.61,1.61,0,0,0,.43.56c.14.12.18.07,0-.21A2.19,2.19,0,0,0,361.05,405.5Zm1.46-1c-.14-.16-.22-.21-.19-.1a3.22,3.22,0,0,0,.17.44c.06.13.17.24.22.2S362.72,404.82,362.51,404.51Zm.87-1.31c-.34-.32-.43-.36-.38-.24a1.7,1.7,0,0,0,.23.44c.25.28.37.29.33.16A2,2,0,0,0,363.38,403.2Zm1-1.5a3.65,3.65,0,0,0-.92-.51c-.18,0,.14.27.43.5s.73.53.85.44S364.67,401.94,364.35,401.7Zm2.06-1.18,0,.05.1,0Zm-1.38-.88.2.21.14.1-.1-.08C365.16,399.78,365.4,399.84,365,399.64Zm.64,0,0,.06h.07Zm-7.88-4.82c-.13-.09.12,0-.26-.23l.23.22.12.1Zm6.75,3.77c-.07,0-.05.06,0,.08a8.25,8.25,0,0,0,2,1A15.51,15.51,0,0,0,364.54,398.59Zm.74-.95c-.54-.08-.28.28-.44.51C365.91,398.45,365.37,397.91,365.28,397.64Zm-3.63-2.56c-.17-.07-.21-.06-.09,0l.2.13c.17.07.2.06.1,0Zm4.68,1.62h-.2c-.71-.18.27.39.72.69a3.38,3.38,0,0,0,1.6.71,13,13,0,0,1-2.31-1.39C366.22,396.71,366.61,396.91,366.33,396.7Zm.44-.1-.17-.09s0,0,0,.07.26.17.26.12Zm-2.89-3.39a.5.5,0,0,0,.17.06s0,0,0,0l-.19-.1C363.66,393.06,363.67,393.09,363.88,393.21Zm3.59,2.54c-.64-.24-.53-.05-.26.3.57.15,1,.28.66-.06A3,3,0,0,0,367.47,395.75Zm2.57.53-.15-.06c-.31-.14-.64-.3-.92-.41s-.56-.19-.23.06a2.61,2.61,0,0,0,.84.4.88.88,0,0,0,.34,0Zm-9.77-5.53-.33-.1c-.12,0-.08,0,.1.12a.8.8,0,0,0,.3.1S360.3,390.8,360.27,390.75Zm8.27,4c-.24-.05-.26,0-.05.21a.93.93,0,0,0,.39.19C369,395.11,368.78,394.92,368.54,394.73ZM366,393.32a2.06,2.06,0,0,0,.83.71s.19,0,.19,0S366.62,393.69,366,393.32Zm4,1.69s-.07,0-.05,0a.64.64,0,0,0,.31.17s0-.05-.07-.08Zm2.51.11-.1,0,.1.07Zm-3.07-1.93c-.07.3.56.75,1.61,1.34l.12.08-.06-.06A11.12,11.12,0,0,1,369.44,393.19Z"/><path d="M373,394.41a2.64,2.64,0,0,0,.46.33c.22.13.46.22.5.18s-.23-.23-.59-.42C373.12,394.41,372.82,394.27,373,394.41Z"/><path d="M362.52,388s0,.07.09.13a1.09,1.09,0,0,0,.51.21c.11,0,.15,0-.08-.17C362.65,388,362.57,388,362.52,388Z"/><path d="M369.25,391.62a1.82,1.82,0,0,0,.59.28s-.16-.18-.4-.31a2.69,2.69,0,0,0-.42-.19C368.84,391.36,369.06,391.51,369.25,391.62Z"/><path d="M345.21,409.55a4.59,4.59,0,0,1,.58.71l.29.43.36.48-.41-.44c-.18-.07-.17,0,.1.27a5.17,5.17,0,0,1,.59.68c0,.28,1,1.57,1,1.76l-.67-.85-.08-.11,0,.08a3,3,0,0,0,.72.91,3.74,3.74,0,0,1,.75,1c.17.23.12.21-.06,0-.09.11.58,1.07-.46.1-.09-.09-.05,0,0,.09.32.56,0,.45-.34.22-.6-.37-.71-.18-.88-.07s-.28-.07-1.2-1.08c-.3-.34-.7-.75-.61-.57s-.19-.07.45.57.93,1,.81,1c-.28-.12-.21.11-.31.17s-.49-.3-1.65-1.51l-.95-1L344.4,414s.06,0,0-.1-.31-.43.07-.08.68.67.93.95.45.55.28.46a11.83,11.83,0,0,1-1.12-1c.58.73.71,1,.55,1-.41.07-.91.06-.65.77.11.27-.11.09-1.7-1.38l-.12-.13.1.11c-.19-.09-.73-.48.41.54.87.77,1.33,1.25,1,1.09-.51-.26-.09.32-.14.46s.38.59-.67-.25c-.33-.27-.15-.07,0,.08.8.92.37.76-.18.5-.18-.08-.34-.15-.13.1.53.65.21.59-.06.55-.74-.11-.39.67-1.28.44-.49-.11.47.9-.84.15.71.81-.38.25-.09.75.13.2.52.66-1-.42-.73-.49-.17,0,0,.15,1.29,1.09,1,1.06.85,1.16a3.53,3.53,0,0,1-1-.58,3.21,3.21,0,0,0-.87-.71c-.12-.08-.25-.12-.22-.07a6.94,6.94,0,0,0,1.07.77,7.22,7.22,0,0,0,.71.79c.45.4-1-.58-.51-.18s.58.55.59.64a.31.31,0,0,1,0,.09c-1-.63-1.76-1.25-2.64-1.85l-.13-.1.1.09c-.16-.06-.93-.56-.71-.34a6.37,6.37,0,0,0,1.1.73c1,.66,1.21,1,2.11,1.56a14.26,14.26,0,0,1-1.7-1l.1.1-.29-.21-.16,0c2.83,2,1.62,1.49,1.7,1.78-1.11-.69-1.1-.83-1.84-1.32-.21-.13-.57-.37-.61-.38s.22.18.4.31c1,.69-.51-.17.48.51a14.9,14.9,0,0,1,1.57,1.16,18.76,18.76,0,0,0-1.69-1c-.37-.23-.7-.42-1-.55-.45-.25-.41-.18-.09.06.08.16.08.16,1.06.8l-1-.78.12,0,.93.53a6.79,6.79,0,0,1,1.12.79c0,.13.73.71.56.73s-.25.24-.18.49c0,.07-.05,0-.61-.28-.81-.47-.86-.48-.42-.17.76.53,1.22.87.31.42-.26-.13-.09,0,0,.09,1.11.84.07.42.19.68a3.21,3.21,0,0,1-.46-.2c-.21-.09-.77-.46-.73-.38s.54.3.76.4l.42.3c-.09.28,0,.66-.39.74s-.51.24-.15.68c.14.17.46.46-1.07-.31l-.14-.09.1.07c0,.08.67.48.13.29s-.06.15.23.38a2.15,2.15,0,0,1,.43.41c.17.25.15.24-1.76-.71a9.41,9.41,0,0,0-1.51-.9c.48.31.83.54,1.45.88,1.16.69,1.21.89,1.25,1s1,.89-.2.54l.11.47c.51.37-.16.19-.34.24a14,14,0,0,1-2.38-1l-.13-.06.08.05a5.51,5.51,0,0,0,.8.45c1.16.54,2.38,1.1,1,.65-.09,0-.14,0-.07,0,1.49.86-.35.31.48.87.05,0,0,.05,0,.05-.27,0-1-.23-.73-.08.73.39.15.25.48.46.53.34-1.07-.18-.19.31.19.1-.37-.1-.72-.24s-.85-.34-1.22-.51a4.16,4.16,0,0,0-1-.38c-.09,0,.18.14.72.37,1.86.78,2.42,1.08,2.12,1.15s-.56.16-.47.38-1-.18-1.38-.24l-.1,0,.15.05a5.7,5.7,0,0,1,1.35.56c.07.07-.38-.07-.88-.25l-.16-.07.12.06c-.26,0-1.54-.55-1.66-.49l-.47-.17-.14-.06.09.05.17.07.38.13.53.18c1.84.73,1.84.74-.25.15,1.86.64,2.53,1,2,.89-1.11-.16.25.55-1.82.06,0,.26-.84.22-1.16.37s-.95.32-1.13.58-.86.62-3.53.37c-1.51-.44-1.87-.67-1.92-.84s-.61-.73-.24-.92c0,0,.09-.06,0-.13-1.41-.84-.74-1.13-.34-1.45a1.73,1.73,0,0,0,.55-1.45c0-.73.85-1.16.53-2-.22-.62.6-.81-.09-1.64-.12-.14,0-.18.08-.26.44-.52.27-1.3.15-2.1A.31.31,0,0,1,327,421c.46-.48.23-1.3.21-2,0-.41.23-.69.28-1.07.07-.55.16-1.09.28-1.63a4.76,4.76,0,0,0,.35-1.87c-.06-.44.39-.56.36-1s.41-.48.15-1a.28.28,0,0,1,.05-.36c.41-.39.22-1.2.35-1.81a9.33,9.33,0,0,0,.48-1.38c.07-.74.69-1,.89-1.68.3-.94,1.13-1.45,1.76-2.11.33-.36.29-1.12,1-1.16,1,0,1.1-1,2.28-.77a1.29,1.29,0,0,0,1-.28c.27-.17.93.11,1.24,0a3.21,3.21,0,0,1,1.39.18c.18,0,.12-.29,1.28,1.12a2.92,2.92,0,0,1,.66.68c.17.22.21.32.12.25a5.39,5.39,0,0,1-.64-.71c-.56-.34-.52-.22.54,1.1.76,1,1.65,2,2.35,2.9l.09.11-.05-.07a9.56,9.56,0,0,1,2.47,2.24s0,0,0,0l-.51-.62C345.19,409.63,345,409.39,345.21,409.55Zm-13.73,20.7,0,0,.09,0Zm.93-.41h-.07l.12,0Zm1.63.34,0,0,.1,0Zm-.09-.28-.52-.18-.12-.06.09,0,.18.07.4.13.13,0Zm-5.19-2.37c-.08,0-.05,0-.07,0l.63.18c.08,0,.06,0,.09,0A3.4,3.4,0,0,0,328.76,427.53Zm5,1.49h0l.17.05Zm.07-.35-.31-.09.39.17c.19.07.29.1.29.08Zm-.4-.54-.14,0c-.06,0,0,0,.15.08s0,0,.06,0Zm-4.22-1.62-.15,0c-.06,0,0,0,.16.09s.05,0,.07,0Zm5.39,1.19h0l.17.07Zm-.26-.37-.16-.07.13.07Zm0-.31c-.07,0-.14,0-.08,0a4.18,4.18,0,0,0,.41.19c.21.09.29.11.25.08A4,4,0,0,0,334.41,427Zm-.17-.74c-.23,0,.36.33.42.44l-.12,0,.16.06C335.15,426.84,335.26,426.81,334.24,426.28Zm.65-.3c-.32-.15-.54-.23-.47-.18a3.85,3.85,0,0,0,.85.46c.25.12.56.24.5.19A7.7,7.7,0,0,0,334.89,426Zm.07-.64h0l.16.08Zm.65.1c-.08,0,.2.13.49.27l.51.23c.14.07-.08,0,.3.18l-.27-.17-.39-.22A4.79,4.79,0,0,0,335.61,425.44Zm-1.13-.76a14.39,14.39,0,0,0,1.52.75A9.76,9.76,0,0,0,334.48,424.68Zm1.45.15.07.05.13.07-.08-.05Zm-2-1.09.12.07.12.08-.08-.06Zm-4.78-3.16s0,0,0,0l-.2-.11-.1,0A1.14,1.14,0,0,0,329.19,420.58Zm6.39,3.22-.35-.16c-.05,0,0,.05,0,.08a1.56,1.56,0,0,0,.4.19S335.6,423.84,335.58,423.8Zm.63.09-.16-.08.14.08Zm0-.56,0,0,.06,0Zm-6.73-3.95.07,0-.12-.07Zm6.88,3.63c-.95-.47-1-.44-.2.07l.1.07-.07-.06C335.87,422.88,336.61,423.24,336.31,423Zm.45-.37,0,0,.08,0Zm-.76-1.23s-.07,0,0,0a1.15,1.15,0,0,0,.32.19l-.08-.07Zm.61.18h0l.14.08Zm0-.5c-.06,0-.13,0-.12.06s0,.13.64.46c.38.2.32.13.12,0ZM337,421l.08.06c.14.1-.06,0,.28.22l-.23-.19Zm0-.22s-.09,0-.09,0,.09.09.21.14,0,0,0,0A.53.53,0,0,0,337,420.75Zm1.42.79s0,0,.06.07l.14.07s0,0,0,0S338.45,421.52,338.44,421.54ZM333,417.22a2,2,0,0,0-.47-.26.67.67,0,0,0,.14.12,2.58,2.58,0,0,0,.54.31A1.34,1.34,0,0,0,333,417.22Zm-3-2c-.34-.23-.53-.33-.48-.26a2.6,2.6,0,0,0,.38.32c.23.16.48.29.44.22S330.1,415.28,330,415.2Zm1.21.38-.09,0,.12.08Zm6.6,4.14-.2-.13a.15.15,0,0,0,.07.07c.15.12.26.19.26.16Zm-1.24-2c-.17-.12-.28-.19-.2-.12a2.36,2.36,0,0,0,.33.26c.18.13.26.18.22.13Zm-2.21-1.63-.19-.13a.33.33,0,0,0,.06.08c.15.12.25.18.26.16Zm-.26-.37v0l.09.05Zm-.39-.71c-.17-.12-.25-.15-.13-.05a7.65,7.65,0,0,0,1,.71A7.74,7.74,0,0,0,333.71,415Zm5.56,3.73.08.07.13.1-.09-.07Zm-1.08-1a.93.93,0,0,0-.15-.1s0,.05.08.08l.17.13C338.42,417.93,338.38,417.88,338.19,417.75Zm-3.89-2.87c-.12-.07-.08,0,.1.11a.93.93,0,0,0,.15.1l-.08-.09Zm5,3.18a4.06,4.06,0,0,0-1-.57l-.48-.29c-.1-.05,0,.06.18.15a3.62,3.62,0,0,0,.37.2C338.58,417.62,339.63,418.41,339.31,418.06Zm-2.93-2.22-.18-.12c-.18-.11-.16-.09,0,.07l.15.09S336.39,415.86,336.38,415.84Zm-5.32-3.94.11.1-.12.06-.09,0,.13.08c.3.17.43.21.09-.09Zm7.27,5.14c-.1-.06-.28-.18-.26-.15a3.45,3.45,0,0,0,.63.54c.22.16.31.21.21.12Zm.12-.57.07.07.12.1-.07-.07Zm.19-.18.11.09.38.37a2.8,2.8,0,0,0,.49.39,1.4,1.4,0,0,0-.25-.24l-.59-.5Zm.23-.08c-.13-.11-.24-.18-.19-.11l.23.22c.16.13.26.19.21.13A2,2,0,0,0,338.87,416.21Zm-2.45-3.36-.09-.1c-.16-.14-.28-.22-.29-.2a.32.32,0,0,0,.09.1C336.29,412.79,336.39,412.86,336.42,412.85Zm1.88,1.43c.53.5.88.86,1.59,1.43C339.88,415.51,339.89,415.51,338.3,414.28Zm2.19,1.32c-.17-.11-.13-.05,0,.12a4.06,4.06,0,0,0,.53.41c.15.1.17.09,0-.1A5.85,5.85,0,0,0,340.49,415.6Zm1-.09c-.15-.13-.23-.18-.18-.12a2.62,2.62,0,0,0,.25.3.68.68,0,0,0,.23.18S341.72,415.75,341.47,415.51Zm.41-.4c-.34-.3-.42-.36-.36-.28a1.94,1.94,0,0,0,.29.33c.25.24.35.3.29.21A3.28,3.28,0,0,0,341.88,415.11Zm.47-.45a7.65,7.65,0,0,0-.81-.66c-.15-.09.16.21.43.45a3.28,3.28,0,0,0,.75.61S342.65,414.93,342.35,414.66Zm1.41.19,0,0,.08.06Zm-1.16-1.15.17.23.12.12-.08-.1C342.71,413.85,342.91,414,342.6,413.7Zm.52.27,0,0,.06,0Zm-6.57-6.5c-.1-.11.11,0-.21-.27l.19.25.1.12Zm5.61,5.32c-.06-.05,0,0,0,0a15.61,15.61,0,0,0,1.66,1.5C343.18,413.73,342.66,413.19,342.16,412.79Zm.57-.34c-.43-.28-.22.08-.34.17C343.26,413.27,342.8,412.68,342.73,412.45Zm-3-3.3c-.14-.13-.17-.13-.08,0l.17.17c.14.13.16.13.08,0Zm3.77,3.12-.16-.09c-.57-.44.22.38.58.78a6.81,6.81,0,0,0,1.28,1.19,24.75,24.75,0,0,1-1.85-2C343.47,412.23,343.77,412.54,343.55,412.27Zm.35.14-.14-.14s0,0,0,.07.21.23.21.2A.83.83,0,0,0,343.9,412.41Zm-2.22-3.63.13.12s0,0,0,0l-.15-.15C341.51,408.57,341.51,408.59,341.68,408.78Zm2.77,3.39c-.5-.46-.42-.28-.2.08.44.36.78.65.51.27A2.51,2.51,0,0,0,344.45,412.17Zm2,1.57-.12-.11-.71-.71c-.22-.22-.43-.39-.17-.07a5.28,5.28,0,0,0,.65.67,1.14,1.14,0,0,0,.26.14Zm-7.51-8.35-.26-.22c-.1-.08-.07,0,.07.14a1.55,1.55,0,0,0,.24.2S339,405.44,338.93,405.39Zm6.36,6.61c-.19-.15-.21-.11,0,.11a1.91,1.91,0,0,0,.29.32C345.65,412.49,345.47,412.25,345.29,412Zm-1.93-2.16a3.35,3.35,0,0,0,.63.87s.14.13.15.11A5.47,5.47,0,0,0,343.36,409.84Zm3,3.07s0,0,0,0a1.26,1.26,0,0,0,.23.26l-.05-.08Zm1.89,1.36-.08-.07.08.09ZM346,411.46c-.06.15.4.77,1.18,1.68l.09.12-.05-.08A19.68,19.68,0,0,1,346,411.46Z"/><path d="M348.62,414.07c.06.09.19.28.33.45a2.12,2.12,0,0,0,.37.38,2.34,2.34,0,0,0-.43-.57C348.74,414.17,348.52,413.91,348.62,414.07Z"/><path d="M341.11,404.44s0,.05.05.14a1.83,1.83,0,0,0,.38.4c.08,0,.12,0,0-.16S341.15,404.44,341.11,404.44Z"/><path d="M346,410.33a3.9,3.9,0,0,0,.43.49,1.76,1.76,0,0,0-.28-.41,4.57,4.57,0,0,0-.31-.35C345.66,410,345.81,410.16,346,410.33Z"/></svg>