<svg id="Layer_1" data-name="Layer 1" xmlns="http://www.w3.org/2000/svg" viewBox="0 0 519.8 405.74"><defs><style>.cls-1{fill:#021602;}.cls-2{fill:#d0a13d;}</style></defs><path class="cls-1" d="M349.86,96.47c-.2-.7.48-2.12-.63-2-6.21.63-12.51,2.34-18-2.47a1.88,1.88,0,0,0-1.81.16c-3.53,3.16-8.27,4.76-11.83,8.9,13.63,3.14,26.75,6.09,39.35,10.74,35.51,13.09,66.41,33.59,94.15,59.08,18.76,17.22,33.67,37.24,43.78,60.69,2.41,5.59,2.22,5.66-3.86,6.54-19.2,2.79-37.09-.94-53.76-10.73a38.34,38.34,0,0,1-5.29-3.75c-7.3-6.12-7.06-9.62-1-17,4.42-5.34,9.95-8.64,15.86-11.52,3.11-1.51,5.07-4.78,8.81-5.26,1-.13,1.33-1.4,1.13-2.48a2.58,2.58,0,0,0-2.33-2.25,7.07,7.07,0,0,0-4.35.86c-8.73,4.54-17.32,9.27-24.44,16.25-12.63,12.38-6.49,23.34,4.8,30.64a88.71,88.71,0,0,0,38,13.92c4.61.56,9.3.44,14,.57,1.37,0,3-.23,3-1.88-.12-4.56,3.11-3.06,4.4-1.94,2.44,2.12,4.77,2,7.62,1.76,2.57-.26,4.64.72,5.31,3.94,3.58,17,2.76,34.11.83,51.19a31.87,31.87,0,0,1-5.17,15c-4.56,6.56-9,6.61-13.67.29a19.06,19.06,0,0,0-1.32-1.45c-2.76,5-5.26,9.84-8.14,14.47a30.61,30.61,0,0,1-5.49,6.43c-5.36,4.87-10.93,2.85-12.27-4.36-.26-1.43-.25-2.92-.39-4.74-1.91.49-2.17,2.07-2.81,3.2a123.23,123.23,0,0,1-19.72,26.3c-3.18,3.17-6.79,7.8-11.91,5.16s-4.64-8.35-4.37-13.4c.29-5.47,2.61-10.55,3.5-16.62a88.76,88.76,0,0,0-15.06,8.86c-24.69,18.05-52.24,31.29-78.44,46.81-8.3,4.93-16.75,9.62-24.1,16-4.24,3.66-8.42,4.41-14.1,2-10.32-4.36-21.38-6.59-32.52-8-8.16-1.06-15.86-4.37-23.94-5.27-5.41-.6-9.53-3.94-14.42-5.45s-11-1.05-15.28-5.7c-.84-.92-5.07-1.64-7.74-2.67-2.27-.88-2.66-4.05-4.2-4-8.57.06-15-6.75-23.61-6.83-3.95,0-7.06-4.15-11.52-4.7-6.43-.79-12-4-17.71-7.1a16,16,0,0,0-5.36-1.3c-10-1-18-7.29-27.33-9.73-7-1.83-14-3.78-20.84-5.93-4-1.27-8.23-1.64-12.23-3C61.62,330.67,50,326,37.19,325.28c-2.44-.14-5.39-2.49-8.27-2.42-6.27.14-11.56-2.78-17.25-4.53-7-2.14-8-3-8.09-9.87,0-.68.24-1.34-.8-1.25-1.39.12-2.94.27-2.77-1.74.15-1.7,1.7-2.51,3.1-2.93,5.1-1.51,10.27-2.8,15.39-4.25,15.36-4.34,30.67-8.85,46.64-10.5,11.55-1.19,23.08-2.57,34.62-3.85,9.8-1.1,19.48-3.85,29.49-1.7,2.35.5,3.32-1.27,3.09-3.4-1.54-14.41-2.23-28.9-4.75-43.2a12.43,12.43,0,0,0-3.21-6.67C113.56,218,108,204.08,103,189.89,94.13,165,86.6,139.73,84.76,113.39c-2.77-39.53,10.66-73.33,40-100.2C139.26,0,156.53-.7,174.57,4.12,187,7.45,197.73,14.23,208,21.6,224,33,240.07,44.48,252.56,60c4.05,5,7.57,10.42,11.61,16a85.92,85.92,0,0,1,8.16-13.63c1.14-1.5,1.71-2.91-.47-4.58-6.56-5-7.74-13.37-3.13-19.81,5.1-7.11,13.26-8.52,20.59-3.55L291.66,36a42.5,42.5,0,0,0,1-5.09c.83-10.87,10.5-20.66,22-23.68,18-4.73,33.78-.86,47,12,7.87,7.64,12.78,17,13.51,28.43.43,6.66-.07,13.28,0,19.92s-4.2,11-7.63,16.33-8.64,7.31-12.88,11c-1.38,1.2-2.89,2.23-4.91,1.54ZM196.13,178.23c1.21.22,1.76-.61,2.24-1.47,1.08-1.92,3.17-3.47,2.55-6a1.44,1.44,0,0,0-2-.94c-2.68,1.07-3.08,3.54-3.49,6-1.66-4-3.63-5.79-6.9-1.24-.56.79-1.43,1.43-2.55-.22s-2.67.23-3.66,1c-1.86,1.39,0,3,.25,4.46.21,1.11,1,1.78,2.18,1.17C188.34,179,192.4,179.35,196.13,178.23Zm1.92,9.37a2.81,2.81,0,0,0,2.81.53c6.69-2.37,10.78-7.84,14.95-13a4.51,4.51,0,0,0-.85-6c-1.84-1.5-3.38.39-4.87,1.25-5.83,3.37-8.08,9.9-12.63,14.41-2.21,2.11-5.14,2.07-7.88,2.57-2.2.4-3.21,1.56-2.74,3.8s2,2.24,3.82,1.94C194.08,192.53,197,191.31,198.05,187.6Zm66.37,72.72a8.26,8.26,0,0,1-4.92-.21c-11.82-4-23.36-8.69-34-15.39a45.76,45.76,0,0,0-7.94-4.14c-11.19-4.26-20.62-11.4-30.24-18.22-2-1.4-3.61-4.93-5.7-4.11-2.57,1-.35,4.41-.63,6.77-.44,3.71.79,8.55-3.51,10.07s-7.16-2.68-9.62-5.66-4-6.25-6.47-10.08c-.32,1.46-.48,2-.57,2.64-.68,4.28.38,10-5.21,11.23-5.33,1.22-8.14-3.48-11-7.2a12.94,12.94,0,0,1-.82-1.26c-1.71-2.91-3.41-5.83-5.55-9.49-1.56,12.17-3.4,23.1-1.49,34.56,3.28,19.69,4.2,39.73,7.78,59.4.48,2.65.68,5.83,3.46,6.77,4.68,1.56,8.32,4.78,12.62,6.93,10.12,5,20.43,9.9,29.88,16a645.19,645.19,0,0,0,104,54.84c3.48,1.45,6,1.15,8.52-1.33a95.79,95.79,0,0,1,14.63-11.2c32.52-21.48,68.25-37.54,100.55-59.39,1.12-.75,2.63-1.7,3.71-1.05,3.54,2.11,3.92-.85,4.6-2.77,2.49-7.06,4.77-14.19,7.15-21.28a13.44,13.44,0,0,0-.7-10.21c-4.15-8.89-7.8-18-12.87-26.48-4.56-7.61-9-15.3-13.41-23-2.16-3.78-4.89-3.38-7.37-4.22-1.89-.63-4.71.42-4.15,4,.18,1.12-1.24,1.35-2.13,1.76-23,10.59-44.91,23.36-68.91,31.72C319.3,272,314.51,274,309.79,276c-2,.85-4.07,1.57-4,4.75.08,4.46,1.58,8.74,1.4,13.14-.38,9.62-.36,19.34-1.82,28.81s-2.61,18.66-2,28.13c.08,1.17.05,2.5-1.52,2.66-1.22.13-1.64-1-2-1.91a13.71,13.71,0,0,1-.64-2.92c-2.54-23-5.08-46-1.4-69.15.56-3.53-.71-5.5-3.95-7a152.39,152.39,0,0,0-22.1-7.75c-2.21-.64-4.65-.82-5.76-3.33,4.14-1.54,6.14-5.72,7.83-8.83,6.21-11.44,16.22-19,25.89-26.69,7.54-6,15.29-11.89,24-16.47,4.94-2.6,10.6-4,15.23-7.94-5.74-2.34-10.4.29-14.85,2.61C299,217.28,278.55,235.44,264.42,260.32Zm69-182.66c1.61-2.43,2.9-4.37,4.17-6.32,5-7.63,5-7.68-2.76-13C325.47,52,316,45.73,310.59,35.21c-1.36-2.64-3.3-2.57-5.22-.69-2.5,2.44-4.87,5-7.26,7.56-14.37,15.2-26.68,31.86-35.82,50.76a16.82,16.82,0,0,0-2.12,6.61c-.6,14.9,1.53,29.24,9.12,42.37,4,6.85,9.25,12.27,17.24,14.19,5,1.2,10.25,1.62,14-2.66,6.22-7.14,10.26-15.35,11.18-25,.79-8.46-1.85-16.83-.24-25.3-3.09-.33-6.13-.34-9-1.05s-3.42-.1-2.93,2.77c1.27,7.46,4.07,14.38,6.84,21.34.76,1.93,2.23,4,.39,7.18-4.86-7.68-9.25-14.67-11-22.85-1.74-7.94-2.85-16-7.38-23.09-1.76-2.76-1.82-6.38-1.36-9.75.15-1,.22-2.39,2.49-2.29.46,2.09.92,4.32,1.42,6.54,1.57,6.92,8.58,12.91,15.49,13.08,9.78.23,16.09-6.37,22.89-11.91,1.62-1.32.12-2-1-2.94-1.87-1.59-3.49-4-1.27-6,2.07-1.8,3.83.58,5.29,2.13C332.69,76.58,333,77,333.46,77.66Zm-145,134.52c-7.88-19.75-16.72-38-23.67-57.05-1.15-3.15-3-4.59-6.52-5-19.81-2.5-39.61-5.13-59-10.13-4.28-1.11-5.19-.3-3.91,4.19,2.87,10.07,6,20.08,9,30.11a262.69,262.69,0,0,0,13.61,35.91c1.67,3.56,3.62,7,7,9.37,1.7-1.62.38-5.1,3-4.9,3.47.25,1.95,4.39,3.74,6.3,1.86-2,1.26-4.46,1.2-6.7-.15-5-.56-10-.79-15-.06-1.16.12-2.45,1.42-2.92s2.26.57,2.87,1.5a62.33,62.33,0,0,1,4.3,7.3c2.46,5.27,4.38,10.82,8.13,15.4,1.22,1.5,2.39,3.79,4.69,2.91,2.14-.82,2.12-3.36,2-5.26-.39-4.47-1.21-8.9-1.71-13.36-.24-2.07-1.1-5.37,1-5.81,2.46-.51,4.46,2.13,5.57,4.64a16.88,16.88,0,0,1,.57,1.91,50.92,50.92,0,0,0,8.84,16.66c1.47,1.93,3,3.91,5.57,4,0-5-.09-9.85,0-14.65.06-2.2.66-4.35,3-5.35s3.83.43,5.37,1.69S186.41,210.36,188.42,212.18ZM154.67,87.71c2.13,8.93,1.26,18.65,5.58,27.43,2.77,5.62,2.47,12.37,6.19,17.72.29.42.07,1.25,0,1.87-.51,2.85.12,4.69,3.06,6.24,3.92,2.05,5.25,7.62,2.38,9.05-4,2-1.7,3.7-.79,5.72.62,1.37,1.31,2.7,1.93,4.06,3.91,8.58,3.9,8.58,12.66,6a17.15,17.15,0,0,1,2.42-.61c3.25-.49,4.42-2.22,4-5.55-2.84-22.28-5.47-44.59-8.42-66.85-.83-6.24-2-12.62-6-17.77-1.67-2.12-2.27-4-1-6.9-3.34,2.6-6.07,1.44-8.74-.19-2.4-1.46-5-1.49-7.72-1.43-4,.08-4.58,4-6.75,6-1.64,1.54.76,2.59,1.91,3.72s.77,2.89-.45,3.94a29.94,29.94,0,0,1-6,4.43c-16.25,8.06-32.56,16-50.72,19-1.88.31-4,.34-5.46,2.17,1,2.14,3.28,3.25,4.87,2.42,5.35-2.78,11.33-1.72,16.79-3.4,4.91-1.51,9.44-4,14-6.06C137.11,94.9,145.83,90.86,154.67,87.71Zm309.56,239a28.81,28.81,0,0,0,8.43-10.68c3-6.68,5.74-13.47,8.58-20.21.7-1.67,1.15-3.78,3.45-3.68s2.78,2.08,3.42,3.82c1.3,3.56.6,7.25.77,10.89.06,1.21-.73,3,1,3.44,1.46.35,2.16-1.3,2.88-2.38a26.61,26.61,0,0,0,4-9.11c3-14.13,3-28.43,2-42.74a10.75,10.75,0,0,0-1.84-6.06c-2.58,3.47-4.79,6.79-7.33,9.83-12,14.34-27.85,23.5-44.33,31.67-2.88,1.43-5.77,2.51-6.52,6.18-3,14.7-8.2,28.79-12.28,43.18-.9,3.21-2,6.5-1.38,10.05,2.89-.44,4.19-2.24,5.65-3.8,10.63-11.34,17.17-25.25,24.4-38.73,1.71-3.19,2.51-8.78,7-7.73s4.18,6.65,4.32,10.71c.09,2.79-.67,5.6-1.08,8.4C465.07,321.75,464.73,323.69,464.23,326.75ZM184,64.47c7.36-2.69,13.09-6.78,17.32-13.58,2.48-4,5.42-6,1.91-11.71-3.33-5.41-7.8-7.41-12.8-8.94-6.77-2.07-12.86,1.85-19,3.92-17.43,5.91-33.51,14.7-49,24.45-7.8,4.89-15,10.55-20.52,18-2.72,3.68-2.09,5.49,2.3,6.65,6.69,1.77,13.08.68,19.19-2.29a41.74,41.74,0,0,1,9.75-3.53c3.7-.71,6.47-1.61,8.64-4.58.57-.78,1.35-1.94,2.09-2,5.1-.27,8.25-4.26,12.43-6.22,3.6-1.68,5-5.77,8.13-7.51s2.43-3.66,1.81-5.77c-.75-2.55-3-2.89-5.3-2.45a28.62,28.62,0,0,0-12,5.44c4.46.44,8.24-2.2,13.2-.25-7.45,4-12.57,9.38-19.55,12.53a193.91,193.91,0,0,1-22.86,9.16,85.14,85.14,0,0,1-9.25,2c-1.11.22-2.64.38-3.2-.64-.75-1.38.83-2.31,1.46-3.4,1.28-2.23,4-1,5.86-2.5,3.74-2.95,6.94-6.56,11.17-8.93,8.05-4.53,15.95-9.16,24.54-12.82C164,43.74,177.67,38,192.43,35.38c3.42-.6,6.27,1.07,8.53,3.31,1.84,1.82-.48,3.62-1,5.33-2.24,7.39-7.95,12.1-13.57,16.82C185.35,61.73,183.5,62,184,64.47ZM324.12,237a2.11,2.11,0,0,1,1.45-1.84c4.28-1.91,7.61-5.65,12.62-6.24,1.16-.14,4.11-1.79,2.1-3-2.39-1.42-5.62-3.75-8.82-1.91-11.88,6.82-23.34,14.25-31.24,25.86-2,2.9-3.86,6.34-1,9.63s6.74,3.46,10.58,2a72.16,72.16,0,0,0,22.53-13.65c2.89-2.58,1.71-5.54,1-8.29-.67-2.52-3.05-2.71-5.35-2.53C326.68,237.1,325.38,237.71,324.12,237ZM358.41,137c5.66-4.19,12-5.11,17.83-7.23,1.42-.52,4,.37,4-1.87,0-1.68-2.46-1.94-3.72-3-1-.83-2.25-.62-3.37-.41-7.43,1.47-14.49,4-20.4,8.81-4.57,3.7-4.07,7.33,1.53,9.08,14.2,4.43,28.46,4.93,42.23-1.75,1.15-.56,3.66,1.4,3.3-1.26-.29-2.14-2.5-3-4.62-3a19,19,0,0,0-4.39.76,55,55,0,0,1-18.36,1,78.47,78.47,0,0,1,9.89-3.2c3.05-.86,6.07-1.78,10-2.94-5.3-2.29-9.46-2.45-13.88-.63a102.46,102.46,0,0,0-11.22,5.41C364.61,138.3,361.83,139.5,358.41,137Zm112.46,79.53,9-.55c-.89-2.44-1.32-4.19-3.12-5.58-7-5.41-21.86-5.29-29.77.51-5,3.68-5,7.24.34,10.39,6.62,3.92,13.95,5,21.5,4.44,1.72-.14,4.36.57,4.88-2.32C474.17,220.94,474.09,218.49,470.87,216.57ZM244.76,157.84c-.19-2-.34-4-.57-6-.75-6.63-4.33-9.63-10.78-8-10.76,2.68-19.65,8.81-27.41,16.57-1.52,1.52-3,3.85-1.05,5.75,2.22,2.18,3.54-1,4.68-2a108.3,108.3,0,0,1,18.7-13c3.58-1.91,7.54-3.79,11.24-1s2.35,7,2,10.73c0,.49-.25,1-.35,1.45-2.82,13.43-9.63,24.68-18.81,34.68-.88,1-3.2,1.67-1,3.86,2.33,2.34,3.08.12,4.21-1.08,8-8.41,13.14-18.37,16.33-29.47C243.1,166.31,244.81,162.3,244.76,157.84Zm127.89,14.78c1.45,1.77,2.71,2,3.78,1.76,6.12-1.55,12.56-.31,18.64-2.37,8.39-2.84,17.34-3.95,25.14-8.7,1.57-.95,4.81.3,4-3.19-.83-3.68-3.54-2.81-5.92-1.71-8.86,4.1-18.44,5.53-27.79,7.83A84.81,84.81,0,0,0,372.65,172.62Zm-3.47,59.22c-2.74-1.71-3.88.76-5.24,1.82-1.2.94.35,2,1,2.86,1.31,1.85,2.93,1.68,4.81.85a25.82,25.82,0,0,1,4.3-1.21c7.72-1.92,15.45-3.8,23.17-5.76,1.36-.35,3.42-.56,3.1-2.49-.69-4.2-9.18-6.63-12.83-3.6C382,228.8,375.35,229.83,369.18,231.84Zm22.45-14c-2.71-4.91-6-4.78-10.35-3.78-6.4,1.48-12.22,4.86-18.91,5.31-2.3.15-4.87,1-4.19,4.2.76,3.57,3.48,2.42,5.62,1.8,3.3-1,6.25-2.59,9.88-3.06C379.65,221.57,385.45,219.47,391.63,217.86ZM282.88,38.61c-3.76.38-7.38,1.39-10.32,4.07-2.64,2.4-3.76,5-.91,8.09,2.71,2.89,5.55,3.45,8.56.49,1.87-1.86,3.67-3.79,5.51-5.69,1.3-1.35,3.67-2.38,2.49-4.74C287.23,38.85,284.93,38.9,282.88,38.61ZM203,144.47c10.57-8.65,17.95-22,33.39-25.84-2.41-3.54-5.23-2-7.85-.82C217,123,202.5,138.73,203,144.47Zm-88.35-101c.78-.18,1.83-.1,2.3-.58,5.5-5.59,13.32-7.09,19.63-11.2,7-4.56,15-7.18,22.27-11.08.81-.43,2.27-.22,2-1.55-.21-1.08-1.49-1.27-2.48-1a14.16,14.16,0,0,0-3.27,1.16c-6.51,3.29-13.23,6.19-19.4,10.14-2.54,1.62-5,3.61-7.83,4.47C122.29,35.46,118.4,39.32,114.61,43.44ZM378.26,203c-.68-.92-3.29-2.46-4.54-1.74-5.24,3-11.1,3.69-16.65,5.47-.88.28-3.64-.15-2.85,2.62.68,2.37,2.15,3.43,4.44,2.56a89.77,89.77,0,0,1,17.27-4.51C377.66,207.1,379.15,206.38,378.26,203Zm-24.61-85.22c-1.29-2.45-3.16-2.49-5.08-1.44a119.75,119.75,0,0,0-20,13.68c-.93.78-2.35,1.91-1.27,3.26.9,1.12,2.1-.09,3.08-.57,7.76-3.76,14.28-9.52,21.75-13.76A14,14,0,0,0,353.65,117.77Zm16.87,75.84c-2.66-2.3-5.77-4.88-8.61-3.37a17.51,17.51,0,0,1-8.35,2.52c-3.33.06-2.66,2.9-2.54,4.87a2.25,2.25,0,0,0,3.67,1.79C359.34,196.21,365.34,197.2,370.52,193.61Zm-18.22-7.33c2,.22,5-.63,5.26-3.44.36-3.37-3.41-3.92-5.69-4.16-2.63-.29-3.73,2.32-3.95,4.74S349.43,186.39,352.3,186.28ZM203.57,222.16c.74-2.66-.58-4.92-1.11-7.23-.29-1.23.06-3.93-2.75-2.64-1.3.6-2.94-1.93-3.82.43a4.18,4.18,0,0,0,1.56,5.19C199.44,219.32,201,221.32,203.57,222.16ZM198,198.58c-.7,3.5-6,.55-6.1,4.59-.05,1.61.72,4,2.49,3.52,2-.55,5.39-.22,5.63-3.66A5.06,5.06,0,0,0,198,198.58Zm2.57-53.66c-2.51,2.5-5.38,4.79-6.9,9.64C199,152.47,200,148.86,200.57,144.92Z"/><path class="cls-1" d="M519.46,264.31c-1.81-9.89-3.5-19.65-6.62-29.2-9.07-27.83-24.59-52.18-40.33-76.47-5.77-8.9-12.43-17.24-16.94-27-1.2-2.59-4.36-4.28-6.64-6.35a35.81,35.81,0,0,1-3-2.61c-1.17-1.33-1.76-3-.4-4.51s3.25-1.36,4.94-.23a57.63,57.63,0,0,1,15,14.29c10.54,14.68,21.36,29.2,30.09,45.09A93.06,93.06,0,0,1,505,200.55a3.45,3.45,0,0,0,1.28,2.36c3.34,2.63,2.91,6.67,3.2,10.37,0,.41-.29.83.17,1.2,5.13,4.24,4,10.6,5.4,16.09q1.93,7.56,3.54,15.21A59.38,59.38,0,0,1,519.46,264.31Z"/><path class="cls-1" d="M105.2,2.1c-1.13,1.43-2.07,3.39-3.62,4.44-5.44,3.69-8.46,9.68-13.19,13.8-5.84,5.09-8.32,12.78-14.67,17.19-2.51,1.75,0,4.49-1.91,6.56-6,6.47-9.19,14.59-12.1,22.79-.27.78-.46,2.13-1.72,1.75-2.07-.61-.35-1.92-.18-2.75,3.41-17,11.69-31.65,21.9-45.34C84.38,14.28,89.32,8.26,95.38,3.2,97.68,1.28,100.25.62,103,.07,104.6-.25,105.1.53,105.2,2.1Z"/><path class="cls-2" d="M266.06,261.44c1.11,2.51,3.55,2.69,5.76,3.33a152.39,152.39,0,0,1,22.1,7.75c3.24,1.5,4.51,3.47,3.95,7-3.68,23.13-1.14,46.15,1.4,69.15a13.71,13.71,0,0,0,.64,2.92c.32.93.74,2,2,1.91,1.57-.16,1.6-1.49,1.52-2.66-.63-9.47.53-18.75,2-28.13s1.44-19.19,1.82-28.81c.18-4.4-1.32-8.68-1.4-13.14-.07-3.18,2-3.9,4-4.75,4.72-2.05,9.51-4,14.37-5.67,24-8.36,45.95-21.13,68.91-31.72.89-.41,2.31-.64,2.13-1.76-.56-3.54,2.26-4.59,4.15-4,2.48.84,5.21.44,7.37,4.22,4.38,7.67,8.85,15.36,13.41,23,5.07,8.47,8.72,17.59,12.87,26.48a13.44,13.44,0,0,1,.7,10.21c-2.38,7.09-4.66,14.22-7.15,21.28-.68,1.92-1.06,4.88-4.6,2.77-1.08-.65-2.59.3-3.71,1.05-32.3,21.85-68,37.91-100.55,59.39a95.79,95.79,0,0,0-14.63,11.2c-2.53,2.48-5,2.78-8.52,1.33a645.19,645.19,0,0,1-104-54.84c-9.45-6.13-19.76-11-29.88-16-4.3-2.15-7.94-5.37-12.62-6.93-2.78-.94-3-4.12-3.46-6.77-3.58-19.67-4.5-39.71-7.78-59.4-1.91-11.46-.07-22.39,1.49-34.56,2.14,3.66,3.84,6.58,5.55,9.49a12.94,12.94,0,0,0,.82,1.26c2.83,3.72,5.64,8.42,11,7.2,5.59-1.27,4.53-6.95,5.21-11.23.09-.6.25-1.18.57-2.64,2.42,3.83,4.12,7.22,6.47,10.08s5.22,7.21,9.62,5.66,3.07-6.36,3.51-10.07c.28-2.36-1.94-5.76.63-6.77,2.09-.82,3.73,2.71,5.7,4.11,9.62,6.82,19,14,30.24,18.22a45.76,45.76,0,0,1,7.94,4.14c10.62,6.7,22.16,11.35,34,15.39a8.26,8.26,0,0,0,4.92.21Z"/><path class="cls-2" d="M369.18,231.84c6.17-2,12.86-3,18.27-7.53,3.65-3,12.14-.6,12.83,3.6.32,1.93-1.74,2.14-3.1,2.49-7.72,2-15.45,3.84-23.17,5.76a25.82,25.82,0,0,0-4.3,1.21c-1.88.83-3.5,1-4.81-.85-.61-.87-2.16-1.92-1-2.86C365.3,232.6,366.44,230.13,369.18,231.84Z"/><path class="cls-2" d="M391.63,217.86c-6.18,1.61-12,3.71-17.95,4.47-3.63.47-6.58,2.09-9.88,3.06-2.14.62-4.86,1.77-5.62-1.8-.68-3.24,1.89-4.05,4.19-4.2,6.69-.45,12.51-3.83,18.91-5.31C385.61,213.08,388.92,213,391.63,217.86Z"/><path class="cls-2" d="M378.26,203c.89,3.39-.6,4.11-2.33,4.4a89.77,89.77,0,0,0-17.27,4.51c-2.29.87-3.76-.19-4.44-2.56-.79-2.77,2-2.34,2.85-2.62,5.55-1.78,11.41-2.45,16.65-5.47C375,200.53,377.58,202.07,378.26,203Z"/><path class="cls-2" d="M370.52,193.61c-5.18,3.59-11.18,2.6-15.83,5.81a2.25,2.25,0,0,1-3.67-1.79c-.12-2-.79-4.81,2.54-4.87a17.51,17.51,0,0,0,8.35-2.52C364.75,188.73,367.86,191.31,370.52,193.61Z"/><path class="cls-2" d="M196.13,178.23c-3.73,1.12-7.79.78-11.35,2.66-1.16.61-2-.06-2.18-1.17-.29-1.48-2.11-3.07-.25-4.46,1-.74,2.57-2.57,3.66-1s2,1,2.55.22c3.27-4.55,5.24-2.74,6.9,1.24C195.68,176.57,195.9,177.4,196.13,178.23Z"/><path class="cls-2" d="M352.3,186.28c-2.87.11-4.61-.36-4.38-2.86s1.32-5,3.95-4.74c2.28.24,6.05.79,5.69,4.16C357.26,185.65,354.3,186.5,352.3,186.28Z"/><path class="cls-2" d="M197.46,184.8c.2.93.4,1.87.59,2.8-1.06,3.71-4,4.93-7.39,5.51-1.8.3-3.36.3-3.82-1.94s.54-3.4,2.74-3.8C192.32,186.87,195.25,186.91,197.46,184.8Z"/><path class="cls-2" d="M203.57,222.16c-2.55-.84-4.13-2.84-6.12-4.25a4.18,4.18,0,0,1-1.56-5.19c.88-2.36,2.52.17,3.82-.43,2.81-1.29,2.46,1.41,2.75,2.64C203,217.24,204.31,219.5,203.57,222.16Z"/><path class="cls-2" d="M198,198.58a5.06,5.06,0,0,1,2,4.45c-.24,3.44-3.59,3.11-5.63,3.66-1.77.48-2.54-1.91-2.49-3.52C192,199.13,197.3,202.08,198,198.58Z"/><path class="cls-1" d="M325.15,73.22c-.78,3.85-.76,8.28-4.81,10.72-2.14,1.28-5,2.39-6.34-.77-1.2-2.89-.78-6.37,2.82-7.28,2.45-.62,3.75-1.28,4.19-3.81.25-1.45.4-3.89,2.63-3.35C325.52,69.19,324.93,71.48,325.15,73.22Z"/><path class="cls-1" d="M305.8,63c.76,2.88,1.7,5.67,5.5,3.52a1.7,1.7,0,0,1,2.21.57,2.2,2.2,0,0,1-.19,2.74c-1.93,3-4.83,3.58-7.84,2.49s-2.63-3.79-1.88-6.3A4.82,4.82,0,0,1,305.8,63Z"/><path class="cls-1" d="M311.32,91.66c-2.31-.39-4.34-1-4.74-3.62-.2-1.31.51-2.58,1.86-2.22,2.3.62,5,1.29,5.34,4.27C314,91.64,312.32,91.47,311.32,91.66Z"/><path class="cls-1" d="M305.33,255.33c5.93-7.76,13.41-10.13,21.52-11.32C321.05,249.47,315.19,254.81,305.33,255.33Z"/><path class="cls-1" d="M452.91,215.78c3.82-1.69,7.31-.81,10.74-1.1C461.47,220.57,460.21,220.74,452.91,215.78Z"/></svg>