<svg width="554" height="554" viewBox="0 0 554 554" fill="none" xmlns="http://www.w3.org/2000/svg">
<g clip-path="url(#clip0_966_285)">
<path d="M277 554C350.465 554 420.921 524.816 472.869 472.869C524.816 420.921 554 350.465 554 277C554 203.535 524.816 133.079 472.869 81.1314C420.921 29.1838 350.465 0 277 0C203.535 0 133.079 29.1838 81.1314 81.1314C29.1838 133.079 0 203.535 0 277C0 350.465 29.1838 420.921 81.1314 472.869C133.079 524.816 203.535 554 277 554ZM277 138.5C291.391 138.5 302.969 150.078 302.969 164.469V285.656C302.969 300.047 291.391 311.625 277 311.625C262.609 311.625 251.031 300.047 251.031 285.656V164.469C251.031 150.078 262.609 138.5 277 138.5ZM242.375 380.875C242.375 371.692 246.023 362.885 252.516 356.391C259.01 349.898 267.817 346.25 277 346.25C286.183 346.25 294.99 349.898 301.484 356.391C307.977 362.885 311.625 371.692 311.625 380.875C311.625 390.058 307.977 398.865 301.484 405.359C294.99 411.852 286.183 415.5 277 415.5C267.817 415.5 259.01 411.852 252.516 405.359C246.023 398.865 242.375 390.058 242.375 380.875Z" fill="black"/>
</g>
<defs>
<clipPath id="clip0_966_285">
<rect width="554" height="554" fill="white"/>
</clipPath>
</defs>
</svg>
