<svg width="424" height="512" viewBox="0 0 424 512" fill="none" xmlns="http://www.w3.org/2000/svg">
<path d="M277.576 456.721C55.244 456.721 65.7506 68.5465 208.86 38.9624C261.477 27.7937 313.501 73.6619 329.685 161.221C341.886 126.01 367.474 97.1075 396.537 88.5818C376.961 61.2313 351.219 38.942 321.422 23.5435C291.626 8.14505 258.624 0.0764289 225.128 0C81.8493 0 0 112.113 0 258.84C0 334.718 50.0755 500.031 220.298 511.541C329.854 518.617 393.232 442.312 422.21 393.801C423.513 391.619 424.129 389.091 423.978 386.55C423.826 384.009 422.915 381.573 421.363 379.563C420.191 378.041 418.688 376.809 416.97 375.961C415.251 375.113 413.363 374.673 411.449 374.673C409.536 374.673 407.647 375.113 405.929 375.961C404.211 376.809 402.708 378.041 401.536 379.563C384.929 400.707 344.343 456.721 277.576 456.721Z" fill="black"/>
</svg>
