<svg id="Layer_1" data-name="Layer 1" xmlns="http://www.w3.org/2000/svg" viewBox="0 0 416.8 583.26"><path d="M416.8,224.28v15.54a9.42,9.42,0,0,0-.21,1.48c0,6.44-.56,12.83-1.12,19.23a82.73,82.73,0,0,1-3.4,17.79,58,58,0,0,1-9.78,19,33.29,33.29,0,0,1-14.14,10.61,37.17,37.17,0,0,1-13.28,2.41,28.72,28.72,0,0,0-4.15.24,5.34,5.34,0,0,0-4.6,3.88,9.3,9.3,0,0,0-.37,1.47c-.27,2.2-.55,4.4-.75,6.61-.76,8.33-1.48,16.66-2.25,25-.67,7.31-1.5,14.61-2.81,21.85a85,85,0,0,1-9.59,27c-6.78,12-16.28,21.38-27.74,28.93a52.59,52.59,0,0,1-20.09,8.24c-4.1.72-8.21,1.33-12.32,1.94-7.4,1.11-14.76,2.5-22.27,2.65a3.72,3.72,0,0,0-3.5,2.3,6.32,6.32,0,0,0-.55,1.42c-.52,2.58-1.1,5.15-1.47,7.75a15.42,15.42,0,0,0-.08,4.65l1,.44,13.85,5.62,52.08,21.2A22.78,22.78,0,0,1,342.18,510a94.35,94.35,0,0,1-24.71,38.12,111.73,111.73,0,0,1-33.85,21.51c-16,6.73-32.8,10.36-50,12.11-6.52.67-13.08,1.06-19.63,1.32a305.22,305.22,0,0,1-41.67-1.48,301.23,301.23,0,0,1-31.49-4.74,279.4,279.4,0,0,1-72.95-25.57,251.54,251.54,0,0,1-48.69-32.66,79,79,0,0,1-6.72-6.19A22.32,22.32,0,0,1,9,487.71c.16-.33.51-.73.43-1-.32-1.08.5-1.46,1.07-2a9.1,9.1,0,0,0,.93-1,24.73,24.73,0,0,1,5.94-5.56,49.6,49.6,0,0,0,4.47-3.26c6.39-5.47,12.76-11,19.07-16.53A33.76,33.76,0,0,1,47.23,454c6.67-3.59,13.3-7.24,20-10.87.5-.28,1-.45,1.16-1.22a35.13,35.13,0,0,1,1-4.17,309.06,309.06,0,0,0,8.51-37.53c.36-2.23.72-4.48.9-6.73.2-2.42-.78-3.22-3.14-2.82-.73.13-1.44.32-2.17.46a4.79,4.79,0,0,1-4.72-1.63,10.28,10.28,0,0,1-2.16-4A58.08,58.08,0,0,1,64,369.93a42.68,42.68,0,0,0-.52-5.65,26.28,26.28,0,0,0-7.91-15.21,40.06,40.06,0,0,0-7.51-5.42,80.79,80.79,0,0,1-21.45-17.58C13.69,310.88,8.51,293,8.49,273.37a38.38,38.38,0,0,1,6.91-21.74,8.23,8.23,0,0,0,1-7.78c-.57-1.56-1.27-3.07-2-4.58a163.87,163.87,0,0,1-11-29.86,20.94,20.94,0,0,1-.3-9.18,17.33,17.33,0,0,0-.86-9.53c-.71-1.9-1.23-3.87-1.86-5.8a5.57,5.57,0,0,0-.45-.83V172.42a15.2,15.2,0,0,0,.27-1.62c.43-8,.77-16,2-23.89.7-4.72.21-4.41,3.39-7.9a6.22,6.22,0,0,0,1.49-5.67c-.26-1.31-.58-2.61-.85-3.92a7.27,7.27,0,0,1,.12-3.56,61.27,61.27,0,0,1,4.92-12.18A75.71,75.71,0,0,1,26.65,94.16a42.06,42.06,0,0,1,10.69-7.59,24.7,24.7,0,0,1,14-2.43,7.18,7.18,0,0,0,1.39,0,1.75,1.75,0,0,0,1.8-1.39c.82-3,1.71-5.94,2.54-8.91A1.48,1.48,0,0,0,57,73a1.29,1.29,0,0,1,.3-1.51,10.86,10.86,0,0,0,1.77-3.28c.73-1.89,1.52-3.76,2.28-5.65a35.51,35.51,0,0,1,4.1-6.89C70.54,48.31,76.13,41.46,83.25,36a9.84,9.84,0,0,0,3.16-3.8,6.81,6.81,0,0,1,2.83-3.13c2-1.21,4-2.48,6-3.71a7.44,7.44,0,0,1,5.46-1c.54.1,1.05.36,1.59.49.79.19,1.17-.06,1.13-.88a6.67,6.67,0,0,1,2-5,20.3,20.3,0,0,1,1.84-1.87A41.79,41.79,0,0,1,122.92,9a60.71,60.71,0,0,1,7.78-1.3c3.92-.58,7.87-1.06,11.79-1.68,1.72-.28,3.4-.84,5.11-1.21a4.64,4.64,0,0,1,3.81.81c.18.13.37.22.59.35a8.93,8.93,0,0,1,5.32-3.64,45.61,45.61,0,0,1,12.55-2,26,26,0,0,1,14.4,3.79c.53.32,1.09.6,1.74,1,.27-1.45.5-2.71.73-4,1.83,0,3.49.11,4.69,1.61a11.23,11.23,0,0,1,.88-1.07,1.14,1.14,0,0,1,1.38-.33c1.65.87,3.13.32,4.61-.45.54-.28,1.12-.5,1.92-.85-.25,1.23-.44,2.16-.68,3.29,1.24-.47,2.28-.91,3.36-1.26,1.58-.5,3.18-.94,4.78-1.37a3,3,0,0,1,1,.15l-2.66,3.08a7.46,7.46,0,0,0,4.12-.06c2.54-.69,5.1-1.29,7.65-1.91,1.33-.32,1.63-.13,2,1.18.18.7.15,1.49.87,2,.21-.13.51-.22.65-.42,1.48-2.08,3.63-2.54,6-2.56,1.06,0,2.12-.1,3.18-.12a23.13,23.13,0,0,1,4,0c3,.45,6,1,9,1.68C252.26,5.75,261,7.91,269.84,10A90.36,90.36,0,0,0,289.7,12.7a252.68,252.68,0,0,0,32-1.38A33.36,33.36,0,0,0,335,7,11.41,11.41,0,0,1,337.4,6a6.22,6.22,0,0,1,6.8,1.86,4.36,4.36,0,0,1,1.19,4,17.39,17.39,0,0,1-.8,2.93c-1.55,4-2.8,8.13-5,11.87a6.22,6.22,0,0,0-.54,1.42,3.39,3.39,0,0,0,1.54,4.31A20.63,20.63,0,0,0,344.25,34c1.73.64,3.52,1.11,5.26,1.71,10,3.48,19.61,7.67,28.46,13.5a71.12,71.12,0,0,1,20.76,20.31c7.16,10.87,10.42,23,11.08,35.84a72.13,72.13,0,0,1-4.52,28.82,98.2,98.2,0,0,1-14,25.25c-2.17,2.87-4.53,5.6-6.88,8.33a11.59,11.59,0,0,1-4.78,3.22,18.83,18.83,0,0,0-2.86,1.38,12.61,12.61,0,0,0-6.27,8.25,19.11,19.11,0,0,0-.42,6.61,117.85,117.85,0,0,1,.89,18.4,7.06,7.06,0,0,0,.08,1.38,3.38,3.38,0,0,0,3,3.16,12.26,12.26,0,0,0,2.34.2l31.47-.21a26.85,26.85,0,0,1,3.58.28,5,5,0,0,1,4.46,4,9,9,0,0,1,.34,1.76c.14,2.12.21,4.24.33,6.36C416.61,223.11,416.72,223.69,416.8,224.28ZM295,254c1.48-.37,1.88-1,1.39-2.41a11.49,11.49,0,0,1-.53-3.53c-.16-5.5-.31-11-.51-16.5a32.77,32.77,0,0,0-.44-4.54c-.48-2.73-1.49-3.77-4.24-3.85-4.84-.15-9.69-.13-14.54,0-2.16,0-3.15,1.07-3.57,3.17a10.27,10.27,0,0,0-.17,1.24c-.46,6.4-.9,12.81-1.39,19.21a197.88,197.88,0,0,1-2.81,21.84,107.88,107.88,0,0,1-8,25.72,43.34,43.34,0,0,1-9.45,13.4A42.19,42.19,0,0,1,230.89,318a142.78,142.78,0,0,1-20.27,3,198.77,198.77,0,0,1-29.08.26c-2.08-.13-4.16-.25-6.21-.58a42.21,42.21,0,0,1-22.75-11.24,117.54,117.54,0,0,1-8.21-8.64,78.37,78.37,0,0,1-15.93-28c-1.63-5.2-3.12-10.44-4.67-15.67-2.55-8.6-4.94-17.24-5.47-26.25a63.29,63.29,0,0,1,.12-9.54c.34-3.85,2.06-5.54,5.82-6.38a4.54,4.54,0,0,1,.82-.14c3.73-.28,7.45-.69,11.19-.8,8.41-.24,16.82-.36,25.23-.5L192.8,213l33.55-.55q35-.6,70-1.18l58.09-.94a15.29,15.29,0,0,0,2.61-.26,3.47,3.47,0,0,0,3-2.87,14,14,0,0,0,.29-3q-.27-15.87-2.12-31.66a283.16,283.16,0,0,0-5-29.49,134.75,134.75,0,0,0-4.12-15.67,34.91,34.91,0,0,0-6.76-12c-2.48-2.75-4.12-3-7.28-1.1-2,1.21-4.05,2.41-6.09,3.59a108.29,108.29,0,0,1-46.59,14.79,142.72,142.72,0,0,1-30.15-.87,192,192,0,0,1-24.51-5.16,107.89,107.89,0,0,1-33.1-15.12c-3.68-2.54-7.13-5.43-10.69-8.14a26.13,26.13,0,0,0-2.8-2c-1.31-.75-2.12-.46-2.85.87a9.7,9.7,0,0,0-.81,1.91,100.35,100.35,0,0,1-7.27,17.2,112.76,112.76,0,0,1-12.11,19.36,59.82,59.82,0,0,1-21.62,17.17,68.52,68.52,0,0,1-18.26,5.39,39.61,39.61,0,0,0-4.62.87,3.94,3.94,0,0,0-3,3.92,17.21,17.21,0,0,0,.16,2.48c.13,1.29.29,2.57.46,3.85.34,2.55-.45,5.15.36,7.64-2,.94-2.46,2.31-2,5.64.5.08,1,.27.85.93A4.1,4.1,0,0,1,110,190c-.21.33-.65.5-1,.76-1.52,1.22-1.5,1.83.1,2.87a2.43,2.43,0,0,1,.16.28c0,.3-.08.75-.16,1.2a38.2,38.2,0,0,0-.88,9.36,17.61,17.61,0,0,1-.14,2.9c-.14,1.37-.33,1.55-1.65,1.79l-.83.12c-1,.19-1.25.41-1.18,1.48a10.62,10.62,0,0,0,.39,2.17,5.65,5.65,0,0,1-.21,3.65,72.82,72.82,0,0,1-9.43,17.36A16.44,16.44,0,0,0,92,244a35.48,35.48,0,0,0,1.38,9.57c1.57,5.56,3.27,11.07,5,16.59,2.35,7.69,4.55,15.41,5.24,23.48a17.11,17.11,0,0,1-2.08,10.15,13.4,13.4,0,0,1-2.57,3.23,6.74,6.74,0,0,1-9.1.24,14.56,14.56,0,0,1-3-3.4,28.86,28.86,0,0,1-2.5-5.08c-1.19-3.15-2.24-6.36-3.3-9.56-1.9-5.74-3.77-11.49-6.62-16.87a81,81,0,0,0-8.94-14c-5.77-6.92-13-11.26-22-12.32a14.52,14.52,0,0,0-13.78,5.44,46,46,0,0,0-5.86,9.22c-5.35,11.16-5.35,22.58-1.43,34.1,3.5,10.29,9.18,19.33,16.14,27.6A58,58,0,0,0,49.69,332.9a37,37,0,0,0,24.45,6.83,54.13,54.13,0,0,0,9.13-1.57,9,9,0,0,1,10.48,4.21,11.53,11.53,0,0,1,.74,1.33,17.35,17.35,0,0,0,3.9,5.35c1.4,1.34,2.84,2.65,4.3,3.92a21.29,21.29,0,0,1,6.21,8.38c.25.64.58,1.26.88,1.88,3.88,8,8.46,15.6,14.69,22.06a102,102,0,0,0,18.69,15.15,127.88,127.88,0,0,0,34.92,15.21,250.15,250.15,0,0,0,38.47,7.27,232,232,0,0,0,27.26,1.41,273.46,273.46,0,0,0,30.41-2c7.07-.84,14.13-1.69,21.1-3.11a86.81,86.81,0,0,0,26.89-10c14.82-8.68,24.89-21.1,29.57-37.73a96.35,96.35,0,0,0,3.13-23.29c.33-10.53,0-21.08.84-31.6.25-3.15-1.07-4.29-4.24-4.05a197.5,197.5,0,0,1-26.87.19,6,6,0,0,0-6.19,3.25c-3.54,6.33-9.06,10-16,11.63a15.84,15.84,0,0,1-5.48.62,5.16,5.16,0,0,1-2.31-9.45,16.69,16.69,0,0,1,3.17-1.32c1.48-.52,3-.85,4.47-1.47a15.08,15.08,0,0,0,8-20.22,26.27,26.27,0,0,0-3.73-5.81c-3.28-4.18-6.64-8.3-9.77-12.59A83.11,83.11,0,0,1,286.93,260a17.15,17.15,0,0,1-.91-2.76,4.72,4.72,0,0,1,.49-3.75,4.92,4.92,0,0,1,7.4-.73C294.3,253.16,294.63,253.6,295,254ZM94.49,371.73c-.42,1.07-.81,1.84-1,2.67s-.31,1.82-.46,2.73q-2,12-4,24c-1.28,7.7-2.57,15.4-4.4,23-1,4.09-2,8.16-2.9,12.26a12.32,12.32,0,0,0,2.83,11.25c.67.76,1.3,1.57,2,2.3,6.65,6.81,13.27,13.65,20.35,20a121.58,121.58,0,0,0,24.61,17.63,160.21,160.21,0,0,0,17.91,7.75c20.76,7.84,42.12,13.06,64.3,14.68a90.06,90.06,0,0,0,25.37-1.57,62,62,0,0,0,7.31-2.07,7.22,7.22,0,0,0,4.83-5.93,17.54,17.54,0,0,0,.34-2.89c.07-7.44.15-14.87.12-22.31,0-10.87,0-21.72,1.78-32.49a8.9,8.9,0,0,0,.11-1.93,1.87,1.87,0,0,0-1.76-2,5.12,5.12,0,0,0-1.1-.1c-4.95.08-9.89.19-14.83.26a219.54,219.54,0,0,1-40.15-3.1,217,217,0,0,1-41-11.4,113.64,113.64,0,0,1-30.21-16.92,179.81,179.81,0,0,1-19-17.58,36,36,0,0,1-8-13.35A14,14,0,0,0,94.49,371.73Zm70.79-146.15v.08h-9.84c-5.41,0-10.81,0-16.22,0a15.81,15.81,0,0,0-3.55.49,3,3,0,0,0-2.57,3.28,12.77,12.77,0,0,0,.17,2.48c1.34,7.13,2.66,14.26,4.1,21.36a111.72,111.72,0,0,0,6,20.56c.67,1.62,1.29,3.26,1.82,4.93a6,6,0,0,0,1.35,2.37,3.87,3.87,0,0,1,.91,1.64,3.87,3.87,0,0,0,1.29,1.84,12.39,12.39,0,0,1,2.54,3.54,17.15,17.15,0,0,0,3.36,5.16c.32.34.89.43,1.33.67s1.15.43,1.23.77c.24.94,1,1.7.82,2.81s0,1.13,1,1.34a4.55,4.55,0,0,0,.82.15,3,3,0,0,1,2.15,1.08c.73.77,1.55,1.45,2.29,2.22a3,3,0,0,0,3.1,1.05,1.83,1.83,0,0,1,2,.84c.85,1.46,2.19,1.72,3.66,1.8a20.21,20.21,0,0,1,2.21.09c1.69.27,3.36.65,5,.93a135.47,135.47,0,0,0,20.38,2.05c5.45.07,10.91,0,16.35-.32a75.64,75.64,0,0,0,10.7-1.37,30.26,30.26,0,0,0,18.75-11.65,42.18,42.18,0,0,0,6-11.48,214.19,214.19,0,0,0,9.68-37.78c1-6,1.64-12,2.42-18,.41-3.18-.88-4.42-4.13-4.17-2.72.2-5.44.42-8.17.44-8.4.07-16.81,0-25.22.07-8.78,0-17.55.07-26.33.19-3.28,0-6.55.45-9.83.48C182.47,225.63,173.88,225.58,165.28,225.58Zm189.81-3.09v.1h-1.25q-22,0-43.94,0a12.56,12.56,0,0,0-2.87.31,2.6,2.6,0,0,0-2.06,2.21,11.51,11.51,0,0,0-.12,2.75c.22,2.48.55,5,.81,7.43.9,8.32,1.46,16.66,1.63,25,.06,2.91.08,5.82.18,8.73a20.18,20.18,0,0,0,5.5,13c2,2.24,3.9,4.56,5.68,7a14.54,14.54,0,0,1,2.8,7.43,13.4,13.4,0,0,0,.46,2.16,5.35,5.35,0,0,0,5,4.14,36,36,0,0,0,3.6.2c8.19.06,16.33-.68,24.48-1.38,6.67-.59,13.35-1.06,20-1.63a33.28,33.28,0,0,0,4.79-.68c6.12-1.4,10.72-5,14.21-10.12a45.76,45.76,0,0,0,6.74-15.11c1.75-7.22,3.38-14.47,5-21.73a158.72,158.72,0,0,0,3.48-22.43c.12-1.66.21-3.32.19-5,0-2.82-1.2-3.93-4-4-.78,0-1.57,0-2.35.08-3.23.17-6.46.4-9.69.49-5.91.18-11.83.27-17.74.42Z"/><path d="M60.58,293.88c-.61-1-1.14-1.79-1.61-2.63-1-1.68-2-3.35-2.8-5.09a11.48,11.48,0,0,1-1-5.67A4.24,4.24,0,0,1,58,276.42c2-.78,4-.81,5.63.9a7.86,7.86,0,0,1,1.55,2.43,19.66,19.66,0,0,0,3.59,5.72c1.38,1.55,2.81,3.07,4.23,4.58a36.89,36.89,0,0,1,8.42,13.7,13.07,13.07,0,0,1,.57,7.24c-1,4.14-3.82,6.51-7.68,7.82a9.11,9.11,0,0,1-7-.39,13.46,13.46,0,0,1-5.62-4.57,20.73,20.73,0,0,0-2.63-3.2,4.26,4.26,0,0,0-5.91-.55A11,11,0,0,0,50.86,312a4,4,0,0,1-4.65,1.1,23.06,23.06,0,0,1-8.81-5.61A38.73,38.73,0,0,1,26.63,286.9a34.24,34.24,0,0,1,.57-17,22.32,22.32,0,0,1,6.25-10.44,18.1,18.1,0,0,1,15.14-4.56,18.87,18.87,0,0,1,12,6.48,10.82,10.82,0,0,1,1.08,1.44,5.27,5.27,0,0,1-1.08,7.12,3.18,3.18,0,0,1-3.59.68A17.56,17.56,0,0,1,54.31,269c-1.24-.87-2.38-1.91-3.64-2.75-4.09-2.75-8.54-1.86-11.37,2.19a14,14,0,0,0-2.11,5.81,26.64,26.64,0,0,0,4.3,19.81c1.08,1.61,2.34,3.1,3.53,4.62a5.74,5.74,0,0,0,1,1,1.4,1.4,0,0,0,2.32-.42c.26-.42.42-.92.66-1.36a23.37,23.37,0,0,1,1.9-3.21,5.31,5.31,0,0,1,5.56-2C57.75,293,59,293.42,60.58,293.88Z"/><path d="M259.41,373A47.39,47.39,0,0,1,242,369.23a30.53,30.53,0,0,1-10-6.35c-2.57-2.52-5.15-5-7.68-7.59a2.66,2.66,0,0,1-.78-1.53,1.91,1.91,0,0,1,2.66-2,6.12,6.12,0,0,1,1.59.81c1.25.88,2.45,1.82,3.69,2.7A44.63,44.63,0,0,0,249.71,363a30.41,30.41,0,0,0,20-3.09c1.75-.92,3.41-2,5.15-3a15.85,15.85,0,0,1,3-1.33,2.29,2.29,0,0,1,2.92,1.25c1.07,2,1.63,4.58-.41,6.83a13.62,13.62,0,0,1-1.65,1.66c-4.45,3.5-9.26,6.26-14.95,7.12C262.11,372.76,260.41,372.87,259.41,373Z"/><path d="M212.28,180.65A33.62,33.62,0,0,1,223.09,183a11.71,11.71,0,0,1,2.7,1.65,2.88,2.88,0,0,1-2.18,5.13,14.29,14.29,0,0,1-3.11-.62,19.7,19.7,0,0,0-6.42-.8c-2.72,0-5.45,0-8.17.12a30,30,0,0,0-4.13.32,14,14,0,0,0-2.61.86,19,19,0,0,1-2.57,1c-1.37.28-2-.44-1.67-1.8a4.87,4.87,0,0,1,1.74-2.77,21.15,21.15,0,0,1,3.44-2.28,33.28,33.28,0,0,1,10.43-3.08C211.13,180.66,211.74,180.68,212.28,180.65Z"/><path d="M347.08,188.85a10.18,10.18,0,0,1-1.6-.41,12.69,12.69,0,0,0-6.28-.67c-3.58.37-7.15.77-10.72,1.27a25.89,25.89,0,0,0-3.72,1c-1.15.34-2.26.8-3.42,1.06a2.76,2.76,0,0,1-2.69-4.53,13.25,13.25,0,0,1,2.92-2.29,28.38,28.38,0,0,1,9.24-3.21,23.55,23.55,0,0,1,7.58.32,21.39,21.39,0,0,1,6.38,1.76,13,13,0,0,1,2.78,1.78,5.31,5.31,0,0,1,1.28,1.93C349.36,188.18,348.8,188.88,347.08,188.85Z"/><path d="M212.21,243.05c4.32.13,7.87,2.64,10.5,6.67a3.52,3.52,0,0,1,.27.63c.66,1.82,1.3,3.65,2,5.46,2.82,7.36.87,13.76-4,19.49a17.88,17.88,0,0,1-3.71,3.09,10.86,10.86,0,0,1-14-1.2,17.5,17.5,0,0,1-4.94-8.66c-.66-2.55-1.26-5.11-1.88-7.66a8,8,0,0,1,.09-4.23,21.1,21.1,0,0,1,5.81-9.75A13.6,13.6,0,0,1,212.21,243.05Z"/><path d="M370,239.37c-.25,4.55-.43,8.66-.7,12.76a120.71,120.71,0,0,0,.22,15.8,98,98,0,0,1,.11,15.23c-.23,2.43-.67,4.85-1.11,7.25a9.25,9.25,0,0,1-1,2.57,3.65,3.65,0,0,1-3.65,2,11.13,11.13,0,0,1-2.44-.42,4.21,4.21,0,0,1-3.06-3.44,13.59,13.59,0,0,1-.27-3.3c.23-4.94.57-9.87.83-14.81.28-5.35.56-10.71.73-16.06.23-7,.37-13.95.52-20.93,0-1.7-.13-3.42,0-5.11a4,4,0,0,1,4.14-4c2.89-.17,4.6.91,5.24,3.44a12.7,12.7,0,0,1,.37,2.88C370,235.47,370,237.64,370,239.37Z"/><path d="M324.59,258.28a22,22,0,0,1,2.09-9.41,16,16,0,0,1,4.31-5.34c3.38-2.67,6.89-2.77,10.28-.13a19.26,19.26,0,0,1,7.32,12.32,16.6,16.6,0,0,1-1.45,10.78,13.87,13.87,0,0,1-6.18,6.15,10.19,10.19,0,0,1-12.47-2.4,14.29,14.29,0,0,1-3.47-7.71C324.82,261.13,324.73,259.7,324.59,258.28Z"/></svg>