<svg id="Layer_1" data-name="Layer 1" xmlns="http://www.w3.org/2000/svg" xmlns:xlink="http://www.w3.org/1999/xlink" viewBox="0 0 720 736.55"><defs><style>.cls-1{fill:none;}.cls-2{fill:#efebdd;}.cls-3{clip-path:url(#clip-path);}.cls-4{fill:#031e03;}</style><clipPath id="clip-path"><circle class="cls-1" cx="360" cy="360" r="360"/></clipPath></defs><circle class="cls-2" cx="360" cy="360" r="360"/><g class="cls-3"><path class="cls-4" d="M523.24,734.11a11.72,11.72,0,0,1-1.4.43c-3.93.67-7.86,1.31-12,2-.07-.83-.17-1.51-.17-2.19-.17-26.47-.64-80.54-.69-107q-.12-61.08,0-122.16c0-7.5,2.53-10.18,10.06-10.75,3.1-.23,6.27-.2,9.26-.92a101.76,101.76,0,0,0,15.59-4.66,67.82,67.82,0,0,0,17.25-10.17,74.47,74.47,0,0,0,15.75-17.27c3.09-4.81,6.26-9.66,7.5-15.43a11.08,11.08,0,0,1,1.25-3.1,24.29,24.29,0,0,0,3-11.47c.13-3.43.38-6.87.29-10.29-.11-4.7-.35-9.41-.81-14.08a25.57,25.57,0,0,0-1.71-5.44c-.88-2.56-1.81-5.1-2.7-7.65a24.4,24.4,0,0,0-1.52-4.28c-4.37-7.53-9-14.91-15.32-21a61.63,61.63,0,0,0-12.95-9.81c-5-2.74-10.05-5.25-15.22-7.55a22.12,22.12,0,0,0-6.52-1.33,93.88,93.88,0,0,0-21.26-.24c-2.37.27-4.76.37-7.14.64a9.33,9.33,0,0,0-2.53.7c-9.4,4-18.36,8.64-25.68,16a33.45,33.45,0,0,1-4,3.41c-2.73,2-5.7,1.5-7.72-1.26a14.91,14.91,0,0,1-1.84-3.34,54.54,54.54,0,0,1-4.14-20.06c0-2.22-.26-4.45-.48-6.67a7.27,7.27,0,0,0-5.81-6.8,32.56,32.56,0,0,0-6.12-1,46.4,46.4,0,0,1-14.9-3.23,25,25,0,0,0-3.9-1.16,24.25,24.25,0,0,1-7.91-3.34,4.28,4.28,0,0,0-1.05-.57c-4.66-1.44-8.49-4.41-12.57-6.89a79.11,79.11,0,0,1-13.66-10.49,123.57,123.57,0,0,1-14.31-16.1,95.18,95.18,0,0,1-8.29-14,42.75,42.75,0,0,0-2.12-4,20.21,20.21,0,0,1-2.84-7.06,39,39,0,0,0-1.4-4.82c-.92-2.8-1.88-5.59-2.83-8.38a10.9,10.9,0,0,0-.57-1.57c-1-1.9-2.57-2.41-4.38-1.23a12.94,12.94,0,0,0-2.79,2.59,141.06,141.06,0,0,1-27.72,26,130.5,130.5,0,0,1-16.92,10.41c-4,1.95-8.15,3.61-12.15,5.59a9.6,9.6,0,0,1-2.77.73,20.9,20.9,0,0,0-7.63,2.68,17.75,17.75,0,0,1-7.78,2.16,66.08,66.08,0,0,0-13.12,2.65,33.36,33.36,0,0,1-7.53,1.15c-5.1.29-10.21.41-15.32.51a74.28,74.28,0,0,1-21-2.7,93,93,0,0,0-11.07-1.87,21.29,21.29,0,0,1-7.41-2.6,16.94,16.94,0,0,0-4-1.43,5.83,5.83,0,0,0-6,2,18.94,18.94,0,0,0-3.7,6.39c-.95,2.53-1.89,5.09-3.08,7.52a21.41,21.41,0,0,0-2.14,7.55,21.6,21.6,0,0,1-2.36,8.22,11.88,11.88,0,0,0-1.34,4.28c-.19,2,1.27,3,3.13,2.32a13.69,13.69,0,0,0,3-1.51,34.11,34.11,0,0,1,11.8-5.1,27.07,27.07,0,0,0,5.38-2,13.71,13.71,0,0,1,11.82.06c2.69,1.21,5.47,2.22,8.18,3.41a9,9,0,0,1,4.2,3.8,4.25,4.25,0,0,1-.51,5.5,9.61,9.61,0,0,1-5.26,3.17,66.43,66.43,0,0,0-10.33,3.76,23.59,23.59,0,0,1-6.29,1.27c-2.72.33-5.42.62-7.79,2.11-3.64,2.29-7.7,3-11.88,3.3-.79.06-1.59.13-2.38.26a6,6,0,0,0-5.22,4.36,38.75,38.75,0,0,0-1.77,7.67,131.18,131.18,0,0,0-.34,13.16,36.31,36.31,0,0,0,1,7.09,70.76,70.76,0,0,1,1.6,13.28c.13,5,.12,9.91.23,14.87.12,5.34.23,10.69.53,16a41.52,41.52,0,0,0,1.15,7.07c1.27,5.52,2.64,11,3,16.71.22,3.34.31,6.69.41,10,.19,6.3.26,12.61.55,18.91a19.25,19.25,0,0,0,1.19,5.6,67.86,67.86,0,0,1,3.28,13.7,48.19,48.19,0,0,0,2.1,7.34c.57,1.83,1.33,3.61,1.83,5.45,1.74,6.43,4.55,12.42,7.28,18.46a169.31,169.31,0,0,0,12,21.25,139.07,139.07,0,0,0,10,13.46c4,4.88,8.22,9.57,12.5,14.2a96.74,96.74,0,0,0,15.14,12.85c5.8,4.12,11.67,8.14,17.7,11.9,4.79,3,9.64,6,15.1,7.74a11.18,11.18,0,0,1,3,1.5,20.11,20.11,0,0,0,7.94,3.17,15.24,15.24,0,0,1,3.84,1.29c3.07,1.54,6.14,3.1,9.09,4.86a24.24,24.24,0,0,0,9,2.94c5.52.85,11,1.77,16.56,2.54,2.91.41,5.86.62,8.8.83,3.1.21,6.21.49,9.31.43a109.17,109.17,0,0,0,18.56-1.73c4.92-1,9.92-1.54,14.86-2.43,2.19-.4,4.31-1.16,6.45-1.77,2.61-.74,5.18-1.62,7.81-2.22a25.46,25.46,0,0,0,7.22-2.45,10.15,10.15,0,0,1,2.35-1.18c5.13-1.37,9.77-3.84,14.46-6.22,1.56-.79,3.13-1.55,4.71-2.32a19.36,19.36,0,0,1,3.24-1.5c2.38-.66,3.92.88,3.42,3.31a6.35,6.35,0,0,1-.47,1.35,69,69,0,0,1-8.7,14.31c-2.13,2.69-4,5.58-6.26,8.17a132.86,132.86,0,0,1-12.15,12.52,187,187,0,0,1-23.56,17.66,119.16,119.16,0,0,1-16.66,9.41c-5.34,2.31-10.65,4.73-16,7.09a87.9,87.9,0,0,1-15.25,5.6A11.33,11.33,0,0,0,330,688a19.59,19.59,0,0,1-8.23,2.31c-4.5.32-8.3,2.28-11.77,4.93-2.15,1.65-2.92,4.17-3.16,6.76-.26,2.86-.32,5.75-.45,8.62q-.5,10.54-1,21.09c0,.32-.08.63-.11.93-1.85.55-12.51.53-15.53-.07v-2.26c0-4.32,0-8.64,0-13q-.07-39.12-.16-78.23a19.67,19.67,0,0,0-.19-2.87,6.39,6.39,0,0,0-4.18-5.37,152.39,152.39,0,0,1-17.13-8c-6.25-3.53-12.71-6.74-18.73-10.62A148.41,148.41,0,0,1,232,599.08a156.27,156.27,0,0,1-15-14.77c-2.76-3.19-6-6-8.5-9.38-6.81-9.06-14.19-17.75-19-28.18-3.06-3.88-4.29-8.72-6.69-13a15.59,15.59,0,0,1-1.66-4.21,27.79,27.79,0,0,0-2.91-7.3,17.84,17.84,0,0,1-1.92-5.38,27.1,27.1,0,0,0-2.59-8.42c-1.45-2.67-1.72-5.62-2.27-8.52a54.91,54.91,0,0,0-1.56-6.74,51.83,51.83,0,0,1-2.42-14.59,205.32,205.32,0,0,0-2.69-30,132.58,132.58,0,0,1-1.6-15.69c-.35-6.05-.25-12.13-.56-18.19-.27-5.17-.66-10.34-1.33-15.47s-3.64-8.68-8.28-11a55.83,55.83,0,0,1-7.76-4.73c-4.41-3.18-8.71-6.5-12.94-9.9a27,27,0,0,1-4.5-4.62c-5.07-6.67-10.52-13.09-14.36-20.62-.79-1.56-1.44-3.2-2.18-4.79s-1.52-3.35-2.4-5a26.22,26.22,0,0,1-2.27-7.28,51.89,51.89,0,0,0-2-7.6A32.92,32.92,0,0,1,102,311.19c.06-3.59-.26-7.18-.21-10.77s.19-7,.54-10.52a16.35,16.35,0,0,1,1.42-5.28,31.77,31.77,0,0,0,3.13-11.48,13.94,13.94,0,0,1,2-6.08,26.85,26.85,0,0,0,2.16-4.53c1.53-4.35,4.19-8.08,6.5-12a77.41,77.41,0,0,1,22.7-24.37q6.21-4.27,12.52-8.41c2.91-1.9,3.92-4,2.62-7.06-2.65-6.22-3-12.65-2.38-19.25.05-.55,0-1.12,0-1.68,0-4,0-8,0-12A23.59,23.59,0,0,1,155.7,166a19.59,19.59,0,0,0,2.14-7.3,14.39,14.39,0,0,1,2.21-6.26,15.88,15.88,0,0,0,1.59-2.95c3.42-9.59,9.26-17.64,16.09-25a135.19,135.19,0,0,1,11.21-11.12c3.68-3.13,7.61-6.1,12.32-7.7a5.7,5.7,0,0,0,1.7-.87c3.52-2.91,7.79-4.36,11.83-6.25a32.29,32.29,0,0,1,5.61-2.07c5.73-1.43,11.47-2.8,17.25-4a40.71,40.71,0,0,1,6.89-.66c3.19-.11,6.38,0,9.57,0a56.8,56.8,0,0,1,16.28,2.42c2.45.71,5,1.18,7.43,1.9,2.28.67,4.55,1.45,6.76,2.33s4.53,2,6.77,3c.79.36,1.56.81,2.32,1.24,3.06,1.72,6.13,3.42,9.15,5.2a5.44,5.44,0,0,0,5.71,0,61.39,61.39,0,0,0,8.58-5.22,45.14,45.14,0,0,1,12-6.86c1.71-.64,3.34-1.52,5-2.25,8.25-3.57,16.66-6.45,25.83-6.34,6.4.08,12.8,0,19.2,0a42.68,42.68,0,0,1,15.25,2.62c2.09.8,4.3,1.26,6.42,2,1.89.63,3.75,1.35,5.61,2.08a84,84,0,0,1,17.42,9.94,135.86,135.86,0,0,1,14.67,11.9,55.15,55.15,0,0,1,10.2,12c1.8,3.06,4.23,4.65,7.87,4.32s7.3.6,10.95,1,7.46.72,11.2.78c4.47.07,8.72.63,12.68,2.92a27.51,27.51,0,0,0,4.5,1.58,53.27,53.27,0,0,1,6.25,2.37q6.58,3.41,13,7.17a45.15,45.15,0,0,1,11,9.17c2.81,3.16,5.94,6,8.95,9a74,74,0,0,1,10.69,14.09c1.63,2.65,3.06,5.42,4.47,8.2a28.41,28.41,0,0,1,1.28,3.6,63.79,63.79,0,0,0,2.67,7.4,21.45,21.45,0,0,1,2.65,9.61,81.63,81.63,0,0,0,1.87,16.86c.64,3,.15,6-.27,9-.53,3.79-1.21,7.57-1.46,11.38-.21,3.17.52,6.2,3.1,8.47a128.23,128.23,0,0,1,12.68,13.37,94.79,94.79,0,0,1,10.77,16.1c.8,1.45,1,3.22,1.82,4.68,2.64,4.8,4,10.05,5.87,15.15a42.55,42.55,0,0,1,2.48,12.86c.19,4.54.42,9.11.23,13.65-.28,6.28.23,12.65-1.64,18.79-1.3,4.28-2.52,8.6-4,12.8a9.16,9.16,0,0,0,.64,8.25c2.41,4.15,4.74,8.34,7.11,12.51a5.21,5.21,0,0,1,.47.83c2,5.94,5.44,11.39,6.24,17.76a44.9,44.9,0,0,1,.4,4.77c.12,6.31.3,12.63.21,18.94-.07,5.66-.36,11.32-.79,17a19.62,19.62,0,0,1-1.59,5.22c-.86,2.32-2,4.55-2.76,6.88a67.15,67.15,0,0,1-8.19,15.94c-2.73,4-5.39,8.21-8.74,11.68a90.43,90.43,0,0,1-16.11,13.5c-4.66,3-9.69,5.23-14.53,7.85a19.77,19.77,0,0,1-5.93,1.7,21.06,21.06,0,0,0-6.61,2,26.21,26.21,0,0,1-8.83,2.89c-3.5.52-5,2.23-5.15,5.8-.1,2.77,0,5.55,0,8.33V658.81c0,3.44.07,6.87,0,10.31-.29,12.14-.41,51.88-.73,64A8.81,8.81,0,0,1,523.24,734.11Z"/><path class="cls-4" d="M276.48,503.53c4.31,0,8.63,0,12.95,0a17.78,17.78,0,0,0,7.36-1.87c2.09-1,4.29-1.73,6.44-2.56a58.49,58.49,0,0,0,5.58-2.15c8.78-4.46,16.69-2.21,23,4.83,3.16,3.53,4.15,7.6,4.63,12a49.34,49.34,0,0,1-.65,13.35,13.27,13.27,0,0,1-1.77,4.66A38.2,38.2,0,0,1,318.81,546a52.94,52.94,0,0,1-14.35,5.19c-3,.59-5.82,1.77-8.78,2.41a35.33,35.33,0,0,1-20.23-1.41,45.88,45.88,0,0,1-13.92-7.8c-5.38-4.54-9.29-10-10.88-17-.68-3-1.67-6-1.58-9.15.21-7.47,7-14.43,14.45-14.48,4.32,0,8.64,0,13,0Zm.34,14.63v-.07c-1.11,0-2.23,0-3.35,0s-2.24-.15-3.35-.15a23.43,23.43,0,0,0-3.35.18c-3,.43-4.26,2.48-3.35,5.34a8.32,8.32,0,0,0,.75,1.76c1.06,1.78,2.1,3.59,3.29,5.28a18.15,18.15,0,0,0,8.58,7c1,.38,2.06.86,3.09,1.3,5.72,2.39,11.47,2.22,17.29.33a47.5,47.5,0,0,1,8.53-2.26c6.33-.81,10.71-4.79,14.87-8.94s3.85-9.42,2.57-14.64c-.83-3.41-3.11-4.77-6.62-4.46-2.31.21-4.21,1.4-6.25,2.31a46.61,46.61,0,0,1-5.33,2.07c-2.36.74-4.83,1.12-7.14,2a38.2,38.2,0,0,1-10.66,2.58C283.2,518,280,518,276.82,518.16Z"/><path class="cls-4" d="M268.27,460.23c3.6-.23,7.26-.54,10.92-.66a25.75,25.75,0,0,1,5.69.39,8.84,8.84,0,0,1,3.43,1.6c3.68,2.65,3.37,7.63-.74,9.53a23.43,23.43,0,0,1-6.92,1.66c-4,.49-8.09.77-12.15,1a29.08,29.08,0,0,1-10.62-1.37c-4.58-1.46-9-3.13-12.9-6.12-4.22-3.24-7.22-7.44-10-11.84-1.19-1.91-1.34-4.24-1.34-6.5,0-6,0-12,0-18a19,19,0,0,1,2.39-9.41,19.89,19.89,0,0,0,2.39-8.94A30.32,30.32,0,0,1,241,400c1.42-3,1.78-6.28,2.34-9.5a50,50,0,0,1,1.56-7.23c1.49-4.41,2.23-9,3.3-13.46a93.57,93.57,0,0,1,3.71-11.36,5.65,5.65,0,0,1,6.32-3.67,6.07,6.07,0,0,1,4.81,5,12,12,0,0,1,0,3.33c-.52,4.27-1,8.55-1.74,12.78a26.72,26.72,0,0,1-2.08,7.06,32.26,32.26,0,0,0-2.67,10.84A36.34,36.34,0,0,1,254.8,402a54.45,54.45,0,0,0-2.94,12,42.64,42.64,0,0,1-2.28,9.49,68.58,68.58,0,0,0-2.91,13.78,21.72,21.72,0,0,0,.65,9.46c1.73,5.7,5,9.95,11.1,11.39,2.41.56,4.76,1.34,7.16,1.92A15.47,15.47,0,0,0,268.27,460.23Z"/><path class="cls-4" d="M323,317.21c4.59.06,8.22.68,11.64,2.51a26.13,26.13,0,0,0,5.63,2,17.85,17.85,0,0,1,6.05,2.79c3.24,2.33,6.65,4.47,8.88,7.93.44.67.93,1.31,1.31,2a6.6,6.6,0,0,1-4,9.78,20.93,20.93,0,0,1-5.91.68,36.51,36.51,0,0,1-12.45-2.1c-4.86-1.82-9.95-2.2-15.06-2.4-4.63-.18-9.26-.29-13.88-.52a10.58,10.58,0,0,1-6-2.11c-3.39-2.56-3.92-6.38-1.14-9.58a20.78,20.78,0,0,1,7.73-5.92c2.36-1,4.64-2.13,7-3.2A22.33,22.33,0,0,1,323,317.21Z"/><path class="cls-4" d="M535.65,393.86a6.45,6.45,0,0,1,6,7.71c-.72,3.36-3.16,5.45-5.45,7.66-3.45,3.32-7,6.58-10.35,9.95-1.93,1.92-1.89,4.16.1,6.36,1.43,1.6,3.08,3,4.6,4.54a62.25,62.25,0,0,1,5.31,5.47c1.83,2.34,1.8,5,.35,7.65-1.36,2.45-4,3.55-6.5,2.35a44.82,44.82,0,0,1-6.51-4q-5.79-4.05-11.41-8.33a50.31,50.31,0,0,1-5.17-4.62,5.79,5.79,0,0,1-1.17-7.22,12.73,12.73,0,0,1,2.25-3.37q10.86-10.63,21.87-21.12A14.55,14.55,0,0,1,533,394.7,16,16,0,0,1,535.65,393.86Z"/><path class="cls-4" d="M337.27,393.07c-.33,4.8-1.73,8.25-4.9,10.83a9.8,9.8,0,0,1-13-1.22,35.89,35.89,0,0,1-3.9-6.26,6.23,6.23,0,0,1-.17-5.34c2.92-7.36,7.46-9.77,15.31-7.83a7.28,7.28,0,0,1,5.17,4.61A52.79,52.79,0,0,1,337.27,393.07Z"/><path class="cls-4" d="M204.52,407.4c.3-1.47.5-3,.92-4.42,1.51-5.11,5.93-7.45,11-5.9,5.63,1.71,8.89,9.15,6.33,14.45-1.77,3.65-7.22,6.63-10.63,5.8A10.25,10.25,0,0,1,204.52,407.4Z"/></g></svg>