<svg id="Layer_1" data-name="Layer 1" xmlns="http://www.w3.org/2000/svg" viewBox="0 0 224.77 299.94"><path d="M131,.2V72.38c0,7.16,1.26,14.06,8,17.84a27.11,27.11,0,0,0,12.32,3.4c23,.32,46,.15,69,.15h4.44v4.44q0,80.42,0,160.84c0,10.2-2.33,19.45-9.12,27.39-7.75,9.06-17.76,13.32-29.35,13.36q-73.87.26-147.76,0C16.35,299.73.12,283.31.09,260.94q-.18-111,0-222C.12,20,10.91,6.19,28.88,1.36a37.46,37.46,0,0,1,9.6-1.3C68.61,0,98.73,0,128.86,0,129.35,0,129.83.1,131,.2ZM93.33,210.3a26.24,26.24,0,0,0-2.48-3.65c-7.56-7.64-15-15.44-22.87-22.72a23,23,0,0,0-10.28-5.49c-6-1.27-11.49,2.23-14.12,7.57s-1.73,11.83,3.2,16.85c11.91,12.13,23.87,24.21,36.08,36,7.08,6.86,15.16,6.42,22.17-.58q35.94-35.9,71.83-71.84a27.06,27.06,0,0,0,4.12-5.29,13.76,13.76,0,0,0-3.87-17.65c-6.68-4.64-13.43-3.88-19.85,2.49q-22.6,22.47-45.08,45.06C106.11,197.18,100.13,203.36,93.33,210.3Z"/><path d="M223.12,74.67H150.44V2Z"/></svg>