<svg width="642" height="554" viewBox="0 0 642 554" fill="none" xmlns="http://www.w3.org/2000/svg">
<mask id="mask0_947_302" style="mask-type:luminance" maskUnits="userSpaceOnUse" x="0" y="0" width="642" height="554">
<path d="M641.738 0H0V554H641.738V0Z" fill="white"/>
</mask>
<g mask="url(#mask0_947_302)">
<path d="M108.616 114.796L29.2557 35.4804L63.9073 0C236.903 173.041 409.819 346.016 582.651 518.923L546.275 554C545.065 552.858 542.848 550.819 540.697 548.691C512.026 520.094 483.384 491.461 454.774 462.79C451.279 459.274 448.502 457.975 443.261 459.856C353.238 492.245 264.067 490.207 176.867 450.359C94.6167 412.75 36.1547 351.287 1.01023 267.895C-0.289867 264.383 -0.289867 260.521 1.01023 257.009C22.8943 204.236 55.4404 159.191 99.9029 123.017C101.852 121.426 103.733 119.791 105.615 118.134C106.242 117.574 106.735 116.902 108.616 114.796ZM190.396 197.382C159.373 260.503 175.523 333.412 228.945 376.71C277.305 415.909 345.264 416.626 385.963 391.382C371.225 377.382 356.979 363.674 342.464 350.234C341.496 349.558 340.406 349.078 339.252 348.825C338.098 348.57 336.907 348.548 335.744 348.756C274.953 358.634 225.294 308.908 234.41 247.31C234.775 245.247 234.316 243.123 233.133 241.396C219.358 226.904 205.314 212.613 190.396 197.382Z" fill="black"/>
<path d="M542.487 401.708C514.668 373.776 487.453 346.539 460.506 319.055C459.734 317.903 459.223 316.595 459.015 315.224C458.804 313.854 458.9 312.454 459.297 311.125C474.976 261.713 468.256 215.862 437.905 173.773C402.313 124.495 331.688 102.656 274.705 123.263C269.195 125.257 265.745 124.921 261.624 120.62C244.287 102.701 226.569 85.4084 209.008 67.8026C207.708 66.4811 206.588 64.9803 203.609 61.4637C226.815 56.1774 248.274 50.264 270.113 46.5906C312.407 39.6851 355.653 41.2459 397.34 51.1824C469.309 67.8922 530.213 103.485 579.379 158.9C605.27 187.536 625.992 220.452 640.618 256.18C641.976 259.385 642.182 262.965 641.201 266.305C619.854 319.413 586.726 363.988 542.487 401.708Z" fill="black"/>
<path d="M409.435 266.82L318.068 176.82C334.151 171.444 363.158 181.3 381.346 198.569C400.341 216.511 408.718 238.978 409.435 266.82Z" fill="black"/>
</g>
</svg>
