<svg width="287" height="248" viewBox="0 0 287 248" fill="none" xmlns="http://www.w3.org/2000/svg">
<g clip-path="url(#clip0_795_292)">
<path d="M48.49 51.25L13.06 15.84L28.53 0C105.763 77.2533 182.96 154.477 260.12 231.67L243.88 247.33C243.34 246.82 242.35 245.91 241.39 244.96C228.59 232.193 215.803 219.41 203.03 206.61C201.47 205.04 200.23 204.46 197.89 205.3C157.7 219.76 117.89 218.85 78.96 201.06C42.24 184.27 16.14 156.83 0.449963 119.6C-0.130456 118.032 -0.130456 116.308 0.449963 114.74C10.22 91.18 24.75 71.07 44.6 54.92C45.47 54.21 46.31 53.48 47.15 52.74C47.43 52.49 47.65 52.19 48.49 51.25ZM85 88.12C71.15 116.3 78.36 148.85 102.21 168.18C123.8 185.68 154.14 186 172.31 174.73C165.73 168.48 159.37 162.36 152.89 156.36C152.458 156.058 151.971 155.844 151.456 155.731C150.941 155.617 150.409 155.607 149.89 155.7C122.75 160.11 100.58 137.91 104.65 110.41C104.813 109.489 104.608 108.541 104.08 107.77C97.93 101.3 91.66 94.92 85 88.12Z" fill="#788473"/>
<path d="M242.19 179.34C229.77 166.87 217.62 154.71 205.59 142.44C205.245 141.926 205.017 141.342 204.924 140.73C204.83 140.118 204.873 139.493 205.05 138.9C212.05 116.84 209.05 96.37 195.5 77.58C179.61 55.58 148.08 45.83 122.64 55.03C120.18 55.92 118.64 55.77 116.8 53.85C109.06 45.85 101.15 38.13 93.3099 30.27C92.7299 29.68 92.2299 29.01 90.8999 27.44C101.26 25.08 110.84 22.44 120.59 20.8C139.472 17.7171 158.779 18.4139 177.39 22.85C209.52 30.31 236.71 46.2 258.66 70.94C270.219 83.7244 279.47 98.4195 286 114.37C286.606 115.801 286.698 117.399 286.26 118.89C276.73 142.6 261.94 162.5 242.19 179.34Z" fill="#788473"/>
<path d="M182.79 119.12L142 78.94C149.18 76.54 162.13 80.94 170.25 88.65C178.73 96.66 182.47 106.69 182.79 119.12Z" fill="#788473"/>
</g>
<defs>
<clipPath id="clip0_795_292">
<rect width="286.5" height="247.33" fill="white"/>
</clipPath>
</defs>
</svg>
