<svg width="288" height="198" viewBox="0 0 288 198" fill="none" xmlns="http://www.w3.org/2000/svg">
<g clip-path="url(#clip0_795_285)">
<path d="M143 0C189.89 1.4 228.69 18.11 259.57 52.53C271.029 65.2904 280.212 79.9228 286.72 95.79C287.366 97.4635 287.384 99.3144 286.77 101C265.98 149 230.13 179.93 179.53 192.63C146.78 200.85 114.28 197.91 83.0401 184.53C47.6101 169.35 21.5501 144.21 4.18013 109.91C-1.32987 99.02 -1.51987 98.55 4.18013 87.51C27.9335 41.17 65.3535 12.8533 116.44 2.56C117.76 2.25415 119.095 2.02047 120.44 1.86C128.33 1.18 136.17 0.56 143 0ZM143.42 32.9C107.6 33 77.5401 63 77.9201 98.26C78.3301 135.47 107.58 164.52 144.35 164.26C179.8 163.98 209.11 134.56 209.35 99.07C209.394 90.391 207.721 81.789 204.428 73.7589C201.135 65.7287 196.286 58.4289 190.162 52.2793C184.037 46.1297 176.758 41.2517 168.741 37.9259C160.724 34.6 152.129 32.892 143.45 32.9H143.42Z" fill="#788473"/>
<path d="M143.78 137.81C120.57 137.27 103.78 119.93 104.33 97.2C104.89 76.1 122.65 58.89 143.45 59.29C166.38 59.73 183.37 77.05 182.91 99.54C182.49 120.79 164.58 138.3 143.78 137.81Z" fill="#788473"/>
</g>
<defs>
<clipPath id="clip0_795_285">
<rect width="287.25" height="197.21" fill="white"/>
</clipPath>
</defs>
</svg>
