<svg width="807" height="554" viewBox="0 0 807 554" fill="none" xmlns="http://www.w3.org/2000/svg">
<mask id="mask0_947_309" style="mask-type:luminance" maskUnits="userSpaceOnUse" x="0" y="0" width="807" height="554">
<path d="M806.939 0H0V554H806.939V0Z" fill="white"/>
</mask>
<g mask="url(#mask0_947_309)">
<path d="M401.717 0C533.439 3.93286 642.436 50.8744 729.184 147.567C761.374 183.413 787.171 224.518 805.453 269.092C807.268 273.793 807.318 278.993 805.594 283.728C747.191 418.569 646.481 505.457 504.336 541.134C412.335 564.225 321.037 555.966 233.278 518.379C133.748 475.736 60.541 405.113 11.7455 308.758C-3.73311 278.166 -4.26685 276.845 11.7455 245.832C78.4732 115.654 183.593 36.1073 327.105 7.19152C330.813 6.33233 334.563 5.67588 338.341 5.22509C360.506 3.31484 382.53 1.57315 401.717 0ZM402.897 92.4223C302.271 92.7032 217.827 176.979 218.895 276.031C220.047 380.561 302.215 462.168 405.509 461.437C505.095 460.651 587.432 378.004 588.106 278.306C588.23 253.925 583.53 229.761 574.279 207.203C565.029 184.644 551.407 164.138 534.204 146.862C516.997 129.587 496.549 115.884 474.028 106.541C451.507 97.1979 427.362 92.3998 402.981 92.4223H402.897Z" fill="black"/>
<path d="M403.904 387.134C338.703 385.617 291.537 336.906 293.082 273.053C294.655 213.779 344.546 165.433 402.977 166.557C467.392 167.793 515.12 216.448 513.828 279.627C512.648 339.322 462.335 388.511 403.904 387.134Z" fill="black"/>
</g>
</svg>
