<svg id="Layer_1" data-name="Layer 1" xmlns="http://www.w3.org/2000/svg" viewBox="0 0 534.7 423.95"><defs><style>.cls-1{fill:#d0a13d;}.cls-2{fill:#021602;}</style></defs><path class="cls-1" d="M529.33,247.51c.43,3.21-.78,6.36.93,9.68,1,2-1.87,3.19-3.7,3.85a65,65,0,0,1-17.08,3.37c-3.82.31-5.32,2-6.74,5.27-5.95,13.52-11.13,27.5-21.85,38.33-6.31,6.38-13.87,10.78-22,14.31a9.74,9.74,0,0,1-6.32.28c-16-3.75-27.48-14.3-38.3-25.74-2.39-2.53-4.44-5.38-6.64-8.09-5-6.14-4.43-17.62,1.12-23,3-2.92,5.9-4.05,9.22-.12s7,7.1,10.23,10.93c2.25,2.69,4,2.88,6.35.35,10.23-10.86,21.83-20.75,25.44-36.25.45-1.94,1.33-2.59,3.55-2.06a93.53,93.53,0,0,0,10.84,1.64c5.3.63,5.64.27,4.42-4.8-1.05-4.36-2.28-8.68-3.44-13-.63-2.37-.28-4.26,2.31-5.26,8.68-3.34,17-7.49,26.06-10,2.94-.82,5.11-.19,7.74,1.69C524.86,218.42,529.13,232,529.33,247.51Zm-79.11,62c0,5.77,2.52,7.58,7.84,5.85,10.48-3.4,19.1-10.52,25.15-18.74,9-12.24,15-26.64,19.56-41.32,2.12-6.8,1.1-7.63-5.92-6.58a16.14,16.14,0,0,1-4,.06,165.29,165.29,0,0,1-26-4.47c-2.6-.71-3.67-.53-4.22,2.07-3.32,15.44-13.07,26.21-25.64,34.81-2,1.35-2.11,2.11-.42,3.64,3.69,3.36,7.26,6.85,10.93,10.23,3.48,3.2,6.37,6.46,3.14,11.54C450.09,307.5,450.3,308.88,450.22,309.52Zm55.95-48.78a44.2,44.2,0,0,1,11.5-2.89c8.7-.92,8.7-.94,7.7-9.37-.2-1.65-.43-3.3-.51-4.95-.6-11.68-6.36-20.72-14.45-28.61a6.06,6.06,0,0,0-7.14-1.49c-7.17,2.62-14.44,5-21.78,7.07-2.89.82-2.73,2-1.94,4.2,1.61,4.54,3.13,9.13,3,14.05-.06,2.17,1.09,2.76,3.07,2.93,5.12.45,10.22,1.38,15.35,1.59,3.79.15,5.33,2,5.87,5.37C507.44,252.43,507,256.19,506.17,260.74Zm-59.64,54.18a16.45,16.45,0,0,1,.75-12.5c.83-1.84-.52-2.76-1.71-3.66a180.2,180.2,0,0,1-29.91-29.16c-2.13-2.59-3.44-1.58-5,.33-3.31,3.95-3.11,9.77.59,15.18,7,10.3,16.75,17.9,26.16,25.78C439.76,312.88,442.74,313.94,446.53,314.92Z"/><path class="cls-1" d="M449.28,34a84.09,84.09,0,0,1-.95,27,52,52,0,0,1-8.12,19.17c-3.59,5.39-6.66,5.7-13.21,4.11-4.27-1-8.93-.41-13.41-.63-2.65-.13-5.31-.33-7.94-.72-5.47-.82-6-2.12-3.23-7.15.54-1,1.8-2,.89-3.06s-2.21-.32-3.31-.07c-3.41.78-6.79,1.66-10.2,2.42-4.53,1-5.27.3-4.28-4,2.82-12.26,0-23.38-6.74-33.73a7.13,7.13,0,0,0-2.27-2.6c-5.1-2.64-2.79-5,.22-7.22a101.81,101.81,0,0,1,32.58-15.86c2.45-.69,4.43-.75,6,1.79.94,1.5,3.13,2.33,3.79,3.87,2.9,6.82,7.7,8.57,14.52,6.41a19.45,19.45,0,0,1,5.47-.38C447.11,23.19,448.78,24.75,449.28,34Zm-58.36,28.9a11.84,11.84,0,0,1,0,3c-1.32,5,1.17,4.24,4.32,3.14,6.12-2.14,12.32-4.06,18.46-6.16,12.12-4.16,12.22-4.2,11-17.17-.9-9.66-2.4-19.18-9.37-26.8-1.8-2-3.39-2.57-6.07-1.51Q395.76,22.64,382.77,29c-1.94.94-3,1.72-1.15,4C388.67,41.66,390.84,52,390.92,62.85Zm54.7-23.14a54.55,54.55,0,0,1,0-5.84c.36-3.86-1.09-5.49-5.07-5.23a76.56,76.56,0,0,1-10.49-.16c-3.35-.24-4.36.58-3.37,4.14a72.37,72.37,0,0,1,2.4,21.25c-.15,5.85-2,10.29-8.38,11.95-3.52.92-6.82,2.66-10.3,3.77-2.26.72-3.2,1.89-3.11,4.3.11,2.64,2.08,2.16,3.55,2.47,6.57,1.37,13.3.64,19.9,1.43,3,.36,4.54-.88,6-3.22C443.36,64.26,446.27,53,445.62,39.71Z"/><path class="cls-1" d="M144,15.47c-1.21,3.57.47,5.13,4.27,5.55,4.5.5,6.24,2.94,4.85,7.59-2.43,8.14-1.5,16.47-.89,24.76.08,1.1,0,2.08,1.36,2.88,3.8,2.29,3.85,4,.33,6.68-6.06,4.57-13.11,7.14-20.25,9.39-5.54,1.75-11.25,3-16.77,4.82-3.05,1-4.36,0-5.09-2.74-.6-2.25-1.17-4.5-1.78-6.74-.72-2.66.2-6.62-4.8-5.91-.43.06-1.32-1.06-1.52-1.76C99,43.77,97.81,27.73,106.38,12.25a7.22,7.22,0,0,1,6-3.79c8.75-1,17.47-2.2,26.2-3.36,6.5-.86,4.53,4.48,5.54,7.59A9,9,0,0,1,144,15.47ZM113.26,55.68c0,6,0,10.8,1.12,15.55.3,1.33.28,2.79,2.41,1.52,8.77-5.24,18.83-7.46,28.07-11.64,2.95-1.34,4-2.62,3.26-5.92a54.59,54.59,0,0,1,.15-24.75c.69-3.12-.41-3.71-3.07-4-6.77-.76-13.71-1-20-3.65-4.76-2-6.36.08-7.89,4C113.49,36.52,114,46.75,113.26,55.68Zm-9.11-12.76a49.83,49.83,0,0,0,.06,6.47c.36,2.77-1.3,7.73,1.67,7.84,4.51.16,3.17-5,3.32-8,.42-8.34,1.12-16.58,4.69-24.28,3-6.37,6.35-8.2,13-7.16,2.13.33,4.27.69,6.41.91,6.74.7,6.62.67,7.14-6.23.18-2.46-.31-2.73-2.64-2.23A120.07,120.07,0,0,1,114.58,13c-2.87.05-4.37,1.06-5.64,3.73C105,25,104.16,33.88,104.15,42.92Z"/><path class="cls-1" d="M54.42,317.76c-2.86-.86-5.79-1.51-8.54-2.61a19.19,19.19,0,0,1-9.07-7.57c-6.1-9.58-10.14-19.8-8.89-31.48a4.86,4.86,0,0,0-.53-3.36c-1.32-2-.07-3.2,1.63-3.82,6.08-2.22,12.19-4.4,18.35-6.39,3.19-1,5.53,0,7.36,3.15,3.34,5.73,7.12,11.22,10.74,16.79.54.84,1,2,1.81,2.34,6.89,2.95,4,7.21,1.75,11.52-1.11,2.17-3.86,4.54.81,6.36,1.67.66.94,3.05.2,4.53-4,8.13-9.75,15-15.86,21.62a3.56,3.56,0,0,1-2.23.74c-8.43.45-16.22-1-22.49-7.34-6.92-7-12.4-14.77-14.5-24.56-.72-3.37,4.23-9.85,7.6-10.08,1.08-.08,1.61.48,1.21,1.49a9.16,9.16,0,0,1-1.39,2.05c-4.83,6.2-4.88,6.61-.64,13.62,5.68,9.4,12.7,17,24.28,19,3.82.68,6.47.05,8.37-3.32,1-.69,2-1.45,2.06-2.85,6.07-5.26,9.27-10.32,8.26-13.7l-8.34,13.62ZM30.43,280c1,9.31,3.65,18.16,9.54,25.71a18.75,18.75,0,0,0,9.78,6.56c2,.58,3.45.47,4.51-1.68,3-6,6.83-11.38,10.72-16.77.88-1.23,2-2.5.42-3.91-6.58-5.81-9.7-13.79-13.4-21.38-1.19-2.45-2.54-2.41-4.73-1.41-3.32,1.51-6.7,3.28-10.22,3.85C31.51,271.86,29.77,274.81,30.43,280Z"/><path class="cls-2" d="M33.34,196.38c-8.59-10.16-9.76-23-3.07-33-6.35-1.72-12.65-3.38-18.93-5.14-2-.56-2.88.6-3.44,2-5.28,13.3-6.71,26.68-.54,40.15,1.53,3.32,4.9,5.21,7.12,8.69-3.56.45-5.39-1.42-7.06-3.35A29.45,29.45,0,0,1,1.2,192.26a50.76,50.76,0,0,1,3-31.25c2.54-5.91,5-7.19,11.28-6.15,5.73.94,11.43,2.17,17.08,3.56,4.64,1.14,4.94,2.68,2.23,6.43-3.44,4.76-4.57,10.24-4.25,16.44,4.15-1.72,7.17-4.81,10.74-7,2.27-1.41,3.66-3.13,5.47,1.46,2.13,5.39,8.15,7.45,13.74,8.93,6.5,1.71,6.31,1.61,3.47,7.82A149.05,149.05,0,0,1,56.56,206c-8.08,13.71-19.31,11.44-28.57,3.14-3.38-3-5.51-3.84-9-1.37a2.65,2.65,0,0,1-3.12.29c1.27-3.78,4.66-5.18,7.7-6.84S30,198,33.34,196.38ZM60.5,191c-5.28-.35-9-2.94-12.33-6.31-1.93-2-3.56-5.88-5.44-5.95-2.46-.1-5,2.77-7.57,4.29-4.57,2.72-4.69,3.67-.78,7.5a17.57,17.57,0,0,0,2.28,1.94c4.59,3.16,4.5,3.75-.13,6.92-2.79,1.91-8.52,2.91-7.9,5.54.75,3.15,6.15,3.81,9.7,5.16,1.77.67,4,2.12,5.63.55C50,204.84,56.11,199,60.5,191Z"/><path class="cls-2" d="M129.91,392.74c-7.92,2.78-14.66,7.8-22.06,11.56a27.24,27.24,0,0,1-4.52,2.11c-2.54.77-5.59,1.74-7.27-1s-.77-5.95,1.72-8.11c4.37-3.78,8.92-7.33,14-11.45-4.79-.44-8.74.47-12.67,1.26-6.53,1.3-13,2.9-19.55,4.07-2.75.49-5.94.66-7-3-1-3.33.87-5.37,3.72-6.72,13.54-6.38,25.5-15.79,39.83-20.67,3.24-1.1,6.53-2.43,4.14-7.26-1-1.92.33-4.3,1.35-6.18,12.47-23.05,20.09-48.19,31-71.89,5-10.88,10.3-21.62,15.7-32.9-4.29-.1-6.82,2.37-9.41,4.38C153,251.52,147,256,140.28,259.45s-10.11,2.55-14.34-3.71c-8.3-12.26-11.24-26.55-15.37-40.39a60.22,60.22,0,0,1-2.68-15.72c-.08-3.22.35-6.19,2.37-9,2.43-3.35,1.43-5.18-2.85-5.07A83.51,83.51,0,0,0,94,186.85c-7.46,1.42-14.62-.06-21.74-1.7-5.64-1.3-7.48-4.05-8-10.53-.61-7.8,1-11.42,6.35-13.73,7.37-3.16,15-5.75,23-6.15,10.23-.52,20.46-2,30.71.58,6.19,1.54,8.63,3.64,8.94,10,.11,2.49-.09,5,0,7.49.13,3,.1,5.78,4.23,6.66,3,.62,3.22,4,3.77,6.55a119.08,119.08,0,0,1,2.82,20.55l22.71-20.76c1.72-1.58,3.32-3.3,5.16-4.71a15.57,15.57,0,0,0,6.45-10.56c1-5.75,4.45-10.79,8.52-15a47.49,47.49,0,0,0,7.5-9.27c8.34-14.66,21.17-24.26,34.93-33.42,8.73-5.81,17.43-11.07,27.58-13.33,6.51-1.45,13.21-2.49,20.09-2,.07-2.34-1.72-3.66-2.29-5.49-.67-2.11-1.73-2.83-4.08-1.88-3.91,1.56-5.56-.88-6.14-4.28-1-6.11,2-10.79,8.28-12.23,2-.46,1.75-1.61,1.8-2.9.15-3.65.14-7.33.45-11,.54-6.22,2.53-8.32,8.58-9a121.3,121.3,0,0,1,34.82.69c5.76,1,6.73,3.24,2.61,7.34-2.71,2.68-2.8,5-2,8.44,1.8,7.26,3.24,14.63,2.69,22.21s-1.75,14.66-12,15.13c3.28,2,5.8,4.06,9.4,3.31,1.8-.37,3,.91,4.3,2.06,11.39,10.27,19,23,24.82,37,4.72,11.36,8.42,23.18,15.29,33.55.86,1.3,1.59,4.17,3.57.71,8.45-14.74,20.31-26.74,31.79-39,5-5.35,10.18-10.57,15.66-15.41,3.6-3.19,6.88-7.26,12.5-7.36,1.61,0,2-2,2.88-3.22a141.15,141.15,0,0,1,42.86-39.1,17.61,17.61,0,0,1,6.5-2.46c2.3-.3,4.92-.93,6.44,1.39,1.36,2.07.85,4.49-.17,6.71-2.33,5.08-6.15,9.06-9.75,13.22-1.15,1.33-2.9,2.26-3.18,4.35,7.35-.5,14.61-1.07,21.87-1.47,12.28-.67,24.24,1.3,36,4.79,1.79.53,4.23.59,4.12,3.44-.1,2.65-2.06,3.69-4.19,4.35a200.81,200.81,0,0,1-23.63,6.22c-.57.1-1.12.32-3.05.89,8.39,2.57,15.55,4.53,21.71,8.77,1,.66,2,1.15,2.94,1.88,2.36,1.92,4.83,4,4,7.46s-4,4.08-7.06,4.44a85.83,85.83,0,0,1-15.63.44c2.5,1.91,4,3,5.49,4.2,3.13,2.54,6.07,5.23,7.32,9.26,1.68,5.43-.86,8.63-6.45,7.56-8.65-1.66-17.23-3.71-25.84-5.56-5-1.08-10.13-2-15.15-3.17C467,152,460.61,156.19,454.17,160c-1.75,1.05-1.41,2.91-1.14,4.54.43,2.63-.78,4.29-2.66,6-20.55,18.72-43.05,34.72-66.3,50-15.1,9.89-28.19,9.5-42.13-.85-7.6-5.63-15-11.47-23.27-16.27-4.93-2.89-8.36-7.55-11.24-12.51-1.77-3-3.43-4.47-6.68-1.09-3.47,3.62-8.2,5.76-12.81,7.61-5.42,2.18-10.52,5-15.8,7.4-5,2.29-5.65,6.06-1.14,9.47,7.28,5.5,12.4,13,18.7,19.36,9.21,9.32,14.12,20.78,17.68,33.09,6.25,21.6,10.26,43.71,15.32,65.58,1,4.41,1.59,8.64-.33,13.13-1.48,3.47-.77,6.87,2.41,9.75,5.69,5.17,10.19,11.42,14.71,17.61a26.45,26.45,0,0,1,3.46,5.46c1.78,4.41,4.43,9.09.77,13.62-4.89,6.06-11.31,7.4-18.12,5.29C308,391.71,295,380,283.31,366.54c-2.58-3-4.31-6.33-3.79-10.48a3,3,0,0,0-.18-1.94c-6.31-8.9-4.49-19.73-6.94-29.54a163.68,163.68,0,0,1-5-30.52c-.51-9.33-1.92-18.55-3.15-27.8-.61-4.63-4-7.16-7.52-9.4-11.79-7.5-21.9-17.2-33.82-25.2-2.63,7.23-5.5,14.59-8,22.09-7.5,22.63-19,43.62-26.81,66.14-5.3,15.41-10.29,30.92-15.5,46.36-.55,1.63.06,2.87.47,4.3.65,2.28,1.93,4.5-.82,6.72-1.73,1.39.08,3.37.92,4.91,3,5.41,6,10.75,8.93,16.17a28.27,28.27,0,0,1,2.3,5.51c.6,2,1.55,4.32-.46,6.08-1.76,1.54-3.77.63-5.68,0a23.78,23.78,0,0,1-8.73-4.73c-2.63-2.3-5-4.92-7.64-7.18-2.19-1.86-2.79-6.36-5.68-5.9-2.1.33-3.75,3.92-5.46,6.15-6.94,9-16.12,15.87-23.81,24.18-2.62,2.84-4.46,1.15-5.12-2-.76-3.58.35-7,1.7-10.2,2.31-5.52,4.85-10.94,7.3-16.4.5-.44.86-1,.3-1.52C130.94,392.26,130.32,392.61,129.91,392.74Zm92.71-196.82,1.69.91a.86.86,0,0,0,.54.76c-1.92,3.61-3.66,7.33-5.85,10.76-.61,1-2.31,1-1.18,2.84,1.41,2.25,2.19.6,3.41-.19,4.91-3.2,4.05-8.95,6.13-13.39a6.13,6.13,0,0,0,1.16-3.66,55.1,55.1,0,0,0,2.63-6.27c.36-1.23,1.93-2.39.67-3.92-1.38,1.19-3.19,2.14-4,3.64-.55,1,.31,2.78.55,4.21l-2.08.51-1.87-.21c-8.84-2.83-15.12-8.49-18.62-18.16-1.4,3-3.65,4.94-2.14,7.28C208.24,188.13,213.75,194.22,222.62,195.92Zm117.06,11c1.43.91,2.87,1,4.1-.25,2.33-2.38,5.69-3,8.27-5.21,2-1.66,5.4-2.36,4.73-5.42-.58-2.63-4-1.6-6.12-2.15-9.51-2.48-19.32-2.63-29.14-3.24,7.72,8.76,19.63,3.71,29.1,8.78L339,206.19c-.62.18-1.52.55-1.13,1.15C338.44,208.2,339.25,207.9,339.68,207Zm-107.36-65.4a4.91,4.91,0,0,1,1.45.12c9.69,3.76,15.71-.15,16.77-10.54.37-3.61.2-7.34.55-10.64.41-3.88,1.11-7.89,1.36-11.9-4.14-.47-5.79,1.1-5.53,5.35a49.5,49.5,0,0,1-.78,10.43c-.52,3.45-1.21,7-3.51,9.76-1,1.23-2.26,2.83-4.1,2.18-1.46-.5-2.05-2.13-2.25-3.65a74.67,74.67,0,0,1-.88-8.26c0-1.94,0-4.26-2.11-4.35-2.52-.11-3.42,2.17-3.44,4.6,0,5.8.18,11.56,2.58,17a48.81,48.81,0,0,0-5.88-2.32c-11.24-2.86-18.85-2.87-24.57,7.34-3.65,6.52-2.73,13.81-2.31,21.81,3.36-4.29,4.32-8,4.05-12.43-.55-9,1.24-11.17,9.64-14.71,4.49-1.89,8.28,1,12.08,2.15,8.07,2.35,13.5,8.19,16.11,16.62,3.17-3.72,1.27-6.65-.75-9.2C238.2,147.62,235.17,144.65,232.32,141.55ZM128.71,412.83c1.1-1,2.24-2,3.29-3,6.19-6.25,13-11.89,18.2-19.13,2.25-3.14,5.23-4.34,8.67-.84,2.79,2.84,6,5.24,9,7.84,3.24,2.78,6.59,5.34,11.13,6.31.15-2.63-1.2-4.2-2.09-5.88-2.71-5.15-6.46-10-8.07-15.41-1.32-4.48-3.11-4.69-7-4.84-14.1-.53-26.72-5.07-36.46-15.78-1.65-1.82-2.61-2-4.33-.34-4,3.91-9,6.24-13.76,8.95-7.32,4.14-14.49,8.55-21.73,12.85a3.57,3.57,0,0,0,2.71.16c10.49-3.43,21.78-2.56,32.27-6,1.66-.54,3.82-.92,4.88,1.21,1.2,2.4-.76,3.63-2.25,4.91-1,.87-2.09,1.66-3.16,2.46L101.4,400.05c2.37,1.12,3.87.28,5.32-.54,8.69-4.94,17.69-9.25,26.77-13.4,1.11-.51,2.11-2,3.54-.76a3.77,3.77,0,0,1,.93,4.57,59,59,0,0,1-2.76,5.86c-2.78,5.3-5.7,10.54-7.57,16.27-.32.55-.73,1.17.09,1.57C127.88,413.7,128.37,413.11,128.71,412.83Zm146.67-332c-1.48.48-2.37-1.4-4.13-.76-2,.72-3.39,1.55-3,3.73.57,3,2.46,1.25,3.77.74,1.73-.68,3.39-1.31,5.26-.68-1.55,3.87,0,6.82,2.71,9.51,5.79,5.8,5.85,5.85,2.22,13.43-1,2-1.37,3.63.08,5.51,3.32,4.28,6.36,8.71,6,14.64,5.31-1.43,7.79-5.45,11.16-8.32.64-.55.61-1.11.45-2.07-1.43-8.57,4.24-17.24,12.56-18.79,3.27-.61,4.3-2.1,4.85-5.11,1-5.7,0-11.27-.36-16.9-.15-2.66-.7-4.44-3.84-4.52-1.28,0-2.75-.74-2.71-2.4s1.37-2,2.79-2.24c1.07-.16,3.1.94,2.7-1.53-.27-1.68-1.73-1.64-3.15-1.62-6.32.08-12.64.05-19,.11-10,.09-12.24,2.22-12.67,12.29C280.93,79.7,280.9,83.31,275.38,80.85ZM263.33,208.47c-9.63,5.45-19.54,7.13-29.84,7.25-5.07.06-8.27,3.55-8.45,8.69-.06,1.55.82,2,1.89,2.5,13.47,6.48,24.07,16.54,34,27.37,2,2.2,5.36,3,6.43,6,2.37,6.73,5.14,13.33,6,20.54q3.44,30,8.68,59.72c2.22,12.68,4,13.8,17.14,12.07a36.69,36.69,0,0,0,10.4-3.16c6.95-3.22,9-7.9,7.14-15.49-1.7-6.94-3.95-13.76-5.32-20.76-3.54-18.11-7.52-36.13-11.79-54.08a16.06,16.06,0,0,0-1.68-4.64c-7.9-13.43-18.79-24.51-28.73-36.31C266.82,215.38,264,213.11,263.33,208.47ZM482.6,80.72c-5.65.35-7.14.76-11,3.45a189.68,189.68,0,0,0-40.68,38.06c-1.41,1.77-3.45,3.84-2.64,6.17,3,8.75,4.75,18.09,10.87,25.55,1.17,1.43,2.41,2.39,4.26,1.59,5.61-2.42,11.76-3.21,17-6.86a19,19,0,0,1,14.75-3.18c8.17,1.64,16.18,3.86,24.13,6.28l17.93,5.48c-2.07-4-4.67-5.15-7-6.63-5.51-3.51-11.77-5.44-17.55-8.38-2.64-1.35-3-3.36-2.32-5.83s2.2-3.57,4.83-3.2c3.29.45,6.6.92,9.91,1.1,7.45.4,14.9,1.88,23.73,1C523,131,517.65,129.3,512.17,128c-7.12-1.67-14.33-3-21.46-4.61-4.32-1-5.12-3.29-2.74-6.73,1.2-1.73,2.93-1.93,4.75-2.31,10.15-2.17,20.29-4.43,30.43-6.65a48.64,48.64,0,0,0-18-2.48,194.42,194.42,0,0,0-36.62,4.11c-4.84,1-6.51-1-5.09-5.79,1-3.46,3.38-6.07,5.77-8.63C473.4,90.46,477.6,86,482.6,80.72ZM177.4,182.44a7,7,0,0,0-1.22.84c-12.37,14.46-26.15,27.48-40.61,39.8-1,.82-2.07,2.27-3.41,1.25-1.49-1.12-.81-2.8.14-4,2.36-3,4.81-5.94,7.32-8.83,1.09-1.26,2.32-2.26,2-4.28-1.27-7.38-2.38-14.79-3.59-22.18-.29-1.73-1-2.57-3.08-1.79-6.38,2.41-12.78,4.69-18.72,8.17-2.69,1.58-3.15,3.35-2.48,6.16,1.19,5,2.31,10.07,3,15.17a133.13,133.13,0,0,0,11.57,38.54c2,4.28,5.29,4.85,9.09,3a81.16,81.16,0,0,0,11.29-6.36c6.56-4.6,13.1-9.17,20.68-11.95a5.1,5.1,0,0,0,3.14-3c4.45-10.76,8.89-21.52,13.4-32.25.51-1.24.58-2.16-.39-3.14C181.49,193.46,179.64,188.09,177.4,182.44Zm-66.47-21.6c-13.46.45-26.78,1.34-39.36,7.1-3.86,1.78-3.76,4.4-3.69,7.66.08,3.6,2.57,3.52,5.08,4.05,10,2.07,19.86.6,29.78-.05,3-.2,6.72-.55,8.33,2.12,3.35,5.5,6.59,3.21,10.36,1a22,22,0,0,1,6.84-2.88c2.3-.44,2.23-1.64,1.83-3.14a29.34,29.34,0,0,1-.57-10.39c.23-2.53-.78-3.64-3.25-3.9C121.17,161.85,116.16,160.34,110.93,160.84ZM285.62,357c-.88,3.54,1,5.53,2.81,7.42,3.18,3.39,6.51,6.64,9.8,9.92A72.1,72.1,0,0,0,325,391.05c4.87,1.77,8.52-.41,11.83-3.16s.63-5.87-.64-8.55c-4.14-8.79-11-15.78-16.35-23.75A1.83,1.83,0,0,0,317,355C307.06,361.47,296.65,361.2,285.62,357Zm-147.5-29.83c9.78-1.72,19.41-3.45,29.06-5.1,2.18-.38,4.93-1.73,6.37.67,1.66,2.77,2.55,5.73,1.18,9.43a59.65,59.65,0,0,0-3.55,17.45c3.14-2.48,1.91-5.69,2.91-8.24,7.11-18.27,12.76-37.1,21.08-54.92.49-1,1.36-1.62-.14-3.21-1.79-1.89-.2-5.07,0-7.6.21-2.32,2.73-.73,4.2-.92,1.76-.22,2.12-1.56,2.31-2.82.27-1.84-1.35-1.76-2.37-1.57-4.3.8-6.09-1.66-7.91-5.06A32.1,32.1,0,0,0,177,251.09c-1.54-.75-3.36-2.86-5.14-.12s.79,3.32,2.3,4.34c.95.65,2,1.12,3,1.76,4.54,3.07,8.7,6.48,11,12.23-7.49-.15-14.42-.36-21.27-1.78-1.59-.33-3.33-.3-3.7,1.52-.51,2.49,2,1.92,3.09,2,6.41.75,12.86,1.23,19.29,1.82,2.68.25,5.9.39,5.35,4.16s3.08,8.75-3.3,10.65c-1.93.57-2,2.17-1.23,3.59.49,1,1.54,1.39,1,2.94-2.18,6.4-4.13,12.87-6.15,19.32-.59,1.87-1.43,3.29-3.79,3.2-2-.08-3.45-.27-4.09-2.64-2.61-9.56-9.82-14.94-18.13-19.12-1.11-.56-3.13-2.36-4.3-.05-1.33,2.64,1.46,2.57,2.67,2.93,7.92,2.37,12.91,7.81,16.57,14.92,1.49,2.91,2,4.65-2.2,5.28-8.35,1.25-16.64,3-25,4.25C140.3,322.76,138.13,323.21,138.12,327.13ZM370.87,206.24c0,3.32,0,6.65,0,10,0,.91-.24,2.23,1.1,2.39s2-.65,1.94-2.15c0-1.29.58-2.57.66-3.87.76-11.14,1.72-22,6.87-32.47,3.35-6.79,6.68-13.4,11.53-19.18,3.2-3.82,4.81-3.52,6.09,1.3,2.62,9.91,4.89,19.92,7.5,29.84.43,1.67.34,4.9,2.9,4.3,2.33-.55,4.85-2.4,3.28-6-1.3-3-3-6.06-3.21-9.2-.61-8-3.27-15.5-5.72-22.93-2.33-7-4-7-9.26-1.92-.36.35-.76.65-1.09,1-5.21,5.81-11.77,10.84-15.07,17.8A77.54,77.54,0,0,0,370.87,206.24Zm-81.05-21.35c.64.44,1.21.62,1.43,1,1.65,2.78,3.43,2,5.18.21,2.24-2.26-.65-2.58-1.51-3.52-1.54-1.7-3.67-3.24-3.06-5.78,1.83-7.56,2.64-15.52,7.84-21.86,4.64-5.68,9.29-11.29,15.3-15.71,4.73-3.47,10-5.93,14.89-9.07.8-.52,3.27-.14,2.05-2.42s-2.6-1.16-4.16-.35a93.74,93.74,0,0,0-28.69,22.86c-.82,1-1.2,3-3.41,2.17,1.35-6.19.8-12.4.52-18.59-.06-1.22.93-3.82-2-3.51-2.43.26-1.94,2.18-1.75,3.85,1.26,11.52,1.21,22.88-4.18,33.59a14.48,14.48,0,0,0-1.63,7.24c.3,5.15-1.06,9.84-3.05,14.49-.5,1.18-1.79,2.5-.68,4.06C286.71,192,286.71,192,289.82,184.89Zm137.74-14.17c5.33.92,9.74-3.26,15-2.34.78.13,1.74.39,2.18-.58.58-1.29-.82-1.56-1.31-2.3-3.25-4.95-8.27-2.85-12.56-2.88-2.89,0-5.72-.19-7.84-1.88-2.59-2.06,1.21-3.55,1.18-5.56,0-1.18.36-2.73,1.74-2.45s3.34.82,3.44,2.93,1.28,3.39,2.46,4.75,2.49.34,3.65-.13.68-1.29.17-2a50.48,50.48,0,0,1-7.73-15.94c-.38-1.37-1.13-2.39-2.78-.78-4.79,4.69-8.93,9.79-11.37,16.13-1.65,4.27-.91,7.66,3.06,10.36A17.31,17.31,0,0,0,427.56,170.72ZM254,192.06c.92-14.37,8.09-24.16,20.25-30.45,1.5-.77,3.44-2.77,5.41-.78s0,3.78-.89,5.29c-5.2,9-7.06,18.92-8.1,29.07-.13,1.29-1.16,3.34,1.42,3.3,1.87,0,2.07-1.51,2.12-3.23.1-3.78-.09-7.64,1.17-11.27,2.31-6.6,3.53-13.58,7.1-19.75.95-1.64,2-3.86.36-5.6s-4.17-1.66-6.48-1c-14.17,4.06-33.2,25.86-23.88,45.45.4.84.42,2.24,1.53,2.05a7.56,7.56,0,0,0,3.48-1.8c1-.87.07-1.89-.6-2.54C254.22,198.25,254.46,194.81,254,192.06Zm11.06-41.2a12.05,12.05,0,0,0,11-7c2-4.59,4.7-8.28,7.61-12.09.75-1,3.19-2,1.14-3.47s-2.38,1.13-3.1,2.16c-3.35,4.75-6.19,9.95-11.38,13-2,1.18-4.85,2.6-6.42.77s-.1-4.68,1.25-6.82a7.8,7.8,0,0,1,.7-.71c2.94-3.36,5.89-6.7,8.79-10.1.87-1,3.15-1.83,1.76-3.48s-3.85-.78-4.91.51c-4.63,5.59-10.1,10.65-13.08,17.41S257.57,150.58,265.05,150.86ZM209,251.57c3.09-8.3,6.22-16.6,9.28-24.92,1.09-3,2.07-6,3.05-9a2,2,0,0,0-.76-2.6c-.66-.37-.94.1-1.51.46a19.63,19.63,0,0,1-25.73-3.92c-.8-.91-1.13-2.43-2.69-2.51-2.17,2.62-1.43,4.58.69,7,4.93,5.54,11.31,5.62,17.84,5.48,2.72-.05,5.18-.29,6.42,3.16,1.11,3.12.75,4.78-2.6,5.82-.91.28-1.83,2.59-.84,3.39,1.63,1.32.34,1.71-.16,2.61A23.39,23.39,0,0,0,209,251.57ZM340,161c-2.66-.42-5.25-.14-7.53-1.33s-3.49-2.71-.3-4.47c3.49-1.93,5.29-5.86,8.94-7.65.85-.42,1.69-1.09,1-2.37s-1.67-1.32-2.88-.67c-5,2.72-9.7,5.92-12.89,10.78-2.46,3.76-1.65,6.79,2.1,9.14,3.15,2,16.33,1.33,19.53-.82.86-.58,1.14-1,.82-2-.42-1.24-1-1.89-2.56-1.52A59.69,59.69,0,0,1,340,161ZM278,116.43c-.91-3.9-1.9-7.4-2.48-11-.26-1.53-.41-2.61-2.2-2.52-1.59.08-3.44-.51-4.19,1.69-1.52,4.48-3.08,8.94-4.82,14C269.49,117.91,273.32,114.9,278,116.43Zm-83.63,42.62c-5.84,5-9.8,29.9-5.83,34.85C190.7,182,190.3,170.11,194.37,159.05Zm119.05-32.79c-.33-4.35-.81-7.54-.72-10.72.05-2,.06-3.72-2.12-4.33-2.59-.72-2.42,1.92-2.84,3.09-.61,1.7-3.92,3.66-1.24,5.2S310.3,123.48,313.42,126.26ZM244.65,170c-2.5,7.51-5.23,15-8,22.42C242.71,186.23,244.47,178.42,244.65,170Zm-5.27-4.16c-6.34.32-5,6.09-7,9.36-.51.84.69,1.78,1.58,2.24a1,1,0,0,0,1.47-.71C236.11,172.92,239.6,170.11,239.38,165.82ZM283.62,58.47c-.34-1.47-1.45-2-2.86-1.86-.92.08-2.26.19-2,1.48s1.72,1.94,2.94,2.22S283.38,59.59,283.62,58.47Z"/><path class="cls-2" d="M112.64,103.78c-.36.66-.8,1.54-1.3,2.39a71.56,71.56,0,0,1-8.63,11.58c-4.38,4.79-6.39,5.13-12.21,2.08-8.76-4.61-13.58-12.49-17.55-21-5.35-11.54-5.31-11.56,6.16-17.35,1.64-.82,3.28-1.65,5-2.33,3.26-1.31,5.72-1,8,2.36,4.86,7,11.32,12.59,17.75,18.14C111.11,100.68,112.62,101.56,112.64,103.78Zm-3.79,1.6c0-1.53-1.24-1.94-2.12-2.57A82.33,82.33,0,0,1,95,92c-2.85-3-3.79-9.08-8-9.09S78.88,86.24,74.8,88.1c-.3.14-.58.35-.89.46-1.48.47-1.62,1.27-.94,2.64,4.48,9,9.63,17.51,17.86,23.64,5.89,4.39,6,4.29,10.85-1.25,1.87-2.12,3.79-4.19,5.67-6.31C107.9,106.66,108.38,106,108.85,105.38Z"/><path class="cls-2" d="M157.68,154.92c-1.37-3.3-.27-6.11,1.14-8.69,8.51-15.68,20.54-28.1,35.47-37.78,1.19-.77,2.33-1.45,3.47,0,1.3,1.65.14,2.8-.93,3.86-6.24,6.22-12.6,12.34-18.75,18.66a133,133,0,0,0-15.87,19.22C161.07,151.91,160.1,154,157.68,154.92Z"/><path class="cls-2" d="M505.73,298.87c2.84,7.21-.51,13.23-4.38,18.67-5.44,7.66-13.54,11.42-22.69,12.84-1.72.26-4.39,1.34-5-1.55-.53-2.54,1.77-3.1,3.69-3.84,5.84-2.25,11.57-4.57,16.54-8.72A36.64,36.64,0,0,0,505.73,298.87Z"/><path class="cls-2" d="M223.31,74.51c0,8-6.86,12.65-13.28,10.06-1.18-.48-1.94-1.37-1.29-2.72,2.37-4.9-.76-6.15-4.56-7-1.06-.23-2.47.27-2.84-1.34-.32-1.39.65-2.2,1.55-2.88q5.34-4.08,10.78-8c.89-.65,2-1.64,3.06-.41C220.14,66.11,223.58,70,223.31,74.51Zm-3.75.43c0-.38,0-.88,0-1.37a6.63,6.63,0,0,0-4-5.86c-2.45-1.16-4.13,1-5.6,2.25-2.69,2.29,1.7,2.73,1.62,4.55a5.66,5.66,0,0,0,.61,1.85c.46,1.31-.6,4.09,2.26,3.15C216.6,78.82,220.41,79.35,219.56,74.94Z"/><path class="cls-2" d="M336.49,309.2c0,2.16,0,4.32,0,6.48,0,1.08.44,2.6-1.07,3-1.8.44-2.21-1.24-2.57-2.41a49.18,49.18,0,0,1-1.6-6.76c-1.08-6.73-2-13.47-3.05-20.21-.21-1.39-1.38-3.13.83-3.72,1.66-.44,2.75.92,3.45,2.31,2.76,5.45,3.65,11.34,3.89,17.36,0,1.33,0,2.66,0,4Z"/><path class="cls-2" d="M85.79,35.83C83.28,35,82.67,34,82.38,32.88c-3-11-2.45-21.68,3.87-31.6.44-.69.9-1.6,1.86-1.17,1.12.52.94,1.61.65,2.61-.77,2.71-1.69,5.39-2.3,8.14C84.66,18.92,83.44,27,85.79,35.83Z"/><path class="cls-2" d="M14.09,336.28c6.92,7.14,14.71,11.24,24.62,9.82a2.16,2.16,0,0,1,2.6,1.78c.38,2-1.25,2.43-2.64,3-7.84,3-20.07-2.59-24.24-11.23C14,338.78,13.27,337.93,14.09,336.28Z"/><path class="cls-2" d="M464.69,16.53c2.11.33,2.71,1.87,3.16,3.18,3,8.75,3.57,17.58.22,26.37-.5,1.31-1.15,3.41-2.83,2.92-2.06-.59-.81-2.47-.4-3.8,2.64-8.37,2.24-16.7-.21-25A4.21,4.21,0,0,1,464.69,16.53Z"/><path class="cls-2" d="M41.65,97.73c2.17,3.25,4,5.86,5.73,8.59C50,110.6,53.7,114,57.28,117.4c.71.69,1.52,1.49,1,2.57s-1.35.68-2.17.44C49.49,118.49,41,105.78,41.65,97.73Z"/><path class="cls-2" d="M157.53,128.13c0-4.36,2-6.47,4.06-8.24,4.13-3.57,8.51-6.85,12.8-10.22.74-.59,1.62-1.53,2.53-.44s-.1,1.86-.8,2.48C170.21,117,164.27,122.18,157.53,128.13Z"/><path class="cls-2" d="M510,329.08c-.9,3.56-3.52,5.58-6.76,6.66-1.79.6-4.1,3.39-5.52.82-1.32-2.4,1.91-3.37,3.55-4.56,2-1.47,4.15-2.76,6.28-4.05C508.71,327.22,509.75,327.27,510,329.08Z"/><path class="cls-2" d="M344.43,297.45c2,2.52,3.29,5.22,1.6,9C343.74,303.4,344.13,300.43,344.43,297.45Z"/><path class="cls-2" d="M308,73.53a38.4,38.4,0,0,1,5.07,10c.49,1.28.47,2.71-.93,3.51a5.18,5.18,0,0,1-4.72.59c-1-.44-1.63-2.13-1.16-2.41,5.39-3.11-.28-7.24,1.1-10.64C307.45,74.47,307.55,74.34,308,73.53Z"/><path class="cls-2" d="M292.2,71.16c2.8-3.29,6.27-3.36,9.74-3.43a1.62,1.62,0,0,1,1.78,1.39,1.78,1.78,0,0,1-1.59,2.16C299,71.67,295.74,72.7,292.2,71.16Z"/><path class="cls-2" d="M302.11,89.3c1.76.78,3.85.93,4.38,3,.29,1.18-.58,1.8-1.75,1.85-2,.11-3.63-.53-4.08-2.74C300.42,90.28,301.15,89.68,302.11,89.3Z"/><path class="cls-2" d="M301.68,78.15c-.13,1.17,0,2.73-1.67,2.5-1.86-.27-1.84-2.17-2-3.58-.17-1.19.31-2.66,1.74-2.45C301.55,74.88,301.49,76.72,301.68,78.15Z"/></svg>