<svg width="623" height="554" viewBox="0 0 623 554" fill="none" xmlns="http://www.w3.org/2000/svg">
<path d="M311.476 553.949C235.316 553.949 159.161 553.949 83.0112 553.949C61.9428 553.949 42.6508 548.267 26.6157 533.547C12.2324 520.332 3.24093 504.156 1.18395 484.483C0.343111 475.927 -0.0522129 467.331 -0.000375545 458.732C-0.000375545 333.908 -0.000375545 209.074 -0.000375545 84.2287C-0.000375545 67.4677 3.27209 51.5613 12.2948 37.3801C21.275 22.8637 34.6989 11.7429 50.5047 5.7257C61.896 1.35739 73.7548 -0.00374823 85.8162 -0.00374823C132.431 -0.00374823 179.045 -0.00374823 225.66 -0.00374823C236.787 -0.26395 247.88 1.34027 258.493 4.74442C272.351 9.51934 284.522 18.3254 293.493 30.068C301.519 40.3082 309.466 50.6433 317.133 61.1526C326.187 73.5928 338.123 79.5122 353.317 79.4964C415.961 79.4014 478.606 79.4014 541.25 79.4964C563.3 79.4964 582.982 86.2387 598.986 102.082C611.889 114.87 619.992 130.381 621.846 148.772C622.623 157.01 622.987 165.282 622.937 173.557C623.02 272.625 623.02 371.683 622.937 470.729C622.937 487.68 619.275 503.713 610.003 517.847C600.979 531.985 587.679 542.765 572.105 548.568C560.887 552.509 549.066 554.385 537.199 554.107L311.476 553.949ZM447.813 341.563C448.561 342.038 448.951 342.244 449.294 342.513C470.071 358.509 490.818 374.516 511.533 390.533C514.711 393.16 518.563 394.807 522.635 395.279C526.706 395.75 530.824 395.026 534.503 393.192C542.653 389.441 545.411 382.413 545.411 373.724C545.411 309.36 545.411 244.996 545.411 180.632C545.411 166.261 538.024 158.158 524.015 158.11C473.261 157.936 422.491 157.794 371.736 158.189C357.338 158.3 350.419 165.359 350.356 180.173C350.045 244.843 350.185 309.529 350.356 374.199C350.278 377.94 351.096 381.645 352.741 384.993C358.771 396.072 373.419 398.763 383.907 390.865C396.732 381.147 409.463 371.271 422.21 361.458C430.719 354.811 439.305 348.195 447.813 341.595V341.563Z" fill="black"/>
</svg>
