<svg width="45" height="41" viewBox="0 0 45 41" fill="none" xmlns="http://www.w3.org/2000/svg">
<g clip-path="url(#clip0_316_246)">
<path d="M22.4981 40.4963C16.997 40.4963 11.4962 40.4963 5.99586 40.4963C4.47406 40.4963 3.08058 40.0861 1.92235 39.0233C0.883426 38.0691 0.23396 36.9012 0.0853822 35.4808C0.0246477 34.863 -0.00390699 34.2424 -0.000162716 33.6215C-0.000162716 24.6089 -0.000162716 15.5956 -0.000162716 6.58154C-0.000162716 5.37135 0.236211 4.22288 0.887929 3.19897C1.53658 2.15085 2.50621 1.3479 3.64788 0.91345C4.47068 0.598048 5.32726 0.499771 6.19847 0.499771C9.56548 0.499771 12.9325 0.499771 16.2995 0.499771C17.1032 0.480984 17.9045 0.596812 18.6711 0.842599C19.6721 1.18736 20.5512 1.82317 21.1992 2.67101C21.7789 3.41038 22.3529 4.1566 22.9067 4.91539C23.5607 5.8136 24.4229 6.24099 25.5204 6.23985C30.0452 6.23299 34.5701 6.23299 39.095 6.23985C40.6877 6.23985 42.1093 6.72667 43.2653 7.87057C44.1973 8.79392 44.7826 9.91382 44.9165 11.2417C44.9726 11.8365 44.9989 12.4338 44.9953 13.0313C45.0013 20.1842 45.0013 27.3363 44.9953 34.4877C44.9953 35.7116 44.7308 36.8692 44.0611 37.8897C43.4092 38.9105 42.4486 39.6889 41.3237 40.1078C40.5134 40.3924 39.6595 40.5278 38.8023 40.5078L22.4981 40.4963ZM32.3459 25.1617C32.4 25.1959 32.4281 25.2108 32.4529 25.2302C33.9537 26.3852 35.4522 27.5409 36.9485 28.6974C37.178 28.8871 37.4563 29.006 37.7504 29.04C38.0444 29.074 38.3419 29.0217 38.6076 28.8893C39.1963 28.6185 39.3955 28.1111 39.3955 27.4837C39.3955 22.8365 39.3955 18.1893 39.3955 13.5421C39.3955 12.5045 38.862 11.9194 37.8501 11.9159C34.184 11.9034 30.5169 11.8931 26.8508 11.9216C25.8108 11.9296 25.311 12.4393 25.3065 13.5089C25.284 18.1783 25.2941 22.8487 25.3065 27.518C25.3008 27.7881 25.3599 28.0556 25.4787 28.2974C25.9143 29.0973 26.9724 29.2916 27.7299 28.7214C28.6563 28.0197 29.5759 27.3066 30.4966 26.5981C31.1112 26.1181 31.7314 25.6405 32.3459 25.1639V25.1617Z" fill="#A3BF98"/>
</g>
<defs>
<clipPath id="clip0_316_246">
<rect width="45" height="40" fill="white" transform="translate(0 0.5)"/>
</clipPath>
</defs>
</svg>
