<svg width="51" height="51" viewBox="0 0 51 51" fill="none" xmlns="http://www.w3.org/2000/svg">
<path d="M25.333 0.333374C11.5484 0.333374 0.333008 11.5488 0.333008 25.3334C0.333008 39.118 11.5484 50.3334 25.333 50.3334C39.1176 50.3334 50.333 39.118 50.333 25.3334C50.333 11.5488 39.1176 0.333374 25.333 0.333374ZM18.9215 8.02568H31.7408C37.7504 8.02568 42.6407 12.9142 42.6407 18.9219V31.7411C42.6407 37.7507 37.7522 42.6411 31.7445 42.6411H18.9253C12.9156 42.6411 8.02532 37.7526 8.02532 31.7449V18.9256C8.02532 12.916 12.9138 8.02568 18.9215 8.02568ZM18.9215 11.8718C15.035 11.8718 11.8715 15.0372 11.8715 18.9256V31.7449C11.8715 35.6314 15.0368 38.7949 18.9253 38.7949H31.7445C35.6311 38.7949 38.7945 35.6296 38.7945 31.7411V18.9219C38.7945 15.0353 35.6292 11.8718 31.7408 11.8718H18.9215ZM34.3099 15.0757C35.0176 15.0757 35.5907 15.6488 35.5907 16.3565C35.5907 17.0642 35.0176 17.6411 34.3099 17.6411C33.6022 17.6411 33.0253 17.0642 33.0253 16.3565C33.0253 15.6488 33.6022 15.0757 34.3099 15.0757ZM25.333 15.718C30.6349 15.718 34.9484 20.0315 34.9484 25.3334C34.9484 30.6353 30.6349 34.9488 25.333 34.9488C20.0311 34.9488 15.7176 30.6353 15.7176 25.3334C15.7176 20.0315 20.0311 15.718 25.333 15.718ZM25.333 19.5641C23.8029 19.5641 22.3355 20.172 21.2535 21.2539C20.1716 22.3359 19.5638 23.8033 19.5638 25.3334C19.5638 26.8635 20.1716 28.3309 21.2535 29.4128C22.3355 30.4948 23.8029 31.1026 25.333 31.1026C26.8631 31.1026 28.3305 30.4948 29.4125 29.4128C30.4944 28.3309 31.1022 26.8635 31.1022 25.3334C31.1022 23.8033 30.4944 22.3359 29.4125 21.2539C28.3305 20.172 26.8631 19.5641 25.333 19.5641Z" fill="#C8F9B1"/>
</svg>
