<svg width="123" height="20" viewBox="0 0 123 20" fill="none" xmlns="http://www.w3.org/2000/svg">
<g clip-path="url(#clip0_650_424)">
<path d="M22.2207 18.0633V0.553334C22.2207 0.3 22.0385 0.0933338 21.6311 0.26C20.8129 0.593334 18.4046 1.73 18.0336 1.92667C17.6626 2.12333 17.8017 2.63333 18.1462 2.59333C18.345 2.57 18.335 2.76667 18.335 2.89V17.0333C18.335 17.3737 18.4017 17.7108 18.5313 18.0253C18.6608 18.3397 18.8507 18.6254 19.0901 18.8659C19.3294 19.1065 19.6136 19.2972 19.9262 19.4271C20.2389 19.5571 20.574 19.6238 20.9122 19.6233H22.4692C22.5216 19.6282 22.5742 19.615 22.6182 19.5858C22.6622 19.5566 22.695 19.5132 22.7112 19.4627C22.7274 19.4123 22.726 19.3578 22.7073 19.3082C22.6886 19.2586 22.6537 19.2169 22.6083 19.19C22.33 18.9733 22.2207 18.7133 22.2207 18.0633Z" fill="#C8F9B1"/>
<path d="M122.116 16.8667C121.87 17.2543 121.532 17.5741 121.132 17.797C120.732 18.02 120.283 18.139 119.827 18.1433C116.805 18.1433 114.897 14.41 114.897 14.41C118.342 14.41 122.364 12.9633 122.364 9.72333C122.364 7.43 120.32 5.26667 116.772 5.26667C107.871 5.26667 107.812 19.8867 116.703 19.8867C119.634 19.8867 121.761 18.5533 122.47 17.1667C122.609 16.8933 122.235 16.6667 122.116 16.8667ZM116.295 6.25333C120.025 6.25333 118.68 13.7367 114.639 13.7367C113.42 12.59 112.711 6.25333 116.295 6.25333Z" fill="#C8F9B1"/>
<path d="M10.8521 17.8567C2.15982 17.8567 2.57058 2.68 8.16556 1.52333C10.2227 1.08667 12.2566 2.88 12.8893 6.30333C13.3663 4.92667 14.3668 3.79667 15.503 3.46333C14.7377 2.394 13.7312 1.52254 12.5663 0.920495C11.4014 0.318452 10.1112 0.00298818 8.80158 0C3.19997 0 0 4.38333 0 10.12C0 13.0867 1.95775 19.55 8.61276 20C12.896 20.2767 15.3738 17.2933 16.5067 15.3967C16.5576 15.3113 16.5817 15.2125 16.5758 15.1132C16.5699 15.0138 16.5342 14.9186 16.4736 14.84C16.4277 14.7805 16.369 14.7323 16.3018 14.6992C16.2346 14.666 16.1608 14.6488 16.086 14.6488C16.0112 14.6488 15.9373 14.666 15.8702 14.6992C15.803 14.7323 15.7442 14.7805 15.6984 14.84C15.0491 15.6667 13.4624 17.8567 10.8521 17.8567Z" fill="#C8F9B1"/>
<path d="M45.5053 6.14C48.4038 6.14 49.1491 10.2733 49.1491 10.2767C49.5008 9.21595 50.1724 8.29197 51.0705 7.63333C50.2847 6.85292 49.3534 6.23648 48.3302 5.81946C47.3069 5.40243 46.2118 5.19305 45.1078 5.20333C39.7877 5.20333 38.7045 10.29 41.9509 12.5733C43.0275 13.3333 44.962 14.7467 46.4295 15.7867C48.2978 17.12 47.4597 18.6267 45.4589 18.6267C42.0502 18.6267 42.0271 14.4567 42.0271 14.4567L39.6387 17.0267C39.6387 17.0267 42.2888 19.89 45.9691 19.89C51.9947 19.89 52.7897 15.2233 49.381 12.89C48.3873 12.1933 45.5583 10.4733 44.3525 9.64333C42.3451 8.26667 43.3521 6.14 45.5053 6.14Z" fill="#C8F9B1"/>
<path d="M58.408 6.14C61.3065 6.14 62.0519 10.2733 62.0519 10.2767C62.4036 9.21596 63.0752 8.29197 63.9732 7.63334C63.1878 6.85247 62.2566 6.23574 61.2332 5.81869C60.2098 5.40163 59.1146 5.1925 58.0105 5.20333C52.6871 5.20333 51.6072 10.29 54.8503 12.5733C55.9302 13.3333 57.8647 14.7467 59.3289 15.7867C61.1972 17.12 60.3591 18.6267 58.3616 18.6267C54.953 18.6267 54.9265 14.4567 54.9265 14.4567L52.5381 17.0267C52.5381 17.0267 55.1882 19.89 58.8718 19.89C64.8941 19.89 65.6891 15.2233 62.2838 12.89C61.2734 12.1933 58.4577 10.4733 57.2552 9.64334C55.2445 8.26667 56.2548 6.14 58.408 6.14Z" fill="#C8F9B1"/>
<path d="M37.1678 18.0633V16.0633V5.90333C37.1678 5.65 36.9823 5.44333 36.5749 5.61C36.3596 5.69667 36.0349 5.84 35.6672 6.00667C35.3259 6.15318 34.9546 6.21512 34.5845 6.18728C34.2145 6.15944 33.8564 6.04263 33.5405 5.84667C29.8503 3.7 24.3613 6.45 24.3613 12.5133C24.3613 19.0467 29.9265 21.6033 33.2788 18.5767C33.4906 18.9008 33.7786 19.1674 34.1172 19.3528C34.4557 19.5383 34.8345 19.6369 35.22 19.64H37.413C37.4654 19.6449 37.518 19.6316 37.562 19.6024C37.606 19.5732 37.6388 19.5298 37.655 19.4794C37.6712 19.4289 37.6698 19.3744 37.6511 19.3249C37.6324 19.2753 37.5975 19.2336 37.5521 19.2067C37.2738 18.9733 37.1678 18.7133 37.1678 18.0633ZM33.2788 17.36C32.7726 17.8473 32.1043 18.1277 31.4039 18.1467C29.8569 18.1467 28.2569 16.8133 28.2569 12.2733C28.2569 8.79667 29.2507 6.47333 31.5695 6.47333C32.1811 6.4839 32.7759 6.67643 33.2788 7.02667V17.36Z" fill="#C8F9B1"/>
<path d="M100.372 18.0633V16.0633V5.90333C100.372 5.65 100.186 5.44333 99.7786 5.61C99.5633 5.69667 99.2387 5.84 98.871 6.00667C98.5296 6.15318 98.1583 6.21512 97.7882 6.18728C97.4182 6.15944 97.0602 6.04263 96.7443 5.84667C93.054 3.7 87.5684 6.45 87.5684 12.5133C87.5684 19.0467 93.1302 21.6033 96.4826 18.5767C96.6944 18.9008 96.9823 19.1674 97.3209 19.3528C97.6595 19.5383 98.0383 19.6369 98.4238 19.64H100.617C100.669 19.6449 100.722 19.6316 100.766 19.6024C100.81 19.5732 100.842 19.5298 100.859 19.4794C100.875 19.4289 100.874 19.3744 100.855 19.3249C100.836 19.2753 100.801 19.2336 100.756 19.2067C100.481 18.9733 100.372 18.7133 100.372 18.0633ZM96.4826 17.36C95.863 17.8517 95.1016 18.1277 94.3128 18.1467C92.7691 18.1467 91.4607 16.8133 91.4607 12.2733C91.4607 8.79667 92.471 6.47333 94.7733 6.47333C95.3848 6.4839 95.9796 6.67643 96.4826 7.02667V17.36Z" fill="#C8F9B1"/>
<path d="M108.984 18.29C107.868 18.81 107.49 17.0033 107.49 15.8033V7.73V6.19H108.653C108.741 6.19 108.825 6.15488 108.887 6.09237C108.949 6.02986 108.984 5.94507 108.984 5.85667C108.984 5.76826 108.949 5.68348 108.887 5.62097C108.825 5.55845 108.741 5.52333 108.653 5.52333H107.477V4.27333V1.5C107.479 1.49233 107.479 1.48434 107.477 1.47667V0.553334C107.477 0.3 107.295 0.0933338 106.887 0.26C106.069 0.593334 103.661 1.73 103.29 1.92667C102.919 2.12333 103.058 2.63333 103.403 2.59333C103.601 2.57 103.591 2.76667 103.591 2.89V5.53333H102.929C102.841 5.53333 102.757 5.56845 102.695 5.63097C102.633 5.69348 102.598 5.77826 102.598 5.86667C102.598 5.95507 102.633 6.03986 102.695 6.10237C102.757 6.16488 102.841 6.2 102.929 6.2H103.591V17.0333C103.591 17.5629 103.753 18.0797 104.055 18.5133C104.522 19.3767 105.357 19.8867 106.682 19.8867C107.676 19.8867 108.643 19.2667 109.213 18.8C109.571 18.51 109.266 18.1567 108.984 18.29Z" fill="#C8F9B1"/>
<path d="M85.687 18.0633V8.61667C85.6739 7.73375 85.3132 6.89214 84.6841 6.27656C84.0549 5.66099 83.2088 5.32176 82.3313 5.33333C79.7342 5.33333 78.3363 6.76333 77.8195 7.47667C77.542 6.81787 77.0716 6.25983 76.4709 5.87691C75.8702 5.49398 75.1678 5.30437 74.4573 5.33333C72.9473 5.3304 71.4976 5.9297 70.4258 7V5.90333C70.4258 5.65 70.2403 5.44333 69.8329 5.61C69.0147 5.94333 66.6097 7.08 66.2387 7.27667C65.8677 7.47333 66.0035 7.98333 66.3513 7.94333C66.5368 7.92 66.5401 8.09 66.5401 8.21333V18.1067C66.5401 18.7233 66.4275 18.9767 66.1559 19.19C66.1105 19.2169 66.0756 19.2586 66.0569 19.3082C66.0382 19.3578 66.0368 19.4123 66.053 19.4627C66.0692 19.5132 66.102 19.5566 66.146 19.5858C66.19 19.615 66.2425 19.6282 66.295 19.6233H70.671C70.7234 19.6282 70.776 19.615 70.82 19.5858C70.864 19.5566 70.8968 19.5132 70.913 19.4627C70.9292 19.4123 70.9278 19.3578 70.9091 19.3082C70.8904 19.2586 70.8555 19.2169 70.8101 19.19C70.5351 18.9733 70.4258 18.7133 70.4258 18.0633V8.09C70.8896 7.66667 71.5223 7 72.2478 7C73.5496 7 73.9206 8.08333 73.9206 9.28333V18.07C73.9206 18.7367 73.8146 18.98 73.5364 19.1967C73.491 19.2236 73.456 19.2653 73.4373 19.3149C73.4186 19.3644 73.4173 19.4189 73.4335 19.4694C73.4497 19.5198 73.4825 19.5632 73.5265 19.5924C73.5705 19.6216 73.623 19.6349 73.6755 19.63H78.0547C78.1069 19.634 78.1589 19.6201 78.2022 19.5906C78.2455 19.5611 78.2776 19.5177 78.2934 19.4675C78.3091 19.4173 78.3075 19.3632 78.2888 19.3141C78.2702 19.2649 78.2355 19.2235 78.1906 19.1967C77.9156 18.98 77.8063 18.72 77.8063 18.07V8.62333V8.57C78.2601 8.03333 79.0783 6.99667 80.1251 6.99667C81.427 6.99667 81.798 8.08 81.798 9.28V17.0333C81.798 17.7202 82.0692 18.379 82.5519 18.8647C83.0346 19.3505 83.6892 19.6233 84.3719 19.6233H85.9321C85.9846 19.6282 86.0371 19.615 86.0811 19.5858C86.1251 19.5566 86.1579 19.5132 86.1741 19.4627C86.1903 19.4123 86.1889 19.3578 86.1702 19.3082C86.1515 19.2586 86.1166 19.2169 86.0712 19.19C85.7963 18.9733 85.687 18.7133 85.687 18.0633Z" fill="#C8F9B1"/>
</g>
<defs>
<clipPath id="clip0_650_424">
<rect width="122.5" height="20" fill="white"/>
</clipPath>
</defs>
</svg>
