<svg width="50" height="50" viewBox="0 0 50 50" fill="none" xmlns="http://www.w3.org/2000/svg">
<path fill-rule="evenodd" clip-rule="evenodd" d="M39.0308 36.7808V27.0208C39.0308 21.7917 36.2392 19.3583 32.5175 19.3583C29.5142 19.3583 28.1683 21.0108 27.4183 22.17V19.7583H21.76C21.835 21.3558 21.76 36.7808 21.76 36.7808H27.4183V27.2742C27.4183 26.7667 27.455 26.2583 27.605 25.895C28.0133 24.8783 28.9442 23.8258 30.5067 23.8258C32.555 23.8258 33.3733 25.3867 33.3733 27.6742V36.7817L39.0308 36.7808ZM15.7992 17.435C17.7717 17.435 19.0008 16.1267 19.0008 14.4925C18.9642 12.8233 17.7717 11.5525 15.8367 11.5525C13.9017 11.5525 12.6358 12.8225 12.6358 14.4925C12.6358 16.1267 13.8642 17.435 15.7633 17.435H15.7992ZM25 50C11.1933 50 0 38.8067 0 25C0 11.1925 11.1933 0 25 0C38.8067 0 50 11.1925 50 25C50 38.8067 38.8067 50 25 50ZM18.6283 36.7808V19.7583H12.9708V36.7808H18.6283Z" fill="#C8F9B1"/>
</svg>
