<svg width="838" height="653" viewBox="0 0 838 653" fill="none" xmlns="http://www.w3.org/2000/svg">
<path d="M152.333 2.19993C117.8 8.8666 87.1332 33.7999 74.4665 65.7999C72.3332 71.2666 62.7332 109 53.1332 149.667C-4.73345 395.667 0.333218 368.333 0.333218 434.333C0.333218 471.933 0.733218 481.8 2.59988 491.933C6.99988 515.133 16.8665 540.867 28.3332 559C44.0665 583.933 71.7999 611.267 96.5999 626.2C137.667 650.867 191.667 659.133 241.4 648.333C319.133 631.4 377 570.867 391.667 491.133C393.133 483.4 394.6 474.733 395 471.933L395.8 467H419H442.2L442.867 471.267C443.267 473.667 444.2 479.8 445 485C454.6 547.8 496.2 605.133 552.733 633C579.4 646.2 607.533 652.6 639.666 652.733C660.733 652.733 673.8 651.267 692.6 646.333C726.066 637.533 751 623.267 777.533 597.8C803 573.133 819 548.067 828.866 517.267C836.866 492.2 837.666 484.467 837.666 433.667C837.533 386.2 836.466 373.267 829.8 341.533C821.533 301.933 766.6 73.6666 763.533 65.9333C756.066 46.9999 742.733 30.5999 725.666 18.9999C706.2 5.93327 690.066 1.13327 665.666 1.13327C644.6 1.13327 639.4 2.4666 608.333 15.2666C580.867 26.5999 575 29.6666 569.267 34.8666C556.867 46.4666 556.467 67.5333 568.6 81.5333C576.6 90.9999 586.733 94.4666 599.267 92.1999C603.133 91.3999 618.066 86.3333 632.6 80.7333C654.733 72.3333 660.2 70.7333 666.6 70.7333C680.333 70.8666 693.8 79.7999 698.466 91.7999C699.266 93.9333 708.866 132.6 719.666 177.667C744.866 281.933 745.4 284.333 744.6 285.133C744.2 285.533 741.133 284.067 737.8 281.933C729.266 276.467 711.8 269.133 697.666 265C663.933 255.133 624.066 255.133 586.333 265C576.067 267.667 554.067 276.467 543.667 282.067C512.467 299 485.133 327 466.733 361L460.333 373L419 373.4L377.667 373.667L371.8 362.333C360.6 340.2 342.867 318.333 322.867 301.8C295.533 279.267 265.133 266.067 225.133 259.533C214.2 257.8 206.467 257.533 188.467 258.067C155.8 259.133 133.8 264.6 107.133 278.333C99.3999 282.333 92.9999 285 92.9999 284.2C92.9999 283.133 98.0665 262.067 126.733 142.333C133 116.6 138.867 93.5333 140.067 90.7333C143.133 83.2666 151.667 75.6666 159.8 72.9999C171.8 68.9999 176.733 69.7999 205.8 81.1333C231.267 91.1333 232.733 91.5333 243.667 91.5333C256.467 91.6666 260.467 90.0666 268.2 82.1999C274.6 75.6666 277.4 69.1333 278.067 59.2666C278.733 48.7333 274.467 39.1333 266.2 32.7333C259.8 27.7999 214.867 8.33327 200.6 4.19993C188.2 0.733267 165 -0.200067 152.333 2.19993ZM223 353.8C252.333 360.733 276.333 380.333 290.467 409C299.533 427.4 301.667 436.333 301.667 455C301.533 475.667 296.867 492.333 286.2 510.733C278.867 523 259.667 541.267 246.867 548.067C230.067 556.733 218.467 559.4 197 559.4C181.4 559.4 177.4 558.867 167 555.8C111 539 78.7332 475.933 98.5999 421.667C107.533 396.867 126.6 373.933 147.667 362.467C151.267 360.467 159.267 357.4 165.267 355.533C185.133 349.533 203.133 349 223 353.8ZM654.466 351.533C665.8 352.733 685.266 359.933 696.066 367C728.066 387.533 745.266 418.2 745.133 454.867C745.133 495.667 725 528.867 689 547.533C652.2 566.733 611.533 563.533 578.333 538.867C562.867 527.533 552.867 515.4 545.667 499.933C527.267 459.667 535.533 412.2 566.067 382.067C583.667 364.733 606.333 353.8 629.933 351.133C638.733 350.067 641.533 350.2 654.466 351.533Z" fill="#4D5E4A"/>
</svg>
