<svg width="711" height="554" viewBox="0 0 711 554" fill="none" xmlns="http://www.w3.org/2000/svg">
<path d="M129.247 1.86634C99.9475 7.52229 73.9283 28.6755 63.1812 55.824C61.3713 60.462 53.2261 92.4747 45.081 126.976C-4.01584 335.681 0.282963 312.491 0.282963 368.485C0.282963 400.384 0.622342 408.755 2.20611 417.352C5.93928 437.035 14.3106 458.867 24.0395 474.251C37.3884 495.404 60.9188 518.594 81.9603 531.263C116.804 552.19 162.62 559.203 204.816 550.04C270.768 535.675 319.865 484.319 332.31 416.673C333.553 410.113 334.798 402.76 335.137 400.384L335.816 396.199H355.5H375.184L375.75 399.819C376.09 401.855 376.881 407.058 377.56 411.47C385.705 464.749 421 513.39 468.966 537.032C491.591 548.231 515.461 553.661 542.724 553.773C560.598 553.773 571.685 552.53 587.636 548.344C616.03 540.878 637.185 528.775 659.697 507.169C681.305 486.241 694.88 464.976 703.251 438.845C710.038 417.579 710.717 411.018 710.717 367.92C710.604 327.649 709.699 316.677 704.043 289.754C697.029 256.157 650.421 62.4981 647.819 55.9372C641.483 39.8743 630.171 25.9606 615.691 16.1193C599.175 5.03368 585.486 0.961394 564.784 0.961394C546.91 0.961394 542.498 2.09258 516.14 12.952C492.836 22.5671 487.858 25.1688 482.994 29.5805C472.473 39.4218 472.134 57.2947 482.428 69.1721C489.216 77.2035 497.813 80.1446 508.448 78.2216C511.728 77.5429 524.398 73.2444 536.729 68.4934C555.508 61.3669 560.146 60.0095 565.576 60.0095C577.228 60.1226 588.654 67.7015 592.613 77.8822C593.292 79.6922 601.437 112.497 610.6 150.731C631.981 239.19 632.434 241.226 631.755 241.904C631.416 242.244 628.814 241 625.986 239.19C618.745 234.552 603.926 228.33 591.934 224.824C563.313 216.453 529.488 216.453 497.474 224.824C488.764 227.086 470.098 234.552 461.274 239.303C434.802 253.669 411.611 277.424 395.999 306.269L390.569 316.45L355.5 316.79L320.431 317.016L315.453 307.4C305.951 288.623 290.905 270.071 273.936 256.045C250.745 236.928 224.952 225.729 191.014 220.186C181.738 218.715 175.177 218.489 159.905 218.942C132.189 219.846 113.523 224.484 90.8971 236.135C84.336 239.529 78.9059 241.792 78.9059 241.113C78.9059 240.208 83.2046 222.335 107.527 120.754C112.844 98.9224 117.822 79.3528 118.84 76.9773C121.441 70.6427 128.682 64.1949 135.582 61.9325C145.764 58.5389 149.949 59.2176 174.611 68.8328C196.218 77.3167 197.462 77.6561 206.739 77.6561C217.599 77.7692 220.993 76.4117 227.554 69.7377C232.984 64.1949 235.36 58.6521 235.926 50.2812C236.491 41.3449 232.871 33.2003 225.857 27.7706C220.427 23.5851 182.304 7.06982 170.199 3.56312C159.678 0.622035 139.994 -0.169799 129.247 1.86634ZM189.204 300.161C214.092 306.043 234.455 322.671 246.447 346.992C254.139 362.603 255.949 370.181 255.949 386.018C255.836 403.552 251.877 417.691 242.826 433.302C236.605 443.709 220.314 459.207 209.454 464.976C195.2 472.328 185.358 474.59 167.145 474.59C153.909 474.59 150.515 474.138 141.691 471.536C94.178 457.283 66.8013 403.778 83.6572 357.739C91.2365 336.699 107.414 317.242 125.288 307.514C128.343 305.817 135.13 303.215 140.221 301.631C157.076 296.541 172.348 296.089 189.204 300.161ZM555.281 298.238C564.897 299.256 581.413 305.364 590.577 311.36C617.727 328.78 632.32 354.797 632.207 385.905C632.207 420.52 615.126 448.686 584.581 464.523C553.358 480.812 518.855 478.097 490.686 457.17C477.564 447.555 469.08 437.261 462.971 424.139C447.359 389.978 454.373 349.707 480.279 324.143C495.212 309.436 514.443 300.161 534.466 297.898C541.932 296.994 544.308 297.107 555.281 298.238Z" fill="black"/>
</svg>
