<svg id="Layer_3" data-name="Layer 3" xmlns="http://www.w3.org/2000/svg" viewBox="0 0 353.12 469.94"><path d="M213.66,399.59c-.24.6.31,1.56-1.87,1.51s-4.32.14-6.48.2c-2,.06-4,0-6.1.06-.43.7,1.12,1.29.16,1.95a3.76,3.76,0,0,1-2.93.52c-3.32-1.21-7.27-.37-10.73-1a2,2,0,0,1-1.43.8c-.14,0-.49-.25-.44-.35.23-.46,1-.49,1.63-.6.12-.32,1-.93-.3-.83-1.78.13-2.17,1.31-3.3,1.9-1.35.72-1.6-.11-1.61-.76l.18-.21-.27.16a2.59,2.59,0,0,1-2.15-.51l.24-.18-.3.15a51.64,51.64,0,0,0-12.46,2.87,12.41,12.41,0,0,1-4.59.84c-1.81,0-2.64-.41-1.54-1.57.28-.29,1.35-.75.18-.95a5.35,5.35,0,0,0-1.94.42c.5,1.6-2.69,1.33-3.42,2.32a2.18,2.18,0,0,1-2.21.71c-2.5-.74-5.22,0-7.83.13a2.67,2.67,0,0,1-1.76-.45c.14-.21,1-.07.7-.49l-.77.46a4.14,4.14,0,0,0-2.88.61c-1.13.68-2.39,1.15-3.49.25l1-.78.17-.2-.28.15-1,.79a3.74,3.74,0,0,1-3.36.54A11.64,11.64,0,0,0,129,407c-2.51-.2-1.46.33-.47.74-.49.32-1,.87-1.48.93a41.89,41.89,0,0,1-6.32.53c-2.18-.07.2-1.46-.57-2-1.26.38-1.4,1.07-1.72,1.7a2,2,0,0,1-1.94,1.1c-4.53-.14-8.35,1.83-12.51,2.77-1.91.45-3.53,1.48-5.57,1.56a3,3,0,0,0-2.75,1.52c-.64,1-1.07,2.7-2.89,1.08-.26-.23-.85.21-1,.62-.71,1.7-2.49,2.84-3.33,4.4s-1,2.26-1.43,2.46-1-.15-2.17-.82a10.48,10.48,0,0,0-1,3,2.48,2.48,0,0,0,.92,2.45.84.84,0,0,1-.07,1.39,1.29,1.29,0,0,0-.58,1.77,2.94,2.94,0,0,0,1.11,1.19,3.4,3.4,0,0,1,1.41,1.86,4.71,4.71,0,0,0,1.24,2c.85.68-.31.91-.27,1.42.07.75.33,1.16.67,1.32a1.54,1.54,0,0,0,1.22-.15c-.2-.58,0-.76.63-.52l.29.06a.47.47,0,0,1,0,.16l-.28,0a2.15,2.15,0,0,0-.14.45,6.32,6.32,0,0,0,3.1,1.68c.11,0,.26-.06.31,0,.21.18.11.24-.26.14.16.76.31,1.42,1.63,1.22s2.69-.34,3.42,1.48l-.23.07.29,0c3.14.09,6.6,1.33,9.92,1.06,1.49-.13,2.07.27,3.35,1.87a1.52,1.52,0,0,0,1.49.54c2.78-.47,5.54-.71,8.34,1a2.16,2.16,0,0,0,.87.25c2.83-2,6.92-.18,10.4-.11,1.51,0,3.74.05,4,1.72.11.79.83.4,1.33.19,1.95-.81,4.21-.48,6.56-.29,3.86.26,7.71.58,11.56.9s7.7.67,11.58.91c3.41.25,6.79-.24,10,1.08.34.09-.06.56.67.44l-.57-.48a17.14,17.14,0,0,1,6.25-.6c2.1.1,4.21.42,6.24.65,4.3.53,8.52.22,12.73.42,2.33.07,4.65-.06,7-.12a68.86,68.86,0,0,1,7,.12c2.32.2,5.24.48,7.66-.61,1.73-.77,2.52.12,3.46.69a2.19,2.19,0,0,1,1.53-.83c.14,0,.5.26.47.37-.17.5-1,.56-1.62.69,3,.75,5-1.08,7.77-1.41,2.2-.25,4.84-1.16,6.64-.68,2.3.59,3.79-1.48,5.68-.49l-.23.19.3-.16a29.44,29.44,0,0,0,6.47-1.06c2.16-.49,4.38-.91,6.63-1.26s4.53-.69,6.83-.9c5.09-.44,10.35-.65,15-2.86a7,7,0,0,1,2.42-.8c7.35-.26,14.14-3.08,21-4.81,3.27-.86,6.37-2.33,9.65-3.14H317l-.25-.08a1.84,1.84,0,0,1,1.33-1.13c4.39-.6,8.22-3.13,12.07-4.82a34,34,0,0,0,3.22-1.55l1.58-.84,1.51-.93.43-.27.09-.06.16-.13a.64.64,0,0,0,.21-.31.81.81,0,0,0,0-.41,2.12,2.12,0,0,0-.14-.4l-.05-.11,0-.05-.17-.19a9.67,9.67,0,0,0-.87-1,11.45,11.45,0,0,0-5.18-2.8,6.09,6.09,0,0,1-1.16-.39,3.34,3.34,0,0,1-1-.61,7.73,7.73,0,0,0-2.15-1.35,15,15,0,0,0-2.54-.78c-1.74-.43-3.62-.63-5.43-1.13-3.58-1-7.88-1.17-11.84-2-2.94-.6-6.93.83-8.79-2.2-.17-.28-.81,0-1.23.17-3.08,1.07-3.09,1.07-6.43-.49-.28-.13-.39-.33-.78-.23a26.72,26.72,0,0,1-8.47.5c-2.86-.21-5.76-.63-8.61-1-4.56-.46-9.32-.65-13.58-1.85-8.77-2.53-18.07-3-27.33-3.47a23.42,23.42,0,0,1-5.7-.83c-4.49-1.47-9.49-1.83-14.51-2.08s-9.91-.87-14.77-.52c-3.24.2-6.58.57-9.84,1-3.91.5-8.13-.37-10.17-2.25-1.3-1.19.12-2.2,1.68-2.65,2.38-.69,4.77-1.47,7.26-2a27.32,27.32,0,0,1,7.78-.61c3.8.35,7.57.34,11.38.37,3.53,0,7.07,0,10.6,0s7.07.12,10.59.31c5.69.31,11.24-.17,16.85-.13,7.24,0,14.52.28,21.7.32,11.51.1,22.87,1.87,34.31,2.93l10.17,1,5.08.56,2.55.29,2.61.34a78.45,78.45,0,0,1,10.66,2.17,44.15,44.15,0,0,1,10.7,4.5c.81.48,1.6,1,2.39,1.58s1.53,1.22,2.28,1.86,1.45,1.37,2.12,2.14l1,1.17.51.62c.18.26.34.54.51.8a21.7,21.7,0,0,1,1.91,3.28,19.88,19.88,0,0,1,1.43,3.46,12,12,0,0,1-.08,7.2,12.64,12.64,0,0,1-3.17,4.76,21.76,21.76,0,0,1-2.29,2c-.41.31-.83.6-1.25.91s-.93.66-1.11.82a12.13,12.13,0,0,1-1.46.94,167.42,167.42,0,0,1-20.86,10.09,134.82,134.82,0,0,1-21.86,6.74c-8,1.7-16,3.44-23.84,5.21a8.37,8.37,0,0,1-1.09.21c-4.41.33-8.73,1-13.06,1.74s-8.66,1.45-13.06,1.77c-11.3.95-22.63,1.62-33.91,2.67a65.55,65.55,0,0,1-7.68-.05c-4.61,0-9.22,0-13.82.08l-6.89,0c-2.3,0-4.6,0-6.9-.07-13.58-.32-27.1-1.73-40.59-3.26-6-.66-11.94-1.48-17.87-2.48-3-.54-5.91-1.08-8.88-1.71s-6.07-1.43-9.16-2.43c-2.57-.83-5.47-1.27-8.19-2.37a50.11,50.11,0,0,1-14-8.28,38.27,38.27,0,0,1-3.12-3,28.55,28.55,0,0,1-2.86-3.64,22.86,22.86,0,0,1-3.8-9.77,20.77,20.77,0,0,1,.56-8,23.91,23.91,0,0,1,3.09-6.76,28.49,28.49,0,0,1,4.46-5.24,29.39,29.39,0,0,1,2.58-2.15,31.16,31.16,0,0,1,2.71-1.81,36.21,36.21,0,0,1,7.88-3.49,61.83,61.83,0,0,1,7.48-1.78L104,403l3.28-.52,6.61-1c8.86-1.41,17.86-2.81,26.84-4.37,12.93-2.25,26-2.69,39-4.21,6.12-.73,12.46-.49,18.67-.5a16.77,16.77,0,0,1,3.13.52c1.76.33,1.8,1,.59,1.64-1.59.79-2.95,1.55-2.4,2.86l-.21.2.27-.16c.18,0,.37,0,.54,0,2.76-.47,1,1.11,1.88,1.38,1.92.63,1.89-1.09,3.39-1.09a.81.81,0,0,1,.46.09c1.29,1.84,3.7,1.48,6.21,1.11C213.07,398.8,213.84,399.13,213.66,399.59Zm14.58,5.79-.31-.1,0,.15Zm30.89,4.2-.34.05.32.1Zm4.72.34a2.38,2.38,0,0,0-.46,0l.27.19a1.74,1.74,0,0,0,.48,0C264.46,410.08,264.35,410,263.85,409.92Zm5.1.61-.3-.11,0,.13Zm7.48,1.24-.17-.21c-.36-.09-.48-.6-1.07-.27l1,.3Zm4.91.08-.68-.28-.94,0a3.79,3.79,0,0,0,.68.26A7.37,7.37,0,0,0,281.34,411.85ZM143,453.66h.34l-.29-.13ZM119.16,450c-.08.23.14.39.55.41.12,0,.22-.1.33-.16,0-.23-.15-.39-.57-.41A.39.39,0,0,0,119.16,450ZM86.07,439.85l.15.21.1-.2ZM78,438.8c-.08-.13-.24-.18-.37-.28l-.14.27a3.55,3.55,0,0,0,.38.44C78.22,439.5,78.26,439.33,78,438.8Zm4.5-3.47c0,.09-.12.16-.13.28,0,.38.14.54.37.39,0,0,0-.22,0-.34Zm.32-3.18,0,.26h.16Zm-1.39-9.49-.15.33.24-.21Zm5.32-1.2a1.15,1.15,0,0,0-.19.69c0,.31.24.35.44.12a1.8,1.8,0,0,0,.19-.69C87.1,421.29,86.91,421.21,86.7,421.46Zm25.58-13.82c-.13-.26-.4-.27-.69,0s-.4.39-.37.55.39.26.69,0A2.17,2.17,0,0,0,112.28,407.64ZM137.94,405c0-.05-.17-.14-.26-.21a2,2,0,0,0-.4,0c-.08.08-.13.22-.06.27A.49.49,0,0,0,137.94,405Zm3.75-.1h-.23l.1.19Zm54.65-6.45a4.92,4.92,0,0,0-.82.26c-.37.17-.33.37.08.39a2,2,0,0,0,.81-.24C196.78,398.64,196.73,398.49,196.34,398.4Z"/><path d="M216.07,400.15c-.58.07-.85.3-.7.61a1.19,1.19,0,0,0,.77.25c.59,0,.85-.29.7-.59C216.77,400.3,216.34,400.24,216.07,400.15Z"/><path d="M177.79,404.09l.38.06c0-.06.14-.17.1-.19a1.7,1.7,0,0,0-.37-.08Z"/><path d="M211.59,403c-.59,0-1.56,0-1.49-.19s-.11-.44-.13-.67a2.83,2.83,0,0,1,.07-.63c-.68-.06-1.31.09-1.95,0s-.76-.25-.45-.32c1.32-.32.62-.77,1.4-1.1-.35,0-.7-.1-.72-.18a1.17,1.17,0,0,1,.37,0c.45.05.43.13.5.2.32,0,.88.14.85,0s-1.18-.28-1.71-.42.2-.16.86-.13l.19,0-.15,0c0-.09.1-.17.64-.19l.17,0-.13,0a3.59,3.59,0,0,0-1.9-1.43c-.46-.19-.57-.36-.42-.52s.69-.23,1.72,0a2.18,2.18,0,0,0,.93.09c.14-.05-.17-.22-.21-.22-1.64-.08-1-.37-1.93-.52-.47-.08-.79-.21-.43-.27,1-.18.62-.5.89-.75a1.27,1.27,0,0,1,.7-.13c.18,0-.08.1.38.11l-.34-.11c.3-.09.22-.19-.18-.32s-.77-.33.28-.34l.63.16.16,0-.1,0-.63-.17c-.38-.15-.68-.29,0-.35a12.37,12.37,0,0,0,1.65-.2c.63-.2-.07-.16-.64-.11-.24-.08-.69-.18-.66-.23a1,1,0,0,1,.61-.6c.46-.18,1.39.17,2.1.17a4.25,4.25,0,0,0-1.35-.33c-.53-.09-.92-.2-.71-.28,1-.37-.25-.91-.44-1.37-.08-.21-.78-.47-.35-.64s0-.24-.69-.4-2.19-.44,0-.34c.31,0,.16-.08-.13-.15a4,4,0,0,1-1.75-.82c-1-.53-1-.53,1.7-.28-.37-.3-.26-.58-1.91-.91-.46-.09-.55-.24.07-.23,1.61,0,.68-.31.29-.44-1-.34.29-.38.07-.62s.84,0,1.18,0c1,0,.44-.17-.42-.3a1.61,1.61,0,0,1-.79-.11l-.14,0h.09l.16.05.44,0c.1-.14,0-.29-.43-.46-.06,0-.19,0-.18-.05s.14,0,.26,0c.53,0,1.05,0,.23-.21s-1.51-.43-.12-.44l.16,0-.1,0c-1.14-.47-.9-.86-1.9-1.32-.45-.21-.2-.25,1.13-.27.51,0,.35-.1.25-.14-1-.4-1.61-.75-.38-.93.1,0,.17-.08.12-.09-2.47-.53-1.21-.85-1.6-1.26-.17-.18-.46-.45,1.18-.31.76.07.29-.06,0-.14-1-.31-1-.54-1-.8a5.06,5.06,0,0,1-.15-2.46c.06-.36-.66-.79.56-1,.07,0,.56.06.41,0h-.46c-1.42-.59-.67-1-.29-1.35s.19-.87.36-1.29-.26-1,.37-1.43c.31-.21.66-.47-.26-.83-.66-.27.27-.24.89-.26-.35-.08-.7-.16-.72-.25a1.61,1.61,0,0,1,.39,0c.49.08.49.16.59.24.91-.2-.77-.62-.86-.92s-.77-.6-.13-.71c.81-.14-1.08-.53.08-.59l.16.05-.12-.05c.18-.21-.11-.46-.34-.72-.45-.51-.62-1-.38-1.46s.9-1-.41-1.64c-.21-.11-.44-.24-.32-.3,1.17-.64,0-1.53.39-2.26.17-.34-.23-.76.21-1.07l.11,0h-.16c-.38-.08-.72-.18-.57-.23,1.12-.35.36-.92.75-1.34.56-.61.26-1.3.36-1.95s.43-1.14-.47-1.79c-.15-.11-.22-.25,0-.31,1.19-.31.21-.81.52-1.2s0-.83.26-1.22-1.71-.79,1-.82c.26,0-.12-.09-.31-.14-1.4-.39-1.41-.39-.25-.66.1,0,.29,0,.15-.07-1.94-.65-1.31-1.2-1.18-1.76s-.1-.9.85-1.28a3.06,3.06,0,0,0,2.26-2.59c0-.19.13-.36.7-.54,1.37-.42,1.71-.92,2-1.41s1-1,.71-1.45a3.46,3.46,0,0,0-.7-.89c-.37-.33.72-.81,2.67-1.21a5.66,5.66,0,0,1,2.56-.07c1.17.4,2.64.85,2.06,1.5a2.1,2.1,0,0,0-.55,1.29,10.93,10.93,0,0,1-.29,2.26c-.2.61.43,1.2.61,1.8a10.89,10.89,0,0,0,.87,2.33c.72,1.26,0,2.41.33,3.64a14.51,14.51,0,0,1,.82,4.36c0,.93-.5,1.83.43,2.84.06.06,0,.12,0,.17-.54,1.49.23,3.11-.23,4.6a3.19,3.19,0,0,0,.48,2.55s.07.09,0,.12c-.68.83.31,1.84.16,2.73a4.85,4.85,0,0,0,.33,3.52c.15.28-.16.51-.25.76-.29.91.14,1.9.25,2.85.15,1.39-.24,2.73-.21,4.11a4.69,4.69,0,0,1-.93,3.53c-.2.23.18.53.08.78-.38.85-.26,1.76-.65,2.61a3.06,3.06,0,0,0-.54,1.86c.41,1.84-1.12,3.52-.59,5.32.36,1.31-.48,2.48.3,3.73a.91.91,0,0,1,.05.86c-.09.27-.25.53-.33.8,0,.09-.36.17-.58.26a3.36,3.36,0,0,1-1.65,0,11.2,11.2,0,0,0-2.82-.27l-.19,0,.16,0s0,0,0,.06c.4.27-1.14.08-1.43.15-.67.18,1,.2,1,.35a.11.11,0,0,1-.1,0c-1.85.11-1.52.36-1.16.61C212.39,403,212.05,403,211.59,403Zm-1-57,.1,0h-.15Zm-2.88,3-.07,0-.07,0Zm0,.46-.08-.05-.16,0s-.05,0,0,.05S207.67,349.48,207.68,349.43Zm-.22.49.09,0h-.13Zm-.61.72h.2s.55,0,.17-.1l-.21.09Zm.37.5.2-.05-.12-.1c-.06,0-.18,0-.18.06S207.18,351.11,207.22,351.14Zm1.28,29.35,0,0-.09,0Zm-.37,2.49c.23,0,.36,0,.31,0l-.2-.06c-.24,0-.36,0-.32,0A.53.53,0,0,0,208.13,383Zm2.38,4,0,0h-.2Zm5.8,1.16.17.05h.26a.28.28,0,0,0-.11-.05C216.43,388.13,216.3,388.13,216.31,388.18Zm-5.6-.51H211c.19,0,.14,0-.13-.07l-.18,0Zm-1.43.18.11,0-.15,0Zm3,1.34,0,0-.1,0Zm-3.57.08a.92.92,0,0,0-.33-.11c-.2-.05-.42-.06-.4,0a1.13,1.13,0,0,0,.32.11C208.53,389.3,208.73,389.31,208.72,389.27Zm4.8,3.57c.27,0,.33,0,.13-.06a3,3,0,0,0-.47-.09c-.26,0-.33,0-.14.06Zm-1.84,2.47h.25s.07,0,0,0l-.25,0C211.5,395.25,211.49,395.28,211.68,395.31Zm-.46.35,0,0H211Zm1.85,5.67-.24-.09a.65.65,0,0,0-.4,0s.12.06.23.08A.82.82,0,0,0,213.07,401.33Z"/><path d="M211,403.28a1.08,1.08,0,0,0-.6-.07c-.13,0-.27.06-.26.08s.28.09.58.07A1.58,1.58,0,0,0,211,403.28Z"/><path d="M208.25,399.22l-.09,0,.19,0,.1,0Z"/><path d="M193.87,51.74c-.17.65.66,1.44-1.94,1.9s-5.05,1.24-7.55,2c-2.32.6-4.61,1.29-7.08,2-.29.81,1.66.86.74,1.81A5.58,5.58,0,0,1,174.88,61a14.68,14.68,0,0,0-3.12.41c-1,.27-2.06.62-3.09,1-2.09.7-4.09,1.65-6.14,2.13a2.57,2.57,0,0,1-1.27,1.4c-.15.08-.63,0-.61-.11.08-.53.88-.94,1.57-1.31,0-.36.76-1.31-.65-.65-1.92,1-1.89,2.27-2.89,3.35-1.2,1.31-1.8.67-2.08.08l.12-.28-.23.28A3.54,3.54,0,0,1,154,68l.18-.3-.27.3a70.67,70.67,0,0,0-6.44,4.46c-1,.79-1.95,1.65-2.87,2.49A27.75,27.75,0,0,0,142,77.6a19.26,19.26,0,0,1-4.23,3.6c-1.79,1.17-2.85,1.34-2.35-.36.13-.43,1-1.53-.3-.94a5.59,5.59,0,0,0-1.1.9,6.44,6.44,0,0,0-.65.72c1.32,1-1.94,3-2.13,4.31a3.13,3.13,0,0,1-1.75,2.11,14.24,14.24,0,0,0-3.85,2.55c-1.16,1.06-2.28,2.22-3.48,3.22a3.64,3.64,0,0,1-1.88,1c0-.28.88-.83.35-.94l-.43,1a6,6,0,0,0-2.27,2.7c-.6,1.44-1.4,2.8-2.94,3l.39-1.42,0-.28-.16.34-.39,1.42c-.61,1.26-1.15,2.48-2.59,3.15a13.42,13.42,0,0,0-3.68,2.06c-2.25,2-1,1.5.1,1a5.92,5.92,0,0,1-.61,2c-.81,1-1.58,2-2.36,3.07s-1.6,2-2.42,2.87c-1.74,1.94-.89-1.22-1.9-.94a3,3,0,0,0-.12,2.79,2.75,2.75,0,0,1-.72,2.54,24.81,24.81,0,0,0-3.92,6.73c-.48,1.19-1,2.37-1.38,3.57s-.85,2.4-1.34,3.58c-.91,2.18-1.06,4.48-2.4,6.6a4.69,4.69,0,0,0-.67,3.81c.32,1.32,1.23,3.12-1.3,3.7-.35.08-.49,1-.35,1.48a10,10,0,0,1,.12,3.58c-.13,1.31-.41,2.66-.45,3.92-.13,4.94-.2,5-2.86,4.59-.1,1.5-.35,3.07-.41,4.52a6.24,6.24,0,0,0,.85,3.77,2.31,2.31,0,0,1-.47,2.56,3.37,3.37,0,0,0-1.25,2.72,8.54,8.54,0,0,0,.36,2.48c.82,2.67-.67,4.64-.5,7,.1,1.5-.87.59-1.22,1.1-1,1.52-.47,2.38.39,2.89.32-.71.59-.68.8.18a2.83,2.83,0,0,1,.15.35.51.51,0,0,1-.09.18c-.06-.09-.11-.2-.17-.3a2,2,0,0,0-.43.24,12.19,12.19,0,0,0,.6,4.61c.07.11.2.24.2.32,0,.36-.13.31-.27-.17a1.87,1.87,0,0,0,0,2.63c.92,1.25,1.8,2.77.69,4.7l-.19-.2.14.33c1.66,3.5,2.41,8,4.53,11.26a3.7,3.7,0,0,1,.76,2,7.5,7.5,0,0,1-.36,2.47,2.09,2.09,0,0,0,.43,1.8,26.42,26.42,0,0,1,2.86,3.8,12.8,12.8,0,0,1,1.78,4.64,2.43,2.43,0,0,0,.43.94A6.08,6.08,0,0,1,98,228.69a11,11,0,0,1,1,1.06c.32.38.65.77,1,1.18.62.82,1.2,1.71,1.8,2.58a24.44,24.44,0,0,0,2,2.34c1.15,1.25,3.12,2.85,2.24,4.37-.4.7.46.95,1,1.17,2.24.77,4,2.69,6.09,4.41,1.66,1.48,3.47,2.79,5.18,4.2s3.55,2.68,5.42,3.91c3.65,2.58,7.48,4.92,11.39,7.17,1.74,1,3.54,1.77,5.31,2.59a27.24,27.24,0,0,1,2.55,1.38,14,14,0,0,1,2.38,1.73c.34.23-.26.49.57.71l-.45-.71a26.35,26.35,0,0,1,7,2.06c1.14.46,2.27,1,3.39,1.49l1.66.78,1.66.71c4.65,2.05,9.5,3.11,14.25,4.46,5.28,1.46,10.72,1.94,16.11,3.3a41.61,41.61,0,0,0,4.38.84,14.78,14.78,0,0,0,4.61-.21c2.12-.5,2.92.43,4,1.12a2.78,2.78,0,0,1,1.87-.64c.17,0,.57.31.51.42-.25.49-1.18.44-2,.5a8.79,8.79,0,0,0,4.71.08,31.65,31.65,0,0,1,4.53-.81c1.3-.07,2.73-.25,4.1-.44a10.47,10.47,0,0,1,3.71,0c2.68.65,4.47-1.46,6.66-.48l-.28.19.36-.16a35.65,35.65,0,0,0,7.51-1.37l15.19-3.89a67.92,67.92,0,0,0,8.38-2.53,25,25,0,0,0,7.41-4.3,9.31,9.31,0,0,1,2.33-1.64,46.09,46.09,0,0,0,5.4-2.81,21.61,21.61,0,0,0,2.49-1.77l2.4-1.89a24.53,24.53,0,0,0,2.28-2.05l2.22-2.11c.37-.35.76-.68,1.12-1l1.05-1.12c.71-.74,1.43-1.47,2.16-2.18l1-1c.33-.36.62-.76.93-1.14l1.83-2.31c1.27-1.5,2.36-3.15,3.68-4.63l.29-.22-.28.1a2.39,2.39,0,0,1,.64-1.9,18.57,18.57,0,0,0,2.46-3,32,32,0,0,0,2.06-3.3L301,230.4c.3-.57.59-1.14.9-1.71s.55-1.15.85-1.72c.82-1.62,1.68-3.23,2.35-4.93s1.27-3.41,1.88-5.13c1-3.49,2-7,2.72-10.51.18-.77.36-1.55.55-2.33s.28-1.59.42-2.39c.26-1.6.54-3.22.75-4.85a44.3,44.3,0,0,0,0-9.77,10.9,10.9,0,0,1,.08-3.53,22.2,22.2,0,0,0,.21-6.86l-.51-3.46c-.18-1.16-.25-2.32-.41-3.46s-.29-2.29-.47-3.44a34.18,34.18,0,0,0-.66-3.44c-.26-1.14-.53-2.28-.79-3.41l-.36-1.72-.42-1.69a42.12,42.12,0,0,0-2-5.11c-.71-1.69-1.06-3.36-.19-5,.16-.31-.41-.83-.75-1.19-2.61-2.62-2.55-2.61-3.07-6.76-.06-.35,0-.56-.27-.91a26.45,26.45,0,0,1-2.92-3.84q-1.39-2-2.59-4.17c-.77-1.46-1.59-2.9-2.4-4.36s-1.55-3-2.46-4.34c-1.41-2.23-2.82-4.52-4.36-6.71-.74-1.1-1.45-2.22-2.11-3.35s-1.37-2.22-1.95-3.36c-4.84-9.38-12.34-17.52-20.37-24.86A34.54,34.54,0,0,1,258,77.18c-3.27-4.41-7.85-8.2-12.74-11.53S235.52,59,230.14,57A71.28,71.28,0,0,0,219,54c-4.48-.83-9-2.56-11.13-4.77-1.34-1.43.5-2.15,2.49-2.28,6-.38,12.46-.3,18.66,2.6,4.28,2.05,8.47,4.09,12.61,6.32,3.83,2.08,7.54,4.38,11.14,6.8a122.54,122.54,0,0,1,10.31,7.88c2.62,2.29,5.32,4.41,7.93,6.62l3.92,3.3c1.29,1.13,2.53,2.3,3.79,3.48a214.88,214.88,0,0,1,17.88,19.68q1.65,2.09,3.25,4.2c1,1.45,2,2.92,3,4.39s1.9,3,2.8,4.51,1.83,3,2.63,4.62a207.84,207.84,0,0,1,9,19.33A135.64,135.64,0,0,1,324.5,165l.61,3.15c.2,1,.3,2.12.45,3.18l.41,3.19.2,1.6.1,1.61c.11,2.16.28,4.32.33,6.48l-.11,6.49c-.53,11.19-3.17,22.29-5.91,33.17a17.7,17.7,0,0,1-.69,2,130,130,0,0,1-13,25,89.87,89.87,0,0,1-19.27,20.92l-3.12,2.29c-1,.75-2,1.59-3.16,2.24l-3.28,2.1c-1.09.7-2.16,1.45-3.3,2.07a132.27,132.27,0,0,1-13.81,7,13,13,0,0,1-1.3.52c-10.77,3.16-21.36,6.29-32.37,7.29a235.28,235.28,0,0,1-42.38-.56,47.26,47.26,0,0,1-4.74-.77c-1.56-.36-3.11-.75-4.66-1.08-11.23-2.57-22.38-5.48-33.05-9.84a136.62,136.62,0,0,1-22.8-11.82,134.41,134.41,0,0,1-20.46-16.1,94.91,94.91,0,0,1-14.93-18.23,74.84,74.84,0,0,1-9.28-22c-.78-3.23-1.91-6.51-2.4-9.82a113.23,113.23,0,0,1,.19-34.49,216,216,0,0,1,5.59-23.5,122.07,122.07,0,0,1,5.92-16.2,139,139,0,0,1,8-15.23A182.59,182.59,0,0,1,113,88.21a123,123,0,0,1,18.36-16.45A225.56,225.56,0,0,1,152,58.32c6.71-3.93,14.31-6.64,21.82-9a26.33,26.33,0,0,1,3.93-.62c2.22-.31,2.45.36,1.15,1.37-1.7,1.33-3.11,2.53-2.09,3.6l-.19.26.28-.25a5.83,5.83,0,0,0,.63-.22c3.14-1.4,1.54.71,2.59.69,2.41,0,2-1.65,3.74-2.11a1.21,1.21,0,0,1,.57-.05c2,1.34,4.73.4,7.66-.64C193,51.08,194,51.24,193.87,51.74Zm66.88,26.43-.22-.3-.12.09ZM284,106.4l-.29-.26.17.34Zm3.3,4.43a2.79,2.79,0,0,0-.38-.39l.07.37a2.4,2.4,0,0,0,.32.46C287.63,111.49,287.63,111.31,287.3,110.83Zm3.24,5-.12-.36-.13,0Zm4.15,7.76.06-.3c-.17-.39.16-.81-.5-1.17l.41,1.11Zm3.11,4.75-.21-.83-.6-.89a4.38,4.38,0,0,0,.21.81A8.93,8.93,0,0,0,297.8,128.37ZM109.9,247.05l.32.23-.2-.3ZM92.82,224.84c-.23.07-.21.37.06.77.08.11.23.13.35.19.21-.11.2-.39-.06-.78C93.09,224.91,92.9,224.81,92.82,224.84ZM81.41,184.23l0,.32.21-.09Zm-5.48-6.75a1.27,1.27,0,0,0-.14-.43l-.27.14a2.84,2.84,0,0,0,.07.56C75.75,178.19,75.89,178.08,75.93,177.48Zm5.69-.51c-.09.07-.2.09-.27.21-.23.39-.2.66.08.66.06,0,.14-.22.21-.35Zm1.82-3.65-.15.33.14.09Zm-1.07-12.21-.05.41.17-.31ZM87,156.85a1.9,1.9,0,0,0,.11.93c.13.35.37.25.46-.19a3,3,0,0,0-.1-.93C87.34,156.35,87.12,156.41,87,156.85Zm8.65-35.43c-.3,0-.51.21-.53.67,0,.29,0,.65.15.73s.47-.22.51-.67A2.37,2.37,0,0,0,95.68,121.42Zm19.44-24.68c0-.07-.23,0-.36,0s-.34.29-.35.35,0,.27.11.25A.69.69,0,0,0,115.12,96.74Zm3.39-3-.2.2.2.06ZM173.12,55.9a8.73,8.73,0,0,0-.87.56c-.38.3-.28.48.21.34a2.75,2.75,0,0,0,.87-.54C173.7,56,173.6,55.83,173.12,55.9Z"/><path d="M196.86,51.77c-.68.19-1,.48-.74.74a1.64,1.64,0,0,0,1,.09c.7-.14,1-.46.73-.73C197.72,51.76,197.19,51.8,196.86,51.77Z"/><path d="M154.39,69.61l.44-.14c0-.08.08-.23,0-.23a1.72,1.72,0,0,0-.43.13Z"/><path d="M151.7,13.21c.08.64,1,1.23-.9,2.2s-3.66,2.13-5.51,3.18c-1.69,1-3.44,1.85-5.27,2.87,0,.81,1.59.61,1.06,1.64a3.63,3.63,0,0,1-2.27,1.83c-3.48.43-6.47,3-9.77,4.09a1.94,1.94,0,0,1-.86,1.37c-.11.07-.54,0-.54-.11,0-.51.62-.89,1.13-1.28-.05-.34.41-1.28-.66-.6-1.48,1-1.26,2.17-2,3.21-.83,1.26-1.45.65-1.76.07l.06-.26-.16.26a2.52,2.52,0,0,1-2.1.55l.12-.27-.19.27a49.56,49.56,0,0,0-9.42,8.31,12.11,12.11,0,0,1-3.56,2.88c-1.55.86-2.47.87-2.07-.67.09-.38.8-1.29-.3-.91a5,5,0,0,0-1.48,1.27c1.2,1.17-1.69,2.42-1.85,3.63a2.1,2.1,0,0,1-1.56,1.65c-2.49.56-4.5,2.46-6.67,3.8a2.62,2.62,0,0,1-1.74.44c0-.25.84-.54.37-.77l-.44.77a4.1,4.1,0,0,0-2.19,1.88c-.65,1.13-1.48,2.15-2.86,1.9l.47-1.17,0-.25-.17.26-.46,1.17a3.58,3.58,0,0,1-2.62,2.06,10.76,10.76,0,0,0-3.48.72c-2.25,1.06-1.08,1,0,.87-.25.52-.39,1.24-.79,1.53a53,53,0,0,1-5.09,3.58c-1.87,1-.58-1.36-1.53-1.47A2.43,2.43,0,0,0,74.12,66a1.94,1.94,0,0,1-1.06,1.9c-3.85,2.25-6,5.89-8.74,9-1.29,1.43-2.07,3.16-3.73,4.35A3.29,3.29,0,0,0,59,84c0,1.22.17,3-2.18,2.35-.34-.09-.71.57-.72,1,0,1.92-1.67,3.79-2.57,5.68-1.68,3.75-1.74,3.73-3.95,2.19-1.25,2.1-3,4.28-2.49,6.43a1.61,1.61,0,0,1-1.33,1.67c-2.08,0-2.6,2.49-2.72,3.38-.32,2.36-2.44,3-3.28,4.77-.53,1.13-1,0-1.5.15-1.49.54-1.4,1.42-.89,2.24.57-.33.79-.17.6.55a1.75,1.75,0,0,1,0,.32.35.35,0,0,1-.16.08c0-.09,0-.2,0-.3a2.41,2.41,0,0,0-.48-.07,8.91,8.91,0,0,0-1.62,3.5c0,.12.06.28,0,.33-.18.25-.24.15-.15-.26-.75.24-1.42.38-1.27,1.77s.12,2.89-1.83,3.5l-.05-.24,0,.3a24.1,24.1,0,0,1-1.4,4.94c-.3.82-.6,1.65-.86,2.47a15.92,15.92,0,0,0-.53,2.5c-.18,1.5-.69,2-2.54,2.87a1.48,1.48,0,0,0-.86,1.3c-.05,2.82-.44,5.39-2.61,7.69a1.92,1.92,0,0,0-.39.78,6.22,6.22,0,0,1,0,4.83c-.13.41-.28.83-.43,1.24l-.41,1.27a17,17,0,0,0-.64,2.5c-.21,1.42-.56,3.49-2.21,3.51-.79,0-.47.75-.31,1.25.62,1.95,0,4-.32,6.24a199.54,199.54,0,0,0-2.2,21.75c0,3.23.61,6.33-.35,9.44-.06.33-.56,0-.38.68l.43-.59a12,12,0,0,1,.88,2.83,20.26,20.26,0,0,1,.46,2.91c.08,1,.11,2,.11,3s.1,2,.16,2.92.17,2,.29,3,.36,2,.55,2.95c.41,2,.82,3.9,1.29,5.83.24,1.07.52,2.13.81,3.19s.69,2.09,1,3.14.67,2.09,1,3.16.64,2.12.88,3.22a23.07,23.07,0,0,0,1,3.47,10,10,0,0,0,2,3.16c1.27,1.28.68,2.3.51,3.33a2.07,2.07,0,0,1,1.31,1c.07.12-.05.54-.17.55-.52,0-.86-.63-1.22-1.16.41,2.93,2.77,4,4.13,6.27.53.91,1.26,1.84,1.88,2.76a7.24,7.24,0,0,1,1.36,2.68c.39,2.25,2.81,2.62,2.78,4.64l-.27-.12.27.19A24.61,24.61,0,0,0,41.09,266c1.42,1.54,2.74,3.22,4.17,4.83s2.7,3.38,4.08,5.08l2.2,2.9c.76.95,1.56,1.87,2.38,2.76A24,24,0,0,0,56.54,284a20.38,20.38,0,0,0,3,2,7,7,0,0,1,2,1.44c4.3,5.61,10.56,9.12,16,13.45,2.58,2.1,5.67,3.55,8.24,5.74l.18.25-.08-.25a1.88,1.88,0,0,1,1.71.37,21.56,21.56,0,0,0,5.32,3.86l2.9,1.57c1,.53,1.92,1,2.83,1.61,5.19,3.32,11,5.54,16.57,7.86l3.76,1.56c1.28.48,2.58,1,3.89,1.42l2,.65,2,.54c1.35.32,2.7.6,4.05.8a7.3,7.3,0,0,1,2.87.85,15.42,15.42,0,0,0,5.45,2.09c1.92.41,3.85.76,5.75,1.29s3.79,1,5.72,1.38,3.89.69,5.78,1.18a29.54,29.54,0,0,0,4.59.36,4.23,4.23,0,0,1,3.78,2c.16.27.78,0,1.18-.15,3-1,3-1,6.17.49.28.13.38.33.76.23a19.75,19.75,0,0,1,4-.61,39.55,39.55,0,0,1,4.08-.06c2.74.11,5.51.51,8.25.6,2.17.08,4.4.19,6.6.24a34.22,34.22,0,0,1,6.44.65c8.56,1.65,17.53.95,26.32-.24a21.76,21.76,0,0,1,5.51-.3,32.59,32.59,0,0,0,3.44.2,29.71,29.71,0,0,0,3.51-.24c1.17-.14,2.36-.31,3.55-.51s2.39-.39,3.56-.7c2.32-.56,4.68-1,7-1.51a55.32,55.32,0,0,0,6.79-2.16c.73-.3,1.47-.58,2.19-.92l2.16-1.05c1.43-.71,2.86-1.44,4.27-2.18.85-.42,1.72-.82,2.6-1.16a15.5,15.5,0,0,1,2.66-.73,9.38,9.38,0,0,1,4.74.22c1.65.59.77,2-.47,3.06-1.9,1.53-3.79,3.19-5.89,4.62a27,27,0,0,1-7.06,3.26c-1.82.53-3.67.95-5.47,1.51s-3.57,1.18-5.4,1.67a154.12,154.12,0,0,1-20.47,4.86c-1.39.21-2.77.48-4.13.77s-2.74.52-4.1.81c-2.72.53-5.42,1.22-8.19,1.53l-5.35.72c-1.78.26-3.58.34-5.37.53l-5.37.51-5.36.36c-11.44.81-22.83-.64-34.16-1.86l-5-.57c-1.69-.18-3.36-.48-5-.71l-5-.75-5-.94a155.5,155.5,0,0,1-19.89-5c-8.45-2.72-16.71-6.37-25.17-9.25a11.42,11.42,0,0,1-1.51-.7c-6.6-3.43-13.2-6.89-19.58-10.79a143.07,143.07,0,0,1-18.25-13.06c-6.14-5.24-12.25-10.65-18.15-16.31a8.43,8.43,0,0,1-.8-.78C34.94,282.69,28.75,276.27,24,268.6c-.79-1.2-1.48-2.47-2.21-3.72l-2.17-3.75-2-3.83-1-1.91-1-1.95-1.92-3.88c-.64-1.31-1.2-2.64-1.82-3.95-1.27-2.61-2.35-5.29-3.54-8a22.57,22.57,0,0,1-1.24-3.75c-.34-1.27-.64-2.54-1-3.8C3.66,221,1.41,211.74.48,202.25c-.24-3.51-.55-7-.46-10.54,0-1.76,0-3.52.05-5.27l.36-5.26c.07-.87.11-1.75.2-2.62L1,176l.67-5.21.93-5.16L3,163c.16-.86.38-1.7.57-2.55A122,122,0,0,1,16.41,126c.59-1.12,1.15-2.29,1.69-3.48s1.07-2.38,1.7-3.5A200.2,200.2,0,0,1,34.61,96.26l3-3.75,1.54-1.87,1.59-1.83L47,81.48A167.75,167.75,0,0,1,66.38,62.12c6.9-5.93,14-11.49,21-17.14,10.1-8.13,21.26-14.61,31.76-22A79.16,79.16,0,0,1,127,18.25c2.69-1.49,5.44-2.88,8.13-4.32a15.8,15.8,0,0,1,2.95-1c1.68-.51,2.05.1,1.29,1.18-1,1.42-1.83,2.74-.73,3.64l-.09.27.16-.27a4.92,4.92,0,0,0,.45-.28c2.17-1.69,1.43.5,2.28.36,2-.33,1.13-1.84,2.43-2.52a.91.91,0,0,1,.44-.13c2,1,3.89-.43,5.89-1.92C150.82,12.78,151.64,12.72,151.7,13.21ZM232.11,338.4l.31,0v-.15Zm-29.92.21.32-.07-.31-.07Zm-4.53.05a2.2,2.2,0,0,0,.43-.09l-.27-.16a1.84,1.84,0,0,0-.47,0C197.06,338.55,197.18,338.65,197.66,338.66Zm-4.92-.24.29.1,0-.14Zm-7.22-.82.17.21c.35.08.49.58,1,.22l-.95-.25Zm-4.7.06.66.25.9-.06a2.73,2.73,0,0,0-.66-.23A6.78,6.78,0,0,0,180.82,337.66ZM16.09,165l0,.32.15-.27ZM23,142.79c-.21-.13-.41,0-.52.43,0,.11.06.22.1.34.22.08.41-.06.52-.45A.34.34,0,0,0,23,142.79Zm13.74-32.44-.17.2.22,0Zm-2-7.57c.06-.09,0-.25,0-.37l-.28,0a1.76,1.76,0,0,0-.16.43C34.34,103.19,34.51,103.18,34.77,102.78Zm5.08,2.53a.66.66,0,0,0-.31,0c-.35.16-.43.37-.19.51,0,0,.21-.09.32-.14Zm2.93-1.75-.25.17.09.14ZM46.16,94l-.19.28.26-.15Zm5.43-1a1.42,1.42,0,0,0-.19.77c0,.33.24.37.46.07a2.08,2.08,0,0,0,.2-.77C52,92.73,51.81,92.67,51.59,93ZM68.28,68.23c-.25-.15-.48,0-.58.37s-.12.54,0,.66.48,0,.59-.36A2.16,2.16,0,0,0,68.28,68.23ZM88.77,53.16c0-.06-.2,0-.32-.06s-.32.16-.33.21,0,.26.08.26A.47.47,0,0,0,88.77,53.16ZM92,51.31l-.19.12.17.11Zm44.18-31.12a8.28,8.28,0,0,0-.59.6c-.24.32-.11.49.26.31a1.92,1.92,0,0,0,.59-.58C136.64,20.2,136.53,20.08,136.15,20.19Z"/><path d="M154.06,12.59c-.47.33-.6.66-.32.86a1.17,1.17,0,0,0,.79-.14c.5-.28.59-.64.32-.83C154.74,12.4,154.33,12.55,154.06,12.59Z"/><path d="M122.77,33.78l.36-.12c0-.08,0-.22,0-.22a1.46,1.46,0,0,0-.36.11Z"/><path d="M270.1,340.06c-.61.06-1.42.68-1.78-.58s-.94-2.41-1.37-3.63-.72-2.26-1.1-3.48c-.74,0-1,1-1.83.69s-1.14-1-1-1.52c.62-2.3-.81-4.33-.75-6.52-.4-.08-.8-.17-1-.6,0-.08.17-.36.27-.36.47,0,.61.43.8.78.33,0,1,.3.76-.42-.39-1-1.57-.88-2.3-1.37s-.12-1,.51-1.17l.22.05-.19-.11a1.21,1.21,0,0,1,.18-1.4l.21.09-.18-.13a22.16,22.16,0,0,0-4.29-6.56,4.45,4.45,0,0,1-1.31-2.51c-.19-1.07.14-1.68,1.36-1.33.31.09.86.61.93-.14,0-.33-.55-1.06-.58-1-1.49.71-1.55-1.27-2.56-1.45a1,1,0,0,1-.86-1.16c.49-1.69-.44-3.14-.71-4.7a1.42,1.42,0,0,1,.32-1.18c.21,0,.13.6.52.31l-.49-.36a1.61,1.61,0,0,0-.75-1.6c-.72-.53-1.24-1.19-.43-2.07l.81.43.2.06-.16-.14-.81-.42c-.59-.52-1.1-1-.66-1.93a6.77,6.77,0,0,0,.92-2.35c.12-1.58-.36-.82-.72-.12-.33-.23-.88-.41-.95-.7a14.6,14.6,0,0,1-.68-3.77c0-1.35,1.41-.19,2-.78-.4-.69-1.06-.63-1.68-.69s-1.11-.35-1.1-1c0-2.81-2-4.73-3-7.07-.48-1.07-1.51-1.88-1.52-3.18a1.51,1.51,0,0,0-1.3-1.57c-.92-.28-2.51-.51-.63-1.87.26-.19,0-.57-.38-.67-1.46-.45-2-1.9-2.91-2.91-1.8-2-1.76-2,.74-3-.86-1.29-1.33-2.94-3.2-3.23a.76.76,0,0,1-.39-1.28c1.27-1.26-.09-2.29-.63-2.63-1.44-.9-.54-2.35-1.17-3.41-.4-.67.7-.57.93-.93.66-1.05,0-1.28-.9-1.24-.17.44-.43.51-.79.17l-.19-.13a.34.34,0,0,1,.06-.12l.21.1a3.09,3.09,0,0,0,.37-.26,4,4,0,0,0-1.22-2.1c-.08,0-.23-.06-.23-.1s.08-.19.27,0c.38-.53.79-1-.23-1.35s-2-1-1-2.27l.2,0-.16-.13c-1.74-1.44-2.33-3.77-4-5.32-.74-.7-.64-1.19.29-2.54a.68.68,0,0,0-.1-1c-1.48-1.21-2.65-2.52-2.11-4.65,0-.18,0-.54-.08-.55-2.85-.59-2.56-3.47-3.65-5.3-.48-.79-1.22-2,.24-2.76.68-.37.1-.59-.25-.77-1.35-.7-1.77-2-2.35-3.33-1.87-4.31-3.51-8.68-5-13.13-.67-2-2.06-3.62-1.59-5.88,0-.22.54-.17.25-.53l-.31.49c-2.21-1.79-2.43-4.55-2.93-7-.54-2.58-1.65-4.89-2.39-7.34-.81-2.7-2.24-5.17-2.66-8.05-.2-1.42-.5-3.18-1.89-4.26-1-.78-.28-1.52.11-2.24-.41-.1-.84-.2-1-.64,0-.08.16-.37.28-.39.5-.05.68.39.91.73.22-2-1.83-2.59-2.52-4.13-.54-1.22-1.8-2.5-1.58-3.72.28-1.55-1.88-1.84-1.17-3.25l.21.09-.18-.14a13.22,13.22,0,0,0-1.75-3.58,33.46,33.46,0,0,1-3.35-7.57c-.89-3-1.44-6.14-3.78-8.49a2.65,2.65,0,0,1-.87-1.34c-.55-4.56-3.25-8.34-4.57-12.62-.63-2-1.82-3.89-2.2-6l0-.21-.11.18c-.44-.09-.92-.36-.92-.77,0-3-1.76-5.35-2.41-8-.91-3.83-2.69-7.33-4.07-10.92-1.2-3.16-2.26-6.64-4.39-9.48a3,3,0,0,1-.69-1.77c.2-2.68-1.68-4.64-2.36-7S166,78.31,165.27,76c-.52-1.73-3.16-3.12-1.12-5.4.18-.21-.3-.4-.57-.55-2-1.09-2-1.1-1.73-3.48,0-.21.16-.35-.06-.51-3-2.22-3.9-5.75-5.15-9-1-2.57-2.32-5.14-2.47-7.91-.29-5.72-2.56-10.83-4.56-16a8,8,0,0,1-.73-3.43,22.92,22.92,0,0,0-1.71-8.78c-1-2.79-1.58-5.8-3-8.37-.94-1.71-2-3.45-3-5.11a6.12,6.12,0,0,1,0-6.63,1.71,1.71,0,0,1,2.78-.09c2.22,2.14,4.74,4.2,5.52,7.41a40,40,0,0,0,2.25,6.42c1.68,3.87,3.42,7.72,4.86,11.68,1.17,3.19,3.08,6,4.61,8.94,2,3.83,3.85,7.76,5.94,11.51,3.35,6,5.48,12.52,8.39,18.71,3.46,7.33,7.19,14.58,10.17,22.17,2,4.89,3.59,10,6.46,14.54a4.5,4.5,0,0,1,.38.9c2.76,8.36,6.8,16.22,9.61,24.58a87.59,87.59,0,0,0,5.68,13.1,2.62,2.62,0,0,1,.27.59c1.29,5.07,4,9.54,5.78,14.44a162.49,162.49,0,0,0,7.49,18.61,28.69,28.69,0,0,1,1.38,4.3c1.64,5.19,4,10.1,6,15.13,2.93,7.44,5.38,15,8.15,22.52a146.94,146.94,0,0,1,6.42,20.21c.31,1.45,1.2,2.77,1.6,4.21,1.43,5.07,3.35,10,4.76,15.07a102.94,102.94,0,0,0,3.29,10.8c4,10,6.15,20.6,10.19,30.52,2.9,7.13,4.61,14.65,7.86,21.65,1.53,3.3,2.27,7,3.3,10.5a6.55,6.55,0,0,1,0,1.93c0,1.1-.68,1.34-1.46.84-1-.65-2-1.2-3.14-.48l-.22-.06.2.1a1.6,1.6,0,0,0,.13.3c.91,1.43-.89.94-1,1.5-.28,1.29,1.36.74,1.62,1.6,0,.09,0,.24,0,.29-1.51,1.3-.73,2.56.09,3.87A.62.62,0,0,1,270.1,340.06ZM150.38,30.55l0-.21-.15,0Zm4.84,18.24-.14-.16v.21Zm1.11,2.63a.79.79,0,0,0-.19-.22l-.08.22c0,.09.05.23.11.27S156.44,51.7,156.33,51.42Zm1,2.93v-.21l-.13,0Zm1.24,4.41.14-.18c0-.22.38-.51-.1-.67l0,.64Zm1.52,2.57,0-.47-.33-.47a1.19,1.19,0,0,0,0,.46A2.36,2.36,0,0,0,160.1,61.33ZM224,219.6l-.11-.17,0,.2Zm4.66,13.76c.23-.05.3-.23.17-.45,0-.06-.17-.06-.26-.09a.28.28,0,0,0-.17.46A.29.29,0,0,0,228.66,233.36ZM238.35,253l0-.16-.18.11Zm6.58,1.06c0,.06.15.08.23.12l.22-.15a.8.8,0,0,0-.2-.21C244.93,253.69,244.82,253.79,244.93,254.06Zm-5.16,2.28c.07-.07.16-.11.2-.19.11-.26,0-.36-.23-.27-.06,0-.08.16-.12.24Zm-.71,2.27,0-.2H239Zm4.86,4.57-.1-.19,0,.2Zm-2.53,3.6a.71.71,0,0,0-.46-.31c-.24-.09-.42.06-.33.26s.3.22.46.32S241.49,267,241.39,266.78ZM252,282.11c.25-.13.25-.3,0-.43a.86.86,0,0,0-.53-.1c-.25.07-.25.29,0,.42A2,2,0,0,0,252,282.11Zm3.38,15.08s.12-.13.19-.2,0-.23-.05-.24-.21,0-.25,0C255.1,297,255.14,297.15,255.37,297.19Zm.29,2.25,0-.14-.17.11Zm12.52,30.38a3.41,3.41,0,0,0-.38-.38c-.23-.16-.41-.08-.37.16s.22.29.37.39S268.16,330.08,268.18,329.82Z"/><path d="M270,341.61c-.18-.3-.45-.39-.71-.2a.57.57,0,0,0-.09.52.42.42,0,0,0,.68.2C270,342.06,270,341.79,270,341.61Z"/><path d="M260,320.75V321c.07,0,.19,0,.2,0a.48.48,0,0,0,0-.24Z"/><path d="M115.79,102.13c.21-.56.31-1.53.84-1.33a11.46,11.46,0,0,0,1.66.25c.5.1,1,.28,1.52.43.26-.64,0-1.34.41-1.9s.72-.61.84-.28c.52,1.49,1.67,1,2.37,1.94.16-.33.33-.65.52-.64,0,0,.07.29,0,.38-.15.43-.34.38-.52.42-.1.31-.45.81-.11.84s.81-1.06,1.21-1.52.36.27.22.91l-.09.18.1-.13c.23,0,.41.17.41.72l-.1.16.11-.12a5.86,5.86,0,0,0,3.56-1.28,1,1,0,0,1,1.25-.24c.43.23.54.77,0,1.75-.13.25-.47.54-.23.9.1.16.53-.1.53-.14.2-1.63.9-.93,1.26-1.77.19-.45.5-.73.65-.35.45,1.09,1.22.79,1.84,1.15.18.1.28.35.32.74-.07.18-.24-.11-.25.36l.26-.32c.22.34.47.29.78-.07s.76-.69.85.37l-.38.59-.07.16.09-.09.38-.6c.34-.35.66-.62.86.11a6,6,0,0,0,.61,1.72c.54.69.39,0,.23-.62.17-.22.38-.66.5-.62a3.27,3.27,0,0,1,1.55.76c.49.52-.29,1.38-.21,2.1.35-.11.5-.74.68-1.29s.4-.89.62-.66c1,1.09,2.23-.1,3.34-.22.51-.06,1.05-.72,1.53-.27s.6,0,.88-.64.73-2.16.84.07c0,.32.22.18.33-.1.48-1.2,1.14-1.17,1.71-1.7,1.11-1,1.12-.95,1,1.73.67-.37,1.39-.24,1.86-1.89.13-.46.47-.55.56.08.24,1.62.9.7,1.12.31.61-1,1,.31,1.53.09.33-.16.09.84.19,1.18.3,1,.5.44.64-.43a.7.7,0,0,1,.07-.8l.08-.14s0,.08,0,.09,0,.11-.07.17,0,.29,0,.43a1,1,0,0,0,1-.45c0-.06.06-.19.08-.18s.06.14-.05.26c.14.53.24,1,.57.23s.68-1.53,1-.15l-.05.16.07-.09c.84-1.17,1.85-1,2.7-2,.38-.46.55-.22,1,1.09.16.51.33.33.4.23.69-1,1.36-1.7,2.15-.5.06.09.21.16.23.1.59-2.51,1.7-1.3,2.56-1.75.38-.18.92-.54,1.09,1.1.08.77.23.28.34,0a1.71,1.71,0,0,1,1.6-1.2,36,36,0,0,1,5.82-.76c.87-.06,1.64-.88,2.56.24.1.06,0,.56.21.39l-.19-.44c.88-1.56,2-.94,3.1-.74a15.67,15.67,0,0,0,3.22-.15c1.18,0,2.28-.63,3.53-.25.61.19,1.39.39,1.86-.64.34-.75.67.15,1,.72,0-.37.08-.74.27-.8,0,0,.17.26.18.37a.6.6,0,0,1-.32.66c.88.76,1.14-1,1.81-1.23s1.07-1,1.62-.51.76-1.3,1.41-.25l0,.17.06-.14a2.49,2.49,0,0,0,1.54-.71,6.44,6.44,0,0,1,3.25-1.21c1.29-.08,2.72.21,3.62-1.4.14-.26.34-.55.55-.49,2.05.63,3.54-1.06,5.4-1.23.89-.08,1.62-.75,2.58-.62l.1.09-.1-.14c0-.4.06-.79.26-.69,1.38.71,2.29-.41,3.47-.39,1.73,0,3.06-.84,4.48-1.29,1.24-.4,2.61-.66,3.36-2,.13-.23.35-.42.61-.27,1.28.69,1.62-.61,2.44-.77s1.36-.88,2.1-1.12-.12-2.09,1.93-.2c.19.17,0-.19,0-.39-.55-1.43-.55-1.37.64-1,.1,0,.24.15.19,0-.76-2,.12-2.16.65-2.8.43-.48.51-1.11,1.65-1.39a3.89,3.89,0,0,0,2.45-1.82,12.62,12.62,0,0,0,1.14-2.89,1.83,1.83,0,0,1,.94-1.21,5.48,5.48,0,0,0,2.54-3.3c.43-1.17,1.29-2.26,1.13-3.36a5.27,5.27,0,0,0-.69-2c-.42-.68.51-1.5,2.21-2.62A2.43,2.43,0,0,1,248.4,61c1.5,1,3.16,2.62,2.52,4.32a16.68,16.68,0,0,0-.84,3.24,44.81,44.81,0,0,1-1.15,5.49c-.47,1.44-.13,3-.32,4.6a54.47,54.47,0,0,1-1.27,6.27,12.68,12.68,0,0,1-2.55,4.74c-1.16,1.37-2.43,2.62-3.64,3.87a31,31,0,0,1-9.72,7.12c-2.3,1-4.75,1.5-6.7,3.22a.9.9,0,0,1-.42.16c-3.87.77-7.35,2.79-11.26,3.45a21.38,21.38,0,0,0-6,2.2.55.55,0,0,1-.27.12c-2.39,0-4.43,1.46-6.74,1.82a37.21,37.21,0,0,0-8.78,2.16,5.18,5.18,0,0,1-2,.12c-2.46.07-4.81,1-7.22,1.35-1.79.3-3.58.46-5.38.61s-3.6.16-5.4.34a36.5,36.5,0,0,1-4.79.23,20,20,0,0,1-4.79-.6c-.66-.19-1.36.2-2,.11-2.36-.35-4.75-.16-7.11-.63a22.38,22.38,0,0,0-5-.68,33.69,33.69,0,0,1-7.22-.79,37.75,37.75,0,0,0-7.17-1,34.19,34.19,0,0,1-5.14-.72,22.86,22.86,0,0,0-5.18-.6c-1.68.07-3.23-.74-4.81-1.29-.26-.09-.45-.48-.67-.75a1.29,1.29,0,0,1,.24-1.65,4.16,4.16,0,0,0,1.28-2.58l.1-.18-.11.14a.34.34,0,0,0-.14,0c-.8.23,0-1.16-.14-1.5-.32-.76-.73.91-1.1.79a.14.14,0,0,1-.1-.12c.12-1.87-.57-1.69-1.29-1.5C115.74,102.94,115.63,102.57,115.79,102.13ZM241.53,73.4l.1-.06-.14,0ZM237.08,79l0-.08-.1,0Zm-.34.73s0-.07,0-.11l-.17,0s-.06,0,0,.07S236.7,79.84,236.74,79.77Zm-.57.63h.11l-.12-.07Zm-1.12.66.18.1c.07,0,.49.25.24,0h-.27Zm-.15.86.23,0v-.2c-.07,0-.18-.05-.21,0S234.9,81.86,234.9,81.92ZM171.12,103l.09,0-.08-.09ZM165,103c0,.23.05.36.16.31s.05-.14.07-.22-.06-.36-.16-.31S165,103,165,103Zm-9.31,2.68.06,0v-.2Zm-1.62,5.8s-.07.12-.1.18l0,.25a.31.31,0,0,0,.12-.11C154.18,111.65,154.16,111.52,154,111.52Zm.05-5.62a1.64,1.64,0,0,0,0,.25c.08.19.14.14.15-.13,0-.06-.05-.12-.07-.19Zm-.75-1.46.07.12,0-.16Zm-2.72,3,.09,0-.06-.11Zm-.87-3.61c.07,0,.16-.18.22-.33s.06-.41,0-.4-.14.21-.21.32S149.66,103.83,149.75,103.82Zm-8.18,4.4c0,.27.05.34.17.14a1.41,1.41,0,0,0,.17-.46c0-.26,0-.34-.16-.15A3.57,3.57,0,0,0,141.57,108.22Zm-6.43-2.47a.79.79,0,0,0,0,.25s.09.08.1,0a.57.57,0,0,0,.06-.25C135.29,105.58,135.22,105.56,135.14,105.75Zm-.89-.59.06,0V105Zm-14.42-.56a3.1,3.1,0,0,0,.26-.18c.13-.14.17-.34.07-.4s-.17.08-.26.17A.32.32,0,0,0,119.83,104.6Z"/><path d="M115.33,101.43c.16,0,.29-.23.32-.54,0-.12-.06-.28-.13-.29s-.28.22-.32.52C115.19,101.24,115.28,101.33,115.33,101.43Z"/><path d="M125.61,100.83l-.08-.1c0,.06-.07.15-.06.18s0,.07.07.11Z"/><path d="M74,209.86c-.09-.59-.6-1.44.28-1.66s1.65-.67,2.49-1,1.57-.48,2.42-.72c0-.71-.84-1.11-.65-1.84s.62-1,1-.82c1.7.83,3-.34,4.62-.07,0-.37.06-.75.35-.88,0,0,.27.2.28.3,0,.46-.26.55-.49.7.05.32-.13,1,.37.77.69-.27.5-1.43.78-2.08s.69,0,.89.6l0,.2.06-.17a.8.8,0,0,1,1,.31l0,.2.08-.17a11.58,11.58,0,0,0,4.33-3.52,2.25,2.25,0,0,1,1.69-1c.75-.09,1.22.29,1.08,1.44,0,.29-.36.77.19.92.25.06.72-.44.7-.47-.65-1.51.77-1.38.81-2.34,0-.5.3-.95.75-.72,1.26.63,2.22-.15,3.32-.26a1,1,0,0,1,.87.42c0,.2-.41.07-.17.48l.21-.45c.51.14.84-.07,1.09-.58s.73-1.09,1.44-.23l-.23.75,0,.19.09-.14.22-.75c.31-.53.64-1,1.33-.46a5.87,5.87,0,0,0,1.78,1.11c1.15.25.56-.29,0-.7.13-.29.21-.81.41-.85a7.42,7.42,0,0,1,2.65-.32c1,.14.28,1.39.76,2,.46-.32.35-1,.34-1.56s.14-1,.57-1c2,.28,3.22-1.47,4.8-2.27.73-.36,1.21-1.28,2.14-1.18.64.07.91-.32,1-1.11s.11-2.39,1.29-.45c.16.27.4,0,.44-.3.18-1.38,1.17-1.76,1.8-2.56,1.25-1.57,1.28-1.53,2.25,1,.84-.73,2-1,2-2.83,0-.49.48-.77.88-.26,1,1.34,1.64.1,1.83-.39.51-1.31,1.64-.31,2.34-.83.45-.32.49.73.77,1,.84.74.93.12.81-.75-.34-.21-.42-.47-.21-.78a1,1,0,0,1,.07-.18l.09.07c0,.06,0,.13,0,.19s.14.26.22.38a2,2,0,0,0,1.39-1c0-.08,0-.21,0-.22s.14.1,0,.27c.42.41.78.84.95-.11s.48-1.81,1.54-.72l0,.18.08-.14c.86-1.56,2.47-1.93,3.42-3.38.43-.66.79-.52,1.87.49.41.39.62.13.7,0,.71-1.33,1.54-2.33,3.14-1.63.13.06.39,0,.39,0,.12-2.7,2.23-2.16,3.44-3.06.52-.39,1.28-1,2,.47.35.7.44.15.53-.17.36-1.25,1.27-1.54,2.15-2a76.91,76.91,0,0,1,9-3.7c1.35-.48,2.4-1.67,4.09-1,.16,0,.18.53.41.28l-.39-.34c1.06-2,3-1.94,4.74-2.21a41.79,41.79,0,0,0,5.08-1.62c1.87-.54,3.51-1.69,5.56-1.83a3.05,3.05,0,0,0,2.88-1.44c.46-.9,1.07-.13,1.64.31,0-.39.06-.78.36-.93.05,0,.29.2.31.31.09.49-.21.61-.44.81,1.47.4,1.7-1.52,2.74-2,.84-.4,1.64-1.49,2.55-1.16,1.15.42,1.13-1.63,2.24-.82l0,.2.08-.17a6.37,6.37,0,0,0,2.42-1.34,15.7,15.7,0,0,1,5.16-2.48c2.08-.55,4.33-.76,5.81-2.78.23-.32.54-.69.88-.7,3.28,0,5.75-2.29,8.75-3.09,1.43-.37,2.67-1.32,4.2-1.45l.15.06-.14-.12c0-.42.18-.85.48-.8,2.16.35,3.74-1.11,5.63-1.44,2.71-.47,5.11-1.77,7.62-2.65,2.2-.79,4.65-1.39,6.54-3.11a1.53,1.53,0,0,1,1.24-.45c2,.51,3.25-1.05,5-1.39s3.18-1.27,4.85-1.64c1.24-.27,2.05-2.63,3.88-.38.16.2.26-.24.35-.48.65-1.76.66-1.77,2.42-1.2.15,0,.27.2.37,0,1.4-2.63,3.94-2.94,6.22-3.69,1.82-.59,3.62-1.49,5.64-1.25,4.16.51,7.8-.82,11.51-1.93a4.21,4.21,0,0,1,2.48-.18c2.28.63,4.43.23,6.64-.16s4.52-.18,6.71-.64a40.53,40.53,0,0,1,4.7-.75,3.6,3.6,0,0,1,2.76.89,4,4,0,0,1,1.35,2.68,2.13,2.13,0,0,1-1.46,2.24c-1,.3-2,.8-2.84,1.13a4.12,4.12,0,0,1-2.68.29,9.66,9.66,0,0,0-4.18,0c-2.64.5-5.26,1.47-8,2.21-2.25.61-4.17,2-6.25,3-2.69,1.28-5.42,2.5-8,4-4.14,2.36-8.76,3.41-13,5.42-5.06,2.38-10.05,4.94-15.3,6.93-3.38,1.29-7,2.24-10,4.46a1.88,1.88,0,0,1-.62.25C232,159,226.67,162,220.89,163.8a41.73,41.73,0,0,0-8.94,4.11,1.16,1.16,0,0,1-.4.2c-3.56.7-6.5,3-9.88,4.15A72.49,72.49,0,0,0,189,177.7a13,13,0,0,1-3,.93A107.68,107.68,0,0,0,175.67,183c-5.06,2.18-10.32,3.82-15.43,5.87a69.66,69.66,0,0,1-13.94,4.45c-1,.18-1.87.93-2.87,1.2-3.52.95-6.87,2.36-10.41,3.29a51,51,0,0,0-7.46,2.25c-6.83,3-14.28,4.15-21.07,7.15-4.88,2.17-10.17,3.09-14.94,5.59-2.25,1.17-4.86,1.51-7.32,2.16a3.6,3.6,0,0,1-1.39-.15,1,1,0,0,1-.73-1.5,3.11,3.11,0,0,0,.09-3l0-.22,0,.19a.78.78,0,0,0-.21.09c-1,.74-.75-.95-1.16-1.12-1-.39-.43,1.25-1,1.41-.06,0-.17,0-.21,0-1.06-1.59-1.91-1-2.78-.3C74.51,210.55,74.11,210.33,74,209.86Zm213.43-83.22.15,0,0-.14Zm-13.1,1.86.11-.11-.15,0Zm-1.85.69c.06,0,.1-.1.15-.15l-.17-.11c-.06,0-.16,0-.19.07S272.32,129.25,272.52,129.19Zm-2.08.55.16,0,0-.13Zm-3.15.57.14.16c.16,0,.4.44.48,0l-.46-.05Zm-1.78,1.09.35.09.32-.26c-.12,0-.25-.1-.34-.07A1.46,1.46,0,0,0,265.51,131.4Zm-109.1,44.81.12-.09-.15,0Zm-9.45,3.3c.06.23.2.31.34.21s0-.16,0-.24-.2-.31-.35-.21S146.94,179.43,147,179.51Zm-13.16,7.67h.12l-.1-.19Zm-.07,6.26s0,.14-.07.22l.14.22s.11-.1.13-.17C134,193.47,133.91,193.36,133.73,193.44Zm-2.19-5.18c.05.07.09.17.15.21s.27.05.17-.21c0,0-.12-.08-.18-.13Zm-1.72-.89.15.06,0-.15ZM127,191.69l.12-.08-.14-.06Zm-2.86-2.76c.1-.05.15-.25.18-.42s-.09-.41-.23-.34-.13.27-.18.41S124,189,124.17,188.93Zm-10,8.9c.13.25.24.26.31,0a1,1,0,0,0,0-.51c-.08-.25-.24-.26-.3,0A2.18,2.18,0,0,0,114.18,197.83Zm-10.55,1.9c0,.05.11.14.16.2s.17,0,.17,0a.38.38,0,0,0,0-.26C103.75,199.49,103.64,199.52,103.63,199.73Zm-1.6.08h.1l-.09-.17ZM81.26,209a2.85,2.85,0,0,0,.25-.33c.09-.2,0-.39-.15-.37s-.19.19-.25.32S81.08,209,81.26,209Z"/><path d="M72.92,209.63A.47.47,0,0,0,73,209a.38.38,0,0,0-.38-.14c-.22.08-.24.37-.09.64C72.6,209.57,72.79,209.57,72.92,209.63Z"/><path d="M87.08,202l-.18,0c0,.07,0,.18,0,.19s.11,0,.17,0Z"/><path d="M161,263.73c-.51-.32-1.45-.58-1.12-1.12s.41-1.19.69-1.74.59-1,.9-1.52c-.53-.45-1.3-.36-1.71-.92s-.35-1,0-1c1.65-.17,1.65-1.54,2.83-2-.24-.27-.47-.55-.37-.76a.69.69,0,0,1,.38.1c.34.32.2.49.16.69.24.21.57.73.75.4s-.64-1.2-.88-1.78.43-.29,1,.09l.13.16-.08-.15c.15-.22.35-.37.86-.16l.1.16-.06-.15a7.9,7.9,0,0,0,.65-4.17,1.29,1.29,0,0,1,.54-1.35c.47-.32,1-.17,1.58.78.15.24.21.71.66.65.2,0,.23-.55.2-.58-1.32-1-.29-1.33-.79-2.1-.26-.4-.31-.85.13-.8,1.23.14,1.46-.77,2.18-1.15a.92.92,0,0,1,.84.11c.1.17-.25.17.13.44l-.08-.42c.42,0,.55-.27.46-.76s0-1.09.9-.55l.22.69.07.15v-.13l-.22-.69c0-.51,0-.95.72-.69a6,6,0,0,0,1.79.55c.93,0,.26-.35-.31-.59,0-.28-.24-.73-.12-.82a3.49,3.49,0,0,1,1.74-.79c.76-.07.82,1.14,1.43,1.55.17-.36-.19-.9-.47-1.41s-.36-.93,0-.95c1.58-.1,1.7-1.81,2.54-2.77.39-.42.4-1.31,1.12-1.34.5,0,.54-.41.33-1.14s-.75-2.18.8-.56c.22.23.31,0,.23-.32-.34-1.27.28-1.74.5-2.55.46-1.57.51-1.53,2,.7.41-.74,1.16-1.13.67-2.79-.13-.45.16-.75.61-.3,1.16,1.18,1.27,0,1.29-.48,0-1.27,1.17-.38,1.58-.88.26-.33.55.66.82.89.81.67.73.09.43-.74a.6.6,0,0,1-.33-.73.91.91,0,0,1,0-.17l.08.06a1.15,1.15,0,0,1,0,.19c.09.12.17.24.26.35a1.25,1.25,0,0,0,.83-1c0-.07,0-.2,0-.2s.14.09.08.25c.41.38.77.79.7-.12s0-1.73,1-.7l0,.17,0-.12c.34-1.51,1.52-1.83,2-3.21.22-.63.53-.5,1.51.51.38.39.51.15.54,0,.34-1.24.85-2.21,2.17-1.44.1.06.3,0,.29,0-.25-2.59,1.45-2,2.29-2.75.36-.34.89-.88,1.59.62.32.69.35.17.39-.13.16-1.19.84-1.39,1.48-1.73a32.12,32.12,0,0,1,6.64-2.57c1-.29,1.79-1.28,3.06-.4.12,0,.14.55.31.34l-.3-.39c.79-1.77,2.28-1.4,3.56-1.39a23.58,23.58,0,0,0,3.8-.68c1.4-.16,2.66-1,4.16-.69.74.14,1.65.27,2.19-.8.39-.77.79.1,1.17.65,0-.37.09-.75.32-.83,0,0,.2.25.2.36,0,.5-.19.56-.37.7,1,.69,1.33-1.11,2.13-1.37.63-.21,1.3-1.09,1.92-.56.79.67,1-1.32,1.68-.28l-.05.18.08-.14A3.39,3.39,0,0,0,237,210a8,8,0,0,1,3.93-1.17c1.55,0,3.17.34,4.45-1.23.21-.25.47-.53.72-.45,2.33.79,4.36-.72,6.6-.68,1.06,0,2.07-.55,3.16-.25l.1.1-.08-.16c.08-.39.25-.77.46-.63,1.46.91,2.79,0,4.17.2,2,.32,3.86-.23,5.76-.33,1.67-.09,3.47.08,5.1-1a.8.8,0,0,1,.94,0c1.26,1.1,2.45,0,3.68.22s2.44-.19,3.66,0c.9.14,2-1.82,2.72.9.07.24.23-.14.34-.34.83-1.45.84-1.45,1.91-.34.09.1.13.28.24.14,1.55-2,3.35-1.45,5.07-1.38,1.37.07,2.79-.15,4.09.78,2.9,1.94,5.87,2.1,9,2.85a2.86,2.86,0,0,1,1.81,1.07,12.09,12.09,0,0,0,4.22,3.33c1.5.91,2.65,2.33,4.14,3.2.49.3,1,.64,1.52,1s1,.75,1.54,1.12a2.41,2.41,0,0,1,.82,2.09,3.75,3.75,0,0,1-1.33,2.31,2.8,2.8,0,0,1-2.55.64,16.73,16.73,0,0,0-2.24-.54,1.52,1.52,0,0,1-1.32-.93,3.64,3.64,0,0,0-.27-.6,3.89,3.89,0,0,0-.41-.5,4.09,4.09,0,0,0-1-.82,27,27,0,0,0-4.87-2c-1.42-.51-3-.1-4.48,0a31.39,31.39,0,0,0-5.89.76c-3.22.77-6.46.21-9.68.7-3.81.58-7.59,1.43-11.41,1.71-2.47.18-5,0-7.4,1.25a1,1,0,0,1-.46.06c-4.15,0-8.16,1.33-12.29,1.55a19.2,19.2,0,0,0-6.53,1.64.53.53,0,0,1-.29.1c-2.5-.22-4.71,1.24-7.11,1.59a28.7,28.7,0,0,0-9,2.43,6.49,6.49,0,0,1-2.06.28c-2.49.34-4.75,1.47-7.06,2.28-3.41,1.23-6.89,2-10.16,3.4a40.48,40.48,0,0,1-8.84,3c-.66.11-1.1.76-1.72,1-2.18.78-4.09,2-6.19,2.92-.75.3-1.51.62-2.25,1a8.71,8.71,0,0,0-2,1.32,60,60,0,0,1-5.58,4.09,20.94,20.94,0,0,0-5,4.63c-1.9,2.63-4.56,4.64-5.67,7.74-.52,1.43-1.7,2.46-2.57,3.7-.14.21-.55.27-.86.38a1.38,1.38,0,0,1-1.53-.66,4.31,4.31,0,0,0-2.16-1.91l-.14-.15.1.14a.39.39,0,0,0,0,.14c0,.85-1.13-.3-1.49-.24-.84.15.68,1,.46,1.3a.15.15,0,0,1-.15.06c-1.8-.54-1.79.24-1.76,1C161.8,263.92,161.41,264,161,263.73Zm142.84-54.64.08.12,0-.15ZM294,205.44l.11-.07-.11-.08Zm-1.4,0s.09-.05.13-.08l-.09-.17s-.11,0-.14,0S292.44,205.43,292.59,205.44Zm-1.53-.2.09.09v-.13Zm-2.26-.54.06.2c.11,0,.17.54.33.16l-.3-.2Zm-1.45.42.22.2.27-.13c-.07-.06-.14-.17-.21-.18S287.45,205.08,287.35,205.12Zm-82,16.48.08-.08-.12-.06Zm-6.77,2.48c.09.22.2.31.29.21s0-.15,0-.23-.2-.3-.29-.21S198.54,224,198.56,224.08Zm-8.4,7.15h.08l-.12-.17Zm1.58,5.84s0,.14,0,.21l.15.2a.27.27,0,0,0,0-.16C191.93,237.1,191.85,237,191.74,237.07Zm-3-4.75c.06.06.12.15.18.18s.2,0,.06-.19c0-.06-.11-.08-.16-.12Zm-1.51-.75.13.05-.06-.14Zm-.8,4.17.07-.09-.12,0Zm-3-2.32c.06,0,0-.25,0-.4s-.19-.37-.28-.29,0,.26,0,.39S183.38,233.5,183.46,233.42Zm-3.92,9.21c.19.19.29.19.23,0a1.38,1.38,0,0,0-.2-.45c-.16-.2-.28-.19-.23,0A2.92,2.92,0,0,0,179.54,242.63Zm-6.43,3.62s.15.08.22.13.12,0,.11-.06a.64.64,0,0,0-.16-.2C173.08,246,173,246.07,173.11,246.25Zm-1.05.44.06,0-.16-.12Zm-7.57,13.46a2.12,2.12,0,0,0-.09-.31c-.09-.17-.27-.27-.36-.19s0,.2.08.31A.31.31,0,0,0,164.49,260.15Z"/><path d="M160.2,264.1c0-.17-.17-.34-.46-.43a.35.35,0,0,0-.34.1c-.06.16.16.33.45.41C160,264.22,160.08,264.13,160.2,264.1Z"/><path d="M163.26,253l-.13,0c0,.05.11.14.13.14s.09,0,.14,0Z"/><path d="M266,268.45c-.54-.28-1.53-.37-1.2-1.18s.4-1.68.64-2.51.51-1.5.79-2.3c-.6-.36-1.39,0-1.88-.51s-.48-1-.12-1.24c1.61-.89,1.35-2.6,2.44-3.72-.31-.22-.61-.45-.56-.75,0-.05.32-.11.41-.07.41.22.32.5.32.77.29.14.74.62.85.12.14-.7-.93-1.16-1.33-1.74s.36-.56,1-.39l.17.12-.11-.14a.78.78,0,0,1,.81-.66l.14.14-.1-.16a10.85,10.85,0,0,0-.78-5.34,2,2,0,0,1,0-1.88c.32-.66.85-.87,1.8-.18.24.17.47.68.88.3.18-.18,0-.82-.07-.82-1.63-.2-.83-1.32-1.65-1.81-.43-.27-.68-.71-.27-1,1.16-.75.95-1.91,1.39-2.88a1,1,0,0,1,.8-.54c.16.1-.15.38.33.37l-.29-.39c.37-.36.35-.73,0-1.18s-.63-1.12.45-1.33l.57.53.15.11-.08-.14-.57-.53c-.32-.51-.57-1,.19-1.34a5.46,5.46,0,0,0,1.8-1c.75-.88,0-.6-.61-.32-.2-.25-.62-.54-.57-.73a7.32,7.32,0,0,1,.91-2.42c.53-.79,1.37.36,2.1.19-.1-.54-.73-.73-1.28-1s-.88-.56-.64-.92c1.13-1.65,0-3.42,0-5.11,0-.79-.71-1.57-.24-2.35.32-.54.06-.92-.63-1.31s-2.16-1,.08-1.3c.32,0,.18-.35-.1-.51-1.2-.66-1.17-1.67-1.66-2.51-1-1.65-1-1.66,1.72-1.64-.38-1-.27-2.12-1.93-2.73-.46-.17-.55-.68.07-.87,1.62-.48.68-1.43.29-1.75-1-.87.24-1.56,0-2.35-.17-.5.84-.21,1.17-.39,1-.52.41-.8-.46-1a.5.5,0,0,1-.8,0c-.05,0-.11-.07-.15-.11l.09-.07a1.28,1.28,0,0,1,.17.1l.44-.08a1.88,1.88,0,0,0-.5-1.55c-.07,0-.2-.08-.19-.11s.14-.1.26.06c.53-.25,1.05-.45.2-.89s-1.56-.95-.19-1.59l.16.06-.1-.11c-1.25-1.21-1.15-2.76-2.27-4-.51-.56-.27-.84,1-1.57.49-.27.31-.54.19-.64-1-1-1.83-1.95-.75-3.25.08-.1.12-.34.07-.36-2.6-.71-1.56-2.5-2.13-3.79-.23-.56-.66-1.37.93-1.76.75-.18.24-.37-.06-.52-1.14-.56-1.24-1.44-1.49-2.33-.42-1.45-.69-2.93-1.06-4.38s-.65-2.92-.92-4.4c-.12-.65-.42-1.26-.59-1.88a2.35,2.35,0,0,1,.19-2c0-.15.55-.12.34-.36l-.39.33c-1.81-1.17-1.53-3-1.58-4.59s-.84-3.18-1.16-4.78A23.26,23.26,0,0,0,260,159a7.59,7.59,0,0,1-.65-2.65,2.65,2.65,0,0,0-1.31-2.68c-.86-.41-.08-1,.37-1.55-.38,0-.76,0-.91-.3,0-.05.19-.27.3-.3.48-.1.62.17.8.38.41-1.38-1.51-1.52-2-2.46-.41-.76-1.48-1.43-1.16-2.3.39-1.11-1.59-1-.83-2l.19,0-.17-.06a5.34,5.34,0,0,0-1.45-2.11,15,15,0,0,1-2.74-4.47c-.74-1.82-1.17-3.89-3.27-4.9-.32-.16-.73-.37-.79-.68a8.87,8.87,0,0,0-1.85-3.81l-1.27-1.7a12.8,12.8,0,0,1-1.17-1.76c-.63-1.18-1.76-2.05-2.17-3.41l0-.16-.09.17c-.4.09-.84.07-.85-.22-.1-2-1.88-3-2.62-4.58-1-2.31-3-3.94-4.46-5.83-1.29-1.7-2.67-3.55-4.82-4.48a1.22,1.22,0,0,1-.8-.88c-.17-2-2.05-2.34-3-3.6S221,100.56,220,99.34c-.75-.88-3.09-.37-1.92-3,.1-.24-.31-.1-.56-.06-1.77.35-1.76.36-2-1.39,0-.15.05-.32-.15-.31-2.84.27-4.21-1.54-5.86-3-1.32-1.12-2.95-1.9-3.75-3.62a13.56,13.56,0,0,0-1.48-2.39,16.05,16.05,0,0,0-1.9-1.88,49.28,49.28,0,0,0-4.3-3.14A3.57,3.57,0,0,1,196.51,79a8.2,8.2,0,0,0-1.75-2.54,11.66,11.66,0,0,0-2.33-1.81c-1.63-1-3.1-2.49-4.91-3.09a26.44,26.44,0,0,0-3.82-.83c-1.55-.22-2.66-1.85-2.72-4a2,2,0,0,1,1.54-2.15c2.19-.37,4.6-1,6.44.4a24.19,24.19,0,0,0,4,2.46c1.28.65,2.6,1.23,3.86,1.91s2.5,1.42,3.69,2.21a17.27,17.27,0,0,0,3.09,1.5c1.05.45,2.12.86,3.15,1.37,1.32.66,2.66,1.3,4,2s2.59,1.42,3.94,2.06a22.62,22.62,0,0,1,3.07,1.76c1,.68,1.89,1.39,2.81,2.12l2.77,2.18c.91.75,1.8,1.51,2.76,2.2l3.4,2.48c1.11.85,2.18,1.75,3.27,2.64s2.17,1.8,3.22,2.75,2,2,3,3c2.56,2.61,4.57,5.76,7.71,7.91a1.69,1.69,0,0,1,.45.51c.84,1.28,1.74,2.51,2.68,3.72s1.94,2.37,2.82,3.61,1.83,2.46,2.71,3.71c.44.63.89,1.25,1.29,1.9s.77,1.32,1.14,2a39.89,39.89,0,0,0,2.62,4.21c.93,1.38,1.88,2.75,2.94,4.07a1.55,1.55,0,0,1,.26.37,14.62,14.62,0,0,0,1.13,2.48c.43.8.86,1.59,1.34,2.37a42.86,42.86,0,0,1,2.7,4.76c.87,2.18,1.72,4.37,2.69,6.51s1.84,4.31,3,6.38a11,11,0,0,1,.85,3.07,47.14,47.14,0,0,0,1.74,5.44c.71,1.78,1.26,3.6,1.83,5.42.4,1.35.81,2.7,1.11,4.07l.84,4.13c.59,2.75,1,5.53,1.46,8.3a65.59,65.59,0,0,1,1,7.39c.09,1.24.18,2.48.18,3.72s-.1,2.5-.24,3.74c-.11,1,.36,2.09.34,3.14,0,1.84-.08,3.69-.05,5.53a42.45,42.45,0,0,1-.2,5.52,74.83,74.83,0,0,0-.65,7.85c0,1.88-.08,3.75-.24,5.62s-.52,3.71-.81,5.55l-.44,2.77c-.17.92-.34,1.84-.49,2.75-.31,1.84-.51,3.69-.67,5.55a70,70,0,0,1-1.4,7.89,52.53,52.53,0,0,0-1.43,7.9c-.28,2.54-1.41,4.93-2.25,7.34-.15.41-.6.72-.94,1.06a1,1,0,0,1-1.65-.26,3.07,3.07,0,0,0-2.39-1.77l-.16-.14.12.15a1,1,0,0,0-.05.22c.05,1.18-1.21.06-1.59.3-.87.53.78,1,.57,1.61,0,.06-.09.15-.15.14-1.92-.06-1.89,1-1.85,2C266.79,268.48,266.38,268.66,266,268.45Zm-68.16-190-.06-.14-.08.13Zm8.65,8.65h-.15l.06.13Zm1.47,1s-.12,0-.19,0v.2s.09.12.15.1S208.09,88.28,207.93,88.16Zm1.49,1.28,0-.14-.09.1Zm1.94,2.2.07-.21c-.08-.12.17-.55-.23-.38l.18.4Zm1.71.83-.09-.33-.35-.11c0,.1,0,.24.1.3A.94.94,0,0,0,213.07,92.47Zm56,91.25-.06-.12-.07.13Zm1,9.43c.24,0,.35-.11.28-.27s-.14-.06-.22-.09c-.24,0-.35.11-.29.27A.35.35,0,0,0,270.05,193.15Zm3.45,14.15,0-.11-.21,0Zm5.92,2.1s.11.09.17.14l.26,0c0-.06-.05-.14-.11-.18C279.53,209.17,279.41,209.21,279.42,209.4Zm-5.63.3a.82.82,0,0,0,.25-.08c.19-.13.14-.22-.13-.21-.06,0-.13.07-.19.12ZM272.35,211l.11-.11-.15,0Zm3,4,0-.14-.1.11Zm-3.59,1.58c0-.11-.18-.23-.33-.31s-.42-.07-.4.08.21.21.32.31S271.81,216.68,271.79,216.53Zm4.14,12.31c.28,0,.35-.1.15-.26a.88.88,0,0,0-.45-.23c-.26,0-.34.1-.16.25A2.22,2.22,0,0,0,275.93,228.84Zm-3,10c.05,0,.17,0,.26,0s.09-.13.06-.16a.39.39,0,0,0-.24-.07C272.79,238.66,272.76,238.77,272.94,238.88Zm-.67,1.4,0-.09h-.2Zm-2.85,22a2.46,2.46,0,0,0-.14-.38c-.12-.19-.32-.24-.39-.09s.05.26.12.38S269.28,262.37,269.42,262.24Z"/><path d="M265.13,269.19c0-.24-.18-.42-.49-.46a.37.37,0,0,0-.33.21c-.06.23.16.41.47.45C264.9,269.41,265,269.26,265.13,269.19Z"/><path d="M266.65,253.73l-.12.12c.06,0,.15.1.17.09s.09-.08.13-.12Z"/><path d="M238.22,285.08c-.42.43-.81,1.34-1.49.76a25.49,25.49,0,0,0-2.21-1.45c-.66-.47-1.28-1-2-1.54-.56.44-.43,1.32-1.14,1.58s-1.18.05-1.25-.37c-.26-1.89-2-2.35-2.61-3.82-.33.19-.67.37-.93.19-.05,0,0-.34.09-.39.37-.29.61-.09.86,0,.25-.22.88-.43.45-.73-.6-.42-1.47.37-2.18.48-.86.15-.4-.56,0-1.06l.18-.1-.18,0a.8.8,0,0,1-.27-1l.19-.06-.18,0a11.76,11.76,0,0,0-5.24-1.87,2.25,2.25,0,0,1-1.76-.92c-.44-.63-.34-1.23.72-1.67.27-.12.84-.07.7-.62-.07-.25-.72-.41-.75-.38-1,1.32-1.56,0-2.42.45-.45.23-1,.19-1-.31-.06-1.41-1.2-1.87-1.83-2.78a1,1,0,0,1,0-1c.18-.08.25.35.49-.06l-.48,0c-.11-.52-.44-.71-1-.7s-1.3-.16-.85-1.19l.77-.14.17-.06h-.16l-.77.14c-.61,0-1.15-.13-1-1a5.71,5.71,0,0,0,.2-2.08c-.28-1.13-.49-.36-.63.3-.32,0-.82.17-.95,0a6.45,6.45,0,0,1-1.41-2.24c-.28-.94,1.13-.84,1.45-1.53-.47-.27-1,.1-1.54.37s-1,.31-1.12-.11c-.57-2-2.69-2.25-4-3.42-.61-.52-1.64-.6-1.91-1.51-.17-.61-.64-.7-1.41-.49s-2.26.8-.91-1c.19-.25-.14-.38-.45-.3-1.36.37-2.07-.44-3-.75-1.92-.62-1.89-.68.11-2.46-1-.53-1.66-1.49-3.36-.89-.46.16-.9-.19-.55-.75.9-1.43-.44-1.6-1-1.62-1.41-.06-.84-1.47-1.55-2-.45-.33.54-.7.68-1.05.44-1-.17-.91-1-.52-.09.38-.31.54-.68.43h-.19s0-.1,0-.1a.71.71,0,0,1,.2,0q.17-.17.3-.33a2.1,2.1,0,0,0-1.4-1c-.08,0-.21,0-.22,0s.05-.17.25-.11c.26-.52.57-1-.39-.88s-1.87.06-1.14-1.28l.18,0-.15,0c-1.74-.38-2.57-1.85-4.25-2.37-.76-.24-.73-.64,0-2,.26-.51,0-.65-.19-.69-1.47-.36-2.67-.94-2.39-2.67,0-.14-.07-.39-.12-.38a2.25,2.25,0,0,1-2.5-.76,12.2,12.2,0,0,0-1.33-1.93c-.49-.44-1.27-1.07,0-2.11.6-.49,0-.47-.3-.49-1.3-.09-1.79-.94-2.42-1.73-1-1.31-1.93-2.69-2.82-4.08s-1.75-2.8-2.5-4.28c-.68-1.29-2-2.2-1.64-4,0-.17.5-.26.22-.46l-.28.44c-2.15-.8-2.34-2.85-2.82-4.55s-1.57-3.28-2.17-5c-.69-1.87-2-3.47-2.28-5.53-.15-1-.32-2.28-1.62-2.88-.92-.44-.18-1.1.24-1.68-.39,0-.79,0-.94-.34,0-.06.18-.3.29-.33.48-.1.63.2.83.43.34-1.5-1.59-1.69-2.13-2.77-.43-.84-1.53-1.68-1.21-2.61.41-1.17-1.65-1.19-.82-2.32l.19.05-.16-.09a7.27,7.27,0,0,0-1.32-2.54,15.39,15.39,0,0,1-2.3-5.5c-.44-2.22-.46-4.55-2.31-6.36-.3-.29-.64-.67-.61-1,.33-3.42-1.54-6.39-1.76-9.72-.08-1.57-.78-3.09-.53-4.72l.1-.15-.15.11c-.41-.13-.79-.41-.67-.71.85-2.14-.14-4.2.14-6.26a28.66,28.66,0,0,0,.1-4.34c0-1.43-.09-2.87-.07-4.29,0-1.25.21-2.52.23-3.82a14.65,14.65,0,0,0-.42-3.88,1.67,1.67,0,0,1,.13-1.39c1.3-1.66.52-3.58,1-5.33s.42-3.58.95-5.29c.38-1.25-1.23-3.25,1.67-3.68.26,0-.06-.36-.22-.56-1.15-1.52-1.15-1.55.27-2.8.12-.1.31-.12.2-.31-1.41-2.66-.3-5.09.43-7.46.56-1.89.85-3.95,2.26-5.48a19.77,19.77,0,0,0,3.26-5.07c.81-1.78,1.45-3.62,2.16-5.44a4.09,4.09,0,0,1,1.39-2.06A12.33,12.33,0,0,0,160.2,82c.9-1.85,2.23-3.55,2.7-5.51a40,40,0,0,0,.73-4c.21-1.64,1.83-2.88,4-3A2,2,0,0,1,169.75,71c.43,2.23,1.12,4.58-.19,6.44a18.51,18.51,0,0,0-2.09,4.14c-1,2.67-1.87,5.4-3,8-.89,2.12-1,4.44-1.42,6.66a84.31,84.31,0,0,0-1.49,8.59c-.4,4.61-2.12,8.87-2.56,13.39-.54,5.36-.68,10.69-1,16-.11,1.7-.25,3.41-.3,5.13a17.67,17.67,0,0,0,.69,5.1,1.67,1.67,0,0,1,.05.63c0,1.4,0,2.8.1,4.2s.31,2.78.56,4.17c.46,2.76,1,5.51,1.44,8.31a28.41,28.41,0,0,0,2.83,8.74,1.14,1.14,0,0,1,.16.38c.34,3.4,2.41,6.25,3.48,9.43a46.63,46.63,0,0,0,5.51,11.83,12.45,12.45,0,0,1,1.07,2.75,29,29,0,0,0,2.38,4.76c.91,1.52,1.83,3,2.74,4.54,1.39,2.22,2.59,4.52,3.89,6.78s2.56,4.52,4,6.66c1.32,1.9,2.55,3.84,3.81,5.77a50.34,50.34,0,0,1,3.39,6.06c.42.88,1.35,1.45,1.86,2.29,1.75,3,4.11,5.51,6,8.43a43.86,43.86,0,0,0,4.47,5.89c5.08,4.89,9,10.94,14.52,15.32,2,1.56,3.82,3.28,5.66,5a40.68,40.68,0,0,0,6,4.57c2.1,1.16,3.71,3,5.51,4.65a3.34,3.34,0,0,1,.62,1.17,1,1,0,0,1-.82,1.45,3.28,3.28,0,0,0-2.48,1.67l-.19.1.19-.06a.59.59,0,0,0,.19.11c1.13.34-.36,1.15-.27,1.58.22,1,1.25-.39,1.72,0,0,0,.11.13.08.19-.69,1.78.3,2.1,1.33,2.41C238.5,284.3,238.55,284.75,238.22,285.08ZM157.1,88.31l.13-.1-.14-.06ZM150.67,100l0-.15-.11.11Zm-.55,1.94a.52.52,0,0,0,0-.21l-.2.08c0,.06-.08.14-.05.19S150.06,102.13,150.12,101.93Zm-.74,2.07.12-.11-.13,0ZM148,107l.22,0c.08-.14.58-.09.27-.41l-.31.36Zm-.08,2.15.26-.26,0-.41c-.09.08-.22.15-.25.25A1.5,1.5,0,0,0,148,109.15ZM175,224l-.11-.1V224Zm5.39,8.52c.21-.12.25-.27.12-.39s-.16,0-.25,0-.25.28-.11.39S180.29,232.51,180.36,232.47ZM191.42,243l0-.11-.14.15Zm5.93-2s.15,0,.22,0l.17-.2a.43.43,0,0,0-.2-.06C197.3,240.73,197.22,240.84,197.35,241Zm-4.19,3.75a.85.85,0,0,0,.14-.21c.07-.23,0-.27-.24-.09-.05,0-.05.14-.07.21Zm-.29,1.92v-.16l-.14.07Zm5,1.11-.12-.08v.15Zm-1.58,3.65c-.08-.07-.29,0-.45,0s-.35.24-.24.34.3,0,.45,0S196.41,251.52,196.29,251.41Zm12,5.69c.18-.22.15-.33-.1-.29a1,1,0,0,0-.47.19c-.2.18-.14.33.09.29A2.65,2.65,0,0,0,208.26,257.1Zm6.18,8.51s.07-.15.11-.24-.06-.15-.1-.14a.4.4,0,0,0-.2.16C214.17,265.61,214.25,265.7,214.44,265.61Zm.78,1.38-.05-.08-.12.16Zm18.27,12.77a1.76,1.76,0,0,0-.4,0c-.21,0-.33.2-.22.34s.25.05.39,0S233.56,279.94,233.49,279.76Z"/><path d="M238.68,286.13c-.23-.09-.45,0-.58.32a.4.4,0,0,0,.1.4c.2.13.44,0,.57-.31C238.82,286.42,238.71,286.27,238.68,286.13Z"/><path d="M224.46,278.81l.07.17c.05,0,.15-.09.16-.11a.43.43,0,0,0-.06-.17Z"/></svg>