<svg id="Layer_1" data-name="Layer 1" xmlns="http://www.w3.org/2000/svg" xmlns:xlink="http://www.w3.org/1999/xlink" viewBox="0 0 67.91 67.91"><defs><style>.cls-1{fill:#144514;}.cls-2{clip-path:url(#clip-path);}</style><clipPath id="clip-path"><path class="cls-1" d="M63,28.29H34v12h16.7c-1.56,7.64-8.07,12-16.7,12a18.39,18.39,0,0,1,0-36.78,18,18,0,0,1,11.46,4.1l9.06-9A31.11,31.11,0,1,0,34,65.08c15.56,0,29.71-11.32,29.71-31.13A25.5,25.5,0,0,0,63,28.29Z"/></clipPath></defs><path class="cls-1" d="M63,28.29H34v12h16.7c-1.56,7.64-8.07,12-16.7,12a18.39,18.39,0,0,1,0-36.78,18,18,0,0,1,11.46,4.1l9.06-9A31.11,31.11,0,1,0,34,65.08c15.56,0,29.71-11.32,29.71-31.13A25.5,25.5,0,0,0,63,28.29Z"/><g class="cls-2"><path class="cls-1" d="M0,52.34V15.56L24.05,34Z"/></g><path class="cls-1" d="M63,28.29H34v12h16.7c-1.56,7.64-8.07,12-16.7,12a18.39,18.39,0,0,1,0-36.78,18,18,0,0,1,11.46,4.1l9.06-9A31.11,31.11,0,1,0,34,65.08c15.56,0,29.71-11.32,29.71-31.13A25.5,25.5,0,0,0,63,28.29Z"/><g class="cls-2"><path class="cls-1" d="M0,15.56,24.05,34,34,25.32l34-5.51V0H0Z"/></g><path class="cls-1" d="M63,28.29H34v12h16.7c-1.56,7.64-8.07,12-16.7,12a18.39,18.39,0,0,1,0-36.78,18,18,0,0,1,11.46,4.1l9.06-9A31.11,31.11,0,1,0,34,65.08c15.56,0,29.71-11.32,29.71-31.13A25.5,25.5,0,0,0,63,28.29Z"/><g class="cls-2"><path class="cls-1" d="M0,52.34,42.44,19.81l11.18,1.41L67.91,0V67.91H0Z"/></g><path class="cls-1" d="M63,28.29H34v12h16.7c-1.56,7.64-8.07,12-16.7,12a18.39,18.39,0,0,1,0-36.78,18,18,0,0,1,11.46,4.1l9.06-9A31.11,31.11,0,1,0,34,65.08c15.56,0,29.71-11.32,29.71-31.13A25.5,25.5,0,0,0,63,28.29Z"/><g class="cls-2"><path class="cls-1" d="M67.91,67.91,24.05,34l-5.66-4.24L67.91,15.56Z"/></g></svg>