<svg width="26" height="18" viewBox="0 0 26 18" fill="none" xmlns="http://www.w3.org/2000/svg">
<g clip-path="url(#clip0_684_717)">
<path d="M2.932 6.88102C2.20503 6.61982 1.4795 6.35861 0.755404 6.09525C0.167213 5.88082 -0.127601 5.35122 0.0536016 4.82809C0.177999 4.46831 0.454118 4.27114 0.801423 4.14594C3.19158 3.28678 5.58005 2.42545 7.96685 1.56197C9.20795 1.11368 10.4498 0.668986 11.6887 0.215658C12.4331 -0.0699184 13.2562 -0.0729898 14.0026 0.207023C17.6123 1.51808 21.227 2.8133 24.8374 4.12291C25.0578 4.19585 25.2596 4.3162 25.4285 4.4755C25.9613 5.0195 25.7211 5.81102 24.9467 6.09525C23.6582 6.56801 22.3653 7.03069 21.0739 7.49553C18.6947 8.35518 16.3151 9.21458 13.935 10.0737C13.2652 10.3318 12.5249 10.3398 11.8498 10.0961C9.77385 9.3477 7.70368 8.58496 5.63135 7.82581C5.60618 7.81646 5.58245 7.80423 5.53068 7.7812C5.90459 7.34946 6.36982 7.07171 6.88035 6.87023C7.96541 6.43849 9.05479 6.02473 10.142 5.60235C11.0792 5.23824 12.0159 4.87342 12.9521 4.50788C13.2009 4.41002 13.4238 4.27546 13.4799 3.9826C13.5096 3.86404 13.5037 3.73935 13.4628 3.62415C13.422 3.50895 13.3482 3.40836 13.2505 3.33499C13.0283 3.16013 12.7853 3.16949 12.5379 3.26663C11.5696 3.6456 10.6012 4.02673 9.63291 4.41002C8.42633 4.89285 7.20968 5.3541 6.01532 5.86931C4.53047 6.509 3.67982 7.69917 3.35337 9.24408C3.20955 9.92192 3.23616 10.6357 3.19302 11.3308C3.1933 11.4209 3.21395 11.5097 3.25342 11.5906C4.01131 13.3701 4.17525 15.2165 3.88187 17.1147C3.87396 17.168 3.87253 17.2227 3.86677 17.2759C3.79487 17.8659 3.47561 18.0969 2.9018 17.9581C2.14319 17.7753 1.39177 17.5767 0.627411 17.4061C0.151394 17.2996 -0.23546 16.7823 0.170089 16.2275C0.835938 15.3158 1.3666 14.33 1.65423 13.2262C1.86019 12.4521 1.9539 11.6524 1.9325 10.8516C1.90518 9.9543 2.00441 9.0721 2.32655 8.23021C2.49553 7.77976 2.71916 7.34874 2.932 6.88102Z" fill="#4D5E4A"/>
<path d="M19.9667 9.29827L20.1889 11.4275C20.3039 12.5356 20.4046 13.6466 20.5405 14.7519C20.6239 15.4153 20.337 15.8758 19.8502 16.2579C19.2031 16.7652 18.4509 17.0638 17.6801 17.3085C15.5948 17.9683 13.4563 18.1 11.2876 17.928C9.82868 17.8108 8.41141 17.5294 7.06245 16.9437C6.50734 16.7026 5.97236 16.4299 5.55243 15.9751C5.2648 15.665 5.11452 15.3167 5.16342 14.8742C5.35037 13.1688 5.52295 11.4606 5.69696 9.75375C5.71206 9.60984 5.72356 9.4724 5.7401 9.29251C6.17154 9.44362 6.57637 9.58034 6.97832 9.72425C8.4488 10.2481 9.92 10.7698 11.3876 11.3008C12.3469 11.6617 13.4045 11.6617 14.3638 11.3008C16.142 10.6532 17.9253 10.0214 19.7071 9.38318C19.7833 9.35439 19.8588 9.33353 19.9667 9.29827Z" fill="#4D5E4A"/>
</g>
<defs>
<clipPath id="clip0_684_717">
<rect width="25.7143" height="18" fill="white"/>
</clipPath>
</defs>
</svg>
