<svg id="Layer_1" data-name="Layer 1" xmlns="http://www.w3.org/2000/svg" viewBox="0 0 357.61 250.15"><path d="M40.77,95.63C30.66,92,20.57,88.37,10.5,84.71,2.32,81.73-1.78,74.37.74,67.1c1.73-5,5.57-7.74,10.4-9.48Q61,39.71,110.79,21.71C128.05,15.48,145.32,9.3,162.55,3a45.39,45.39,0,0,1,32.18-.12c50.2,18.22,100.47,36.22,150.68,54.42a22.11,22.11,0,0,1,8.22,4.9c7.41,7.56,4.07,18.56-6.7,22.51-17.92,6.57-35.9,13-53.86,19.46Q243.44,122.09,193.79,140a41.51,41.51,0,0,1-29,.31c-28.87-10.4-57.66-21-86.48-31.55-.35-.13-.68-.3-1.4-.62,5.2-6,11.67-9.86,18.77-12.66,15.09-6,30.24-11.75,45.36-17.62q19.55-7.59,39.08-15.21c3.46-1.36,6.56-3.23,7.34-7.3a8.63,8.63,0,0,0-3.19-9c-3.09-2.43-6.47-2.3-9.91-.95q-20.2,7.9-40.4,15.89C117.18,68,100.26,74.41,83.65,81.57,63,90.46,51.17,107,46.63,128.47c-2,9.42-1.63,19.34-2.23,29a8.29,8.29,0,0,0,.84,3.61c10.54,24.73,12.82,50.39,8.74,76.77-.11.74-.13,1.5-.21,2.24-1,8.2-5.44,11.41-13.42,9.48-10.55-2.54-21-5.3-31.63-7.67-6.62-1.48-12-8.67-6.36-16.38C11.62,212.85,19,199.15,23,183.81a116.19,116.19,0,0,0,3.87-33c-.38-12.47,1-24.73,5.48-36.43C34.7,108.12,37.81,102.13,40.77,95.63Z"/><path d="M277.67,129.22l3.09,29.59c1.6,15.4,3,30.84,4.89,46.2,1.16,9.22-2.83,15.62-9.6,20.93-9,7.05-19.46,11.2-30.18,14.6-29,9.17-58.74,11-88.9,8.61-20.29-1.63-40-5.54-58.76-13.68-7.72-3.35-15.16-7.14-21-13.46-4-4.31-6.09-9.15-5.41-15.3,2.6-23.7,5-47.44,7.42-71.16.21-2,.37-3.91.6-6.41,6,2.1,11.63,4,17.22,6,20.45,7.28,40.91,14.53,61.32,21.91a58.81,58.81,0,0,0,41.39,0c24.73-9,49.53-17.78,74.31-26.65C275.12,130,276.17,129.71,277.67,129.22Z"/></svg>