<svg width="766" height="535" viewBox="0 0 766 535" fill="none" xmlns="http://www.w3.org/2000/svg">
<path d="M87.2834 204.519C65.642 196.756 44.0436 188.992 22.4878 181.164C4.9778 174.791 -3.79859 159.05 1.59567 143.502C5.29889 132.808 13.5187 126.948 23.8577 123.226C95.0109 97.6903 166.114 72.0897 237.167 46.4252C274.114 33.101 311.083 19.8837 347.964 6.40977C370.124 -2.0782 394.627 -2.16948 416.847 6.15312C524.305 45.1206 631.911 83.6175 739.39 122.542C745.951 124.71 751.959 128.287 756.987 133.022C772.848 149.191 765.697 172.716 742.644 181.164C704.286 195.216 665.798 208.968 627.354 222.784C556.527 248.334 485.688 273.878 414.834 299.413C394.895 307.084 372.857 307.322 352.759 300.078C290.96 277.834 229.333 255.164 167.641 232.6C166.892 232.323 166.185 231.959 164.644 231.274C175.775 218.442 189.625 210.187 204.823 204.198C237.124 191.366 269.554 179.068 301.92 166.514C329.819 155.692 357.704 144.849 385.574 133.984C392.981 131.076 399.616 127.076 401.286 118.372C402.17 114.848 401.995 111.142 400.777 107.718C399.563 104.294 397.366 101.304 394.457 99.1233C387.842 93.926 380.609 94.2042 373.244 97.0914C344.418 108.355 315.59 119.683 286.764 131.076C250.845 145.426 214.627 159.136 179.071 174.449C134.869 193.462 109.545 228.836 99.8272 274.755C95.5458 294.901 96.338 316.117 95.0537 336.777C95.0621 339.454 95.6768 342.094 96.8518 344.498C119.414 397.389 124.294 452.268 115.56 508.687C115.325 510.271 115.282 511.897 115.111 513.478C112.97 531.014 103.466 537.88 86.3843 533.755C63.8011 528.321 41.4319 522.419 18.6775 517.348C4.50688 514.182 -7.00947 498.807 5.06341 482.317C24.8852 455.22 40.6826 425.919 49.2452 393.112C55.3764 370.104 58.1661 346.335 57.529 322.534C56.7157 295.864 59.6697 269.643 69.2596 244.62C74.29 231.232 80.9473 218.421 87.2834 204.519Z" fill="black"/>
<path d="M594.393 276.365L601.008 339.651C604.431 372.586 607.429 405.607 611.475 438.459C613.958 458.177 605.417 471.864 590.925 483.221C571.661 498.299 549.269 507.174 526.323 514.447C464.245 534.058 400.584 537.972 336.023 532.86C292.592 529.377 250.401 521.013 210.244 503.604C193.718 496.438 177.793 488.333 165.292 474.815C156.729 465.599 152.255 455.246 153.711 442.094C159.276 391.406 164.414 340.635 169.594 289.903C170.044 285.626 170.386 281.541 170.878 276.194C183.722 280.685 195.773 284.749 207.739 289.026C251.514 304.596 295.311 320.102 339 335.885C367.558 346.612 399.042 346.612 427.599 335.885C480.535 316.637 533.622 297.858 586.665 278.889C588.934 278.033 591.181 277.413 594.393 276.365Z" fill="black"/>
</svg>
