<svg width="663" height="554" viewBox="0 0 663 554" fill="none" xmlns="http://www.w3.org/2000/svg">
<path d="M0 46.1667C0 20.6307 21.1627 0 47.3571 0H615.643C641.837 0 663 20.6307 663 46.1667C663 71.7026 641.837 92.3333 615.643 92.3333H47.3571C21.1627 92.3333 0 71.7026 0 46.1667ZM0 277C0 251.464 21.1627 230.833 47.3571 230.833H615.643C641.837 230.833 663 251.464 663 277C663 302.536 641.837 323.167 615.643 323.167H47.3571C21.1627 323.167 0 302.536 0 277ZM663 507.833C663 533.369 641.837 554 615.643 554H47.3571C21.1627 554 0 533.369 0 507.833C0 482.297 21.1627 461.667 47.3571 461.667H615.643C641.837 461.667 663 482.297 663 507.833Z" fill="black"/>
</svg>
