<svg width="623" height="554" viewBox="0 0 623 554" fill="none" xmlns="http://www.w3.org/2000/svg">
<path d="M160.078 82.8836C160.078 37.1137 197.177 0 242.929 0C264.886 0 285.977 8.76445 301.444 24.2375L311.503 34.3004L321.562 24.2375C337.029 8.76445 358.121 0 380.077 0C425.829 0 462.929 37.1137 462.929 82.8836C462.929 104.849 454.168 125.948 438.701 141.421L326.754 253.304C318.318 261.743 304.581 261.743 296.145 253.304L184.306 141.421C168.839 125.948 160.078 104.849 160.078 82.8836ZM614.57 363.887C628.739 383.147 624.629 410.198 605.377 424.373L468.445 525.326C443.135 543.937 412.634 554 381.159 554H207.669H34.6115C15.467 554 0 538.527 0 519.375V450.125C0 430.973 15.467 415.5 34.6115 415.5H74.4147L122.979 376.547C147.531 356.854 178.033 346.25 209.508 346.25H294.198H311.503H380.726C399.871 346.25 415.338 361.723 415.338 380.875C415.338 400.027 399.871 415.5 380.726 415.5H311.503H294.198C284.68 415.5 276.892 423.291 276.892 432.812C276.892 442.334 284.68 450.125 294.198 450.125H424.64L554.108 354.69C573.361 340.515 600.401 344.627 614.57 363.887Z" fill="black"/>
</svg>
