<svg width="35" height="32" viewBox="0 0 35 32" fill="none" xmlns="http://www.w3.org/2000/svg">
<path d="M8.99306 4.65451C8.99306 2.0842 11.0773 0 13.6476 0C14.8811 0 16.066 0.492187 16.9349 1.36111L17.5 1.92622L18.0651 1.36111C18.934 0.492187 20.1189 0 21.3524 0C23.9227 0 26.0069 2.0842 26.0069 4.65451C26.0069 5.88802 25.5148 7.07292 24.6458 7.94184L18.3568 14.2248C17.8828 14.6988 17.1111 14.6988 16.6372 14.2248L10.3542 7.94184C9.48524 7.07292 8.99306 5.88802 8.99306 4.65451ZM34.526 20.4349C35.322 21.5165 35.0911 23.0356 34.0095 23.8316L26.3168 29.5009C24.895 30.546 23.1814 31.1111 21.4132 31.1111H11.6667H1.94444C0.868924 31.1111 0 30.2422 0 29.1667V25.2778C0 24.2023 0.868924 23.3333 1.94444 23.3333H4.18056L6.90885 21.1458C8.28819 20.0399 10.0017 19.4444 11.77 19.4444H16.5278H17.5H21.3889C22.4644 19.4444 23.3333 20.3134 23.3333 21.3889C23.3333 22.4644 22.4644 23.3333 21.3889 23.3333H17.5H16.5278C15.9931 23.3333 15.5556 23.7708 15.5556 24.3056C15.5556 24.8403 15.9931 25.2778 16.5278 25.2778H23.8559L31.1293 19.9184C32.2109 19.1224 33.73 19.3533 34.526 20.4349ZM11.7639 23.3333H11.7092C11.7274 23.3333 11.7457 23.3333 11.7639 23.3333Z" fill="#A3BF98"/>
</svg>
