<svg width="623" height="554" viewBox="0 0 623 554" fill="none" xmlns="http://www.w3.org/2000/svg">
<path d="M622.784 276.459C622.784 295.936 606.56 311.192 588.173 311.192H553.561L554.319 484.534C554.319 487.455 554.102 490.377 553.778 493.298V510.719C553.778 534.632 534.417 554 510.514 554H493.208C492.019 554 490.829 554 489.639 553.892C488.125 554 486.611 554 485.096 554H449.944H423.986C400.083 554 380.722 534.632 380.722 510.719V484.75V415.5C380.722 396.348 365.255 380.875 346.111 380.875H276.889C257.745 380.875 242.278 396.348 242.278 415.5V484.75V510.719C242.278 534.632 222.917 554 199.014 554H173.056H138.553C136.93 554 135.308 553.892 133.685 553.784C132.387 553.892 131.09 554 129.792 554H112.486C88.5828 554 69.2222 534.632 69.2222 510.719V389.531C69.2222 388.557 69.2222 387.475 69.3304 386.502V311.192H34.6111C15.1424 311.192 0 296.044 0 276.459C0 266.721 3.24479 258.064 10.816 250.49L288.137 8.65625C295.709 1.08203 304.361 0 311.933 0C319.504 0 328.157 2.16406 334.646 7.57422L610.886 250.49C619.539 258.064 623.865 266.721 622.784 276.459Z" fill="black"/>
</svg>
