<svg width="554" height="554" viewBox="0 0 554 554" fill="none" xmlns="http://www.w3.org/2000/svg">
<path d="M277 0C124.267 0 0 124.267 0 277C0 429.733 124.267 554 277 554C429.733 554 554 429.733 554 277C554 124.267 429.733 0 277 0ZM205.961 85.2307H347.998C414.585 85.2307 468.769 139.395 468.769 205.961V347.997C468.769 414.584 414.605 468.769 348.039 468.769H206.003C139.415 468.769 85.2308 414.605 85.2308 348.04V206.002C85.2308 139.415 139.395 85.2307 205.961 85.2307ZM205.961 127.846C162.898 127.846 127.847 162.918 127.847 206.002V348.04C127.847 391.102 162.918 426.153 206.003 426.153H348.039C391.103 426.153 426.153 391.082 426.153 347.997V205.961C426.153 162.897 391.082 127.846 347.998 127.846H205.961ZM376.464 163.345C384.305 163.345 390.655 169.695 390.655 177.536C390.655 185.377 384.305 191.77 376.464 191.77C368.623 191.77 362.231 185.377 362.231 177.536C362.231 169.695 368.623 163.345 376.464 163.345ZM277 170.462C335.745 170.462 383.539 218.255 383.539 277C383.539 335.745 335.745 383.539 277 383.539C218.255 383.539 170.461 335.745 170.461 277C170.461 218.255 218.255 170.462 277 170.462ZM277 213.076C260.046 213.076 243.788 219.812 231.799 231.799C219.812 243.788 213.077 260.047 213.077 277C213.077 293.954 219.812 310.212 231.799 322.2C243.788 334.188 260.046 340.923 277 340.923C293.953 340.923 310.212 334.188 322.201 322.2C334.188 310.212 340.923 293.954 340.923 277C340.923 260.047 334.188 243.788 322.201 231.799C310.212 219.812 293.953 213.076 277 213.076Z" fill="black"/>
</svg>
