<svg width="554" height="554" viewBox="0 0 554 554" fill="none" xmlns="http://www.w3.org/2000/svg">
<path fill-rule="evenodd" clip-rule="evenodd" d="M432.461 407.531V299.39C432.461 241.452 401.53 214.49 360.294 214.49C327.017 214.49 312.105 232.8 303.795 245.644V218.922H241.101C241.932 236.622 241.101 407.531 241.101 407.531H303.795V302.198C303.795 296.575 304.201 290.942 305.863 286.917C310.387 275.652 320.702 263.99 338.014 263.99C360.709 263.99 369.776 281.285 369.776 306.63V407.541L432.461 407.531ZM175.055 193.18C196.91 193.18 210.529 178.684 210.529 160.577C210.123 142.082 196.91 128.002 175.471 128.002C154.031 128.002 140.005 142.073 140.005 160.577C140.005 178.684 153.615 193.18 174.657 193.18H175.055ZM277 554C124.022 554 0 429.978 0 277C0 124.013 124.022 0 277 0C429.978 0 554 124.013 554 277C554 429.978 429.978 554 277 554ZM206.402 407.531V218.922H143.716V407.531H206.402Z" fill="black"/>
</svg>
