<svg id="Layer_1" data-name="Layer 1" xmlns="http://www.w3.org/2000/svg" viewBox="0 0 101.49 126.11"><defs><style>.cls-1{fill:#031e03;}</style></defs><path class="cls-1" d="M66.44,112.5C13.22,112.5,15.74,16.88,50,9.6,62.59,6.85,75,18.14,78.91,39.71c2.92-8.67,9-15.79,16-17.89a51.24,51.24,0,0,0-18-16,49.38,49.38,0,0,0-23-5.8C19.59,0,0,27.61,0,63.76,0,82.45,12,123.17,52.73,126c26.22,1.74,41.4-17,48.33-29a3.23,3.23,0,0,0-.2-3.51,3.1,3.1,0,0,0-1-.89,3,3,0,0,0-1.32-.31,2.92,2.92,0,0,0-2.38,1.2C92.14,98.7,82.42,112.5,66.44,112.5Z"/></svg>