<svg width="750" height="126" viewBox="0 0 750 126" fill="none" xmlns="http://www.w3.org/2000/svg">
<g clip-path="url(#clip0_365_263)">
<path d="M136.047 113.799V3.486C136.047 1.89 134.931 0.587997 132.437 1.638C127.427 3.738 112.683 10.899 110.411 12.138C108.14 13.377 108.991 16.59 111.101 16.338C112.318 16.191 112.257 17.43 112.257 18.207V107.31C112.257 109.455 112.665 111.578 113.458 113.559C114.251 115.54 115.414 117.34 116.879 118.855C118.345 120.371 120.085 121.572 121.999 122.391C123.913 123.21 125.964 123.63 128.036 123.627H137.568C137.889 123.658 138.211 123.574 138.48 123.39C138.749 123.206 138.95 122.933 139.049 122.615C139.148 122.297 139.14 121.954 139.026 121.642C138.911 121.329 138.697 121.067 138.42 120.897C136.716 119.532 136.047 117.894 136.047 113.799Z" fill="#031E03"/>
<path d="M747.647 106.26C746.142 108.702 744.072 110.717 741.625 112.121C739.178 113.526 736.431 114.276 733.633 114.303C715.137 114.303 703.455 90.783 703.455 90.783C724.547 90.783 749.169 81.669 749.169 61.257C749.169 46.809 736.655 33.18 714.934 33.18C660.438 33.18 660.073 125.286 714.508 125.286C732.457 125.286 745.477 116.886 749.817 108.15C750.669 106.428 748.378 105 747.647 106.26ZM712.013 39.396C734.85 39.396 726.616 86.541 701.873 86.541C694.409 79.317 690.069 39.396 712.013 39.396Z" fill="#031E03"/>
<path d="M66.4413 112.497C13.2234 112.497 15.7382 16.884 49.9932 9.597C62.5879 6.846 75.0406 18.144 78.9143 39.711C81.8348 31.038 87.9597 23.919 94.9162 21.819C90.2305 15.0822 84.0687 9.59199 76.9365 5.79912C69.8043 2.00624 61.9051 0.0188256 53.8872 0C19.5917 0 0 27.615 0 63.756C0 82.446 11.9862 123.165 52.7312 126C78.9548 127.743 94.1252 108.948 101.061 96.999C101.373 96.4615 101.521 95.8389 101.484 95.213C101.448 94.5871 101.23 93.9872 100.859 93.492C100.578 93.117 100.218 92.8135 99.807 92.6047C99.3957 92.3959 98.9437 92.2874 98.4857 92.2874C98.0276 92.2874 97.5756 92.3959 97.1643 92.6047C96.753 92.8135 96.3933 93.117 96.1128 93.492C92.1376 98.7 82.4229 112.497 66.4413 112.497Z" fill="#031E03"/>
<path d="M278.603 38.682C296.349 38.682 300.913 64.722 300.913 64.743C303.066 58.0605 307.178 52.2394 312.676 48.09C307.865 43.1734 302.163 39.2898 295.898 36.6626C289.633 34.0353 282.929 32.7162 276.17 32.781C243.598 32.781 236.966 64.827 256.842 79.212C263.433 84 275.277 92.904 284.262 99.456C295.7 107.856 290.569 117.348 278.319 117.348C257.45 117.348 257.308 91.077 257.308 91.077L242.685 107.268C242.685 107.268 258.91 125.307 281.443 125.307C318.334 125.307 323.202 95.907 302.332 81.207C296.248 76.818 278.928 65.982 271.545 60.753C259.255 52.08 265.421 38.682 278.603 38.682Z" fill="#031E03"/>
<path d="M357.599 38.682C375.345 38.682 379.908 64.722 379.908 64.743C382.061 58.0605 386.173 52.2394 391.671 48.09C386.863 43.1706 381.161 39.2852 374.896 36.6577C368.63 34.0303 361.924 32.7127 355.165 32.781C322.573 32.781 315.961 64.827 335.817 79.212C342.428 84 354.273 92.904 363.237 99.456C374.676 107.856 369.544 117.348 357.315 117.348C336.445 117.348 336.283 91.077 336.283 91.077L321.66 107.268C321.66 107.268 337.885 125.307 360.438 125.307C397.309 125.307 402.177 95.907 381.328 81.207C375.142 76.818 357.903 65.982 350.541 60.753C338.23 52.08 344.416 38.682 357.599 38.682Z" fill="#031E03"/>
<path d="M227.555 113.799V101.199V37.191C227.555 35.595 226.42 34.293 223.925 35.343C222.607 35.889 220.619 36.792 218.368 37.842C216.278 38.7651 214.005 39.1553 211.739 38.9799C209.473 38.8045 207.282 38.0686 205.347 36.834C182.754 23.31 149.148 40.635 149.148 78.834C149.148 119.994 183.221 136.101 203.745 117.033C205.042 119.075 206.805 120.755 208.878 121.923C210.951 123.091 213.27 123.713 215.63 123.732H229.056C229.377 123.763 229.699 123.679 229.969 123.495C230.238 123.311 230.439 123.038 230.538 122.72C230.637 122.402 230.629 122.059 230.514 121.747C230.4 121.434 230.186 121.172 229.908 121.002C228.204 119.532 227.555 117.894 227.555 113.799ZM203.745 109.368C200.646 112.438 196.554 114.205 192.266 114.324C182.795 114.324 172.999 105.924 172.999 77.322C172.999 55.419 179.083 40.782 193.28 40.782C197.024 40.8486 200.666 42.0615 203.745 44.268V109.368Z" fill="#031E03"/>
<path d="M614.521 113.799V101.199V37.191C614.521 35.595 613.385 34.293 610.891 35.343C609.573 35.889 607.585 36.792 605.334 37.842C603.244 38.7651 600.971 39.1553 598.705 38.9799C596.439 38.8045 594.247 38.0686 592.313 36.834C569.72 23.31 536.134 40.635 536.134 78.834C536.134 119.994 570.186 136.101 590.711 117.033C592.008 119.075 593.771 120.755 595.844 121.923C597.917 123.091 600.236 123.713 602.596 123.732H616.022C616.343 123.763 616.665 123.679 616.934 123.495C617.204 123.311 617.405 123.038 617.504 122.72C617.603 122.402 617.595 122.059 617.48 121.747C617.366 121.434 617.152 121.172 616.874 121.002C615.191 119.532 614.521 117.894 614.521 113.799ZM590.711 109.368C586.918 112.466 582.256 114.205 577.427 114.324C567.976 114.324 559.965 105.924 559.965 77.322C559.965 55.419 566.151 40.782 580.246 40.782C583.99 40.8486 587.632 42.0615 590.711 44.268V109.368Z" fill="#031E03"/>
<path d="M667.253 115.227C660.418 118.503 658.106 107.121 658.106 99.561V48.699V38.997H665.224C665.762 38.997 666.278 38.7757 666.659 38.3819C667.039 37.9881 667.253 37.4539 667.253 36.897C667.253 36.34 667.039 35.8059 666.659 35.4121C666.278 35.0182 665.762 34.797 665.224 34.797H658.025V26.922V9.45C658.036 9.40168 658.036 9.35131 658.025 9.303V3.486C658.025 1.89 656.909 0.587997 654.415 1.638C649.405 3.738 634.661 10.899 632.389 12.138C630.118 13.377 630.969 16.59 633.079 16.338C634.296 16.191 634.235 17.43 634.235 18.207V34.86H630.179C629.641 34.86 629.125 35.0812 628.744 35.4751C628.364 35.8689 628.15 36.403 628.15 36.96C628.15 37.517 628.364 38.0511 628.744 38.4449C629.125 38.8387 629.641 39.06 630.179 39.06H634.235V107.31C634.233 110.646 635.225 113.902 637.074 116.634C639.934 122.073 645.045 125.286 653.157 125.286C659.242 125.286 665.164 121.38 668.652 118.44C670.842 116.613 668.977 114.387 667.253 115.227Z" fill="#031E03"/>
<path d="M524.615 113.799V54.285C524.535 48.7226 522.326 43.4205 518.474 39.5423C514.623 35.6642 509.442 33.5271 504.07 33.6C488.169 33.6 479.611 42.609 476.447 47.103C474.748 42.9526 471.867 39.4369 468.19 37.0245C464.512 34.6121 460.212 33.4175 455.861 33.6C446.617 33.5815 437.741 37.3571 431.179 44.1V37.191C431.179 35.595 430.043 34.293 427.549 35.343C422.539 37.443 407.815 44.604 405.544 45.843C403.272 47.082 404.104 50.295 406.233 50.043C407.369 49.896 407.389 50.967 407.389 51.744V114.072C407.389 117.957 406.7 119.553 405.037 120.897C404.759 121.067 404.545 121.329 404.431 121.642C404.316 121.954 404.308 122.297 404.407 122.615C404.506 122.933 404.707 123.206 404.976 123.39C405.245 123.574 405.567 123.658 405.889 123.627H432.68C433.001 123.658 433.323 123.574 433.592 123.39C433.862 123.206 434.062 122.933 434.162 122.615C434.261 122.297 434.252 121.954 434.138 121.642C434.024 121.329 433.81 121.067 433.532 120.897C431.848 119.532 431.179 117.894 431.179 113.799V50.967C434.019 48.3 437.892 44.1 442.334 44.1C450.304 44.1 452.576 50.925 452.576 58.485V113.841C452.576 118.041 451.927 119.574 450.223 120.939C449.945 121.109 449.732 121.371 449.617 121.684C449.503 121.996 449.494 122.339 449.593 122.657C449.693 122.975 449.893 123.248 450.163 123.432C450.432 123.616 450.754 123.7 451.075 123.669H477.887C478.206 123.694 478.524 123.606 478.79 123.421C479.055 123.235 479.252 122.962 479.348 122.645C479.444 122.329 479.434 121.988 479.32 121.679C479.206 121.369 478.994 121.108 478.718 120.939C477.035 119.574 476.366 117.936 476.366 113.841V54.327V53.991C479.144 50.61 484.154 44.079 490.563 44.079C498.533 44.079 500.805 50.904 500.805 58.464V107.31C500.805 111.638 502.465 115.788 505.42 118.848C508.376 121.908 512.384 123.627 516.563 123.627H526.116C526.437 123.658 526.759 123.574 527.028 123.39C527.297 123.206 527.498 122.933 527.597 122.615C527.696 122.297 527.688 121.954 527.574 121.642C527.459 121.329 527.245 121.067 526.967 120.897C525.284 119.532 524.615 117.894 524.615 113.799Z" fill="#031E03"/>
</g>
<defs>
<clipPath id="clip0_365_263">
<rect width="750" height="126" fill="white"/>
</clipPath>
</defs>
</svg>
