<svg id="Layer_1" data-name="Layer 1" xmlns="http://www.w3.org/2000/svg" viewBox="0 0 567.84 405.58"><defs><style>.cls-1{fill:#021602;}.cls-2{fill:#d0a13d;}</style></defs><path class="cls-1" d="M347,100c23-1.07,45.92,1.42,68.47,5.22,58.58,9.88,104.45,40.06,136.71,90a95.29,95.29,0,0,1,15.47,46.26c2.15,32.42-13.58,53.42-40,68.23-17.86,10-37.7,12.13-57.87,13.25-14,.79-26-6.2-39.21-7.85-5.65-.7-11-3.22-17.74-3.37,7.64,12,15.49,22.67,25.51,31.59,7.82,7,16.39,13.15,22.09,22.24,1.07,1.71,2.59,2.9,5.06,1.8,3.45-1.53,3.75.95,3.32,3.29-.56,3-2.77,4.85-5.31,6.29a30.37,30.37,0,0,1-14.36,3.77c-10,.25-20-.1-29.55-3.68-8.83-3.33-16.72-1.8-23.92,3.81-5.91,4.61-11.66,9.42-17.31,14.34-10.93,9.51-23.1,11.91-36.71,6.88-19.54-7.2-39.52-12.95-59.51-18.72-22.06-6.37-40.3-1.55-54.72,16.76-5.7,7.24-13.12,7.18-18.92-.06-7.75-9.68-11.38-21.43-15.08-33-5.42-16.84-8.05-34.32-9.82-51.9-.53-5.33-1.77-6.18-6.61-3.6-11.68,6.22-24.36,9.72-36.68,14.25-5.69,2.09-11.42,2.31-16.91,3.85-30,8.41-56.18-2.08-81.37-16.28C25.1,304,18.24,287.27,15.24,269.21c-7.36-44.44,7.29-80.71,41.53-109.7,35.68-30.19,77-48.38,122.22-58.32,20.82-4.57,41.69-9,63.2-8.27,2.67.08,5.36,0,7.83,1.23.91.44,1.9,1.07,1.72,2.19s-1.39,1.2-2.37,1.24c-4.49.21-9,.24-13.47.64-6.12.55-7.14,2.78-4.11,8.17,2.28,4.06,4.58,8.12,6.62,12.3a35.18,35.18,0,0,0,21.7,18.67c5.22,1.68,10.48,3.29,15.8,4.61,4.47,1.11,8.73,2.18,10.26,9.21,1.55-6.27,4.55-6.58,8.87-6.29a78.74,78.74,0,0,0,36.1-6.27c12.79-5.41,19.12-16.47,23.81-28.77,1.05-2.73-.49-2.95-2.54-3.26-3.23-.49-6.5-1.14-6.3-5.59l-.05.12c1.15.39,1.83.33,1.1-1.11ZM232.53,223.19c-1.61-1.75-3.08-.08-4.46.35-13.64,4.17-26,11-37.95,18.63-17.47,11.18-33.48,24.87-53.63,31.52-3.72,1.23-4.75,4.34-4.69,8,.08,4.16.27,8.32.11,12.48-.22,6-.77,12-1,17.94-.27,5.72.72,6.45,6.38,4.93,2.41-.65,4.8-1.37,7.19-2.07,19.1-5.58,37.88-12,53.46-24.95,13.58-11.24,26.69-23,40-34.65a8,8,0,0,0,3-4.6c-3.3.93-6,1.77-8.7,2.44-2,.47-4.07.83-5.4-1.27s-.24-3.95,1.06-5.46c2.46-2.87,5.15-5.54,7.81-8.36-4.51.29-8.59,2-12.67,3.82-1.54.68-3.25,1.13-4.66-.3s-.7-3.16-.06-4.67a16.68,16.68,0,0,1,4.93-6.19c3.06-2.56,6.16-5.06,9.22-7.6l-.1-.77-.32.27ZM90,276.09c13-1.74,26.61-4.1,39.33-9.87C140.2,261.28,151,256.14,161.82,251a73.27,73.27,0,0,0,8.62-5,6.07,6.07,0,0,0,3-5.94c-1.56-14,.63-27.92,2.06-41.79.86-8.4.64-17,3.65-25.1.61-1.65,2.15-3.31.41-5s-3.5-.49-5.19,0c-31.34,9.08-58.51,25.35-81.85,48-9.3,9-18.58,18.27-24.27,30.21-7.39,15.53-1.81,26.09,15,29C85.22,275.66,87.22,275.78,90,276.09Zm362.33-18.54c8.32.05,16.65-.17,24.84-1.87,10.32-2.13,19.69-6.16,26.91-14.2,3.88-4.32,4.17-7.17,1-12.09a49.1,49.1,0,0,0-10.16-11.62c-21.83-18-46.51-30.18-74.32-35.78-4.9-1-9.87-1.6-14.72-2.73-7.93-1.85-9.41-1-10.76,7.37q-2.58,16-4.92,32.08c-.94,6.43-1.47,12.84-.43,19.38.93,5.83,3.9,8.88,9.53,10.68C416.56,254.31,434.12,257.64,452.29,257.55ZM322.71,226A76.54,76.54,0,0,0,334,236.44c1.7,1.24,4.1,2.54,3.06,5.1-1.12,2.77-3.91,2.83-6.47,2.45-4.38-.65-8-3.26-11.87-5.06-1.64-.75-3.63-3.28-5.12-1.21-1,1.45.8,3.71,2.34,5.08a12.47,12.47,0,0,0,3.56,2.65c3.61,1.37,6,4,8.36,6.87,10.06,12.42,21.75,22.9,35.86,30.62,26.4,14.46,55.44,20.44,84.42,26.67,2.36.51,3.45-.18,3.54-2.63.36-9.82,1-19.63-1.45-29.32C447.37,266,446,265,434.17,264.14c-19.81-1.51-38.59-7.08-56.48-15.56-6.2-2.94-12.57-6.6-15.36-13-4-9.25-11.7-14.75-18.75-21-2.6-2.3-5.69-4.08-9.65-3.26.38,3.3,2.49,5.53,4.43,7.71,2.76,3.11,5.85,5.91,8.76,8.89,1.4,1.44,3,3,1.53,5.19s-3.66,1.38-5.47.61c-2.6-1.1-5-2.63-7.55-3.86C331.8,228,328.13,225.55,322.71,226Zm-56-57.09c-13,.11-21.39,7.06-22.56,18.11-.66,6.23,1.13,11.81,4.14,17.15,7.6,13.44,20.36,20.09,33.83,25.78a5.64,5.64,0,0,0,5.68-.89c6.37-4.8,12.94-9.36,19-14.48A45.12,45.12,0,0,0,323,184.28c.54-4.59-3.87-13.34-8.23-15.28-10.77-4.81-20.15-3.18-28,5.49-3.1,3.43-5,4.52-8.13.09A12.76,12.76,0,0,0,266.66,168.92Zm96.2-11.41c3.64.11,9.44-3,9.34-4.94s-1.75-2.35-3.24-2.14c-3.43.47-7.16.95-8.63,4.66C359.58,157,361.57,157.4,362.86,157.51ZM211.6,179.76c-1.9.19-4.54,0-4.45,3,.07,2.57,2.36,2.92,4.41,2.79s4.75-.39,4.72-3.18C216.25,179.85,213.87,179.71,211.6,179.76Zm53.13,93.38c2.49-3,2.91-6.13,3.6-9.09a2.11,2.11,0,0,0-.34-1.77c-.69-.59-1.57-.22-2.22.35C262.49,265.47,262.61,268.79,264.73,273.14ZM224.09,151.2c-.81-3.23-3.79-3.69-6.35-4.65-1-.38-2.58.13-2.24,1a8.78,8.78,0,0,0,6.07,5.34A1.8,1.8,0,0,0,224.09,151.2Zm82.84,117c.49,2.08.75,4.62,3.25,5.42,1.5.48,1.81-1.23,1.6-2.29-.46-2.33-.48-5.3-3.22-6.08C306.65,264.71,307.22,266.89,306.93,268.2Zm61.29-86.88c-.53-2-2.1-2.7-4-2.69-1.49,0-2.61.81-2.47,2.37.21,2.3,2.12,2.71,3.94,2.73A2.29,2.29,0,0,0,368.22,181.32ZM215.49,213.9c1.8-.48,3.55-1.32,3.77-3.35.18-1.67-1.31-2.19-2.74-2-1.7.21-3.27.86-3.44,2.91C213,213,213.81,213.88,215.49,213.9Z"/><path class="cls-1" d="M346.11,101c-8.49,5.37-17.85,8.71-27.4,11.58-11.26,3.38-21.43,1.13-30.3-6.5-2.63-2.26-6.06-5.86-4.1-8.7,1.75-2.52,5.15,1.22,7.51,2.65,20.59,12.54,51.13,5.2,65.67-16.09,10.93-16,14.22-33.42,9.31-52.34-2.94-11.32-10.6-17.78-21.11-21.4-25.6-8.81-45-1.61-62.85,15.92-2.59,2.55-1.63,5.06-.81,7.81.29,1,1.15,2.3-.27,3.12-1,.59-1.92-.18-2.75-.69-1.55-1-3-2-4.59-3-4.87-3-9.1-2.71-13.85.94-3.94,3-5.16,7.41-3.48,12.54s5.28,7.72,10.84,7.84c1.67,0,3.34-.08,5,.07,2.89.25,4.8,1.15,2.2,4.29-.5.6-1.57,1.33-.74,2,3.72,3.17,1.13,6.63.12,9.52-5.56,15.93-10.23,32-10,49.26-4.48-2.26-5.54-3.53-5.2-8.65,1.13-17.13,4.78-33.59,14-48.41a7.42,7.42,0,0,0,.51-1.28c-.33-.26-.6-.64-.78-.6-12.91,3-22.23-6.65-20.41-21.16a20.07,20.07,0,0,1,9-14.9c4.08-2.7,8.24-3.67,12.44-.31,3.09,2.46,5.05,1.43,7.36-1.45,7.13-8.91,15-16.88,26.42-20.51s22.64-3.14,34.35-.16c20.42,5.19,30.11,18.12,31.25,38.52.17,3.16.63,6.31,0,9.45C369.59,69.58,362.29,86.93,347,100l.17,0c-.67.08-1.22.27-1.1,1.11Z"/><path class="cls-1" d="M449.49,88.43c9.71,1.22,18.8,4.94,27.76,8.91a277.2,277.2,0,0,1,54.91,32.26c4,3,8.3,5.51,12.42,8.31a24.92,24.92,0,0,1,3.83,3.11,2.6,2.6,0,0,1,.6,3.21c-.8,1.26-2.07.83-3.12.32a72.76,72.76,0,0,1-6.62-3.44c-29.42-18.22-59-36.09-92.22-46.88-1.57-.51-3.54-.94-3-3.19C444.71,88.24,447.2,88.58,449.49,88.43Z"/><path class="cls-1" d="M61,122.91c3,.09,3.91,1.56,2.9,3.94s-3,3.94-5,5.41c-19.22,13.63-37.25,28.51-51,48-1.3,1.83-2.64,5.16-5.7,3.41C-.42,182.15-.19,179,.35,176.33c.89-4.4,3.63-7.81,6.47-11.07,14.48-16.65,32.57-28.84,50.74-40.92A17.94,17.94,0,0,1,61,122.91Z"/><path class="cls-1" d="M62.58,101c-.09,1.65-1.39,2.28-2.6,2.69C44.82,108.9,31,117,16.24,123.1c-1.39.58-3.19,2.07-4.36-.11-1-1.77.37-3.26,1.68-4.25A49.52,49.52,0,0,1,21,113.8C33,107.89,45.52,103.51,58.22,99.58,61.33,98.62,62.57,99.35,62.58,101Z"/><path class="cls-1" d="M460.18,69a187.29,187.29,0,0,1,23.6,7.64,64.51,64.51,0,0,1,13.47,6.42c.79.53,1.87,1.13,1.41,2.3s-1.63,1.06-2.61.93a8.17,8.17,0,0,1-2.85-.79c-10.76-5.89-22.59-8.68-34.25-12-1.33-.38-3.58-.35-3.36-2.18S457.83,69.13,460.18,69Z"/><path class="cls-1" d="M337.31,78.91a10.79,10.79,0,0,1-1.9,6c-2.21,3.9-4.37,7.82-6.62,11.7-1.49,2.56-3.37,4.71-6.77,3.71a8.87,8.87,0,0,1-6.76-7.78c-.34-2.79,1.51-3.42,3.33-1.77,4.67,4.26,7.15.76,9.43-2.54,2.15-3.13,3.77-6.63,5.7-9.92.56-.94,1.14-2.36,2.51-2S337,78.31,337.31,78.91Z"/><path class="cls-1" d="M308.93,65.63c-.35,1.93-.73,3.86-1,5.79-.26,1.65-.58,3.45,1.13,4.48s3.23.33,4.66-.59c1.95-1.26,3.8-2.66,5.76-3.88.91-.57,1.87-1.57,3.09-.48.87.78.73,1.79.61,2.76C322.45,79,313,84.68,308,82.76A6.08,6.08,0,0,1,304,77C303.7,72.54,304,68.22,308.93,65.63Z"/><path class="cls-1" d="M326,53.65c-3.9-.74-9.78,0-9.6-5,.19-5.25,6.11-3.77,9.79-3.74s9.46.81,9.32,4.63C335.34,53.82,329.5,52.85,326,53.65Z"/><path class="cls-1" d="M268.26,36.84c3.86.65,8.13,1.27,9.61,6.13.82,2.73.14,4.76-3.33,4.27-3.13-.44-6.29-.91-9-2.73-1.94-1.3-4.26-2.74-3.22-5.5C263.24,36.59,265.75,36.76,268.26,36.84Z"/><path class="cls-1" d="M352.58,77.94c1.67,5-.24,10-4.54,12-3.37,1.54-6.56-.32-7.58-4.65a12.38,12.38,0,0,1-.1-4.89c.28-1.54.49-4,2.2-4.06,2.39-.09,1.41,2.42,1.63,3.85s.51,3.12,2.24,3.43,2.51-1.22,3.29-2.5S350.82,78.26,352.58,77.94Z"/><path class="cls-1" d="M362.13,60.36c.24,1.88,0,2.82-.92,3.43a2.33,2.33,0,0,1-2.78-.23,22,22,0,0,1-7-8.25c-.66-1.43-.86-3,.65-4,1.35-.92,2.56-.12,3.56.8C358.43,54.69,361.12,57.37,362.13,60.36Z"/><path class="cls-1" d="M302.6,91.77l5.15,5.64c1.17,1.3,2.19,2.81.58,4.29a3.65,3.65,0,0,1-5.35-.3C300.21,98.56,300.53,95.37,302.6,91.77Z"/><path class="cls-2" d="M266.66,168.92a12.76,12.76,0,0,1,12,5.66c3.1,4.43,5,3.34,8.13-.09,7.84-8.67,17.22-10.3,28-5.49,4.36,1.94,8.77,10.69,8.23,15.28a45.12,45.12,0,0,1-16.22,30.31c-6.09,5.12-12.66,9.68-19,14.48a5.64,5.64,0,0,1-5.68.89c-13.47-5.69-26.23-12.34-33.83-25.78-3-5.34-4.8-10.92-4.14-17.15C245.27,176,253.65,169,266.66,168.92Z"/></svg>