<svg id="Layer_1" data-name="Layer 1" xmlns="http://www.w3.org/2000/svg" viewBox="0 0 182.33 255.9"><defs><style>.cls-1,.cls-3{fill:#d0a13d;}.cls-1{stroke:#031e03;stroke-miterlimit:10;stroke-width:6px;}.cls-2,.cls-5{fill:#031e03;}.cls-4{fill:#f8f4ee;}.cls-5{fill-rule:evenodd;}</style></defs><path class="cls-1" d="M113.35,196.18l31.72,12.88a9.72,9.72,0,0,1,5.6,11.95c-4,12-17,31.89-59.41,31.89-43.1,0-70.16-18.43-82.8-29.88a9.71,9.71,0,0,1,1.17-15.25l21.28-14.14A9.59,9.59,0,0,1,36.73,192l73.44,3.4A11.52,11.52,0,0,1,113.35,196.18Z"/><polygon class="cls-2" points="9.99 220.95 5.3 211.33 20.34 198.25 51.87 181.14 52.65 186.93 9.99 220.95"/><path class="cls-3" d="M25.4,228.09c-.08,0-.14-.11-.22-.13-1.77-.47-3.53-1-5.31-1.4-2.87-.69-.68.22-3.09-.74a25.83,25.83,0,0,1-3.69-2.48c-.83-.56.47,0-.76-.56-.44-.91-2-2.05-2.5-2.68-.69-.94-2.24-3.24-1.22-3.76.44-.23-.83-.87-.44-1.18a1,1,0,0,0,.25-1.43.56.56,0,0,1-.07-.37,3,3,0,0,1,.52-1A4.31,4.31,0,0,0,10,210.6c.09-.28.23-.54.35-.82a.91.91,0,0,1,.05.42,3.55,3.55,0,0,0,.49,2,1.45,1.45,0,0,0,.34.31c.1-.11.25-.22.29-.35a6.48,6.48,0,0,0,.22-1.15c0-.42,0-.85,0-1.27a1,1,0,0,1,.67-.9l.15.29a1.42,1.42,0,0,0,2.26.72,3,3,0,0,0,.44-.29,12.6,12.6,0,0,0,3.58-5,3.07,3.07,0,0,0,.12-.5c-1,.29-1,1.2-1.43,1.91a3.28,3.28,0,0,1,.23-2.22c.11-.17.18-.24.41-.14a2.94,2.94,0,0,0,3.39-.68c.35-.37.65-.8,1-1.17s.55-.47.82-.7a1.18,1.18,0,0,1,0,.48,9.11,9.11,0,0,0-.28,1.63c0,.56.34.69.83.4a2.37,2.37,0,0,0,1.17-2c0-.45.27-.6.58-.6a3.14,3.14,0,0,1,1,.29,2.46,2.46,0,0,1,.47.35c0-.21.05-.32.06-.43a5.5,5.5,0,0,1,1-2.92,3.56,3.56,0,0,1,1-.88c.26-.18.52-.16.64.26a1.24,1.24,0,0,0,1.27.83c.41,0,.65-.28.84-.88a3.43,3.43,0,0,1,.13-.38l.35.06c.57.1.72,0,.68-.62a4.09,4.09,0,0,1,0-.7,1.48,1.48,0,0,1,1.83-1.24,3.17,3.17,0,0,0-1.11,1.43c.84-.19,1.57-.3,2.27-.53a.7.7,0,0,0,.26-1.18,3.06,3.06,0,0,0-.59-.31l1.07-1.41c.2.55.36,1,.51,1.37.07.21.19.33.43.21,1.42-.73,2.87-1.41,4.25-2.2a4.69,4.69,0,0,0,1.25-1.33c.24-.32.14-.5-.28-.54s-.62,0-.92,0c-.58,0-.66-.14-.68-.77l.46-.07c.53-.08,1.07-.14,1.6-.24a.69.69,0,0,0,.46-.28c.05-.08-.14-.29-.27-.52l1.76-.4a.37.37,0,0,1,.5.28.7.7,0,0,0,.84.48c.78-.1,1.57-.19,2.34-.35,1.45-.28.88,0,1.72-1.32a2.26,2.26,0,0,1,.47-.51c.35-.29.49-.24.57.2s.29.61.64.22l6,9.12Z"/><path class="cls-2" d="M171.86,91.62h6.37c3.13,0,3.82.6,4,3.82a120,120,0,0,1-.48,18.38,38.56,38.56,0,0,1-1.27,6.91c-.2.66-.38,1.31-.63,2-2.93,7.52-7.71,12.68-16.43,12.52-2.51,0-3.24,1.15-3.45,3.38-.68,7.08-1.06,14.2-2.2,21.24-1.91,11.85-8.19,20.65-18.5,26.63-3.12,1.82-6.68,2.43-10.21,2.91-3.75.51-7.46,1.34-11.27,1.37a1.87,1.87,0,0,0-1.93,1.56,17.87,17.87,0,0,0-.69,5.63c.08,5.68.2,11.37.21,17.05,0,6.6-2.92,9.83-9.39,10.88-11,1.79-21.67.07-32.29-3C64,220.09,54.76,216.65,47,210.22a112,112,0,0,1-15.13-15,4,4,0,0,1-.75-4.16,122.15,122.15,0,0,0,4.1-18.61c.21-1.43.5-2.83-1.94-2.13-1.82.51-2.79-.85-3.26-2.43A25.48,25.48,0,0,1,29,161.13a15.89,15.89,0,0,0-.3-2.92c-.78-3.81-2.78-6.31-6.37-8.38-11.22-6.42-17-16.49-17.37-29.4a17.5,17.5,0,0,1,3-10.75c1.17-1.66.59-3.27-.21-4.91A67.75,67.75,0,0,1,2.55,90.41c-.37-1.6,1.17-3.62,1-5.26-.24-1.92-2.2-3.47-2.19-5.45a120.63,120.63,0,0,1,1.08-17c.18-1.19,2.44-1.19,2.68-2.38s-1.51-3.7-1.17-5c1.6-6,5.15-10.79,9.7-14.79,2.79-2.42,6.06-4,10-3.6,1,.12,1.44-.23,1.6-1.12C27.47,22.84,37,16,47.49,10.39,57.83,4.83,69,2.78,80.78,2.82a345.87,345.87,0,0,1,38.07,2.57,95,95,0,0,0,21.78,0,14.53,14.53,0,0,0,6-1.91,2.91,2.91,0,0,1,3.59,0c1.28,1,1,2.23.49,3.49a40.55,40.55,0,0,1-1.87,4.62c-1.15,2.11-.29,2.94,1.67,3.6a87.57,87.57,0,0,1,8.69,3.29c9.64,4.42,16.76,11.25,19.11,21.91C181,52.59,176.77,63,169,72.25a7.38,7.38,0,0,1-2.8,2.28c-4.26,1.6-4.76,4.79-4.22,8.71a39.83,39.83,0,0,1,.18,6.37c0,1.62.67,2.13,2.19,2.08,2.5-.07,5,0,7.5,0Z"/><path class="cls-4" d="M129.32,110.75a2.06,2.06,0,0,0-3.11-.78c-1.2.72-.87,2.07-.46,3.08,1.93,4.66,4.9,8.68,8,12.6a21.68,21.68,0,0,1,1.8,2.34,6.74,6.74,0,0,1-4.07,10.14l-1.1.28c-1.43.37-2.34,1.24-2.05,2.76s1.63,2,3,1.75a10.9,10.9,0,0,0,8.33-5.29,2.47,2.47,0,0,1,2.7-1.42,79.92,79.92,0,0,0,11.58-.12c1.53-.12,2,.35,1.9,1.88-.74,8.08-1.1,16.31-3.18,24.07-3.26,12-10.68,20.5-23.91,22.54a129.07,129.07,0,0,1-47.91-1.16c-10-2.21-19.25-6.2-26.82-13.52-3.59-3.47-5.92-7.64-8-12-1.27-2.73-2.43-5.54-3.71-8.28a4,4,0,0,0-5-2.46c-9.3,2.46-15.81-1.82-21-8.88a35.33,35.33,0,0,1-5.46-10.15c-2.11-6.58-1.23-12.69,3-18.25,1.82-2.39,4.1-3.06,7-2.56,6.83,1.19,10.1,6.29,12.89,11.74,1.6,3.13,2.5,6.64,3.71,10l.4,1.07c1.21,3.22,3,4.78,5,4.34s3.64-3.33,3.38-6.31a52.71,52.71,0,0,0-2.69-11.7,46.46,46.46,0,0,1-2.27-9,7.26,7.26,0,0,1,1.36-5.51,29.73,29.73,0,0,0,4.17-7.93c.25-.73-.37-1.8-.16-2.55.14-.5,1.42-.14,1.54-.65A32.1,32.1,0,0,0,48.33,87c.08-.8.23-1.6.38-2.39,0-.18,0-.27-.13-.34-1.28-.55.23-1.37.36-1.55.32-.46.17-.34.22-.87,0-.33-.43.14-.4-.19s-.12-.81-.1-1,.34-.89.35-1.11.55-.12.56-.3-.16-.58-.15-.76a20.06,20.06,0,0,0-.19-4.31c-.32-1.9.53-2.66,2.23-2.9A29.49,29.49,0,0,0,62.6,67.63c6.46-3.8,10.14-9.82,13.34-16.25a38.31,38.31,0,0,0,2.34-5.66c.55-1.79,1-2.14,2.59-.79a47.46,47.46,0,0,0,16.84,9.65c10.56,3.34,21.34,4.75,32.27,2.51A53.51,53.51,0,0,0,146.83,50c1.59-1,2.31-.55,3.32.63,2.41,2.82,3.29,6.26,4.14,9.72a132.4,132.4,0,0,1,3.61,28.79c0,2-.62,2.62-2.58,2.65q-45.24.69-90.49,1.48c-2.57.05-5.15.13-7.74.26-3.46.19-4.35,1.14-4.38,4.66-.05,6.87,2.42,13.19,4.25,19.66s5.6,11.83,10.38,16.53a18.8,18.8,0,0,0,12.19,5.43,79.19,79.19,0,0,0,21.5-1.24,17.87,17.87,0,0,0,13.27-10.3c3.5-7.42,4.35-15.38,5-23.41.15-2,.31-3.92.43-5.91.07-1.2.61-1.82,1.85-1.79,1.06,0,2.12,0,3.19,0,4.72-.11,4.73-.12,4.89,4.73.09,2.35.14,4.7.2,7.05C129.87,109.57,130.53,110.42,129.32,110.75Z"/><path class="cls-4" d="M42.45,161.83a6,6,0,0,1,1.34,2.34,15.26,15.26,0,0,0,3.08,5.26C52.13,175,57.84,180,65,183.2a92,92,0,0,0,39.1,7.77c2,0,3.94,0,5.92-.06,1.14,0,1.72.18,1.49,1.49-1.34,7.67-.62,15.42-.8,23.13-.07,3.41-.72,4.47-4,5.34-6.28,1.64-12.7,1.29-19,.3a106.64,106.64,0,0,1-26.91-7.94c-7.59-3.39-13.39-8.95-19.12-14.7-5.58-5.58-5.75-5.51-3.82-13,1.82-7.06,2.49-14.31,3.91-21.43A4.28,4.28,0,0,1,42.45,161.83Z"/><path class="cls-4" d="M84.66,98.26c10-.83,20.53.21,29.82-.49,1.14-.09,2,.07,1.86,1.51a102,102,0,0,1-5.19,24.32c-2.18,6.16-6.15,9.81-12.78,10.61a64.57,64.57,0,0,1-20.26-.85c-3.11-.58-5.46-2.27-7.74-4.42-8-7.6-10.51-16.45-12.51-26.55-.76-3.86-1.54-4.18,3.64-4.14C69.46,98.3,77.41,98.26,84.66,98.26Z"/><path class="cls-4" d="M155.87,97c6.59-.37,14.47-.18,21-.72,1.47-.12,2.3.21,2.27,1.92-.15,6.82-2.07,13.79-3.62,20.46a23,23,0,0,1-2.38,6.1,10.43,10.43,0,0,1-8.93,5.76c-6.81.34-12.94,1.35-19.77,1.33-2.06,0-3.23-.45-3.46-2.82s-2-4.4-3.62-6.16a9,9,0,0,1-1.87-2.91,9.05,9.05,0,0,1-.6-3.41,147.79,147.79,0,0,0-1.07-17.21c-.22-1.66.26-2.37,2-2.36C142.55,97,149.21,97,155.87,97Z"/><path class="cls-2" d="M27.73,128.07c-1.17-2-2.16-3.28-2.39-4.9-.19-1.32,0-2.51,1.44-2.93a2.14,2.14,0,0,1,2.85,1.48,13,13,0,0,0,3.09,4.17,17.14,17.14,0,0,1,3.91,6c.95,2.59.34,4.71-1.64,6-2.16,1.44-4.26,1.17-6.37-.8a.57.57,0,0,1-.16-.15c-1.37-2.12-2.69-3.76-5.19-1.13-.86.91-2.15.22-3.19-.35-6.38-3.57-9.46-13.83-6-20.27a8.24,8.24,0,0,1,13.58-1.59c.95,1.08,1.29,2.28.28,3.47s-2.08.65-3.15-.18c-1.41-1.09-2.84-2.54-4.87-1.52s-2.45,3.14-2.58,5.22c-.24,3.64,1.21,6.61,3.56,9.26.69.79,1.16.84,1.61-.19C23.4,127.64,24.85,126.63,27.73,128.07Z"/><path class="cls-2" d="M99.64,113.82a8.92,8.92,0,0,1-3.55,7.2c-3.71,2.82-8.13,0-8.78-5.15-.19-1.28-1-2.56-.63-3.81a9.77,9.77,0,0,1,1.66-3.47c2.78-3.64,7.38-3.47,9.81.42C98.59,110.46,99.55,112.12,99.64,113.82Z"/><path class="cls-2" d="M161.64,112.59c0,3,.35,6,.27,8.88a28.77,28.77,0,0,1-.52,4.72c-.28,1.43-.92,2.56-2.68,2.25-1.58-.28-2-1.43-1.85-2.88q.31-4.75.54-9.51c.22-4.55.54-9,.38-13.59-.05-1.5-.22-3.41,1.9-3.46s2.4,1.82,2.39,3.59c0,3.33-.43,6.57-.43,9.89Z"/><path class="cls-2" d="M142.32,112.74a8,8,0,0,1,1.86-5.8c2.46-2.82,5.14-1.94,7.25,1.21,1.76,2.66,2,6.68-.08,9.12-2.73,3.24-6.86,2.57-8.46-1.37A9.44,9.44,0,0,1,142.32,112.74Z"/><polygon class="cls-2" points="115.43 217.85 113.5 221.03 111.38 223.76 111.71 198.56 117.12 200.77 115.43 217.85"/><path class="cls-3" d="M118.76,202.9l-2.27-1c.39.75.21.85-.28.63s-.52-.09-.49.36a2.58,2.58,0,0,0,.15.68c.6,1.44.18.57-.41,1.92-.32.72,1.51,2.4,1.15,3.1-.19.35.21.43-.19.31s-1.09-.26-1.19,0c-.23.57,0,1.26-.22,1.81.27,0,.55,0,.59.07a.69.69,0,0,1,0,.54c-.22.49-.48,1-.72,1.45l-.21.41c.54.36.67.34,1-.11.19-.24.33-.52.53-.75s-.21-.2-.08.19a4.93,4.93,0,0,1,.37,1.78c-.14,1.59-.42,3.16-.64,4.74,0,.26-.2.3-.42.24l-1.41-.37.54,1.68a2.71,2.71,0,0,1,.59-.3.7.7,0,0,1,.82.89,23.24,23.24,0,0,1-.87,2.16,3.18,3.18,0,0,1-.53-1.73,1.49,1.49,0,0,0,0,2.22l8.83-2.13Z"/><path class="cls-2" d="M22,46.93a99.67,99.67,0,0,1,4.38-14.09c.24-.66-.62-.71-.23-1.33.28-.44.65-.83.88-1.28a7.75,7.75,0,0,0,.49-1.4A12.64,12.64,0,0,1,29.37,25a39.79,39.79,0,0,1,7.75-8.77,6.66,6.66,0,0,0,1.08-1,8.07,8.07,0,0,0,.59-1,3,3,0,0,1,.67-.92c1-.68,1.95-1.32,3-1.93a3.31,3.31,0,0,1,3-.33c.21.08.43.14.68.22a2.78,2.78,0,0,1,.76-2.7,10.46,10.46,0,0,1,1.8-1.58,21.17,21.17,0,0,1,5.15-2.56c2.07-.74,8.06-1,10.16-1.66,1-.3,2.13-.59,3,.27a3.57,3.57,0,0,1,2.2-1.63,17.77,17.77,0,0,1,2-.52c3.54-.66,6.94-.62,9.91,1.26.2.12.42.22.7.36L82.2.61c.77.12,1.58,0,2,.76a3.9,3.9,0,0,1,.53-.63.61.61,0,0,1,.5-.12A2,2,0,0,0,87.12.51l1-.51.2.08L88,1.83C89.28,1.46,90.5.72,91.89.67L92,.83,90.83,2.14a5.42,5.42,0,0,0,1.11,0c.58-.1,1.15-.3,1.72-.44.82-.21,1.63-.44,2.45-.6.3-.06.72-.17.82.3a4.76,4.76,0,0,0,.23.82c0,.14.16.35.25.35a.7.7,0,0,0,.44-.25,2.82,2.82,0,0,1,2.48-1,7.58,7.58,0,0,0,1.58-.08c3-.62,19,4.88,25.58,4.81"/><path class="cls-2" d="M3.51,92.87a15.14,15.14,0,0,1-1.09-5.5,2.14,2.14,0,0,1,1-2,4.23,4.23,0,0,1-1.16-.94A9,9,0,0,1,.91,81.68C.48,79.28.23,76.84,0,74.4a2.87,2.87,0,0,1,.55-1.7,1,1,0,0,0,.18-.89,8.57,8.57,0,0,1-.39-2.68,43.38,43.38,0,0,1,.92-4.89A3.43,3.43,0,0,1,3,61.77a1,1,0,0,0,.57-1.07.6.6,0,0,1,.5-.77c.6-.15.69-.5.55-1a4.76,4.76,0,0,0-.24-.84,5.24,5.24,0,0,1,0-4.3A26.23,26.23,0,0,1,9.46,45.6"/><path class="cls-5" d="M112.25,162.18a13.07,13.07,0,0,0,7.8-1.56c1.22-.68,3.1-1.75,3.57-3.17.24-.72-.15-2.34-.93-2.63s-1.89.49-2.61.94a14.13,14.13,0,0,1-8.36,2.51,18.31,18.31,0,0,1-8.19-2.51,32.27,32.27,0,0,1-3.25-2.3c-.61-.45-1.94-.67-1.75.81a32.41,32.41,0,0,0,5.83,5.35A20.64,20.64,0,0,0,112.25,162.18Z"/><path class="cls-5" d="M153,82c-.55.88-1.93-.07-2.59-.13a16,16,0,0,0-3.18.16c-1.25.15-2.44.21-3.68.44-1,.18-2.87,1.51-3.7.49-1.89-2.32,4.71-4.08,5.95-4.08C147.55,78.89,152.84,79.44,153,82Z"/><path class="cls-5" d="M93.09,78.79c1.27-.15,8.29.85,6.62,3.48-.72,1.14-2.82,0-3.87-.06-1.3-.09-2.54,0-3.85,0a16.61,16.61,0,0,0-3.29.23c-.68.14-2,1.29-2.65.45C85.89,80.22,91.27,79,93.09,78.79Z"/></svg>