<svg id="Layer_1" data-name="Layer 1" xmlns="http://www.w3.org/2000/svg" viewBox="0 0 374.64 297.52"><path d="M0,137.42Q0,85.31,0,33.19c0-7.84,2.15-14.5,9.26-18.79C14,11.57,19,11.73,24.1,12.75a90.13,90.13,0,0,0,9.54,1.84c3,.27,3.52,1.68,3.52,4.37q-.09,95.61,0,191.22a49.53,49.53,0,0,0,1.58,13.65c2.1,7.19,8,10.68,15,12.08q65.23,13.2,130.55,26c3.15.62,6.69-.09,9.94-.73q63.09-12.52,126.13-25.2c10.46-2.08,16.62-8.95,17.12-19.63.12-2.5,0-5,0-7.5V21c0-5.83,0-6,5.55-6.86,5.39-.83,10.91-2.13,16.25-1.69,8.17.67,14.14,7.6,15,15.74a46.59,46.59,0,0,1,.29,4.86q0,104.61,0,209.21c0,12.7-5.25,19.29-17.57,21.77-55.39,11.15-110.76,22.34-166.22,33.15-4.73.92-10.07-.48-15-1.46Q96.42,279.9,17,263.81c-11.81-2.39-17-8.87-17-21Q0,190.1,0,137.42Z"/><path d="M177.67,17.26V237c-7.61-1.44-14.94-2.81-22.27-4.22q-47.93-9.26-95.87-18.45c-2.49-.47-3.29-1.32-3.29-3.82q.09-95.4.08-190.81C56.33,8,63.94-2.61,81.82.64c30.55,5.55,61.21,10.5,91.82,15.72C175,16.59,176.29,17,177.67,17.26Z"/><path d="M197,236.83V17.15c8.38-1.48,16.7-3,25-4.43Q259.11,6.47,296.2.33c11.81-1.94,20.65,4.9,21.94,16.78a61.25,61.25,0,0,1,.25,6.36q0,92.61.11,185.21c0,4.08-1.15,5.43-5.12,6.17-37.52,7.05-75,14.33-112.47,21.53C199.71,236.61,198.46,236.67,197,236.83Z"/></svg>