<svg width="586" height="554" viewBox="0 0 586 554" fill="none" xmlns="http://www.w3.org/2000/svg">
<path d="M294.119 259.688V17.9617C294.119 8.22344 301.689 0 311.421 0C445.18 0 553.637 108.528 553.637 242.375C553.637 252.113 545.419 259.688 535.687 259.688H294.119ZM0 294.312C0 163.062 97.4271 54.4262 223.834 37.1137C233.782 35.707 242.216 43.7141 242.216 53.777V311.625L411.443 480.963C418.688 488.212 418.147 500.115 409.821 505.958C367.433 536.255 315.53 554 259.517 554C116.242 554 0 437.79 0 294.312ZM569.208 311.625C579.264 311.625 587.158 320.065 585.86 330.02C577.534 390.505 548.446 444.282 505.95 483.993C499.462 490.052 489.298 489.619 483.026 483.235L311.421 311.625H569.208Z" fill="black"/>
</svg>
