<svg width="45" height="41" viewBox="0 0 45 41" fill="none" xmlns="http://www.w3.org/2000/svg">
<g clip-path="url(#clip0_316_255)">
<path d="M21.25 19.25V1.79688C21.25 1.09375 21.7969 0.5 22.5 0.5C32.1641 0.5 40 8.33594 40 18C40 18.7031 39.4062 19.25 38.7031 19.25H21.25ZM0 21.75C0 12.2734 7.03906 4.42969 16.1719 3.17969C16.8906 3.07812 17.5 3.65625 17.5 4.38281V23L29.7266 35.2266C30.25 35.75 30.2109 36.6094 29.6094 37.0312C26.5469 39.2188 22.7969 40.5 18.75 40.5C8.39844 40.5 0 32.1094 0 21.75ZM41.125 23C41.8516 23 42.4219 23.6094 42.3281 24.3281C41.7266 28.6953 39.625 32.5781 36.5547 35.4453C36.0859 35.8828 35.3516 35.8516 34.8984 35.3906L22.5 23H41.125Z" fill="#A3BF98"/>
</g>
<defs>
<clipPath id="clip0_316_255">
<rect width="45" height="40" fill="white" transform="translate(0 0.5)"/>
</clipPath>
</defs>
</svg>
