<svg id="Layer_4" data-name="Layer 4" xmlns="http://www.w3.org/2000/svg" viewBox="0 0 569.77 470.61"><path d="M184.24,387.08c19.46,10.9,40.4,19.54,60.61,29l-1.66-9.66c-30.57,9.52-61.72,16.77-93.08,23.17-15.93,3.26-31.9,6.33-47.84,9.5-15.49,3.08-30.94,7-46.58,9.21-16.76,2.33-33.76,2.89-50.36,6.41L10.6,465q89.46-38.52,179.11-76.61c5.42-2.32-.44-12.06-5.14-10.06Q95,416.53,5.33,454.7C-.4,457.13,5.63,466,10.6,465c14.73-3,29.78-3.7,44.68-5.48,15.43-1.84,30.55-5.57,45.77-8.63,31.76-6.37,63.64-12.23,95.17-19.69,17.59-4.17,35.06-8.83,52.22-14.53,4.49-1.49,1.38-8.29-1.65-9.65-20.49-9.22-40.86-19.63-62-27.23-5-1.78-3.37,5.69-.53,7.28Z"/><path d="M153.67,366.19c-7.55-5.14-15-10.27-22-16.11-1.08-.9-3.24-2.2-4.73-1.45-11.74,5.91-22.1,13.46-32.59,21.31-11.21,8.41-22.31,17-33.11,25.89C39.25,414,18.82,433.87.82,456c-3.08,3.79,3.28,9.72,7,9,6.57-1.29,12.23-4.95,17.93-8.28l18.82-11L84.8,422.3Q124.6,399.1,164.42,376c4.61-2.68-2.39-12-7.19-9.21q-38.94,22.68-77.9,45.35L40.78,434.49,21.94,445.44c-6.19,3.59-12.26,7.83-19.39,9.22l7,9c17.5-21.57,37.5-40.86,58.85-58.58,10.34-8.57,21-16.81,31.69-24.89,10.29-7.74,20.45-15.56,32-21.39l-4.73-1.45a107.36,107.36,0,0,0,25.76,16.3c1.8.78,3.29-.64,3.52-2.3.3-2.11-1.37-4.05-3-5.14Z"/><path d="M151.69,367.43c-2,2.68-1.1,6.83-1.1,10a114.5,114.5,0,0,1-.68,12.83,8,8,0,0,0,4.74,8.1c3,1.25,5.59-.21,5.61-3.57v-1.07c0-4.38-8.87-11.06-10.17-4.45l-.19,1,10.35,4.53c.38-8.12,1.53-19.63-3.45-26.53-1.14-1.58-3.73-2.73-5.12-.85Z"/><path d="M6.71,465.14c8.49,2.39,17.56,2.95,26.32,3.67,9.08.75,18.19,1.2,27.3,1.48q26.82.85,53.65-.56,26.38-1.39,52.6-5c6.31-.85,14.89-1.11,16.82-8.62s1.14-16.69,1-24.39c-.1-5.74-10.68-11-10.49-3.21q.14,6.06,0,12.12c-.06,2.89.79,8.9-1.44,11.1-1.93,1.9-6.86,2-9.31,2.32q-5.76.87-11.55,1.64c-16.33,2.16-32.77,3.63-49.22,4.48q-24.28,1.26-48.6.66c-7.77-.19-15.54-.55-23.3-1-8.21-.44-16.64-1.58-24.85-.9-3.78.31-1.39,5.44,1,6.12Z"/><path d="M57,15.64a195.1,195.1,0,0,1,41.56-3.29c2.59.09,7.49-.93,7.57-4.29s-4.85-4.61-7.35-4.66c-7.92-.19-15.84-.11-23.75.15-6.91.24-14.65,1.9-21.54,1.19-4.72-.49-2.39,12,3.51,10.9Z"/><path d="M153.87,13.67a432.77,432.77,0,0,1,71.33,3c3.33.42,8.32-.8,10.07-4s-1.2-5.3-4.15-5.65c-26.82-3.17-54-2.34-80.87-4.17-6.18-.42-1.26,10.94,3.62,10.75Z"/><path d="M290.21,22.39c1.94-1.49,7.31.2,9.73.53,2.62.36,5.23.74,7.83,1.17,5.71.95,11.36,2.13,17,3.21,10.35,2,20.63,4.21,30.89,6.65,3.56.85,8.3-.4,10.72-3.25,2.07-2.45,1.55-5.76-1.95-6.44-13.9-2.7-27.82-5.26-41.85-7.2Q312,15.59,301.36,14.32c-5-.61-9.95-1.62-14.93-2-1.5-.12-4.21-.48-5.2,1-2.79,4.31,4.63,12.37,9,9Z"/><path d="M405.57,44.38c18.71,3.1,36,9.78,53.21,17.55,2.89,1.31,7.87,1.33,10.23-1.1s.22-5.12-2.36-6.22c-20.3-8.67-41.68-13.62-62.39-21-5.53-2-4,9.93,1.31,10.81Z"/><path d="M557.7,149.7c-2.1,7.1-1.46,14.6-2.15,21.9a141.68,141.68,0,0,1-3.82,22.21c-1.72,6.65,13.58,4.47,15.3-1.25,4-13.14,3.79-26.75-1.54-39.4-.89-2.12-6.27-8.64-7.79-3.46Z"/><path d="M548.66,224.3c.11,2.52-3.47,6.91-4.66,9-2.09,3.72-4.14,7.44-6.07,11.24-4.81,9.46-9,19-16.79,26.49-2.19,2.11-3.65,5.37-.32,7.18s8.36-.15,10.87-2.34c9.36-8.15,17.44-18.14,20.36-30.53a88.57,88.57,0,0,0,1.49-10.4c.4-3.62,1.37-7.49,1.19-11.13-.26-5.55-6.28-4.56-6.07.45Z"/><path d="M502,294.19c-8.49,6.11-15.53,14.47-23.16,21.59A202.49,202.49,0,0,1,454,336.14c-2.36,1.6-5.25,5.28-2.57,7.86s8,.44,10.5-1.2a286.76,286.76,0,0,0,29.31-21.35c5.84-5,14.59-11.24,17.82-18.44,1.3-2.91-3.46-11.43-7.08-8.82Z"/><path d="M422.32,350.77c-7.79,3.69-15.18,8.23-23,12-8.38,4-17,7.5-25.64,10.85-2.78,1.07-4.62,4-2.27,6.43,2.55,2.62,7.49,1.95,10.5.87Q395.61,376,409,370.31c6.9-2.91,14.27-5.68,20.65-9.64,4.32-2.68-2.87-12-7.35-9.9Z"/><path d="M342.81,383.75c-8.86,2.25-17.29,6-26,8.75a97.14,97.14,0,0,1-24.74,4.26c-3.47.15-8.32,2.29-9.53,5.83-1.15,3.34,2.09,5.45,5.2,5,11.1-1.57,22.12-3.63,33.08-6,4-.86,8-1.7,12-2.67,4.39-1.07,10-1.84,13.51-4.75,2.81-2.33.87-11.58-3.54-10.46Z"/><path d="M507.43,86.85c15.1,5.92,25.81,23.3,31.05,37.79,2.18,6,17.2-.58,14.7-7-8.37-21.32-28.91-29.12-46.59-41.16-2.66-1.8-4.48.68-4.37,3.17a8.43,8.43,0,0,0,5.21,7.16Z"/></svg>