<svg width="159" height="148" viewBox="0 0 159 148" fill="none" xmlns="http://www.w3.org/2000/svg">
<path d="M59.1159 120.945C65.3319 124.442 72.0207 127.214 78.4763 130.25L77.9461 127.15C68.1812 130.205 58.231 132.531 48.2138 134.585C43.1253 135.631 38.0241 136.616 32.9324 137.633C27.9845 138.621 23.0493 139.879 18.0535 140.588C12.6999 141.336 7.26965 141.515 1.96716 142.645L3.65054 145.946C22.7012 137.707 41.772 129.513 60.8631 121.365C62.5944 120.621 60.7226 117.496 59.2213 118.137C40.1472 126.309 21.0625 134.477 1.96716 142.641C0.136838 143.421 2.06298 146.267 3.65054 145.946C8.3557 144.984 13.1631 144.759 17.9225 144.188C22.8513 143.598 27.681 142.401 32.5427 141.419C42.6877 139.375 52.8711 137.495 62.9426 135.101C68.5613 133.763 74.1417 132.268 79.6231 130.439C81.0573 129.961 80.0639 127.779 79.096 127.343C72.551 124.384 66.0442 121.044 59.2915 118.606C57.6944 118.035 58.2151 120.431 59.1222 120.942L59.1159 120.945Z" fill="#031E03"/>
<path d="M49.3509 114.242C46.9392 112.593 44.5595 110.947 42.3235 109.073C41.9785 108.784 41.2886 108.367 40.8126 108.608C37.0626 110.504 33.7533 112.927 30.4025 115.445C26.8217 118.144 23.2761 120.9 19.8263 123.752C12.8021 129.582 6.27617 135.958 0.52648 143.059C-0.457355 144.275 1.5742 146.177 2.76247 145.946C4.86111 145.532 6.66906 144.358 8.4898 143.29L14.5014 139.76L27.352 132.246C35.8274 127.283 44.305 122.331 52.7848 117.39C54.2573 116.53 52.0213 113.539 50.4881 114.435C42.1957 119.286 33.9013 124.136 25.6047 128.986L13.2908 136.157L7.27278 139.67C5.29553 140.822 3.3566 142.183 1.07909 142.629L3.31508 145.516C8.90505 138.595 15.2936 132.406 22.1134 126.72C25.4162 123.971 28.8213 121.327 32.236 118.734C35.5229 116.251 38.7683 113.742 42.4577 111.871L40.9468 111.406C43.428 113.533 46.1987 115.294 49.1752 116.636C49.7502 116.886 50.2261 116.43 50.2996 115.898C50.3954 115.221 49.862 114.598 49.3413 114.248L49.3509 114.242Z" fill="#031E03"/>
<path d="M48.7184 114.64C48.0795 115.5 48.367 116.831 48.367 117.849C48.3714 119.224 48.2988 120.598 48.1498 121.965C48.0975 122.503 48.2157 123.044 48.4876 123.511C48.7595 123.978 49.1711 124.346 49.6639 124.564C50.6222 124.965 51.4495 124.497 51.4559 123.419V123.075C51.4559 121.67 48.6225 119.527 48.2073 121.648L48.1466 121.968L51.4527 123.422C51.5741 120.817 51.9414 117.123 50.3506 114.909C49.9865 114.403 49.1592 114.034 48.7152 114.637L48.7184 114.64Z" fill="#031E03"/>
<path d="M2.40795 145.991C5.11989 146.758 8.01709 146.938 10.8153 147.169C13.7157 147.409 16.6257 147.554 19.5356 147.644C25.247 147.825 30.9594 147.766 36.6729 147.464C42.2906 147.167 47.8912 146.632 53.4748 145.86C55.4904 145.587 58.231 145.503 58.8475 143.094C59.464 140.684 59.2117 137.739 59.167 135.268C59.135 133.426 55.7555 131.739 55.8162 134.238C55.846 135.534 55.846 136.831 55.8162 138.127C55.797 139.054 56.0685 140.983 55.3562 141.688C54.7397 142.298 53.1649 142.33 52.3823 142.433C51.1557 142.619 49.9259 142.794 48.6929 142.959C43.4767 143.652 38.2253 144.124 32.9707 144.396C27.8003 144.666 22.6256 144.737 17.4466 144.608C14.9646 144.547 12.4827 144.432 10.0039 144.287C7.38143 144.146 4.68866 143.78 2.06617 143.999C0.858731 144.098 1.62216 145.744 2.38559 145.962L2.40795 145.991Z" fill="#031E03"/>
<path d="M24.179 4.01201C31.8761 3.69894 39.5858 4.02406 47.2294 4.98405C48.3055 5.12014 49.918 4.72484 50.4836 3.688C51.0491 2.65116 50.0958 1.97073 49.1425 1.85732C40.4756 0.830199 31.6923 1.09913 23.0092 0.506185C21.0121 0.3701 22.602 4.05089 24.179 3.98933V4.01201Z" fill="#031E03"/>
<path d="M68.0106 6.98637C68.6312 6.47801 70.3492 7.0546 71.1234 7.16719C71.9616 7.29002 72.7966 7.41967 73.6285 7.56637C75.4552 7.8905 77.2628 8.29309 79.0672 8.66156C82.3784 9.34392 85.6672 10.0979 88.9497 10.9304C90.0886 11.2204 91.605 10.7939 92.3792 9.82158C93.0415 8.98568 92.8751 7.85638 91.7554 7.62437C87.3084 6.70319 82.8551 5.82977 78.3665 5.16788C76.11 4.83352 73.8471 4.52191 71.5777 4.23304C69.9781 4.02492 68.3945 3.68033 66.8013 3.55068C66.3214 3.50974 65.4544 3.38692 65.1377 3.89186C64.2451 5.36235 66.6189 8.11226 68.017 6.96249L68.0106 6.98637Z" fill="#031E03"/>
<path d="M105.558 13.9178C111.451 14.9465 116.896 17.1634 122.317 19.742C123.227 20.1768 124.795 20.1834 125.539 19.377C126.282 18.5705 125.608 17.6778 124.795 17.3128C118.402 14.4355 111.668 12.7927 105.145 10.3435C103.404 9.67979 103.885 13.639 105.558 13.931V13.9178Z" fill="#031E03"/>
<path d="M154.201 48.4454C153.506 50.6782 153.718 53.0368 153.49 55.3326C153.264 57.689 152.842 60.0246 152.226 62.3172C151.658 64.4085 156.717 63.723 157.286 61.9241C158.609 57.7918 158.539 53.5117 156.777 49.5335C156.482 48.8668 154.703 46.8164 154.201 48.4454Z" fill="#031E03"/>
<path d="M151.644 72.4732C151.68 73.2773 150.48 74.6779 150.081 75.3447C149.381 76.5316 148.693 77.7185 148.046 78.9309C146.434 81.9491 145.029 84.9929 142.418 87.3826C141.684 88.0559 141.194 89.096 142.311 89.6735C143.427 90.2509 145.113 89.6256 145.955 88.9269C149.092 86.3266 151.801 83.1392 152.78 79.1861C153.015 78.0905 153.182 76.9825 153.28 75.868C153.414 74.713 153.739 73.4783 153.679 72.3169C153.591 70.5461 151.573 70.862 151.644 72.4605V72.4732Z" fill="#031E03"/>
<path d="M136.322 95.3166C133.613 97.2774 131.367 99.9602 128.932 102.245C126.466 104.631 123.816 106.816 121.006 108.779C120.253 109.292 119.331 110.473 120.186 111.301C121.041 112.129 122.739 111.443 123.536 110.916C126.795 108.833 129.918 106.545 132.889 104.065C134.752 102.46 137.544 100.458 138.575 98.147C138.99 97.2132 137.471 94.479 136.316 95.3166H136.322Z" fill="#031E03"/>
<path d="M111.034 113.291C108.522 114.527 106.139 116.047 103.618 117.31C100.916 118.649 98.137 119.821 95.3513 120.943C94.455 121.301 93.8617 122.282 94.6194 123.096C95.4416 123.973 97.0343 123.749 98.0048 123.387C100.95 122.289 103.861 121.105 106.739 119.834C108.964 118.86 111.34 117.932 113.397 116.606C114.79 115.709 112.472 112.588 111.027 113.291H111.034Z" fill="#031E03"/>
<path d="M138.072 28.0928C142.948 30.0062 146.405 35.6234 148.097 40.3066C148.801 42.2458 153.651 40.1191 152.844 38.0442C150.141 31.1535 143.509 28.6326 137.801 24.7412C136.942 24.1595 136.354 24.961 136.39 25.7658C136.428 26.2697 136.606 26.753 136.903 27.1617C137.2 27.5704 137.605 27.8883 138.072 28.0799V28.0928Z" fill="#031E03"/>
</svg>
