<svg width="554" height="554" viewBox="0 0 554 554" fill="none" xmlns="http://www.w3.org/2000/svg">
<path d="M319.615 42.6154C319.615 19.0437 300.572 0 277 0C253.428 0 234.385 19.0437 234.385 42.6154V234.385H42.6154C19.0437 234.385 0 253.428 0 277C0 300.572 19.0437 319.615 42.6154 319.615H234.385V511.385C234.385 534.956 253.428 554 277 554C300.572 554 319.615 534.956 319.615 511.385V319.615H511.385C534.956 319.615 554 300.572 554 277C554 253.428 534.956 234.385 511.385 234.385H319.615V42.6154Z" fill="black"/>
</svg>
