<svg width="18" height="18" viewBox="0 0 18 18" fill="none" xmlns="http://www.w3.org/2000/svg">
<path d="M10.1786 1.375C10.1786 0.614453 9.5721 0 8.82143 0C8.07076 0 7.46429 0.614453 7.46429 1.375V7.5625H1.35714C0.606473 7.5625 0 8.17695 0 8.9375C0 9.69805 0.606473 10.3125 1.35714 10.3125H7.46429V16.5C7.46429 17.2605 8.07076 17.875 8.82143 17.875C9.5721 17.875 10.1786 17.2605 10.1786 16.5V10.3125H16.2857C17.0364 10.3125 17.6429 9.69805 17.6429 8.9375C17.6429 8.17695 17.0364 7.5625 16.2857 7.5625H10.1786V1.375Z" fill="#A3BF98"/>
</svg>
