<svg width="222" height="161" viewBox="0 0 222 161" fill="none" xmlns="http://www.w3.org/2000/svg">
<path d="M222.381 100.189L237.138 158.967L235.933 160.776H226.296L186.243 158.364L170.282 157.159L138.661 158.364H119.688L126.314 149.623L138.36 139.676L148.298 130.331L153.418 120.384L155.827 110.437L157.031 106.217L146.491 100.189L124.507 87.83L118.785 82.4043C116.376 75.9738 111.497 63.0526 111.256 62.8114C111.015 62.5703 109.148 56.0795 108.245 52.8643L122.098 48.0414L124.808 53.1657L129.928 71.2514C131.032 72.859 133.301 76.1346 133.541 76.3757C133.782 76.6168 138.059 82.7057 140.167 85.72L150.105 90.8443L154.02 90.2414L164.861 92.3514L174.197 94.7628L175.703 93.2557V84.2128L178.413 74.5671L182.629 69.7443L183.232 61.6057L187.749 45.0271C183.934 45.2281 176.124 45.63 175.402 45.63C174.498 45.63 172.992 44.4243 172.691 44.1228C172.45 43.8817 170.985 41.209 170.282 39.9028L167.572 38.6971L166.066 37.4914L166.668 30.5585L165.464 27.2428L163.054 23.3243V14.5828L196.482 19.7071L213.949 50.4528V86.9257L222.381 100.189Z" fill="#F8F4EE"/>
<path d="M68.4929 150.829L70.9021 140.58L61.2652 132.743L58.856 138.169L54.0376 142.087L45.6053 146.006L48.3157 125.509L46.2076 110.136L47.4122 106.82L54.0376 100.189L62.771 88.1314L67.2883 79.9929L70.601 69.4429L71.2033 62.8114C67.991 67.2324 61.5062 76.1346 61.2652 76.3757C61.0243 76.6169 55.9449 82.1029 53.4353 84.8157L46.2076 96.8729L45.6053 89.6386L48.6168 68.84V54.07V42.3143L47.1111 34.1757L45.6053 42.3143L41.6903 62.8114L38.9799 74.2657L36.2696 92.3514C35.7676 88.4329 34.824 80.4752 35.065 79.9929C35.3059 79.5106 35.5669 63.9167 35.6673 56.18L33.8603 42.3143L28.7408 28.1472L29.6442 50.4529L27.235 70.0457C26.9338 75.9738 26.2713 88.0109 26.0304 88.7343C25.7895 89.4577 25.1269 95.0643 24.8258 97.7772L22.4166 87.2272L19.1039 69.4429L16.3935 54.07L10.9728 38.9986L4.94971 33.5729L8.86469 46.5343C10.2701 51.6586 13.0808 62.088 13.0808 62.8114C13.0808 63.5349 13.6831 78.5862 13.9843 86.0214L16.3935 100.189L17.5981 108.629H13.9843L13.0808 113.753L10.6716 130.633L11.8762 140.58L14.8877 152.034L17.8993 158.364H66.3848L68.4929 150.829Z" fill="#F8F4EE"/>
<path fill-rule="evenodd" clip-rule="evenodd" d="M63.1407 131.51C64.2655 132.945 65.9265 134.01 67.201 135.323C68.5393 136.701 69.9918 137.905 71.3248 139.267C77.2053 131.338 85.2607 126.476 92.2391 119.896C95.5473 116.776 97.9848 112.545 99.7685 108.202C100.683 105.976 101.359 103.685 101.887 101.313C102.125 100.245 102.358 99.1806 102.514 98.0978C102.702 96.7865 102.751 96.6747 103.553 95.6513C103.898 95.2109 104.567 93.924 105.243 94.0658C105.812 94.1853 106.853 96.0961 107.212 96.5681C108.941 98.8383 110.618 101.177 112.438 103.36C115.224 106.699 117.759 109.985 120.346 113.524C125.636 120.765 131.342 127.581 137.101 134.394C137.528 134.899 138.524 136.381 139.137 136.58C139.883 136.822 141.096 135.812 141.847 135.248C143.661 133.886 145.09 132.2 146.641 130.512C149.666 127.217 151.715 122.592 153.093 118.192C153.918 115.558 154.454 112.828 155.306 110.203C155.661 109.109 156.465 107.764 156.057 106.811C155.935 106.527 155.161 105.773 154.888 105.715C154.565 105.647 154.027 106.135 153.915 106.101C152.844 105.778 153.439 104.541 152.802 103.876C152.44 103.498 150.604 103.553 150.056 103.346C148.051 102.587 146.252 101.14 144.357 100.276C136.422 96.659 128.391 93.141 121.541 87.2349C119.764 85.7035 118.584 84.5526 116.464 83.5627C114.322 82.5624 112.169 81.6701 109.983 80.7972C108.055 80.0271 106.116 79.3051 104.124 78.7532C101.97 78.1561 98.9139 77.3992 96.7616 78.1682C92.5349 79.6779 91.17 83.5202 89.4868 87.5734C87.2095 93.0572 84.4561 98.2465 81.471 103.294C75.7286 113.005 68.7444 121.72 63.1407 131.51Z" fill="#D0A13D"/>
<path fill-rule="evenodd" clip-rule="evenodd" d="M190.432 45.6547C190.664 45.5245 192.48 46.3399 192.785 46.4647C194.003 46.963 195.149 47.7911 196.296 48.4648C195.417 49.6451 194.538 50.8256 193.659 52.0062C192.798 49.6745 191.69 47.7505 190.432 45.6547ZM189.832 60.1624C190.132 60.1995 187.606 66.894 187.312 67.6457C186.239 70.3797 185.112 73.087 184.025 75.814C182.971 78.4567 181.635 80.8879 180.289 83.3567C179.137 85.4681 177.953 88.7446 176.216 90.3085C177.313 84.9406 177.168 78.7686 180.314 74.2615C183.575 69.589 186.799 65.0264 189.832 60.1624ZM63.1408 131.749C68.0134 123.236 74.113 115.705 79.1941 107.344C82.0392 102.662 84.8083 97.9209 87.2032 92.9377C88.9451 89.3128 90.0278 84.1408 92.7183 81.3695C93.9039 80.1486 95.1707 78.9535 96.7617 78.4065C98.9389 77.6581 101.937 78.3999 104.124 78.9917C108.2 80.0942 112.181 81.8064 116.042 83.6045C119.958 85.4283 123.299 88.7043 126.837 91.3363C130.632 94.16 134.74 96.217 138.993 98.0177C142.695 99.5856 145.989 101.837 149.672 103.415C150.406 103.729 151.903 103.683 152.519 104.093C153.182 104.535 152.921 105.839 153.727 106.32C154.09 106.537 154.211 105.75 154.49 105.763C154.831 105.779 155.142 106.22 155.471 106.5C156.809 107.639 155.989 108.399 155.459 109.967C153.732 115.075 152.803 120.272 150.378 125.094C148.384 129.057 145.53 132.609 142.169 135.233C141.658 135.633 139.992 137.18 139.392 137.077C138.852 136.985 137.753 135.401 137.38 134.97C135.688 133.018 134.141 130.918 132.45 128.963C129.837 125.941 127.321 122.838 124.785 119.775C121.841 116.219 119.236 112.19 116.584 108.39C115.364 106.643 113.794 105.219 112.438 103.598C110.615 101.419 108.941 99.0762 107.212 96.8066C106.689 96.1198 105.812 94.3628 104.999 94.3834C104.43 94.398 103.425 95.878 103.127 96.3417C102.019 98.0657 102.024 101.179 101.473 103.331C100.129 108.579 97.7055 113.704 94.3813 117.753C91.0757 121.78 86.8413 124.644 82.9317 127.88C78.6963 131.387 74.6838 134.976 71.325 139.506C69.9919 138.144 68.5394 136.939 67.2011 135.561C65.9264 134.249 64.2654 133.184 63.1408 131.749ZM125.862 155.832C124.915 155.843 123.311 156.486 122.463 156.099C124.977 153.03 127.285 150.397 130.465 148.149C133.766 145.815 137.055 143.502 140.261 141.013C146.721 135.997 151.472 130.048 154.17 121.694C154.865 119.543 155.33 117.287 155.84 115.075C156.114 113.884 156.659 108.313 157.585 107.832C158.134 107.546 162.263 110.748 162.917 111.147C164.446 112.08 165.981 112.804 167.563 113.534C170.962 115.104 174.466 116.302 178.07 117.302C182.391 118.5 185.335 116.517 188.012 112.77C191.049 108.518 193.573 103.722 196.35 99.2573C197.612 97.2267 198.659 95.1994 199.591 92.9597C200.202 91.4942 202.622 87.5405 201.786 85.9791C199.399 87.9836 198.541 91.9693 196.915 94.6532C194.889 97.9981 192.606 101.152 190.569 104.494C188.857 107.304 187.11 110.709 184.58 112.729C182.354 114.506 180.24 113.96 177.845 113.161C174.942 112.194 171.933 111.717 169.088 110.516C166.009 109.218 163.097 107.375 160.093 105.873C158.693 105.172 157.016 104.774 155.696 103.901C154.559 103.149 154.729 102.751 154.645 101.149C154.548 99.2803 154.435 97.4099 154.36 95.5392C154.31 94.2823 154.926 92.5781 154.508 91.6399C157.918 92.2921 161.251 93.1657 164.637 93.9386C166.491 94.3617 168.279 94.8848 170.152 95.2172C170.866 95.3439 171.842 95.3403 172.481 95.6835C172.991 95.5219 173.251 95.6247 173.261 95.9915C173.285 96.1906 173.324 96.3871 173.377 96.5802C174.423 97.105 175.031 95.9794 175.938 94.8996C177.057 93.5671 177.895 92.0665 178.716 90.5008C180.552 87 182.668 83.7076 184.366 80.1082C186.098 76.439 187.504 72.5106 188.972 68.7038C190.319 65.2113 191.181 61.4341 192.669 58.0243C193.333 56.5023 194.175 55.2437 195.158 53.9579C195.969 52.8969 197.217 50.608 198.428 50.1206C198.748 49.9918 199.587 50.2083 199.951 50.1797C200.676 50.1226 201.322 49.8289 202.064 49.8931C203.671 50.0319 205.423 51.1528 206.707 52.1383C205.877 52.9543 203.801 53.9461 205.292 55.416C206.739 56.843 207.538 54.2832 208.09 53.1617C210.69 55.5171 210.314 58.7648 210.615 62.0927C210.772 63.8301 211.184 65.5412 211.45 67.2526C211.642 68.4842 211.508 69.7582 211.562 71.0157C211.702 74.2112 211.993 77.2699 211.98 80.4206C211.964 83.7883 211.756 87.0407 211.512 90.384C211.101 96.0129 210.159 101.644 209.351 107.228C208.896 110.367 208.274 113.416 207.67 116.504C206.985 120.009 205.717 123.329 205.006 126.825C204.282 125.809 203.737 125.804 202.566 125.938C201.664 126.042 201.059 125.805 201.112 127.185C201.146 128.08 201.862 128.764 202.653 128.92C203.686 129.124 204.037 128.556 204.569 127.693C204.694 129.327 203.698 131.035 203.304 132.631C202.931 134.144 202.684 135.626 202.057 137.074C201.446 138.486 200.922 139.879 200.304 141.278C200.019 141.921 199.753 142.575 199.464 143.216C199.319 143.541 199.147 143.989 198.93 144.263C198.42 144.905 198.501 144.594 197.904 144.96C196.604 145.757 197.092 145.558 197.062 147.204C197.032 148.827 196.277 150.02 195.067 150.933C192.5 152.869 189.968 153.407 187.05 154.386C184.33 155.297 181.466 156.079 178.587 156.062C175.06 156.04 171.58 155.53 168.053 155.478C164.163 155.421 160.235 155.445 156.352 155.593C154.752 155.654 153.267 155.732 151.723 156.183C149.929 156.707 148.195 156.499 146.346 156.42C142.403 156.25 138.324 155.914 134.433 155.884C131.631 155.861 128.675 155.646 125.862 155.832ZM23.616 157.519C22.9151 157.927 21.3437 157.76 20.639 157.646C19.3976 157.446 19.2646 156.903 18.477 155.682C17.1213 153.579 16.0206 151.565 15.2229 149.129C13.6964 144.466 13.0731 139.696 12.403 134.819C11.6582 129.399 13.0184 123.782 13.505 118.399C13.6168 117.164 13.7697 115.94 13.9465 114.715C14.0523 113.982 14.0799 111.489 14.517 110.855C15.3567 109.636 19.2614 110.619 20.7966 110.73C25.0818 111.038 29.3951 111.111 33.6783 111.164C35.9621 111.193 38.2586 111.298 40.5197 111.318C41.5582 111.327 42.5735 111.27 43.6156 111.158C43.9642 111.121 44.3046 111.033 44.6558 111.011C45.858 110.938 45.7677 110.746 46.0784 111.92C46.6228 113.978 46.204 116.596 46.3469 118.732C46.5381 121.586 46.6415 124.48 46.5942 127.34C46.5504 129.983 46.632 132.62 46.5426 135.269C46.5053 136.366 46.3967 137.26 46.1345 138.308C45.8379 139.492 45.5117 142.26 44.7731 143.079C44.6891 143.172 44.0614 142.955 43.8948 143.187C43.638 143.545 43.6851 144.303 43.5088 144.534C42.9383 145.283 41.7591 145.342 40.9037 145.679C38.5567 146.602 36.4036 147.605 34.1916 148.85C32.2151 149.962 29.0283 150.909 27.84 153.104C27.2951 154.11 27.2216 155.437 26.7206 156.475C26.1501 157.657 27.2916 157.039 25.8939 157.519C25.2643 157.735 24.2613 157.519 23.616 157.519ZM231.988 144.145C232.165 146.875 233.56 149.476 234.045 152.161C234.272 153.418 234.657 154.654 234.924 155.904C235.18 157.103 236.105 158.523 236.012 159.709C232.598 158.367 229.14 158.03 225.573 157.668C222.191 157.325 218.619 157.188 215.266 157.187C211.849 157.185 208.195 156.817 204.677 156.759C200.998 156.7 197.263 156.595 193.637 156.174C195.533 154.624 197.906 153.169 199.306 151.014C200.828 148.671 201.618 145.735 202.957 143.262C205.645 138.3 207.353 132.143 208.762 126.568C211.606 115.314 214.784 104.268 215.55 92.5948C217.008 93.4185 218.165 96.614 218.895 98.2053C219.827 100.237 220.315 102.439 220.92 104.599C222.167 109.047 223.03 113.658 224.558 118.064C227.476 126.485 229.352 135.559 231.988 144.145ZM46.6863 78.5543C46.0551 83.5875 44.7312 88.6859 44.6804 93.7798C44.6692 94.9005 44.8413 96.145 44.6296 97.25C44.4035 98.4298 43.6682 99.4727 43.2436 100.594C42.5697 102.374 40.8631 106.022 42.5089 107.53C42.5423 106.099 43.7294 104.281 44.3273 103.03C45.2285 101.144 46.4126 99.4202 47.3895 97.5814C49.4345 93.7325 51.7261 89.9661 54.3615 86.5731C56.9284 83.268 59.8868 80.3362 62.6089 77.1891C63.4267 76.2434 69.9874 67.1421 70.2482 67.2693C68.2132 75.9275 64.7537 83.4609 60.0195 90.7101C57.6984 94.2639 54.9126 96.6025 52.0869 99.6131C49.7339 102.12 45.299 104.801 46.1126 108.909C42.4342 108.519 38.7801 107.896 35.0684 107.896C35.6787 102.713 36.1461 97.6121 37.2359 92.5143C38.473 86.7259 39.311 80.7643 40.3579 74.9244C41.4262 68.9626 43.2383 63.1908 44.3657 57.2402C45.4452 51.5421 46.3726 45.8542 47.164 40.0926C47.8179 43.2851 47.5766 46.7916 47.8087 50.0489C48.0457 53.3768 48.0228 56.6435 47.9439 59.9909C47.7977 66.2086 47.1971 72.3512 46.6863 78.5543ZM30.7473 48.9104C30.7266 46.249 30.2592 43.6236 30.1151 40.9685C30.0707 40.1539 29.3354 34.5962 30.0212 34.3061C30.5852 35.6627 30.7167 37.3988 31.2289 38.8222C31.7407 40.2443 32.4252 41.599 32.9163 43.031C33.9801 46.1331 34.3472 49.6431 34.4618 52.9411C34.721 60.4008 34.855 67.8438 34.4005 75.3036C34.2058 78.501 34.0564 81.7039 34.1096 84.9076C34.1682 88.4328 34.6575 91.4926 34.0633 94.9889C33.4751 98.4512 33.1056 101.899 32.9096 105.412C32.7721 107.878 32.7168 107.703 30.5847 107.53C29.0455 107.404 27.4911 107.538 25.9496 107.46C26.6703 97.8512 26.7881 88.2221 27.9393 78.6496C28.5268 73.7661 28.5425 68.812 29.2721 63.9466C29.6347 61.5298 30.2431 59.1615 30.5927 56.7419C30.968 54.1439 30.7832 51.5284 30.7473 48.9104ZM186.663 42.8631C182.558 43.2554 178.192 44.6094 173.985 43.7154C174.678 43.4054 176.493 42.978 175.676 41.7548C174.846 40.5111 173.446 42.0886 172.618 41.9257C172.107 41.8251 170.979 39.4698 170.664 38.9821C169.95 37.8738 169.863 37.6807 168.579 37.3966C167.334 37.1219 167.052 37.4194 166.894 36.0542C166.713 34.4844 167.206 32.7194 167.157 31.1141C167.052 27.6582 166.041 24.6275 165.101 21.376C169.097 22.3351 173.004 23.4725 177.09 24.0907C178.837 24.355 181.554 24.9646 183.141 23.6547C183.554 23.314 183.488 22.8541 183.826 22.4593C184.392 21.7969 185.442 21.1117 186.245 20.9229C191.188 19.7622 191.67 27.5354 189.193 30.4441C188.573 31.1729 187.71 31.5328 187.074 32.2007C186.226 33.0914 186.157 34.0297 186.033 35.3894C185.801 37.9389 186.116 40.4984 187.102 42.8307L186.663 42.8631ZM126.687 79.5601C125.228 79.8656 123.705 79.7958 122.242 80.0565C121.723 80.1491 120.164 80.4722 119.707 80.137C119.01 79.6252 118.762 77.7479 118.432 76.8737C117.851 75.336 117.03 73.9947 116.477 72.4289C114.216 66.0336 112.107 59.6126 109.373 53.4356C110.421 53.1351 111.226 53.1233 112.282 52.968C113.382 52.8062 114.38 52.0883 115.43 51.7798C116.428 51.4866 117.473 51.5614 118.462 51.2204C119.006 51.0328 119.474 50.6154 120.011 50.4695C120.867 50.2374 121.865 50.1017 122.374 50.7215C122.896 51.3572 123.079 53.1005 123.363 53.9217C124.119 56.1094 124.997 58.2208 125.631 60.4588C126.202 62.4773 126.745 64.4744 127.248 66.5113C127.78 68.6617 128.827 70.4341 129.465 72.4883C129.95 74.0518 130.408 75.6503 130.481 77.3174C130.551 78.9441 130.766 79.0477 129.291 79.3076C128.547 79.4387 127.387 79.9266 126.687 79.5601ZM30.6908 155.695C30.3108 155.89 29.9525 155.864 29.6163 155.617C32.9108 154.082 36.1155 151.952 39.5526 150.899C42.7767 149.911 45.9104 148.731 49.0164 147.514C51.5403 146.526 53.8094 145.756 56.0912 144.017C57.4762 142.961 58.7067 141.773 59.6584 140.23C60.718 138.512 60.9539 136.067 62.1014 134.519C63.6503 136.396 65.4699 137.817 67.3025 139.309C67.9365 139.825 69.4573 140.949 69.6742 141.748C69.9478 142.755 69.2147 143.719 68.8522 144.739C67.9235 147.35 67.4698 149.959 66.966 152.674C66.7641 153.762 66.328 155.398 65.518 155.853C64.7804 156.268 62.6442 155.967 61.7263 155.89C56.9376 155.489 52.2338 155.079 47.4162 155.444C41.9646 155.856 36.1282 156.141 30.6908 155.695ZM21.1261 107.31C20.2557 107.313 19.4055 107.193 18.5385 107.193C19.039 104.615 17.8688 101.278 17.4539 98.7045C16.9898 95.8255 16.6364 92.8484 16.3269 89.9464C15.6744 83.8337 15.3788 77.7952 15.3704 71.6377C15.3624 65.6794 14.3793 60.2346 13.0022 54.5069C11.5235 48.3554 9.10196 42.8235 7.09982 36.8911C9.29596 38.1719 10.5117 41.1691 11.6657 43.4604C13.1244 46.3575 14.0961 49.5654 14.6918 52.8177C15.841 59.092 17.1016 65.3852 18.4276 71.649C19.8085 78.171 20.6203 84.7529 22.2021 91.2217C22.9736 94.3762 24.0224 98.2572 24.0807 101.51C24.1049 102.856 24.4724 105.674 23.9196 106.843C23.4026 107.937 22.2596 107.421 21.1261 107.31ZM152.499 99.2177C152.544 99.8875 152.588 100.525 152.696 101.186C151.49 101.174 149.963 99.7936 148.929 99.174C147.67 98.4193 146.409 97.5869 145.177 96.8283C142.799 95.3634 140.099 94.3982 137.559 93.1949C134.642 91.8124 131.961 90.142 129.172 88.4776C128.197 87.8962 121.194 84.5472 121.312 83.6323C122.849 83.5757 124.387 83.5194 125.924 83.463C127.242 83.4147 129.284 83.7433 130.546 83.2938C131.237 83.0474 132.014 82.1404 132.275 81.4302C132.533 80.7275 131.952 77.4951 132.29 77.2891C134.011 79.2274 135.093 81.8036 136.631 83.8947C138.331 86.2058 140.528 87.5553 142.949 88.7834C145.623 90.1398 148.39 91.1901 151.123 92.3525C152.275 92.8427 152.253 93.1232 152.353 94.5172C152.465 96.0752 152.453 97.6555 152.499 99.2177ZM13.5567 157.836C10.6584 158.179 7.68802 157.984 4.76697 158.251C3.70413 158.349 2.23067 158.494 3.29997 160.067C3.97334 161.059 6.13036 160.741 7.10878 160.809C9.73572 160.994 12.5171 160.895 15.15 160.852C15.7043 160.843 16.3169 160.661 16.8772 160.702C17.5239 160.749 18.2984 161.262 18.8878 161.258C19.2512 161.256 19.3814 160.833 19.6947 160.794C20.3773 160.71 21.0596 160.648 21.7479 160.648C32.1546 160.651 42.4183 160.42 52.7991 160.407C57.7629 160.402 62.8063 160.307 67.7681 160.05C68.81 159.996 74.7438 160.231 74.5794 158.161C74.495 157.095 72.5583 156.945 71.8516 156.832C71.3279 156.748 70.7846 156.761 70.2599 156.73C68.8658 156.648 68.2552 157.018 68.5493 155.335C69.6647 148.952 71.6634 143.677 75.9336 139.088C79.4254 135.335 83.6299 131.931 87.5849 128.798C92.3871 124.992 96.2828 120.991 99.1339 115.168C100.799 111.768 102.193 108.292 103.048 104.532C103.356 103.179 103.363 101.641 103.74 100.337C104.03 99.3334 104.692 98.6309 105.081 97.591C109.859 106.395 116.191 113.761 121.998 121.7C124.772 125.492 127.937 129.094 131.252 132.394C132.235 133.373 133.153 134.395 134.071 135.449C134.839 136.331 136.059 137.114 136.707 138.093C137.329 139.031 137.176 138.987 136.229 139.732C134.978 140.717 133.598 141.535 132.327 142.496C130.295 144.031 128.077 145.329 126.26 147.177C124.295 149.175 122.578 151.49 120.861 153.743C119.716 155.245 118.214 157.173 117.926 159.072C117.831 159.7 117.468 161.254 117.946 161.714C118.355 162.107 118.314 161.958 118.821 161.718C119.485 161.404 119.681 160.683 120.492 160.339C122.569 159.46 125.082 159.762 127.242 159.751C129.404 159.74 131.583 160.008 133.744 159.998C138.678 159.976 143.506 160.417 148.438 160.653C153.677 160.904 158.979 160.302 164.2 160.387C168.069 160.45 172.04 160.131 176.015 160.368C178.06 160.49 180.068 160.208 182.062 160.176C184.672 160.135 187.353 160.527 189.986 160.582C194.307 160.674 198.575 160.674 202.922 160.788C212.274 161.035 221.574 161.29 230.931 161.454C232.179 161.476 233.546 161.429 234.779 161.584C236.088 161.749 235.412 162.056 236.311 162.576C238.825 164.031 238.245 158.636 238.184 157.575C237.861 151.889 236.553 146.312 234.98 140.914C233.489 135.795 232.278 130.436 231.014 125.206C229.632 119.481 227.83 113.99 226.194 108.322C224.517 102.513 223.153 96.4786 220.108 91.3297C219.414 90.1571 218.697 88.8952 217.582 88.1559C216.331 87.327 216.277 87.8111 216.278 86.2942C216.279 84.8656 216.2 82.957 216.505 81.5937C216.781 80.3621 216.739 81.0923 217.36 80.2076C217.866 79.4881 218.396 78.9963 218.759 78.1227C220.989 80.6176 226.094 79.301 228.249 77.5045C230.887 75.3055 232.896 71.5957 233.632 68.0625C234.223 65.2253 233.497 59.817 230.651 58.4527C229.264 57.7875 224.167 57.2847 223.963 55.1171C223.858 53.998 225.652 52.4246 226.066 51.4625C226.833 49.6799 227.569 47.3089 227.782 45.355C228.199 41.5411 226.629 37.2763 224.129 34.7C219.543 29.974 211.474 27.5486 205.575 30.5471C206.822 25.2932 207.574 20.7609 206.947 15.2957C206.406 10.5875 203.888 7.95331 200.423 5.60813C194.511 1.60562 186.471 0.0258628 179.711 1.18966C178.174 1.45423 176.7 2.02157 175.278 2.47297C173.211 3.12877 170.738 2.91036 168.786 3.97591C167.372 4.7482 166.297 6.28674 165.055 7.31399C163.605 8.51323 162.399 10.3032 161.391 11.9585C159.236 15.4982 160.078 22.0678 161.882 25.621C162.269 26.3831 162.747 27.0246 163.387 27.5447C164.053 28.086 165.069 28.2544 165.412 28.9563C166.292 30.7545 165.444 34.6473 165.326 36.5908C165.19 38.8475 166.224 40.5427 168.543 40.7226C169.885 40.827 169.928 39.9682 170.57 41.7353C170.987 42.8807 171.365 44.1286 171.966 45.1786C173.205 47.3427 175.474 47.1315 177.541 47.0729C179.933 47.0048 182.29 46.5878 184.684 46.3246C184.052 48.5596 182.321 50.2943 181.24 52.2853C179.779 54.9783 178.899 57.2106 178.662 60.3481C178.479 62.7587 178.873 64.6623 180.368 66.4564C180.987 67.199 181.535 67.2355 181.382 68.0922C181.288 68.6147 180.469 69.4769 180.179 69.8939C179.413 70.9973 178.522 72.01 177.847 73.1883C175.251 77.7221 174.484 84.6334 174.477 89.9112C174.477 90.1532 174.36 90.6678 174.457 90.9181C174.528 91.103 175.073 91.6885 175.081 91.7387C175.188 92.4174 174.588 93.5806 173.647 93.6957C172.659 93.8163 170.849 92.9064 169.929 92.6075C168.458 92.1289 166.958 91.7756 165.49 91.2841C163.119 90.4903 160.759 89.8573 158.349 89.2353C157.26 88.9545 156.165 88.7205 155.072 88.4578C153.827 88.1589 153.249 87.5811 152.607 88.9782C152.056 90.1771 152.398 90.3944 151.063 89.7903C149.738 89.19 148.442 88.446 147.148 87.7685C144.866 86.5739 142.147 85.509 140.178 83.7455C136.894 80.8033 135.678 76.1179 132.534 72.996C131.659 72.1267 131.137 72.1113 130.584 70.9072C129.991 69.6184 129.686 67.9655 129.374 66.5792C128.829 64.1516 128.44 61.7155 127.946 59.2901C127.329 56.2685 125.997 53.5321 125.025 50.6501C124.647 49.5272 124.45 48.0999 123.839 47.0908C123.678 46.8232 123.368 46.6724 123.242 46.4509C122.808 45.6907 122.812 45.4819 122.699 44.5673C122.173 40.2937 119.861 42.5419 117.334 43.5219C116.269 43.9349 111.214 46.6128 113.145 48.3936C110.844 49.1302 107.158 48.7299 107.189 52.368C107.205 54.2321 108.216 56.2262 108.758 57.971C109.24 59.5203 109.706 61.0756 110.195 62.6224C111.267 66.0107 112.568 69.2977 113.614 72.6965C114.091 74.2455 114.484 75.8308 115.148 77.2927C115.734 78.5823 117.151 80.0038 117.385 81.414C111.253 78.5279 105.581 74.3551 98.7173 74.6211C95.7121 74.7373 92.9847 76.1311 91.325 79.0463C89.2442 82.7004 87.875 86.7915 85.8413 90.4793C78.4425 103.895 69.6181 116.082 61.496 128.942C60.8722 129.93 60.0698 130.865 59.8534 132.086C59.7122 132.883 59.9862 133.68 59.8168 134.445C59.4654 136.036 57.6902 138.022 56.4864 138.936C54.1789 140.688 50.4279 143.16 47.5484 142.941C49.3556 138.15 49.3314 132.9 49.2475 127.789C49.1676 122.934 48.692 118.118 48.1274 113.313C47.9997 112.226 47.8884 111.218 47.6052 110.164C47.2802 108.956 46.834 109.07 47.8074 107.984C49.3055 106.31 51.0875 104.934 52.5979 103.24C55.8643 99.5763 59.2122 96.7049 61.7831 92.3303C64.228 88.1693 66.8074 83.8881 68.6173 79.3315C70.4805 74.6409 71.2253 69.6315 72.1502 64.664C72.5255 62.6482 73.8941 60.3978 73.6192 58.2928C73.2716 55.6325 72.1534 57.5696 71.6982 59.0013C70.3092 63.3716 67.0567 67.2831 64.3627 70.7978C61.4522 74.5947 57.8924 77.7715 54.8543 81.458C51.546 85.473 49.2799 90.0873 46.3379 94.3732C46.3379 89.0543 47.984 83.638 48.6573 78.3762C49.2498 73.7449 49.4358 69.0991 49.8103 64.4478C50.6607 53.8818 49.9259 43.0046 48.7323 32.5142C48.165 27.5321 48.4868 22.6673 48.4696 17.6681C48.4641 16.0771 49.061 12.4101 48.3002 10.9983C46.8432 8.29399 45.9933 14.2072 45.9196 15.0889C45.479 20.3408 46.2692 25.5342 45.8655 30.7636C45.4437 36.2246 44.5283 41.5323 43.7494 46.9301C42.9054 52.7746 41.5315 58.4873 40.2162 64.2197C38.8351 70.2384 37.6737 76.3827 36.1382 82.3534C35.7241 80.4766 36.305 78.171 36.4198 76.2596C36.5837 73.5243 36.9037 70.7885 36.9313 68.046C36.9756 63.6752 37.0065 59.2233 36.7824 54.8728C36.5615 50.5847 36.6283 46.0913 35.4362 41.96C34.8704 39.9992 34.0407 38.0862 33.2288 36.2391C32.2273 33.9615 31.8732 31.7532 31.3186 29.3308C30.8435 27.2562 30.1482 25.2364 29.8317 23.1203C29.6349 21.8043 29.0858 17.9195 27.7202 20.8628C26.9273 22.5711 27.27 25.1037 27.2478 26.9389C27.2194 29.2918 27.5459 31.5795 27.5959 33.9225C27.6933 38.5195 27.7633 43.1109 28.0741 47.7002C28.4 52.515 28.1154 56.8301 27.2852 61.5743C26.3765 66.7674 26.1105 71.9718 25.6396 77.2284C25.3968 79.9425 24.9874 82.6416 24.7897 85.3596C24.6851 86.7989 25.2215 90.9263 24.2867 91.9514C24.1963 89.4584 23.5488 86.9632 23.058 84.534C22.4765 81.6561 22.2417 78.6306 21.8131 75.7115C21.1191 70.9822 19.7724 66.4657 18.8814 61.7894C17.0448 52.1496 15.5188 39.7602 7.82199 33.4505C6.81494 32.6249 5.70828 32.0156 4.61955 31.3361C4.00322 30.9515 3.08755 29.9564 2.38232 29.7828C1.61258 29.5932 1.2916 29.7404 0.979568 30.7257C0.544525 32.0991 1.34016 32.7406 2.08299 33.7382C4.65367 37.19 5.75185 41.615 7.33913 45.6633C10.9739 54.9333 12.5821 64.7107 12.6005 74.731C12.6102 79.9766 12.9382 85.0359 13.4452 90.2497C13.9908 95.8607 14.7092 101.795 16.2544 107.193C14.7048 107.576 13.0233 107.005 12.6027 108.992C12.4994 109.48 12.6862 110.058 12.5719 110.693C12.4608 111.311 12.1936 111.925 12.0354 112.532C11.7087 113.789 11.5359 115.028 11.3771 116.319C10.7627 121.305 9.70786 126.047 9.59555 131.102C9.4922 135.775 10.3214 140.51 11.0854 145.093C11.8552 149.709 14.0627 153.644 15.8007 157.819C15.0526 157.819 14.3048 157.828 13.5567 157.836Z" fill="#031E03"/>
<path d="M93.7227 149.52V143.967L110.676 144.245L110.399 152.296L107.063 158.404H99.2813L95.9461 155.905L93.7227 149.52Z" fill="#F8F4EE"/>
<path fill-rule="evenodd" clip-rule="evenodd" d="M111.921 147.225C112.746 147.482 116.725 147.967 116.724 149.344C116.724 150.171 112.75 150.154 112.046 150.244C112.005 149.238 111.963 148.231 111.921 147.225ZM103.138 156.73C100.845 157.211 97.7326 156.535 96.2666 154.305C95.5815 153.262 95.2568 151.678 95.0337 150.434C94.8205 149.249 94.1633 146.291 94.6106 145.18C95.1597 143.816 100.428 145.241 101.962 145.398C104.639 145.671 107.407 145.703 110.086 145.51C110.086 148.561 110.227 151.535 108.6 154.161C107.427 156.056 105.223 156.504 103.138 156.73ZM103.599 160.499C106.091 159.493 108.706 160.147 110.329 157.196C110.74 156.447 111.087 155.642 111.336 154.811C111.458 154.446 111.552 154.073 111.62 153.691C111.493 152.869 111.766 152.637 112.439 152.995C113.759 152.712 115.208 153.712 116.599 153.417C119.972 152.702 119.36 147.37 117.095 145.525C116.648 145.16 116.201 145.058 115.689 144.878C114.561 144.482 113.95 144.925 112.918 144.812C112.084 144.721 111.854 143.756 110.958 143.331C110.371 143.053 109.556 143.074 108.939 143.046C105.71 142.9 102.47 142.901 99.22 142.669C97.7042 142.561 96.0676 142.826 94.5827 142.54C93.8874 142.406 93.9873 141.895 93.3288 142.343C92.6473 142.807 92.9416 144.522 92.976 145.206C93.1749 149.16 93.3884 153.401 95.3083 156.858C97.0649 160.021 100.522 160.345 103.599 160.499Z" fill="#031E03"/>
<path fill-rule="evenodd" clip-rule="evenodd" d="M12.5951 77.2776C12.5968 76.4281 12.5987 75.5786 12.6006 74.7307C12.5989 75.5808 12.597 76.4292 12.5951 77.2776Z" fill="#191B20"/>
<path fill-rule="evenodd" clip-rule="evenodd" d="M216.503 80.7662C216.506 81.5937 216.508 82.4212 216.51 83.2468C216.508 82.4187 216.506 81.5923 216.503 80.7662Z" fill="#191B20"/>
<path fill-rule="evenodd" clip-rule="evenodd" d="M149.872 160.651C149.234 160.652 148.596 160.652 147.961 160.654C148.6 160.654 149.236 160.652 149.872 160.651Z" fill="#191B20"/>
<path fill-rule="evenodd" clip-rule="evenodd" d="M188.594 160.482C187.956 160.484 187.319 160.486 186.684 160.489C187.323 160.487 187.958 160.484 188.594 160.482Z" fill="#191B20"/>
<path fill-rule="evenodd" clip-rule="evenodd" d="M49.1634 126.114C49.1913 126.673 49.2197 127.231 49.2476 127.788C49.2194 127.229 49.1913 126.672 49.1634 126.114Z" fill="#191B20"/>
<path fill-rule="evenodd" clip-rule="evenodd" d="M13.5567 157.836C14.0495 157.83 14.5423 157.825 15.0352 157.819C14.5401 157.591 14.0473 157.601 13.5567 157.836Z" fill="#191B20"/>
<path fill-rule="evenodd" clip-rule="evenodd" d="M57.3115 160.309C56.9577 160.303 56.6041 160.297 56.2537 160.29C56.6083 160.296 56.9599 160.303 57.3115 160.309Z" fill="#191B20"/>
<path fill-rule="evenodd" clip-rule="evenodd" d="M12.7876 84.1702C12.7789 83.7479 12.7702 83.3259 12.7614 82.9053C12.7702 83.3278 12.7789 83.749 12.7876 84.1702Z" fill="#191B20"/>
<path fill-rule="evenodd" clip-rule="evenodd" d="M45.8655 30.7636C45.8946 30.3281 45.9237 29.8929 45.9531 29.4586C45.9237 29.8943 45.8946 30.3289 45.8655 30.7636Z" fill="#191B20"/>
<path fill-rule="evenodd" clip-rule="evenodd" d="M12.6128 78.9406C12.6081 78.504 12.6033 78.0677 12.5986 77.6328C12.6033 78.0696 12.6081 78.5051 12.6128 78.9406Z" fill="#191B20"/>
<path fill-rule="evenodd" clip-rule="evenodd" d="M123.848 159.768C123.533 159.773 123.219 159.778 122.907 159.782C123.222 159.777 123.535 159.772 123.848 159.768Z" fill="#191B20"/>
<path fill-rule="evenodd" clip-rule="evenodd" d="M42.8389 160.479C42.5316 160.486 42.224 160.493 41.9195 160.5C42.228 160.493 42.5333 160.486 42.8389 160.479Z" fill="#191B20"/>
<path fill-rule="evenodd" clip-rule="evenodd" d="M9.63078 129.788C9.65295 129.405 9.67511 129.023 9.69678 128.641C9.67461 129.024 9.6527 129.406 9.63078 129.788Z" fill="#191B20"/>
<path fill-rule="evenodd" clip-rule="evenodd" d="M15.1499 160.852C14.8996 160.85 14.6494 160.848 14.4021 160.848C14.6531 160.85 14.9016 160.851 15.1499 160.852Z" fill="#191B20"/>
<path fill-rule="evenodd" clip-rule="evenodd" d="M49.2456 160.497C48.9978 160.49 48.7501 160.483 48.5048 160.477C48.7535 160.484 48.9998 160.491 49.2456 160.497Z" fill="#191B20"/>
<path fill-rule="evenodd" clip-rule="evenodd" d="M104.949 160.288C104.676 160.286 104.404 160.285 104.133 160.283C104.407 160.284 104.678 160.286 104.949 160.288Z" fill="#191B20"/>
<path fill-rule="evenodd" clip-rule="evenodd" d="M167.855 160.287C167.596 160.289 167.336 160.291 167.08 160.294C167.34 160.292 167.597 160.29 167.855 160.287Z" fill="#191B20"/>
<path fill-rule="evenodd" clip-rule="evenodd" d="M183.158 160.333C182.893 160.317 182.629 160.3 182.367 160.285C182.633 160.301 182.895 160.317 183.158 160.333Z" fill="#191B20"/>
<path fill-rule="evenodd" clip-rule="evenodd" d="M109.894 49.1687C110.287 49.1313 110.681 49.0939 111.074 49.0563C110.68 49.0868 110.264 48.8296 109.894 49.1687Z" fill="#191B20"/>
<path fill-rule="evenodd" clip-rule="evenodd" d="M9.5934 158.001C9.98138 157.958 10.3693 157.914 10.7573 157.871C10.3691 157.914 9.98138 157.958 9.5934 158.001Z" fill="#191B20"/>
<path fill-rule="evenodd" clip-rule="evenodd" d="M36.6552 51.8042C36.6811 52.1792 36.7075 52.5545 36.7334 52.9284C36.7073 52.5529 36.6811 52.1784 36.6552 51.8042Z" fill="#191B20"/>
<path fill-rule="evenodd" clip-rule="evenodd" d="M12.5151 67.4402C12.4887 67.0847 12.4623 66.7292 12.4359 66.3751C12.4623 66.7311 12.489 67.0855 12.5151 67.4402Z" fill="#191B20"/>
<path fill-rule="evenodd" clip-rule="evenodd" d="M36.8099 57.6216C36.8378 57.9961 36.8659 58.3702 36.8936 58.7433C36.8657 58.3686 36.8378 57.995 36.8099 57.6216Z" fill="#191B20"/>
<path fill-rule="evenodd" clip-rule="evenodd" d="M12.6798 81.792C12.6823 81.4302 12.6848 81.0684 12.687 80.7076C12.4753 81.0684 12.4838 81.4294 12.6798 81.792Z" fill="#191B20"/>
<path fill-rule="evenodd" clip-rule="evenodd" d="M49.1577 133.754C49.1607 134.117 49.1634 134.48 49.1669 134.841C49.384 134.475 49.3407 134.114 49.1577 133.754Z" fill="#191B20"/>
<path fill-rule="evenodd" clip-rule="evenodd" d="M24.4292 91.795C24.467 91.428 24.5051 91.0607 24.543 90.6947C24.5049 91.0623 24.467 91.4288 24.4292 91.795Z" fill="#191B20"/>
<path fill-rule="evenodd" clip-rule="evenodd" d="M101.993 142.929C102.318 142.93 102.643 142.93 102.968 142.931C102.643 142.93 102.318 142.93 101.993 142.929Z" fill="#191B20"/>
<path fill-rule="evenodd" clip-rule="evenodd" d="M50.0723 59.6448C50.0419 59.9497 50.0118 60.2547 49.9814 60.5586C50.0118 60.2531 50.0419 59.9489 50.0723 59.6448Z" fill="#191B20"/>
<path fill-rule="evenodd" clip-rule="evenodd" d="M210.68 29.3571C211.006 29.3643 211.333 29.3714 211.66 29.3786C211.336 29.1687 211.011 29.108 210.68 29.3571Z" fill="#191B20"/>
<path fill-rule="evenodd" clip-rule="evenodd" d="M36.8178 62.8969C36.839 63.2166 36.8604 63.5362 36.8813 63.8546C36.8602 63.5348 36.839 63.2158 36.8178 62.8969Z" fill="#191B20"/>
<path fill-rule="evenodd" clip-rule="evenodd" d="M45.7773 23.6415C45.7519 23.35 45.7268 23.0585 45.7017 22.7686C45.7271 23.0607 45.7519 23.3511 45.7773 23.6415Z" fill="#191B20"/>
<path fill-rule="evenodd" clip-rule="evenodd" d="M48.3452 22.7283C48.3708 23.0445 48.3965 23.361 48.4219 23.6761C48.3962 23.3593 48.3708 23.0437 48.3452 22.7283Z" fill="#191B20"/>
<path fill-rule="evenodd" clip-rule="evenodd" d="M190.262 1.60303C190.594 1.64754 190.927 1.69204 191.259 1.73628C190.926 1.69177 190.594 1.64754 190.262 1.60303Z" fill="#191B20"/>
<path fill-rule="evenodd" clip-rule="evenodd" d="M214.274 29.6088C214.615 29.6473 214.956 29.6858 215.297 29.7242C214.956 29.6858 214.615 29.6473 214.274 29.6088Z" fill="#191B20"/>
<path fill-rule="evenodd" clip-rule="evenodd" d="M27.3232 30.5358C27.3023 30.2415 27.2817 29.947 27.261 29.6544C27.2817 29.9489 27.3026 30.2424 27.3232 30.5358Z" fill="#191B20"/>
<path fill-rule="evenodd" clip-rule="evenodd" d="M48.335 115.414C48.3547 115.74 48.3744 116.066 48.394 116.391C48.3741 116.065 48.3544 115.74 48.335 115.414Z" fill="#191B20"/>
<path fill-rule="evenodd" clip-rule="evenodd" d="M28.2923 52.004C28.3002 51.6899 28.3077 51.3762 28.3159 51.063C28.3075 51.3773 28.3 51.6905 28.2923 52.004Z" fill="#191B20"/>
<path fill-rule="evenodd" clip-rule="evenodd" d="M181.893 0.859989C182.196 0.859989 182.499 0.860263 182.802 0.860263C182.499 0.630581 182.196 0.636351 181.893 0.859989Z" fill="#191B20"/>
<path fill-rule="evenodd" clip-rule="evenodd" d="M100.983 74.7714C101.315 74.7807 101.647 74.79 101.978 74.7994C101.652 74.545 101.32 74.5387 100.983 74.7714Z" fill="#191B20"/>
<path fill-rule="evenodd" clip-rule="evenodd" d="M71.9741 159.755C71.7774 159.759 71.5804 159.764 71.3862 159.769C71.5839 159.765 71.7791 159.76 71.9741 159.755Z" fill="#191B20"/>
<path fill-rule="evenodd" clip-rule="evenodd" d="M64.564 160.137C64.3675 160.129 64.171 160.121 63.9773 160.114C64.1745 160.121 64.3692 160.129 64.564 160.137Z" fill="#191B20"/>
<path fill-rule="evenodd" clip-rule="evenodd" d="M180.533 160.287C180.328 160.293 180.123 160.299 179.921 160.304C180.126 160.299 180.33 160.293 180.533 160.287Z" fill="#191B20"/>
<path fill-rule="evenodd" clip-rule="evenodd" d="M9.801 126.155C9.83014 125.845 9.85929 125.534 9.88867 125.225C9.85929 125.536 9.83014 125.845 9.801 126.155Z" fill="#191B20"/>
<path fill-rule="evenodd" clip-rule="evenodd" d="M36.5669 73.8177C36.5435 74.1136 36.5203 74.4095 36.4974 74.7035C36.5206 74.4073 36.5437 74.1125 36.5669 73.8177Z" fill="#191B20"/>
<path fill-rule="evenodd" clip-rule="evenodd" d="M26.2664 68.7378C26.2983 68.424 26.3302 68.1103 26.3618 67.7976C26.3299 68.1116 26.2983 68.4246 26.2664 68.7378Z" fill="#191B20"/>
<path fill-rule="evenodd" clip-rule="evenodd" d="M178.87 160.474C178.663 160.471 178.456 160.467 178.252 160.464C178.46 160.468 178.665 160.471 178.87 160.474Z" fill="#191B20"/>
<path fill-rule="evenodd" clip-rule="evenodd" d="M103.599 160.499C103.397 160.489 103.197 160.479 102.998 160.469C103.199 160.479 103.399 160.489 103.599 160.499Z" fill="#191B20"/>
<path fill-rule="evenodd" clip-rule="evenodd" d="M27.9475 45.8273C27.9567 45.5094 27.9656 45.1915 27.9746 44.8742C27.9654 45.1924 27.9564 45.5097 27.9475 45.8273Z" fill="#191B20"/>
<path fill-rule="evenodd" clip-rule="evenodd" d="M198.469 160.682C198.268 160.681 198.066 160.679 197.867 160.677C198.07 160.679 198.269 160.681 198.469 160.682Z" fill="#191B20"/>
<path fill-rule="evenodd" clip-rule="evenodd" d="M28.0317 160.679C27.8246 160.681 27.6171 160.684 27.4124 160.686C27.6208 160.684 27.8263 160.682 28.0317 160.679Z" fill="#191B20"/>
<path fill-rule="evenodd" clip-rule="evenodd" d="M23.5557 160.652C23.3554 160.667 23.1555 160.683 22.9578 160.698C23.1587 160.683 23.3572 160.667 23.5557 160.652Z" fill="#191B20"/>
<path fill-rule="evenodd" clip-rule="evenodd" d="M21.748 160.648C21.5443 160.654 21.3404 160.661 21.1392 160.666C21.3436 160.659 21.5458 160.654 21.748 160.648Z" fill="#191B20"/>
<path fill-rule="evenodd" clip-rule="evenodd" d="M12.4655 69.9977C12.479 69.6851 12.4922 69.3721 12.5054 69.0603C12.4919 69.3735 12.479 69.6856 12.4655 69.9977Z" fill="#191B20"/>
<path fill-rule="evenodd" clip-rule="evenodd" d="M149.262 156.55C148.642 156.514 148.022 156.478 147.402 156.443C148.022 156.478 148.642 156.514 149.262 156.55Z" fill="#191B20"/>
<path fill-rule="evenodd" clip-rule="evenodd" d="M186.663 42.8631C186.125 42.9147 185.587 42.9664 185.049 43.0175C185.587 42.9661 186.125 42.9145 186.663 42.8631Z" fill="#191B20"/>
<path fill-rule="evenodd" clip-rule="evenodd" d="M34.7222 68.6754C34.7055 69.2419 34.6883 69.8084 34.6716 70.3733C34.6885 69.8065 34.7055 69.2411 34.7222 68.6754Z" fill="#191B20"/>
<path fill-rule="evenodd" clip-rule="evenodd" d="M23.6162 157.518C23.0544 157.556 22.4929 157.593 21.9311 157.631C22.4963 157.659 23.0701 157.837 23.6162 157.518Z" fill="#191B20"/>
<path fill-rule="evenodd" clip-rule="evenodd" d="M26.9404 90.5076C26.9362 89.9672 26.932 89.4268 26.928 88.8878C26.9322 89.4284 26.9362 89.968 26.9404 90.5076Z" fill="#191B20"/>
<path fill-rule="evenodd" clip-rule="evenodd" d="M28.3784 107.487C27.8856 107.494 27.3923 107.501 26.8997 107.509C27.3928 107.501 27.8856 107.494 28.3784 107.487Z" fill="#191B20"/>
<path fill-rule="evenodd" clip-rule="evenodd" d="M152.463 97.986C152.475 98.3979 152.487 98.8097 152.499 99.2196C152.487 98.8072 152.475 98.3968 152.463 97.986Z" fill="#191B20"/>
<path fill-rule="evenodd" clip-rule="evenodd" d="M20.1748 80.5469C20.195 80.9568 20.2152 81.3668 20.2349 81.7745C20.2144 81.3643 20.1945 80.9555 20.1748 80.5469Z" fill="#191B20"/>
<path fill-rule="evenodd" clip-rule="evenodd" d="M30.6909 155.695C30.3323 155.668 29.9737 155.641 29.6159 155.615C29.8856 155.854 30.1568 155.874 30.6909 155.695Z" fill="#191B20"/>
<path fill-rule="evenodd" clip-rule="evenodd" d="M33.0908 102.121C33.0662 102.563 33.0415 103.004 33.0171 103.445C33.0418 103.003 33.0662 102.562 33.0908 102.121Z" fill="#191B20"/>
<path fill-rule="evenodd" clip-rule="evenodd" d="M167.168 32.3909C167.165 31.9642 167.161 31.5375 167.157 31.1125C167.161 31.5397 167.164 31.9653 167.168 32.3909Z" fill="#191B20"/>
<path fill-rule="evenodd" clip-rule="evenodd" d="M32.6567 107.576L31.3202 107.544C31.7612 107.779 32.2068 107.787 32.6567 107.576Z" fill="#191B20"/>
<path fill-rule="evenodd" clip-rule="evenodd" d="M20.3262 110.725C20.6415 110.728 20.9565 110.73 21.2695 110.734C20.9535 110.731 20.6398 110.728 20.3262 110.725Z" fill="#191B20"/>
<path fill-rule="evenodd" clip-rule="evenodd" d="M135.742 155.865C135.305 155.871 134.869 155.877 134.433 155.883C134.872 156.126 135.309 156.161 135.742 155.865Z" fill="#191B20"/>
<path fill-rule="evenodd" clip-rule="evenodd" d="M34.5679 72.3138C34.5462 72.7572 34.5245 73.2006 34.5029 73.6427C34.5245 73.1987 34.5462 72.7564 34.5679 72.3138Z" fill="#191B20"/>
<path fill-rule="evenodd" clip-rule="evenodd" d="M175.899 43.9041C175.526 43.7011 175.15 43.667 174.77 43.8821C175.147 43.8895 175.523 43.897 175.899 43.9041Z" fill="#191B20"/>
<path fill-rule="evenodd" clip-rule="evenodd" d="M46.7788 77.4341C46.7479 77.808 46.717 78.1822 46.6862 78.555C46.7173 78.1806 46.7479 77.8072 46.7788 77.4341Z" fill="#191B20"/>
<path fill-rule="evenodd" clip-rule="evenodd" d="M15.2456 68.7064C15.4373 68.3405 15.4306 67.9765 15.2361 67.6157C15.2394 67.9798 15.2423 68.3432 15.2456 68.7064Z" fill="#191B20"/>
<path fill-rule="evenodd" clip-rule="evenodd" d="M34.5068 56.0026C34.5068 56.3726 34.5066 56.743 34.5066 57.112C34.5068 56.7411 34.5068 56.3718 34.5068 56.0026Z" fill="#191B20"/>
<path fill-rule="evenodd" clip-rule="evenodd" d="M21.126 107.31C20.7417 107.18 20.3575 106.996 19.975 107.314C20.3587 107.313 20.7422 107.311 21.126 107.31Z" fill="#191B20"/>
<path fill-rule="evenodd" clip-rule="evenodd" d="M198.294 156.383C197.94 156.211 197.586 156.121 197.238 156.396C197.59 156.391 197.942 156.387 198.294 156.383Z" fill="#191B20"/>
<path fill-rule="evenodd" clip-rule="evenodd" d="M125.862 155.832C125.483 155.65 125.105 155.549 124.731 155.845C125.109 155.841 125.485 155.837 125.862 155.832Z" fill="#191B20"/>
<path fill-rule="evenodd" clip-rule="evenodd" d="M210.153 101.784C210.125 102.161 210.096 102.538 210.068 102.914C210.097 102.537 210.125 102.16 210.153 101.784Z" fill="#191B20"/>
<path fill-rule="evenodd" clip-rule="evenodd" d="M122.242 80.0562C121.87 79.9068 121.498 79.8287 121.133 80.0785C121.503 80.0708 121.872 80.0636 122.242 80.0562Z" fill="#191B20"/>
<path fill-rule="evenodd" clip-rule="evenodd" d="M34.5742 91.2849C34.5535 91.6536 34.5329 92.0223 34.5125 92.3901C34.5331 92.0212 34.5538 91.653 34.5742 91.2849Z" fill="#191B20"/>
<path fill-rule="evenodd" clip-rule="evenodd" d="M210.394 58.0161C210.425 58.3131 210.456 58.6104 210.487 58.9057C210.456 58.6082 210.425 58.3123 210.394 58.0161Z" fill="#191B20"/>
<path fill-rule="evenodd" clip-rule="evenodd" d="M26.7751 93.2361C26.7961 92.9372 26.817 92.6382 26.8379 92.3407C26.817 92.6402 26.7961 92.9383 26.7751 93.2361Z" fill="#191B20"/>
<path fill-rule="evenodd" clip-rule="evenodd" d="M152.588 100.53C152.526 100.747 152.464 100.965 152.402 101.183C152.816 101.293 152.878 101.076 152.588 100.53Z" fill="#191B20"/>
<path fill-rule="evenodd" clip-rule="evenodd" d="M127.698 79.5645C127.361 79.5628 127.024 79.5615 126.687 79.5598C127.023 79.7362 127.36 79.8574 127.698 79.5645Z" fill="#191B20"/>
<path fill-rule="evenodd" clip-rule="evenodd" d="M209.964 103.57C209.953 103.899 209.941 104.229 209.93 104.558C209.942 104.228 209.953 103.899 209.964 103.57Z" fill="#191B20"/>
<path fill-rule="evenodd" clip-rule="evenodd" d="M45.96 107.046C45.948 107.349 45.9358 107.653 45.9236 107.955C45.9353 107.651 45.9478 107.348 45.96 107.046Z" fill="#191B20"/>
<path fill-rule="evenodd" clip-rule="evenodd" d="M213.307 157.114C212.987 156.879 212.666 156.9 212.345 157.11C212.665 157.111 212.986 157.112 213.307 157.114Z" fill="#191B20"/>
<path fill-rule="evenodd" clip-rule="evenodd" d="M204.88 53.7749C204.863 54.0848 204.846 54.395 204.828 54.703C204.845 54.3925 204.863 54.0837 204.88 53.7749Z" fill="#191B20"/>
<path fill-rule="evenodd" clip-rule="evenodd" d="M214.972 157.146C214.639 157.147 214.306 157.149 213.974 157.15C214.308 157.401 214.64 157.413 214.972 157.146Z" fill="#191B20"/>
<path fill-rule="evenodd" clip-rule="evenodd" d="M30.7471 48.9101C30.7443 48.5953 30.7418 48.2807 30.7393 47.9667C30.7421 48.2818 30.7446 48.5958 30.7471 48.9101Z" fill="#191B20"/>
<path fill-rule="evenodd" clip-rule="evenodd" d="M183.485 43.4044C183.167 43.4502 182.849 43.4961 182.531 43.5417C182.849 43.4958 183.167 43.4502 183.485 43.4044Z" fill="#191B20"/>
<path fill-rule="evenodd" clip-rule="evenodd" d="M211.569 70.5758C211.565 70.8698 211.561 71.164 211.556 71.4566C211.56 71.1621 211.565 70.869 211.569 70.5758Z" fill="#191B20"/>
<path fill-rule="evenodd" clip-rule="evenodd" d="M28.6049 70.5335C28.6224 70.234 28.6398 69.9346 28.6572 69.6365C28.6398 69.9365 28.6221 70.2351 28.6049 70.5335Z" fill="#191B20"/>
<path fill-rule="evenodd" clip-rule="evenodd" d="M102.832 156.795C102.439 156.834 102.046 156.873 101.654 156.912C102.046 156.873 102.439 156.834 102.832 156.795Z" fill="#191B20"/>
<path fill-rule="evenodd" clip-rule="evenodd" d="M104.144 145.579C104.356 145.583 104.568 145.586 104.778 145.591C104.565 145.588 104.354 145.584 104.144 145.579Z" fill="#191B20"/>
<path fill-rule="evenodd" clip-rule="evenodd" d="M104.126 156.623C103.797 156.659 103.467 156.695 103.138 156.731C103.467 156.695 103.797 156.659 104.126 156.623Z" fill="#191B20"/>
<path fill-rule="evenodd" clip-rule="evenodd" d="M163.398 132.152C162.97 134.824 166.733 137.437 167.031 133.639C167.141 132.25 166.299 131.274 165.356 130.425C164.019 129.22 163.271 130.374 163.398 132.152Z" fill="#191B20"/>
<path fill-rule="evenodd" clip-rule="evenodd" d="M204.879 99.5581C203.993 99.9584 197.22 102.393 200.738 103.618C201.669 103.942 203.077 103.991 203.884 103.42C204.855 102.732 205.835 100.704 204.879 99.5581Z" fill="#191B20"/>
<path fill-rule="evenodd" clip-rule="evenodd" d="M203.212 63.3793C200.913 63.0848 198.795 67.2507 201.629 67.1155C203.693 67.0168 206.467 63.3793 203.212 63.3793Z" fill="#191B20"/>
<path fill-rule="evenodd" clip-rule="evenodd" d="M194.988 73.5935C193.068 75.4414 196.627 79.5771 198.039 77.9764C198.761 77.1588 198.096 75.3975 197.5 74.7133C196.889 74.0114 195.802 73.8795 194.988 73.5935Z" fill="#191B20"/>
<path fill-rule="evenodd" clip-rule="evenodd" d="M189.273 121.5C190.406 121.698 195.39 123.495 194.351 120.231C193.955 118.987 192.849 119.356 191.838 119.413C190.209 119.505 189.273 119.419 189.273 121.5Z" fill="#191B20"/>
<path fill-rule="evenodd" clip-rule="evenodd" d="M192.556 129.906C190.859 130.907 193.339 136.511 194.746 135.319C196.697 133.665 194.028 130.409 192.556 129.906Z" fill="#191B20"/>
<path fill-rule="evenodd" clip-rule="evenodd" d="M185.157 125.401C184.332 125.029 180.443 129.156 181.923 130.304C182.682 130.893 184.119 129.884 184.577 129.276C185.434 128.135 185.512 126.728 185.157 125.401Z" fill="#191B20"/>
<path fill-rule="evenodd" clip-rule="evenodd" d="M207.594 91.667C206.751 91.8197 205.295 91.8681 205.241 93.1753C205.193 94.3243 206.499 94.6965 207.418 94.7867C208.371 94.8801 209.634 94.5831 209.652 93.2602C209.671 91.8329 207.624 91.9189 207.594 91.667Z" fill="#191B20"/>
<path fill-rule="evenodd" clip-rule="evenodd" d="M186.801 148.552C185.903 149.154 181.715 151.319 183.51 152.884C184.182 153.469 186.219 152.26 186.677 151.645C187.225 150.912 187.759 149.193 186.801 148.552Z" fill="#191B20"/>
<path fill-rule="evenodd" clip-rule="evenodd" d="M175.158 132.839C175.287 130.449 171.632 129.497 172.39 132.89C172.604 133.847 172.81 135.299 173.882 135.354C175.149 135.42 175.195 133.766 175.158 132.839Z" fill="#191B20"/>
<path fill-rule="evenodd" clip-rule="evenodd" d="M186.449 91.2733C186.424 93.0866 189.573 94.6856 189.597 91.8115C189.619 89.2433 186.331 88.4916 186.449 91.2733Z" fill="#191B20"/>
<path fill-rule="evenodd" clip-rule="evenodd" d="M188.528 81.8297C187.752 82.1056 186.721 82.2476 186.653 83.3353C186.58 84.4864 187.55 84.9988 188.422 84.9343C189.137 84.8812 190.195 84.2971 190.325 83.4411C190.516 82.1844 189.404 82.1023 188.528 81.8297Z" fill="#191B20"/>
<path fill-rule="evenodd" clip-rule="evenodd" d="M202.957 115.027C202.97 113.531 200.252 111.733 199.752 113.469C199.592 114.025 200.873 116.516 201.299 116.702C202.426 117.196 202.583 116.045 202.957 115.027Z" fill="#191B20"/>
<path fill-rule="evenodd" clip-rule="evenodd" d="M180.686 139.931C181.604 140.837 184.359 143.385 184.153 139.965C184.022 137.78 180.443 137.894 180.686 139.931Z" fill="#191B20"/>
<path fill-rule="evenodd" clip-rule="evenodd" d="M135.801 149.705C135.5 148.267 131.19 150.762 132.628 152.578C133.111 153.188 134.373 152.636 134.858 152.275C135.819 151.559 135.84 150.899 135.801 149.705Z" fill="#191B20"/>
<path fill-rule="evenodd" clip-rule="evenodd" d="M159.815 118.924C159.647 118.283 159.461 117.149 158.906 116.74C157.903 116 157.03 117.117 157.03 118.293C157.029 120.489 159.294 121.181 159.815 118.924Z" fill="#191B20"/>
<path fill-rule="evenodd" clip-rule="evenodd" d="M170.498 144.59C169.379 144.873 166.887 147.874 168.332 149.098C169.723 150.276 171.573 145.486 170.498 144.59Z" fill="#191B20"/>
<path fill-rule="evenodd" clip-rule="evenodd" d="M169.433 121.872C167.994 121.999 166.016 124.569 168.253 124.978C170.002 125.298 172.037 122.502 169.433 121.872Z" fill="#191B20"/>
<path fill-rule="evenodd" clip-rule="evenodd" d="M156.406 133.701C156.045 132.36 152.477 133.797 152.677 135.274C152.784 136.059 154.243 136.243 155.01 136.036C156.139 135.73 156.432 134.913 156.406 133.701Z" fill="#191B20"/>
<path fill-rule="evenodd" clip-rule="evenodd" d="M198.47 58.8057C198.445 57.0721 195.425 56.3654 195.204 58.1125C195.004 59.6909 198.508 61.3704 198.47 58.8057Z" fill="#191B20"/>
<path fill-rule="evenodd" clip-rule="evenodd" d="M157.404 151.565C157.186 150.693 157.092 149.644 156.105 149.529C154.975 149.397 155.009 150.353 155.141 151.344C155.503 154.039 156.884 154.174 157.404 151.565Z" fill="#191B20"/>
<path fill-rule="evenodd" clip-rule="evenodd" d="M205.086 79.4317C206.66 79.8235 209.543 76.4788 207.781 75.7612C206.539 75.2549 205.086 78.4226 205.086 79.4317Z" fill="#191B20"/>
<path fill-rule="evenodd" clip-rule="evenodd" d="M185.009 105.412C185.81 105.828 185.995 106.081 186.61 105.398C187.146 104.803 187.122 103.146 186.662 102.527C184.901 100.158 184.942 104.453 185.009 105.412Z" fill="#191B20"/>
<path fill-rule="evenodd" clip-rule="evenodd" d="M178.473 100.607C177.638 100.724 175.155 103.322 176.448 104.354C178.032 105.619 178.928 101.657 178.473 100.607Z" fill="#191B20"/>
<path fill-rule="evenodd" clip-rule="evenodd" d="M160.397 101.291C161.005 103.871 162.52 102.135 162.434 100.183C162.297 97.0555 160.726 99.779 160.397 101.291Z" fill="#191B20"/>
<path fill-rule="evenodd" clip-rule="evenodd" d="M151.18 142.729C150.153 143.198 148.758 147.531 150.226 147.763C151.874 148.024 151.325 143.631 151.18 142.729Z" fill="#191B20"/>
<path fill-rule="evenodd" clip-rule="evenodd" d="M164.011 140.294C162.835 139.857 162.405 142.593 163.088 143.101C164.591 144.219 164.274 140.94 164.011 140.294Z" fill="#191B20"/>
<path fill-rule="evenodd" clip-rule="evenodd" d="M175.158 132.839C175.173 133.202 175.187 133.565 175.203 133.926C175.188 133.563 175.173 133.201 175.158 132.839Z" fill="#191B20"/>
<path fill-rule="evenodd" clip-rule="evenodd" d="M135.801 149.705C135.813 150.077 135.826 150.45 135.838 150.82C135.827 150.447 135.814 150.076 135.801 149.705Z" fill="#191B20"/>
<path fill-rule="evenodd" clip-rule="evenodd" d="M156.406 133.701C156.413 134.017 156.42 134.333 156.427 134.647C156.421 134.33 156.413 134.016 156.406 133.701Z" fill="#191B20"/>
<path fill-rule="evenodd" clip-rule="evenodd" d="M26.3668 128.264C23.9294 128.178 21.2103 127.166 18.8152 127.488C18.1558 127.576 16.638 127.76 17.6944 128.838C18.1996 129.354 20.6184 129.088 21.3505 129.259C25.8257 130.304 30.9058 130.978 35.4945 130.891C37.6426 130.851 39.8066 130.661 41.9537 130.535C44.0993 130.41 44.3102 129.448 41.8959 129.142C39.3885 128.825 36.8156 128.943 34.2957 128.939C31.6466 128.935 29.0107 128.459 26.3668 128.264Z" fill="#191B20"/>
<path fill-rule="evenodd" clip-rule="evenodd" d="M21.0157 121.785C21.2503 122.522 21.4563 124.213 22.3552 124.324C23.6143 124.479 23.8227 122.094 23.7764 121.222C23.7201 120.169 23.3767 118.42 22.1906 118.785C21.1888 119.093 21.0884 120.942 21.0157 121.785Z" fill="#191B20"/>
<path fill-rule="evenodd" clip-rule="evenodd" d="M28.6382 121.245C28.4542 120.456 28.3638 118.677 27.3522 118.617C26.2217 118.549 25.8987 120.403 25.9061 121.291C25.9136 122.135 26.1963 123.727 27.0965 123.922C28.3169 124.186 28.426 122.147 28.6382 121.245Z" fill="#191B20"/>
<path fill-rule="evenodd" clip-rule="evenodd" d="M41.3326 122.661C41.699 123.609 41.9412 124.916 43.0748 124.269C43.9514 123.769 44.0736 121.752 43.9083 120.829C43.737 119.872 43.3741 118.775 42.3778 119.205C41.2288 119.701 41.3448 121.617 41.3326 122.661Z" fill="#191B20"/>
<path fill-rule="evenodd" clip-rule="evenodd" d="M31.7196 121.785C32.8001 125.399 34.7709 122.954 34.0225 120.256C33.2401 117.436 31.8189 120.175 31.7196 121.785Z" fill="#191B20"/>
<path fill-rule="evenodd" clip-rule="evenodd" d="M36.984 121.964C37.2841 122.6 37.6033 123.973 38.4122 123.828C39.4038 123.651 39.4357 121.545 39.3268 120.761C39.232 120.075 38.9526 118.931 38.1226 118.946C36.9233 118.968 37.0037 121.14 36.984 121.964Z" fill="#191B20"/>
<path fill-rule="evenodd" clip-rule="evenodd" d="M15.4306 122.658C16.2349 124.649 17.3413 122.933 16.9872 121.519C16.462 119.422 15.4762 121.28 15.4306 122.658Z" fill="#191B20"/>
<path fill-rule="evenodd" clip-rule="evenodd" d="M35.1292 128.942C36.0075 128.938 36.8863 128.934 37.7646 128.931C36.8856 128.748 36.0065 128.677 35.1292 128.942Z" fill="#191B20"/>
<path fill-rule="evenodd" clip-rule="evenodd" d="M17.6727 127.479C18.4347 127.485 19.1965 127.49 19.958 127.495C19.1975 127.244 18.4357 127.238 17.6727 127.479Z" fill="#191B20"/>
<path fill-rule="evenodd" clip-rule="evenodd" d="M41.3324 122.661C41.3379 122.178 41.3439 121.695 41.3491 121.213C41.1238 121.693 41.1395 122.176 41.3324 122.661Z" fill="#191B20"/>
<path fill-rule="evenodd" clip-rule="evenodd" d="M36.5527 130.881C36.1991 130.885 35.8455 130.888 35.4949 130.892C35.8495 130.888 36.2011 130.885 36.5527 130.881Z" fill="#191B20"/>
<path fill-rule="evenodd" clip-rule="evenodd" d="M42.4907 130.536C42.1326 130.536 41.7743 130.535 41.4187 130.536C41.7783 130.536 42.1344 130.536 42.4907 130.536Z" fill="#191B20"/>
<path fill-rule="evenodd" clip-rule="evenodd" d="M39.5545 128.984C40.0525 129.029 40.5505 129.074 41.0483 129.119C40.5503 129.074 40.0525 129.029 39.5545 128.984Z" fill="#191B20"/>
<path fill-rule="evenodd" clip-rule="evenodd" d="M32.8207 128.936C33.3125 128.937 33.8041 128.938 34.2959 128.939C33.8043 128.71 33.3128 128.704 32.8207 128.936Z" fill="#191B20"/>
<path fill-rule="evenodd" clip-rule="evenodd" d="M36.9839 121.964C36.9961 121.461 37.0081 120.957 37.0195 120.454C37.0073 120.958 36.9956 121.461 36.9839 121.964Z" fill="#191B20"/>
<path fill-rule="evenodd" clip-rule="evenodd" d="M43.908 120.829C43.9108 121.32 43.9135 121.811 43.917 122.3C43.9143 121.808 43.9113 121.319 43.908 120.829Z" fill="#191B20"/>
<path fill-rule="evenodd" clip-rule="evenodd" d="M23.5728 128.081C24.0076 128.125 24.4422 128.168 24.8765 128.211C24.4417 128.168 24.0071 128.125 23.5728 128.081Z" fill="#191B20"/>
<path fill-rule="evenodd" clip-rule="evenodd" d="M33.9253 130.895C33.6227 130.889 33.3202 130.883 33.0206 130.877C33.3242 130.884 33.6247 130.89 33.9253 130.895Z" fill="#191B20"/>
<path fill-rule="evenodd" clip-rule="evenodd" d="M21.016 121.785C21.0427 121.477 21.0693 121.168 21.0957 120.861C21.0691 121.17 21.0424 121.477 21.016 121.785Z" fill="#191B20"/>
<path fill-rule="evenodd" clip-rule="evenodd" d="M31.7193 121.785C31.7387 121.469 31.7584 121.152 31.7778 120.836C31.7582 121.153 31.7387 121.469 31.7193 121.785Z" fill="#191B20"/>
<path fill-rule="evenodd" clip-rule="evenodd" d="M187.767 28.7775C188.957 28.433 189.18 26.5878 188.989 25.4545C188.772 24.9083 188.555 24.3624 188.338 23.8162C188.423 23.6143 188.508 23.4124 188.592 23.2104C188.483 22.0857 188.762 21.5969 187.59 22.0524C185.413 22.8992 185.066 28.6907 187.767 28.7775Z" fill="#191B20"/>
<path fill-rule="evenodd" clip-rule="evenodd" d="M170.15 25.21C169.17 25.1248 167.389 26.3845 168.365 27.6032C168.969 28.3582 170.962 28.001 171.775 28.1587C172.853 28.3678 173.977 28.6538 173.394 26.8724C172.936 25.4734 171.3 25.1734 170.15 25.21Z" fill="#191B20"/>
<path fill-rule="evenodd" clip-rule="evenodd" d="M171.182 33.5893C172.177 32.7082 171.733 28.695 170.217 29.4171C168.658 30.1602 170.351 33.0101 171.182 33.5893Z" fill="#191B20"/>
<path fill-rule="evenodd" clip-rule="evenodd" d="M188.988 25.4545C188.988 25.8768 188.989 26.2994 188.989 26.7197C189.197 26.2966 189.191 25.8754 188.988 25.4545Z" fill="#191B20"/>
<path fill-rule="evenodd" clip-rule="evenodd" d="M187.767 28.7775C187.564 28.7712 187.36 28.7646 187.16 28.7588C187.364 28.7659 187.565 28.7717 187.767 28.7775Z" fill="#191B20"/>
<path fill-rule="evenodd" clip-rule="evenodd" d="M64.8034 144.351C64.8965 146.177 66.6733 144.827 66.5473 143.606C66.3185 141.39 65.1827 143.58 64.8034 144.351Z" fill="#191B20"/>
</svg>
