<svg width="459" height="343" viewBox="0 0 459 343" fill="none" xmlns="http://www.w3.org/2000/svg">
<path d="M414.458 223.657L441.006 329.514L438.838 332.771H421.502L349.445 328.429L320.731 326.257L263.845 328.429H229.713L241.632 312.686L263.303 294.771L281.182 277.943L290.392 260.029L294.726 242.114L296.893 234.514L277.931 223.657L238.381 201.4L228.088 191.629C223.753 180.048 214.977 156.777 214.543 156.343C214.11 155.909 210.751 144.219 209.125 138.429L234.047 129.743L238.923 138.971L248.133 171.543C250.12 174.438 254.201 180.337 254.635 180.771C255.068 181.206 262.761 192.171 266.554 197.6L284.432 206.829L291.475 205.743L310.979 209.543L327.774 213.886L330.483 211.171V194.886L335.359 177.514L342.944 168.829L344.028 154.171L352.154 124.314C345.292 124.676 331.242 125.4 329.941 125.4C328.316 125.4 325.607 123.229 325.065 122.686C324.632 122.251 321.995 117.438 320.731 115.086L315.855 112.914L313.146 110.743L314.23 98.2572L312.063 92.2857L307.729 85.2286V69.4857L367.866 78.7143L399.289 134.086V199.771L414.458 223.657Z" fill="#F8F4EE"/>
<path d="M137.611 314.857L141.945 296.4L124.608 282.286L120.274 292.057L111.606 299.114L96.4361 306.171L101.312 269.257L97.5197 241.571L99.6868 235.6L111.606 223.657L127.317 201.943L135.444 187.286L141.403 168.286L142.487 156.343C136.708 164.305 125.042 180.337 124.608 180.771C124.175 181.206 115.037 191.086 110.522 195.971L97.5197 217.686L96.4361 204.657L101.854 167.2V140.6V119.429L99.145 104.771L96.4361 119.429L89.393 156.343L84.517 176.971L79.6411 209.543C78.7381 202.486 77.0405 188.154 77.474 187.286C77.9074 186.417 78.3769 158.333 78.5575 144.4L75.3069 119.429L66.0967 93.9143L67.722 134.086L63.3878 169.371C62.846 180.048 61.6541 201.726 61.2207 203.029C60.7873 204.331 59.5954 214.429 59.0536 219.314L54.7194 200.314L48.7598 168.286L43.8839 140.6L34.1319 113.457L23.2964 103.686L30.3395 127.029C32.8678 136.257 37.9243 155.04 37.9243 156.343C37.9243 157.646 39.0079 184.752 39.5497 198.143L43.8839 223.657L46.051 238.857H39.5497L37.9243 248.086L33.5901 278.486L35.7572 296.4L41.175 317.029L46.5927 328.429H133.819L137.611 314.857Z" fill="#F8F4EE"/>
<path fill-rule="evenodd" clip-rule="evenodd" d="M127.983 280.065C130.006 282.65 132.995 284.569 135.287 286.932C137.695 289.414 140.308 291.583 142.706 294.035C153.285 279.755 167.777 270.999 180.331 259.149C186.283 253.531 190.668 245.91 193.877 238.09C195.522 234.08 196.737 229.954 197.688 225.683C198.116 223.759 198.535 221.842 198.815 219.892C199.154 217.53 199.242 217.329 200.685 215.486C201.306 214.693 202.509 212.375 203.725 212.63C204.749 212.846 206.621 216.287 207.268 217.137C210.379 221.225 213.394 225.438 216.67 229.368C221.681 235.382 226.242 241.3 230.895 247.673C240.412 260.714 250.678 272.989 261.038 285.259C261.806 286.169 263.598 288.838 264.702 289.196C266.044 289.632 268.225 287.814 269.577 286.798C272.839 284.344 275.411 281.308 278.2 278.267C283.643 272.334 287.328 264.005 289.808 256.08C291.292 251.337 292.257 246.42 293.788 241.692C294.427 239.722 295.874 237.301 295.139 235.585C294.921 235.073 293.528 233.714 293.037 233.61C292.457 233.487 291.488 234.366 291.287 234.305C289.36 233.723 290.429 231.496 289.283 230.297C288.634 229.617 285.33 229.717 284.343 229.343C280.737 227.977 277.501 225.37 274.091 223.814C259.817 217.301 245.368 210.965 233.045 200.328C229.849 197.57 227.726 195.498 223.912 193.715C220.059 191.913 216.185 190.306 212.253 188.734C208.784 187.347 205.296 186.047 201.712 185.053C197.836 183.978 192.339 182.615 188.467 184C180.863 186.719 178.408 193.638 175.38 200.938C171.283 210.814 166.329 220.16 160.959 229.25C150.629 246.74 138.064 262.434 127.983 280.065Z" fill="#D0A13D"/>
<path fill-rule="evenodd" clip-rule="evenodd" d="M356.981 125.445C357.399 125.21 360.666 126.679 361.214 126.903C363.404 127.801 365.467 129.292 367.531 130.505C365.95 132.631 364.368 134.757 362.787 136.883C361.237 132.684 359.244 129.219 356.981 125.445ZM355.902 151.572C356.44 151.639 351.898 163.695 351.367 165.049C349.437 169.973 347.41 174.849 345.454 179.76C343.559 184.519 341.155 188.898 338.733 193.344C336.662 197.146 334.531 203.047 331.406 205.864C333.379 196.196 333.12 185.081 338.779 176.964C344.645 168.549 350.444 160.332 355.902 151.572ZM127.983 280.495C136.749 265.164 147.722 251.601 156.863 236.544C161.981 228.112 166.963 219.573 171.272 210.599C174.405 204.07 176.353 194.756 181.193 189.765C183.326 187.566 185.605 185.414 188.467 184.429C192.384 183.081 197.777 184.417 201.712 185.483C209.044 187.468 216.207 190.552 223.152 193.79C230.197 197.075 236.207 202.975 242.573 207.715C249.4 212.8 256.792 216.505 264.441 219.747C271.102 222.571 277.028 226.625 283.653 229.467C284.974 230.034 287.668 229.951 288.775 230.689C289.969 231.484 289.499 233.833 290.948 234.699C291.601 235.09 291.819 233.673 292.321 233.696C292.934 233.724 293.494 234.52 294.085 235.024C296.493 237.076 295.018 238.444 294.065 241.267C290.957 250.466 289.287 259.826 284.923 268.51C281.336 275.649 276.201 282.045 270.156 286.771C269.236 287.49 266.239 290.277 265.16 290.092C264.188 289.925 262.211 287.072 261.54 286.297C258.496 282.781 255.713 278.999 252.671 275.478C247.97 270.036 243.444 264.447 238.882 258.931C233.585 252.527 228.898 245.271 224.128 238.428C221.933 235.28 219.109 232.716 216.67 229.798C213.39 225.873 210.379 221.654 207.267 217.566C206.327 216.329 204.75 213.165 203.287 213.202C202.262 213.229 200.455 215.894 199.919 216.729C197.926 219.834 197.935 225.441 196.944 229.317C194.526 238.767 190.165 247.998 184.185 255.29C178.238 262.543 170.621 267.7 163.587 273.529C155.968 279.844 148.749 286.307 142.706 294.465C140.308 292.013 137.695 289.843 135.288 287.361C132.994 284.998 130.006 283.08 127.983 280.495ZM240.819 323.868C239.115 323.888 236.229 325.046 234.704 324.348C239.226 318.822 243.379 314.081 249.101 310.031C255.038 305.828 260.956 301.663 266.722 297.18C278.344 288.146 286.891 277.432 291.746 262.388C292.996 258.513 293.833 254.45 294.749 250.468C295.242 248.323 296.223 238.288 297.889 237.422C298.876 236.908 306.304 242.674 307.481 243.393C310.232 245.073 312.994 246.377 315.839 247.692C321.954 250.52 328.257 252.676 334.742 254.477C342.516 256.636 347.811 253.064 352.627 246.315C358.091 238.659 362.631 230.02 367.627 221.98C369.899 218.323 371.781 214.672 373.458 210.638C374.556 207.999 378.911 200.879 377.407 198.067C373.113 201.677 371.569 208.855 368.644 213.688C364.999 219.712 360.892 225.392 357.228 231.411C354.147 236.471 351.004 242.604 346.452 246.243C342.449 249.442 338.645 248.459 334.336 247.02C329.114 245.278 323.701 244.419 318.583 242.257C313.044 239.918 307.804 236.6 302.401 233.895C299.881 232.633 296.865 231.916 294.491 230.343C292.445 228.988 292.75 228.273 292.6 225.388C292.425 222.022 292.223 218.653 292.088 215.284C291.997 213.02 293.106 209.951 292.353 208.261C298.488 209.436 304.484 211.009 310.576 212.401C313.911 213.163 317.127 214.105 320.497 214.704C321.781 214.932 323.537 214.926 324.687 215.544C325.604 215.253 326.072 215.438 326.09 216.098C326.134 216.457 326.203 216.811 326.299 217.159C328.18 218.104 329.274 216.077 330.906 214.132C332.919 211.732 334.426 209.03 335.903 206.21C339.206 199.905 343.013 193.976 346.069 187.493C349.184 180.886 351.714 173.81 354.355 166.955C356.777 160.665 358.329 153.862 361.006 147.722C362.201 144.98 363.715 142.714 365.483 140.398C366.942 138.487 369.187 134.365 371.366 133.487C371.942 133.255 373.451 133.645 374.106 133.594C375.41 133.491 376.573 132.962 377.908 133.078C380.798 133.328 383.95 135.346 386.259 137.121C384.767 138.591 381.033 140.377 383.715 143.024C386.318 145.594 387.755 140.984 388.748 138.964C393.425 143.206 392.749 149.055 393.29 155.048C393.572 158.178 394.314 161.259 394.793 164.341C395.138 166.559 394.896 168.854 394.995 171.118C395.246 176.873 395.77 182.382 395.745 188.056C395.717 194.121 395.343 199.979 394.904 206C394.164 216.137 392.469 226.278 391.016 236.334C390.199 241.987 389.079 247.48 387.993 253.041C386.76 259.353 384.479 265.332 383.2 271.627C381.897 269.798 380.917 269.789 378.809 270.031C377.188 270.218 376.099 269.792 376.194 272.277C376.255 273.889 377.543 275.12 378.967 275.402C380.825 275.768 381.456 274.745 382.414 273.19C382.638 276.133 380.846 279.211 380.137 282.085C379.466 284.809 379.022 287.479 377.895 290.086C376.795 292.629 375.853 295.137 374.741 297.656C374.228 298.815 373.749 299.992 373.23 301.148C372.968 301.733 372.66 302.54 372.268 303.033C371.351 304.19 371.497 303.63 370.423 304.288C368.084 305.723 368.962 305.366 368.908 308.33C368.854 311.253 367.497 313.401 365.32 315.044C360.702 318.531 356.146 319.501 350.896 321.263C346.004 322.905 340.851 324.314 335.671 324.282C329.326 324.243 323.066 323.324 316.722 323.231C309.722 323.128 302.655 323.17 295.67 323.438C292.793 323.547 290.121 323.689 287.343 324.5C284.117 325.443 280.996 325.069 277.671 324.926C270.577 324.622 263.239 324.015 256.238 323.961C251.197 323.921 245.879 323.533 240.819 323.868ZM56.8778 326.906C55.6167 327.641 52.7898 327.339 51.522 327.135C49.2887 326.775 49.0495 325.798 47.6325 323.598C45.1936 319.811 43.2135 316.183 41.7785 311.796C39.0323 303.399 37.911 294.808 36.7054 286.024C35.3655 276.264 37.8125 266.147 38.6878 256.453C38.889 254.229 39.164 252.025 39.4821 249.818C39.6725 248.498 39.7223 244.009 40.5085 242.867C42.0191 240.672 49.0437 242.442 51.8056 242.641C59.5147 243.197 67.2744 243.327 74.9799 243.424C79.0885 243.475 83.2199 243.665 87.2877 243.7C89.1558 243.717 90.9823 243.614 92.8571 243.413C93.4843 243.347 94.0967 243.187 94.7284 243.149C96.8913 243.017 96.7287 242.67 97.2878 244.785C98.2671 248.491 97.5136 253.206 97.7708 257.053C98.1148 262.193 98.3007 267.405 98.2156 272.556C98.1368 277.316 98.2837 282.065 98.1229 286.835C98.0557 288.811 97.8604 290.422 97.3886 292.308C96.8551 294.441 96.2682 299.425 94.9394 300.901C94.7885 301.069 93.659 300.677 93.3593 301.096C92.8975 301.74 92.9821 303.105 92.665 303.521C91.6386 304.87 89.5173 304.977 87.9785 305.583C83.7561 307.246 79.8827 309.051 75.9032 311.294C72.3475 313.297 66.6145 315.002 64.4766 318.955C63.4964 320.767 63.3643 323.156 62.4629 325.025C61.4366 327.155 63.4902 326.042 60.9756 326.906C59.843 327.294 58.0385 326.906 56.8778 326.906ZM431.74 302.82C432.06 307.738 434.568 312.422 435.441 317.257C435.85 319.521 436.543 321.747 437.023 323.998C437.484 326.157 439.147 328.714 438.979 330.85C432.838 328.434 426.617 327.826 420.199 327.175C414.116 326.556 407.689 326.311 401.657 326.308C395.51 326.304 388.937 325.641 382.608 325.538C375.989 325.431 369.27 325.242 362.747 324.483C366.158 321.693 370.426 319.073 372.945 315.191C375.683 310.971 377.105 305.683 379.514 301.23C384.349 292.294 387.422 281.205 389.957 271.165C395.073 250.898 400.791 231.004 402.169 209.981C404.792 211.465 406.873 217.22 408.186 220.085C409.862 223.744 410.74 227.711 411.83 231.6C414.073 239.61 415.626 247.915 418.373 255.849C423.623 271.016 426.998 287.358 431.74 302.82ZM98.3814 184.695C97.2457 193.76 94.8642 202.941 94.7728 212.115C94.7526 214.134 95.0622 216.375 94.6814 218.365C94.2746 220.49 92.9517 222.368 92.1879 224.387C90.9756 227.592 87.9055 234.162 90.8663 236.878C90.9263 234.301 93.0619 231.028 94.1375 228.774C95.7588 225.378 97.889 222.273 99.6465 218.962C103.325 212.03 107.448 205.247 112.189 199.136C116.807 193.184 122.129 187.904 127.026 182.236C128.497 180.533 140.3 164.142 140.769 164.371C137.108 179.964 130.885 193.531 122.368 206.587C118.192 212.987 113.18 217.199 108.097 222.621C103.864 227.136 95.8856 231.964 97.3492 239.363C90.7318 238.66 84.1579 237.538 77.4806 237.538C78.5786 228.203 79.4195 219.017 81.38 209.836C83.6056 199.412 85.1131 188.675 86.9965 178.158C88.9184 167.421 92.1784 157.026 94.2065 146.309C96.1485 136.047 97.8169 125.804 99.2406 115.428C100.417 121.177 99.9829 127.492 100.4 133.358C100.827 139.352 100.786 145.235 100.644 151.263C100.381 162.461 99.3002 173.524 98.3814 184.695ZM69.707 131.308C69.6698 126.515 68.8289 121.787 68.5695 117.005C68.4898 115.538 67.1669 105.529 68.4006 105.006C69.4154 107.45 69.6519 110.576 70.5734 113.14C71.494 115.701 72.7256 118.14 73.609 120.719C75.5229 126.306 76.1832 132.627 76.3893 138.567C76.8557 152.002 77.0967 165.406 76.2791 178.841C75.9287 184.599 75.66 190.367 75.7558 196.137C75.8611 202.486 76.7414 207.996 75.6725 214.293C74.6144 220.528 73.9495 226.738 73.597 233.064C73.3497 237.505 73.2502 237.19 69.4144 236.878C66.6454 236.653 63.849 236.893 61.0759 236.753C62.3724 219.448 62.5843 202.106 64.6554 184.867C65.7122 176.072 65.7404 167.15 67.0531 158.387C67.7053 154.035 68.7998 149.77 69.4288 145.412C70.1039 140.733 69.7715 136.023 69.707 131.308ZM350.2 120.417C342.816 121.124 334.961 123.562 327.392 121.952C328.64 121.394 331.905 120.624 330.436 118.421C328.942 116.181 326.424 119.022 324.934 118.729C324.015 118.548 321.985 114.306 321.418 113.428C320.133 111.432 319.978 111.084 317.667 110.572C315.428 110.077 314.92 110.613 314.637 108.155C314.311 105.327 315.197 102.149 315.109 99.2577C314.92 93.0337 313.102 87.5757 311.41 81.7198C318.599 83.4472 325.629 85.4956 332.979 86.6089C336.122 87.0849 341.01 88.1828 343.865 85.8236C344.607 85.2101 344.488 84.3818 345.096 83.6708C346.115 82.4779 348.004 81.2438 349.449 80.9039C358.34 78.8134 359.208 92.8126 354.752 98.0509C353.636 99.3636 352.083 100.012 350.94 101.215C349.415 102.819 349.29 104.508 349.067 106.957C348.65 111.549 349.217 116.158 350.991 120.359L350.2 120.417ZM242.303 186.506C239.678 187.057 236.939 186.931 234.307 187.4C233.372 187.567 230.569 188.149 229.747 187.545C228.492 186.624 228.045 183.243 227.452 181.668C226.408 178.899 224.931 176.483 223.936 173.664C219.868 162.146 216.075 150.582 211.155 139.458C213.04 138.916 214.488 138.895 216.389 138.615C218.368 138.324 220.163 137.031 222.052 136.475C223.847 135.948 225.728 136.082 227.506 135.468C228.486 135.13 229.327 134.379 230.293 134.116C231.832 133.698 233.629 133.453 234.545 134.57C235.484 135.714 235.813 138.854 236.323 140.333C237.684 144.273 239.264 148.075 240.403 152.106C241.431 155.741 242.408 159.338 243.313 163.006C244.269 166.879 246.153 170.071 247.301 173.77C248.174 176.586 248.998 179.465 249.128 182.467C249.255 185.397 249.641 185.584 246.988 186.052C245.649 186.288 243.563 187.166 242.303 186.506ZM69.6053 323.621C68.9217 323.973 68.277 323.926 67.6722 323.481C73.5992 320.716 79.3644 316.881 85.5477 314.984C91.3479 313.205 96.9854 311.08 102.573 308.889C107.114 307.108 111.196 305.722 115.301 302.589C117.793 300.687 120.006 298.549 121.718 295.77C123.625 292.675 124.049 288.272 126.113 285.485C128.9 288.865 132.173 291.424 135.47 294.11C136.611 295.039 139.346 297.065 139.737 298.503C140.229 300.317 138.91 302.053 138.258 303.889C136.587 308.592 135.771 313.292 134.865 318.181C134.501 320.14 133.717 323.086 132.26 323.907C130.933 324.653 127.09 324.11 125.438 323.972C116.824 323.251 108.361 322.513 99.6944 323.169C89.8869 323.912 79.3873 324.425 69.6053 323.621ZM52.3983 236.482C50.8325 236.488 49.3031 236.272 47.7431 236.272C48.6436 231.628 46.5385 225.62 45.7921 220.984C44.9571 215.8 44.3214 210.438 43.7645 205.211C42.5908 194.203 42.059 183.328 42.0438 172.239C42.0294 161.508 40.2607 151.702 37.7833 141.387C35.1231 130.308 30.7668 120.346 27.165 109.662C31.1158 111.968 33.3029 117.366 35.379 121.493C38.0033 126.71 39.7514 132.487 40.823 138.345C42.8905 149.644 45.1582 160.978 47.5438 172.259C50.0279 184.005 51.4884 195.858 54.3341 207.508C55.7219 213.189 57.6089 220.179 57.7137 226.038C57.7572 228.461 58.4184 233.537 57.4239 235.642C56.4938 237.611 54.4375 236.683 52.3983 236.482ZM288.738 221.909C288.821 223.115 288.899 224.262 289.093 225.454C286.924 225.431 284.177 222.946 282.317 221.83C280.051 220.471 277.783 218.972 275.567 217.606C271.288 214.967 266.431 213.229 261.863 211.062C256.615 208.572 251.791 205.564 246.773 202.566C245.02 201.519 232.421 195.488 232.633 193.84C235.399 193.738 238.165 193.637 240.931 193.535C243.302 193.448 246.975 194.04 249.246 193.231C250.49 192.787 251.886 191.153 252.355 189.874C252.82 188.609 251.776 182.788 252.383 182.416C255.478 185.907 257.425 190.547 260.193 194.313C263.251 198.475 267.203 200.905 271.559 203.117C276.369 205.56 281.348 207.451 286.264 209.545C288.337 210.428 288.296 210.933 288.476 213.443C288.678 216.249 288.656 219.095 288.738 221.909ZM38.781 327.477C33.5668 328.095 28.2231 327.743 22.9681 328.225C21.0561 328.4 18.4053 328.662 20.329 331.496C21.5404 333.281 25.4209 332.708 27.1811 332.832C31.907 333.164 36.9106 332.985 41.6473 332.908C42.6445 332.892 43.7466 332.565 44.7546 332.639C45.918 332.723 47.3113 333.648 48.3717 333.641C49.0253 333.636 49.2596 332.875 49.8232 332.805C51.0512 332.653 52.2786 332.541 53.5169 332.542C72.2386 332.546 90.7032 332.131 109.378 332.108C118.308 332.098 127.381 331.928 136.308 331.465C138.182 331.367 148.857 331.791 148.561 328.063C148.409 326.143 144.925 325.872 143.654 325.669C142.712 325.518 141.734 325.541 140.79 325.485C138.282 325.337 137.184 326.004 137.713 322.973C139.72 311.478 143.315 301.978 150.998 293.713C157.279 286.955 164.843 280.824 171.958 275.18C180.597 268.328 187.606 261.12 192.735 250.634C195.73 244.511 198.238 238.25 199.777 231.479C200.33 229.044 200.343 226.273 201.022 223.925C201.544 222.117 202.734 220.852 203.434 218.979C212.03 234.835 223.422 248.101 233.867 262.398C238.858 269.228 244.552 275.715 250.515 281.657C252.285 283.42 253.936 285.261 255.588 287.159C256.969 288.747 259.163 290.159 260.329 291.921C261.448 293.611 261.173 293.53 259.47 294.873C257.218 296.647 254.737 298.121 252.45 299.85C248.794 302.616 244.804 304.952 241.535 308.28C238 311.879 234.911 316.048 231.822 320.107C229.762 322.812 227.06 326.283 226.542 329.703C226.37 330.834 225.719 333.633 226.579 334.461C227.313 335.17 227.239 334.901 228.152 334.469C229.347 333.903 229.699 332.604 231.159 331.985C234.894 330.402 239.415 330.945 243.302 330.926C247.191 330.907 251.112 331.389 254.999 331.371C263.874 331.331 272.561 332.125 281.434 332.551C290.858 333.003 300.398 331.918 309.79 332.072C316.749 332.185 323.894 331.611 331.045 332.038C334.724 332.257 338.336 331.749 341.923 331.692C346.619 331.617 351.442 332.323 356.178 332.423C363.951 332.589 371.63 332.588 379.451 332.794C396.274 333.239 413.006 333.699 429.839 333.993C432.085 334.032 434.543 333.948 436.762 334.227C439.117 334.524 437.901 335.077 439.517 336.013C444.041 338.634 442.996 328.918 442.888 327.007C442.306 316.767 439.952 306.724 437.124 297.002C434.44 287.782 432.262 278.131 429.989 268.712C427.501 258.402 424.26 248.514 421.317 238.305C418.301 227.844 415.845 216.976 410.368 207.703C409.12 205.591 407.831 203.318 405.824 201.987C403.574 200.494 403.477 201.366 403.479 198.634C403.48 196.061 403.337 192.624 403.887 190.169C404.383 187.951 404.307 189.266 405.425 187.673C406.336 186.377 407.288 185.491 407.941 183.918C411.954 188.411 421.138 186.04 425.015 182.804C429.759 178.844 433.373 172.163 434.697 165.8C435.761 160.69 434.456 150.95 429.335 148.493C426.839 147.295 417.671 146.39 417.304 142.486C417.115 140.47 420.341 137.637 421.086 135.904C422.466 132.694 423.791 128.424 424.175 124.905C424.924 118.036 422.1 110.355 417.603 105.716C409.353 97.2043 394.836 92.8363 384.224 98.2365C386.466 88.7746 387.82 80.612 386.691 70.7696C385.718 62.2904 381.188 57.5463 374.955 53.3227C364.319 46.1144 349.855 43.2694 337.693 45.3653C334.929 45.8418 332.277 46.8635 329.718 47.6765C326.001 48.8575 321.551 48.4642 318.04 50.3832C315.495 51.774 313.563 54.5449 311.328 56.3949C308.718 58.5547 306.55 61.7782 304.737 64.7594C300.859 71.1343 302.375 82.9657 305.62 89.3649C306.316 90.7374 307.175 91.8928 308.327 92.8294C309.525 93.8041 311.353 94.1074 311.971 95.3716C313.553 98.6101 312.027 105.621 311.816 109.121C311.57 113.185 313.43 116.238 317.603 116.562C320.017 116.75 320.094 115.203 321.249 118.386C321.999 120.449 322.679 122.696 323.76 124.587C325.989 128.485 330.071 128.104 333.789 127.999C338.094 127.876 342.333 127.125 346.64 126.651C345.503 130.676 342.389 133.8 340.445 137.386C337.816 142.236 336.234 146.256 335.806 151.907C335.478 156.248 336.186 159.676 338.876 162.907C339.989 164.245 340.976 164.31 340.7 165.853C340.531 166.794 339.058 168.347 338.536 169.098C337.157 171.085 335.555 172.909 334.341 175.031C329.67 183.196 328.29 195.643 328.278 205.148C328.278 205.584 328.067 206.511 328.241 206.962C328.37 207.295 329.351 208.349 329.365 208.439C329.557 209.662 328.478 211.757 326.785 211.964C325.007 212.181 321.75 210.542 320.096 210.004C317.45 209.142 314.752 208.506 312.111 207.621C307.845 206.191 303.6 205.051 299.264 203.931C297.304 203.425 295.334 203.004 293.368 202.531C291.129 201.992 290.089 200.952 288.933 203.468C287.941 205.627 288.558 206.018 286.156 204.93C283.772 203.849 281.442 202.509 279.113 201.289C275.007 199.138 270.117 197.22 266.574 194.044C260.666 188.745 258.478 180.307 252.823 174.685C251.248 173.119 250.309 173.092 249.313 170.923C248.247 168.602 247.698 165.625 247.138 163.128C246.156 158.756 245.458 154.369 244.567 150.001C243.459 144.559 241.062 139.631 239.314 134.441C238.632 132.419 238.279 129.848 237.181 128.031C236.889 127.549 236.333 127.277 236.106 126.879C235.324 125.509 235.332 125.133 235.13 123.486C234.182 115.79 230.022 119.839 225.477 121.604C223.562 122.347 214.468 127.17 217.94 130.377C213.801 131.704 207.171 130.983 207.227 137.535C207.255 140.892 209.073 144.483 210.049 147.626C210.916 150.416 211.754 153.217 212.634 156.002C214.563 162.105 216.902 168.024 218.784 174.145C219.642 176.935 220.35 179.79 221.545 182.423C222.598 184.745 225.148 187.305 225.568 189.845C214.537 184.647 204.333 177.133 191.985 177.611C186.579 177.821 181.673 180.331 178.687 185.581C174.943 192.162 172.48 199.53 168.821 206.171C155.511 230.332 139.636 252.281 125.024 275.441C123.902 277.221 122.458 278.903 122.069 281.103C121.815 282.538 122.308 283.973 122.003 285.351C121.371 288.216 118.177 291.793 116.012 293.439C111.861 296.595 105.112 301.046 99.9323 300.652C103.183 292.023 103.14 282.568 102.989 273.364C102.845 264.62 101.99 255.947 100.974 247.294C100.744 245.336 100.544 243.521 100.034 241.623C99.4498 239.446 98.647 239.652 100.398 237.696C103.093 234.682 106.299 232.203 109.016 229.152C114.893 222.554 120.916 217.383 125.541 209.505C129.939 202.011 134.579 194.301 137.835 186.095C141.187 177.647 142.527 168.626 144.191 159.679C144.866 156.049 147.328 151.996 146.834 148.205C146.208 143.414 144.197 146.903 143.378 149.481C140.879 157.352 135.028 164.396 130.181 170.726C124.945 177.564 118.541 183.285 113.076 189.924C107.124 197.155 103.047 205.465 97.7546 213.184C97.7546 203.605 100.716 193.851 101.927 184.374C102.993 176.034 103.328 167.667 104.001 159.29C105.531 140.261 104.209 120.672 102.062 101.779C101.042 92.8066 101.62 84.0454 101.589 75.0421C101.58 72.1768 102.653 65.5728 101.285 63.0301C98.6636 58.1598 97.1346 68.8092 97.002 70.397C96.2095 79.8555 97.631 89.2085 96.9048 98.6264C96.1459 108.461 94.4991 118.02 93.0977 127.741C91.5795 138.267 89.1079 148.555 86.7416 158.879C84.257 169.719 82.1675 180.784 79.4052 191.537C78.6602 188.157 79.7053 184.005 79.9119 180.562C80.2066 175.636 80.7823 170.709 80.8321 165.77C80.9118 157.898 80.9673 149.881 80.5641 142.046C80.1668 134.323 80.2868 126.231 78.1423 118.791C77.1245 115.259 75.6317 111.814 74.1713 108.488C72.3694 104.386 71.7324 100.409 70.7347 96.046C69.8799 92.3099 68.6291 88.6722 68.0597 84.8613C67.7058 82.4912 66.7179 75.4949 64.2611 80.7956C62.8347 83.8722 63.4512 88.4332 63.4113 91.7384C63.3602 95.9758 63.9476 100.096 64.0376 104.315C64.2128 112.594 64.3387 120.863 64.8978 129.128C65.4842 137.8 64.9721 145.571 63.4785 154.115C61.8438 163.467 61.3653 172.84 60.5182 182.307C60.0814 187.195 59.3449 192.056 58.9891 196.951C58.801 199.543 59.766 206.976 58.0842 208.822C57.9216 204.333 56.7568 199.839 55.8738 195.464C54.8277 190.281 54.4053 184.832 53.6343 179.575C52.3857 171.058 49.963 162.924 48.36 154.502C45.0561 137.141 42.3108 114.829 28.4641 103.465C26.6524 101.979 24.6616 100.881 22.7029 99.6575C21.5942 98.9648 19.9469 97.1727 18.6781 96.86C17.2934 96.5186 16.7159 96.7838 16.1546 98.5581C15.3719 101.032 16.8033 102.187 18.1396 103.983C22.7643 110.2 24.7399 118.169 27.5955 125.46C34.1344 142.155 37.0275 159.763 37.0607 177.809C37.0782 187.256 37.6682 196.368 38.5803 205.758C39.5619 215.863 40.8543 226.55 43.6342 236.272C40.8463 236.962 37.8214 235.933 37.0647 239.512C36.8788 240.391 37.2148 241.431 37.0092 242.575C36.8094 243.687 36.3287 244.794 36.0442 245.888C35.4564 248.15 35.1455 250.383 34.8597 252.707C33.7545 261.686 31.8568 270.227 31.6548 279.331C31.4689 287.747 32.9607 296.274 34.3351 304.528C35.7199 312.842 39.6913 319.928 42.8179 327.447C41.4721 327.447 40.1268 327.462 38.781 327.477Z" fill="#031E03"/>
<path d="M183 312.5V302.5L213.5 303L213 317.5L207 328.5H193L187 324L183 312.5Z" fill="#F8F4EE"/>
<path fill-rule="evenodd" clip-rule="evenodd" d="M215.739 308.366C217.222 308.83 224.381 309.703 224.379 312.184C224.378 313.672 217.229 313.643 215.964 313.805C215.889 311.992 215.814 310.179 215.739 308.366ZM199.938 325.486C195.813 326.352 190.213 325.134 187.576 321.117C186.344 319.241 185.759 316.386 185.358 314.146C184.975 312.012 183.792 306.685 184.597 304.684C185.585 302.227 195.063 304.795 197.823 305.077C202.639 305.568 207.618 305.626 212.437 305.279C212.437 310.774 212.691 316.13 209.764 320.859C207.653 324.272 203.689 325.078 199.938 325.486ZM200.767 332.273C205.249 330.461 209.955 331.639 212.874 326.324C213.614 324.976 214.238 323.526 214.686 322.029C214.905 321.373 215.075 320.701 215.196 320.012C214.968 318.531 215.46 318.113 216.67 318.759C219.046 318.249 221.651 320.05 224.154 319.519C230.223 318.232 229.12 308.629 225.047 305.305C224.243 304.648 223.439 304.466 222.518 304.141C220.488 303.426 219.389 304.225 217.532 304.022C216.031 303.858 215.618 302.12 214.006 301.354C212.95 300.854 211.484 300.892 210.374 300.842C204.564 300.578 198.736 300.58 192.889 300.162C190.162 299.967 187.218 300.444 184.547 299.93C183.296 299.688 183.476 298.769 182.291 299.576C181.065 300.411 181.594 303.499 181.656 304.731C182.014 311.852 182.398 319.49 185.852 325.716C189.012 331.412 195.231 331.995 200.767 332.273Z" fill="#031E03"/>
<path fill-rule="evenodd" clip-rule="evenodd" d="M437.482 334.236C436.04 334.218 434.598 334.202 433.161 334.185C434.605 334.203 436.043 334.219 437.482 334.236Z" fill="#191B20"/>
<path fill-rule="evenodd" clip-rule="evenodd" d="M37.0507 182.396C37.0537 180.866 37.0571 179.336 37.0605 177.809C37.0576 179.34 37.0542 180.868 37.0507 182.396Z" fill="#191B20"/>
<path fill-rule="evenodd" clip-rule="evenodd" d="M403.883 188.678C403.887 190.169 403.891 191.659 403.896 193.146C403.892 191.655 403.887 190.166 403.883 188.678Z" fill="#191B20"/>
<path fill-rule="evenodd" clip-rule="evenodd" d="M284.012 332.546C282.865 332.548 281.718 332.549 280.576 332.553C281.725 332.551 282.868 332.549 284.012 332.546Z" fill="#191B20"/>
<path fill-rule="evenodd" clip-rule="evenodd" d="M353.674 332.242C352.527 332.246 351.38 332.25 350.238 332.255C351.387 332.252 352.531 332.247 353.674 332.242Z" fill="#191B20"/>
<path fill-rule="evenodd" clip-rule="evenodd" d="M102.837 270.348C102.888 271.354 102.939 272.359 102.989 273.363C102.938 272.356 102.888 271.352 102.837 270.348Z" fill="#191B20"/>
<path fill-rule="evenodd" clip-rule="evenodd" d="M38.7802 327.477C39.6668 327.466 40.5534 327.457 41.4399 327.446C40.5493 327.036 39.6628 327.054 38.7802 327.477Z" fill="#191B20"/>
<path fill-rule="evenodd" clip-rule="evenodd" d="M117.496 331.931C116.859 331.92 116.223 331.909 115.593 331.897C116.231 331.908 116.864 331.92 117.496 331.931Z" fill="#191B20"/>
<path fill-rule="evenodd" clip-rule="evenodd" d="M37.397 194.809C37.3813 194.048 37.3656 193.288 37.3499 192.531C37.3656 193.292 37.3813 194.05 37.397 194.809Z" fill="#191B20"/>
<path fill-rule="evenodd" clip-rule="evenodd" d="M96.9043 98.6263C96.9567 97.8421 97.0091 97.0583 97.062 96.2761C97.0091 97.0608 96.9567 97.8436 96.9043 98.6263Z" fill="#191B20"/>
<path fill-rule="evenodd" clip-rule="evenodd" d="M37.0825 185.391C37.074 184.604 37.0655 183.819 37.057 183.035C37.0655 183.822 37.074 184.606 37.0825 185.391Z" fill="#191B20"/>
<path fill-rule="evenodd" clip-rule="evenodd" d="M237.195 330.956C236.629 330.966 236.064 330.975 235.503 330.982C236.069 330.973 236.633 330.965 237.195 330.956Z" fill="#191B20"/>
<path fill-rule="evenodd" clip-rule="evenodd" d="M91.4595 332.238C90.9066 332.25 90.3534 332.262 89.8055 332.275C90.3605 332.263 90.9098 332.25 91.4595 332.238Z" fill="#191B20"/>
<path fill-rule="evenodd" clip-rule="evenodd" d="M31.7182 276.965C31.7581 276.275 31.7979 275.586 31.8369 274.898C31.797 275.588 31.7576 276.276 31.7182 276.965Z" fill="#191B20"/>
<path fill-rule="evenodd" clip-rule="evenodd" d="M41.647 332.908C41.1967 332.905 40.7465 332.902 40.3016 332.901C40.7532 332.905 41.2003 332.907 41.647 332.908Z" fill="#191B20"/>
<path fill-rule="evenodd" clip-rule="evenodd" d="M102.986 332.269C102.54 332.258 102.094 332.245 101.653 332.234C102.101 332.246 102.544 332.258 102.986 332.269Z" fill="#191B20"/>
<path fill-rule="evenodd" clip-rule="evenodd" d="M203.197 331.893C202.706 331.89 202.215 331.887 201.729 331.883C202.221 331.886 202.709 331.89 203.197 331.893Z" fill="#191B20"/>
<path fill-rule="evenodd" clip-rule="evenodd" d="M316.364 331.891C315.898 331.895 315.431 331.899 314.97 331.903C315.438 331.9 315.901 331.896 316.364 331.891Z" fill="#191B20"/>
<path fill-rule="evenodd" clip-rule="evenodd" d="M343.894 331.974C343.418 331.945 342.943 331.916 342.472 331.887C342.949 331.917 343.421 331.945 343.894 331.974Z" fill="#191B20"/>
<path fill-rule="evenodd" clip-rule="evenodd" d="M212.092 131.773C212.8 131.706 213.507 131.638 214.215 131.571C213.507 131.625 212.757 131.162 212.092 131.773Z" fill="#191B20"/>
<path fill-rule="evenodd" clip-rule="evenodd" d="M31.651 327.774C32.3489 327.697 33.0469 327.618 33.7449 327.54C33.0464 327.618 32.3489 327.697 31.651 327.774Z" fill="#191B20"/>
<path fill-rule="evenodd" clip-rule="evenodd" d="M80.3354 136.519C80.382 137.195 80.4295 137.871 80.4761 138.544C80.429 137.868 80.382 137.193 80.3354 136.519Z" fill="#191B20"/>
<path fill-rule="evenodd" clip-rule="evenodd" d="M36.9072 164.679C36.8597 164.039 36.8123 163.399 36.7648 162.761C36.8123 163.402 36.8602 164.04 36.9072 164.679Z" fill="#191B20"/>
<path fill-rule="evenodd" clip-rule="evenodd" d="M80.6131 146.996C80.6633 147.671 80.7139 148.345 80.7637 149.016C80.7135 148.342 80.6633 147.669 80.6131 146.996Z" fill="#191B20"/>
<path fill-rule="evenodd" clip-rule="evenodd" d="M37.2028 190.526C37.2073 189.874 37.2118 189.223 37.2158 188.573C36.835 189.223 36.8503 189.873 37.2028 190.526Z" fill="#191B20"/>
<path fill-rule="evenodd" clip-rule="evenodd" d="M102.828 284.107C102.833 284.76 102.838 285.414 102.844 286.064C103.235 285.405 103.157 284.755 102.828 284.107Z" fill="#191B20"/>
<path fill-rule="evenodd" clip-rule="evenodd" d="M58.3402 208.541C58.4083 207.88 58.4768 207.218 58.5449 206.559C58.4764 207.221 58.4083 207.881 58.3402 208.541Z" fill="#191B20"/>
<path fill-rule="evenodd" clip-rule="evenodd" d="M426.711 147.865C427.174 148.54 427.804 148.078 428.354 148.16C427.806 148.061 427.259 147.964 426.711 147.865Z" fill="#191B20"/>
<path fill-rule="evenodd" clip-rule="evenodd" d="M197.878 300.631C198.463 300.632 199.048 300.632 199.632 300.633C199.047 300.632 198.463 300.631 197.878 300.631Z" fill="#191B20"/>
<path fill-rule="evenodd" clip-rule="evenodd" d="M104.473 150.64C104.418 151.189 104.364 151.738 104.31 152.286C104.364 151.735 104.418 151.188 104.473 150.64Z" fill="#191B20"/>
<path fill-rule="evenodd" clip-rule="evenodd" d="M393.406 96.0935C393.994 96.1064 394.582 96.1192 395.169 96.1321C394.588 95.7541 394.002 95.6447 393.406 96.0935Z" fill="#191B20"/>
<path fill-rule="evenodd" clip-rule="evenodd" d="M80.6275 156.497C80.6655 157.073 80.7041 157.648 80.7417 158.222C80.7036 157.646 80.6655 157.071 80.6275 156.497Z" fill="#191B20"/>
<path fill-rule="evenodd" clip-rule="evenodd" d="M96.7466 85.7999C96.7009 85.2749 96.6557 84.7499 96.6104 84.2279C96.6561 84.7539 96.7009 85.2769 96.7466 85.7999Z" fill="#191B20"/>
<path fill-rule="evenodd" clip-rule="evenodd" d="M101.365 84.1552C101.412 84.7247 101.458 85.2947 101.503 85.8622C101.457 85.2917 101.412 84.7232 101.365 84.1552Z" fill="#191B20"/>
<path fill-rule="evenodd" clip-rule="evenodd" d="M356.674 46.1097C357.273 46.1899 357.871 46.2701 358.468 46.3497C357.87 46.2696 357.273 46.1899 356.674 46.1097Z" fill="#191B20"/>
<path fill-rule="evenodd" clip-rule="evenodd" d="M399.872 96.5468C400.486 96.616 401.1 96.6853 401.713 96.7546C401.099 96.6853 400.485 96.616 399.872 96.5468Z" fill="#191B20"/>
<path fill-rule="evenodd" clip-rule="evenodd" d="M63.5474 98.2161C63.5097 97.6862 63.4725 97.1558 63.4354 96.6288C63.4725 97.1593 63.5102 97.6877 63.5474 98.2161Z" fill="#191B20"/>
<path fill-rule="evenodd" clip-rule="evenodd" d="M420.017 185.674C419.663 185.679 419.31 185.685 418.962 185.691C419.317 185.685 419.667 185.679 420.017 185.674Z" fill="#191B20"/>
<path fill-rule="evenodd" clip-rule="evenodd" d="M101.347 251.078C101.383 251.665 101.418 252.251 101.454 252.837C101.418 252.25 101.382 251.664 101.347 251.078Z" fill="#191B20"/>
<path fill-rule="evenodd" clip-rule="evenodd" d="M65.2905 136.879C65.3048 136.314 65.3182 135.749 65.333 135.185C65.3178 135.751 65.3043 136.315 65.2905 136.879Z" fill="#191B20"/>
<path fill-rule="evenodd" clip-rule="evenodd" d="M341.619 44.7716C342.164 44.7716 342.71 44.772 343.254 44.772C342.709 44.3584 342.164 44.3688 341.619 44.7716Z" fill="#191B20"/>
<path fill-rule="evenodd" clip-rule="evenodd" d="M196.061 177.882C196.658 177.899 197.255 177.916 197.852 177.932C197.265 177.474 196.668 177.463 196.061 177.882Z" fill="#191B20"/>
<path fill-rule="evenodd" clip-rule="evenodd" d="M143.874 330.933C143.52 330.941 143.166 330.949 142.816 330.959C143.172 330.951 143.523 330.942 143.874 330.933Z" fill="#191B20"/>
<path fill-rule="evenodd" clip-rule="evenodd" d="M130.543 331.62C130.19 331.606 129.836 331.593 129.488 331.579C129.842 331.593 130.193 331.607 130.543 331.62Z" fill="#191B20"/>
<path fill-rule="evenodd" clip-rule="evenodd" d="M339.172 331.892C338.804 331.902 338.435 331.913 338.071 331.923C338.441 331.912 338.807 331.902 339.172 331.892Z" fill="#191B20"/>
<path fill-rule="evenodd" clip-rule="evenodd" d="M32.0242 270.421C32.0766 269.862 32.129 269.303 32.1819 268.746C32.129 269.306 32.0766 269.864 32.0242 270.421Z" fill="#191B20"/>
<path fill-rule="evenodd" clip-rule="evenodd" d="M80.1763 176.165C80.1342 176.698 80.0925 177.23 80.0513 177.76C80.0929 177.226 80.1346 176.696 80.1763 176.165Z" fill="#191B20"/>
<path fill-rule="evenodd" clip-rule="evenodd" d="M61.6453 167.016C61.7027 166.451 61.76 165.886 61.8169 165.323C61.7596 165.888 61.7027 166.452 61.6453 167.016Z" fill="#191B20"/>
<path fill-rule="evenodd" clip-rule="evenodd" d="M336.181 332.229C335.809 332.222 335.437 332.216 335.069 332.21C335.443 332.217 335.812 332.223 336.181 332.229Z" fill="#191B20"/>
<path fill-rule="evenodd" clip-rule="evenodd" d="M200.767 332.273C200.405 332.255 200.044 332.237 199.687 332.219C200.049 332.238 200.408 332.256 200.767 332.273Z" fill="#191B20"/>
<path fill-rule="evenodd" clip-rule="evenodd" d="M64.6699 125.755C64.6865 125.183 64.7026 124.61 64.7188 124.039C64.7022 124.612 64.686 125.183 64.6699 125.755Z" fill="#191B20"/>
<path fill-rule="evenodd" clip-rule="evenodd" d="M371.439 332.603C371.077 332.6 370.714 332.596 370.356 332.594C370.721 332.597 371.08 332.6 371.439 332.603Z" fill="#191B20"/>
<path fill-rule="evenodd" clip-rule="evenodd" d="M64.8218 332.598C64.449 332.601 64.0759 332.606 63.7076 332.61C64.0826 332.606 64.4522 332.602 64.8218 332.598Z" fill="#191B20"/>
<path fill-rule="evenodd" clip-rule="evenodd" d="M56.769 332.548C56.4089 332.576 56.0491 332.605 55.6934 332.632C56.0549 332.604 56.412 332.576 56.769 332.548Z" fill="#191B20"/>
<path fill-rule="evenodd" clip-rule="evenodd" d="M53.5166 332.541C53.1501 332.553 52.7832 332.565 52.4213 332.574C52.7891 332.562 53.1528 332.552 53.5166 332.541Z" fill="#191B20"/>
<path fill-rule="evenodd" clip-rule="evenodd" d="M36.818 169.285C36.8421 168.722 36.8659 168.158 36.8896 167.597C36.8655 168.161 36.8421 168.723 36.818 169.285Z" fill="#191B20"/>
<path fill-rule="evenodd" clip-rule="evenodd" d="M282.916 325.16C281.801 325.096 280.685 325.032 279.57 324.968C280.685 325.032 281.801 325.096 282.916 325.16Z" fill="#191B20"/>
<path fill-rule="evenodd" clip-rule="evenodd" d="M350.2 120.417C349.232 120.51 348.264 120.603 347.297 120.695C348.265 120.602 349.233 120.509 350.2 120.417Z" fill="#191B20"/>
<path fill-rule="evenodd" clip-rule="evenodd" d="M76.8574 166.904C76.8274 167.924 76.7965 168.944 76.7665 169.961C76.7969 168.941 76.8274 167.922 76.8574 166.904Z" fill="#191B20"/>
<path fill-rule="evenodd" clip-rule="evenodd" d="M56.8774 326.905C55.8668 326.973 54.8565 327.04 53.8458 327.108C54.8628 327.159 55.895 327.479 56.8774 326.905Z" fill="#191B20"/>
<path fill-rule="evenodd" clip-rule="evenodd" d="M62.8584 206.222C62.8508 205.249 62.8432 204.276 62.836 203.305C62.8436 204.279 62.8508 205.251 62.8584 206.222Z" fill="#191B20"/>
<path fill-rule="evenodd" clip-rule="evenodd" d="M65.4448 236.801C64.5582 236.814 63.6708 236.827 62.7846 236.84C63.6717 236.827 64.5582 236.814 65.4448 236.801Z" fill="#191B20"/>
<path fill-rule="evenodd" clip-rule="evenodd" d="M288.674 219.69C288.696 220.432 288.718 221.174 288.739 221.912C288.717 221.169 288.695 220.43 288.674 219.69Z" fill="#191B20"/>
<path fill-rule="evenodd" clip-rule="evenodd" d="M50.6865 188.284C50.7227 189.022 50.759 189.76 50.7944 190.494C50.7577 189.756 50.7218 189.019 50.6865 188.284Z" fill="#191B20"/>
<path fill-rule="evenodd" clip-rule="evenodd" d="M69.605 323.621C68.9599 323.572 68.3147 323.524 67.671 323.478C68.1562 323.907 68.644 323.943 69.605 323.621Z" fill="#191B20"/>
<path fill-rule="evenodd" clip-rule="evenodd" d="M73.9224 227.137C73.878 227.933 73.8337 228.728 73.7897 229.521C73.8341 228.725 73.878 227.931 73.9224 227.137Z" fill="#191B20"/>
<path fill-rule="evenodd" clip-rule="evenodd" d="M315.13 101.557C315.123 100.789 315.116 100.02 315.109 99.2548C315.116 100.024 315.123 100.791 315.13 101.557Z" fill="#191B20"/>
<path fill-rule="evenodd" clip-rule="evenodd" d="M73.1416 236.961L70.7372 236.903C71.5306 237.327 72.3321 237.342 73.1416 236.961Z" fill="#191B20"/>
<path fill-rule="evenodd" clip-rule="evenodd" d="M50.9593 242.632C51.5264 242.637 52.0931 242.642 52.6562 242.649C52.0877 242.644 51.5233 242.638 50.9593 242.632Z" fill="#191B20"/>
<path fill-rule="evenodd" clip-rule="evenodd" d="M258.592 323.927C257.807 323.938 257.023 323.95 256.238 323.96C257.028 324.398 257.814 324.46 258.592 323.927Z" fill="#191B20"/>
<path fill-rule="evenodd" clip-rule="evenodd" d="M76.5806 173.456C76.5416 174.255 76.5026 175.053 76.4636 175.849C76.5026 175.05 76.5416 174.253 76.5806 173.456Z" fill="#191B20"/>
<path fill-rule="evenodd" clip-rule="evenodd" d="M330.836 122.292C330.165 121.926 329.488 121.865 328.804 122.252C329.482 122.266 330.159 122.279 330.836 122.292Z" fill="#191B20"/>
<path fill-rule="evenodd" clip-rule="evenodd" d="M98.5474 182.678C98.4918 183.351 98.4363 184.025 98.3807 184.696C98.4367 184.022 98.4918 183.349 98.5474 182.678Z" fill="#191B20"/>
<path fill-rule="evenodd" clip-rule="evenodd" d="M41.8191 166.96C42.1641 166.3 42.152 165.645 41.8021 164.995C41.8079 165.651 41.8133 166.305 41.8191 166.96Z" fill="#191B20"/>
<path fill-rule="evenodd" clip-rule="evenodd" d="M76.4707 144.08C76.4707 144.747 76.4702 145.414 76.4702 146.078C76.4707 145.41 76.4707 144.745 76.4707 144.08Z" fill="#191B20"/>
<path fill-rule="evenodd" clip-rule="evenodd" d="M52.3979 236.482C51.7067 236.248 51.0154 235.917 50.3273 236.49C51.0177 236.488 51.7076 236.485 52.3979 236.482Z" fill="#191B20"/>
<path fill-rule="evenodd" clip-rule="evenodd" d="M371.124 324.86C370.487 324.551 369.851 324.389 369.224 324.884C369.858 324.876 370.491 324.868 371.124 324.86Z" fill="#191B20"/>
<path fill-rule="evenodd" clip-rule="evenodd" d="M240.819 323.868C240.137 323.54 239.458 323.359 238.785 323.892C239.464 323.884 240.141 323.876 240.819 323.868Z" fill="#191B20"/>
<path fill-rule="evenodd" clip-rule="evenodd" d="M392.46 226.53C392.409 227.209 392.357 227.889 392.307 228.566C392.358 227.886 392.409 227.208 392.46 226.53Z" fill="#191B20"/>
<path fill-rule="evenodd" clip-rule="evenodd" d="M234.307 187.4C233.636 187.131 232.968 186.99 232.31 187.44C232.976 187.426 233.641 187.413 234.307 187.4Z" fill="#191B20"/>
<path fill-rule="evenodd" clip-rule="evenodd" d="M76.5913 207.622C76.5541 208.286 76.5169 208.95 76.4802 209.613C76.5174 208.948 76.5546 208.285 76.5913 207.622Z" fill="#191B20"/>
<path fill-rule="evenodd" clip-rule="evenodd" d="M392.893 147.707C392.949 148.242 393.004 148.777 393.06 149.309C393.004 148.773 392.949 148.24 392.893 147.707Z" fill="#191B20"/>
<path fill-rule="evenodd" clip-rule="evenodd" d="M431.74 302.819C431.774 303.34 431.808 303.861 431.842 304.378C431.807 303.857 431.773 303.338 431.74 302.819Z" fill="#191B20"/>
<path fill-rule="evenodd" clip-rule="evenodd" d="M62.5609 211.136C62.5986 210.598 62.6362 210.059 62.6738 209.524C62.6362 210.063 62.5986 210.6 62.5609 211.136Z" fill="#191B20"/>
<path fill-rule="evenodd" clip-rule="evenodd" d="M288.9 224.271C288.789 224.663 288.677 225.056 288.566 225.448C289.311 225.647 289.422 225.254 288.9 224.271Z" fill="#191B20"/>
<path fill-rule="evenodd" clip-rule="evenodd" d="M244.122 186.514C243.515 186.511 242.909 186.509 242.302 186.506C242.908 186.823 243.514 187.042 244.122 186.514Z" fill="#191B20"/>
<path fill-rule="evenodd" clip-rule="evenodd" d="M392.12 229.746C392.1 230.34 392.079 230.934 392.059 231.526C392.08 230.932 392.1 230.339 392.12 229.746Z" fill="#191B20"/>
<path fill-rule="evenodd" clip-rule="evenodd" d="M97.0747 236.007C97.0532 236.553 97.0313 237.1 97.0093 237.644C97.0304 237.096 97.0528 236.551 97.0747 236.007Z" fill="#191B20"/>
<path fill-rule="evenodd" clip-rule="evenodd" d="M398.133 326.176C397.557 325.754 396.98 325.791 396.402 326.169C396.979 326.172 397.556 326.174 398.133 326.176Z" fill="#191B20"/>
<path fill-rule="evenodd" clip-rule="evenodd" d="M382.974 140.069C382.943 140.627 382.911 141.185 382.879 141.74C382.91 141.181 382.942 140.625 382.974 140.069Z" fill="#191B20"/>
<path fill-rule="evenodd" clip-rule="evenodd" d="M401.128 326.234C400.529 326.236 399.931 326.239 399.333 326.242C399.933 326.694 400.531 326.715 401.128 326.234Z" fill="#191B20"/>
<path fill-rule="evenodd" clip-rule="evenodd" d="M69.7065 131.307C69.7016 130.74 69.6971 130.174 69.6927 129.608C69.6976 130.176 69.7021 130.741 69.7065 131.307Z" fill="#191B20"/>
<path fill-rule="evenodd" clip-rule="evenodd" d="M344.484 121.392C343.911 121.474 343.339 121.557 342.767 121.639C343.339 121.556 343.912 121.474 344.484 121.392Z" fill="#191B20"/>
<path fill-rule="evenodd" clip-rule="evenodd" d="M395.007 170.326C395 170.855 394.992 171.385 394.983 171.912C394.991 171.382 394.999 170.854 395.007 170.326Z" fill="#191B20"/>
<path fill-rule="evenodd" clip-rule="evenodd" d="M65.8522 170.25C65.8836 169.711 65.9149 169.171 65.9463 168.634C65.9149 169.175 65.8831 169.713 65.8522 170.25Z" fill="#191B20"/>
<path fill-rule="evenodd" clip-rule="evenodd" d="M199.387 325.602C198.681 325.672 197.974 325.743 197.268 325.813C197.975 325.743 198.681 325.672 199.387 325.602Z" fill="#191B20"/>
<path fill-rule="evenodd" clip-rule="evenodd" d="M201.748 305.403C202.13 305.41 202.511 305.416 202.89 305.425C202.507 305.42 202.127 305.411 201.748 305.403Z" fill="#191B20"/>
<path fill-rule="evenodd" clip-rule="evenodd" d="M201.715 325.293C201.123 325.357 200.53 325.422 199.938 325.486C200.53 325.421 201.123 325.357 201.715 325.293Z" fill="#191B20"/>
<path fill-rule="evenodd" clip-rule="evenodd" d="M308.347 281.222C307.576 286.034 314.347 290.739 314.883 283.9C315.079 281.398 313.565 279.64 311.87 278.111C309.463 275.941 308.118 278.019 308.347 281.222Z" fill="#191B20"/>
<path fill-rule="evenodd" clip-rule="evenodd" d="M382.972 222.522C381.377 223.243 369.192 227.628 375.521 229.834C377.196 230.418 379.729 230.505 381.181 229.476C382.929 228.238 384.691 224.585 382.972 222.522Z" fill="#191B20"/>
<path fill-rule="evenodd" clip-rule="evenodd" d="M379.972 157.366C375.837 156.835 372.026 164.338 377.125 164.094C380.837 163.917 385.828 157.366 379.972 157.366Z" fill="#191B20"/>
<path fill-rule="evenodd" clip-rule="evenodd" d="M365.177 175.761C361.724 179.089 368.125 186.537 370.667 183.654C371.964 182.182 370.767 179.01 369.696 177.778C368.597 176.513 366.641 176.276 365.177 175.761Z" fill="#191B20"/>
<path fill-rule="evenodd" clip-rule="evenodd" d="M354.896 262.037C356.935 262.395 365.901 265.631 364.031 259.753C363.318 257.512 361.328 258.177 359.51 258.28C356.579 258.445 354.896 258.29 354.896 262.037Z" fill="#191B20"/>
<path fill-rule="evenodd" clip-rule="evenodd" d="M360.802 277.176C357.75 278.98 362.211 289.073 364.741 286.925C368.251 283.946 363.451 278.083 360.802 277.176Z" fill="#191B20"/>
<path fill-rule="evenodd" clip-rule="evenodd" d="M347.49 269.063C346.006 268.394 339.01 275.827 341.673 277.894C343.038 278.954 345.624 277.137 346.447 276.042C347.99 273.987 348.13 271.453 347.49 269.063Z" fill="#191B20"/>
<path fill-rule="evenodd" clip-rule="evenodd" d="M387.856 208.31C386.339 208.585 383.72 208.672 383.622 211.027C383.536 213.096 385.884 213.766 387.538 213.929C389.254 214.097 391.525 213.562 391.558 211.18C391.592 208.609 387.909 208.764 387.856 208.31Z" fill="#191B20"/>
<path fill-rule="evenodd" clip-rule="evenodd" d="M350.449 310.758C348.834 311.841 341.298 315.741 344.528 318.558C345.737 319.613 349.401 317.435 350.226 316.328C351.21 315.007 352.172 311.912 350.449 310.758Z" fill="#191B20"/>
<path fill-rule="evenodd" clip-rule="evenodd" d="M329.502 282.459C329.735 278.154 323.16 276.441 324.523 282.551C324.907 284.274 325.279 286.889 327.208 286.989C329.487 287.107 329.569 284.128 329.502 282.459Z" fill="#191B20"/>
<path fill-rule="evenodd" clip-rule="evenodd" d="M349.815 207.601C349.769 210.867 355.434 213.747 355.478 208.571C355.517 203.945 349.603 202.591 349.815 207.601Z" fill="#191B20"/>
<path fill-rule="evenodd" clip-rule="evenodd" d="M353.556 190.594C352.16 191.091 350.305 191.346 350.182 193.305C350.052 195.378 351.796 196.301 353.364 196.185C354.651 196.089 356.555 195.037 356.789 193.496C357.132 191.233 355.132 191.085 353.556 190.594Z" fill="#191B20"/>
<path fill-rule="evenodd" clip-rule="evenodd" d="M379.514 250.381C379.537 247.686 374.648 244.448 373.747 247.574C373.459 248.575 375.764 253.061 376.53 253.397C378.558 254.286 378.842 252.214 379.514 250.381Z" fill="#191B20"/>
<path fill-rule="evenodd" clip-rule="evenodd" d="M339.447 295.23C341.1 296.864 346.056 301.452 345.685 295.293C345.449 291.358 339.012 291.563 339.447 295.23Z" fill="#191B20"/>
<path fill-rule="evenodd" clip-rule="evenodd" d="M258.699 312.833C258.158 310.244 250.404 314.736 252.991 318.008C253.86 319.105 256.131 318.112 257.004 317.461C258.732 316.173 258.769 314.984 258.699 312.833Z" fill="#191B20"/>
<path fill-rule="evenodd" clip-rule="evenodd" d="M301.902 257.398C301.599 256.244 301.263 254.203 300.266 253.466C298.462 252.133 296.891 254.144 296.89 256.263C296.89 260.216 300.964 261.463 301.902 257.398Z" fill="#191B20"/>
<path fill-rule="evenodd" clip-rule="evenodd" d="M321.119 303.621C319.106 304.131 314.623 309.536 317.223 311.741C319.725 313.863 323.053 305.235 321.119 303.621Z" fill="#191B20"/>
<path fill-rule="evenodd" clip-rule="evenodd" d="M319.203 262.708C316.614 262.936 313.056 267.566 317.08 268.301C320.227 268.877 323.887 263.842 319.203 262.708Z" fill="#191B20"/>
<path fill-rule="evenodd" clip-rule="evenodd" d="M295.768 284.012C295.119 281.597 288.699 284.185 289.06 286.844C289.252 288.257 291.876 288.589 293.256 288.216C295.288 287.665 295.815 286.193 295.768 284.012Z" fill="#191B20"/>
<path fill-rule="evenodd" clip-rule="evenodd" d="M371.442 149.129C371.396 146.007 365.964 144.734 365.566 147.88C365.206 150.723 371.51 153.748 371.442 149.129Z" fill="#191B20"/>
<path fill-rule="evenodd" clip-rule="evenodd" d="M297.563 316.183C297.171 314.613 297.003 312.723 295.227 312.516C293.194 312.279 293.254 314.001 293.493 315.785C294.143 320.64 296.627 320.882 297.563 316.183Z" fill="#191B20"/>
<path fill-rule="evenodd" clip-rule="evenodd" d="M383.343 186.275C386.175 186.981 391.362 180.957 388.192 179.665C385.958 178.753 383.343 184.458 383.343 186.275Z" fill="#191B20"/>
<path fill-rule="evenodd" clip-rule="evenodd" d="M347.225 233.065C348.666 233.814 348.998 234.269 350.105 233.039C351.069 231.968 351.027 228.983 350.199 227.869C347.03 223.602 347.105 231.338 347.225 233.065Z" fill="#191B20"/>
<path fill-rule="evenodd" clip-rule="evenodd" d="M335.467 224.41C333.964 224.622 329.498 229.3 331.823 231.16C334.673 233.438 336.285 226.301 335.467 224.41Z" fill="#191B20"/>
<path fill-rule="evenodd" clip-rule="evenodd" d="M302.948 225.642C304.04 230.289 306.767 227.162 306.613 223.646C306.365 218.015 303.539 222.92 302.948 225.642Z" fill="#191B20"/>
<path fill-rule="evenodd" clip-rule="evenodd" d="M286.367 300.27C284.518 301.114 282.01 308.918 284.65 309.337C287.615 309.806 286.627 301.895 286.367 300.27Z" fill="#191B20"/>
<path fill-rule="evenodd" clip-rule="evenodd" d="M309.45 295.885C307.335 295.097 306.56 300.025 307.789 300.94C310.493 302.954 309.923 297.048 309.45 295.885Z" fill="#191B20"/>
<path fill-rule="evenodd" clip-rule="evenodd" d="M329.502 282.459C329.529 283.113 329.555 283.767 329.583 284.417C329.557 283.762 329.53 283.11 329.502 282.459Z" fill="#191B20"/>
<path fill-rule="evenodd" clip-rule="evenodd" d="M258.699 312.833C258.721 313.504 258.743 314.175 258.766 314.842C258.745 314.17 258.722 313.502 258.699 312.833Z" fill="#191B20"/>
<path fill-rule="evenodd" clip-rule="evenodd" d="M295.768 284.012C295.78 284.581 295.792 285.15 295.806 285.715C295.794 285.145 295.781 284.578 295.768 284.012Z" fill="#191B20"/>
<path fill-rule="evenodd" clip-rule="evenodd" d="M61.8266 274.219C57.4416 274.064 52.5499 272.241 48.2411 272.821C47.0548 272.981 44.3243 273.311 46.2247 275.254C47.1337 276.183 51.485 275.703 52.8021 276.011C60.8531 277.894 69.9922 279.108 78.2474 278.951C82.1118 278.878 86.0049 278.536 89.8675 278.31C93.7274 278.085 94.1068 276.352 89.7635 275.801C85.2527 275.229 80.624 275.442 76.0907 275.436C71.3249 275.429 66.5829 274.571 61.8266 274.219Z" fill="#191B20"/>
<path fill-rule="evenodd" clip-rule="evenodd" d="M52.1998 262.551C52.6218 263.878 52.9923 266.924 54.6096 267.124C56.8747 267.404 57.2496 263.108 57.1663 261.537C57.065 259.641 56.4473 256.492 54.3135 257.149C52.5112 257.703 52.3306 261.034 52.1998 262.551Z" fill="#191B20"/>
<path fill-rule="evenodd" clip-rule="evenodd" d="M65.9126 261.58C65.5815 260.158 65.4189 256.954 63.5992 256.845C61.5653 256.724 60.9842 260.063 60.9976 261.662C61.0111 263.181 61.5196 266.049 63.1391 266.4C65.3347 266.875 65.5309 263.203 65.9126 261.58Z" fill="#191B20"/>
<path fill-rule="evenodd" clip-rule="evenodd" d="M88.7498 264.129C89.4088 265.837 89.8447 268.189 91.884 267.025C93.4609 266.124 93.6809 262.492 93.3834 260.829C93.0752 259.106 92.4225 257.13 90.63 257.905C88.563 258.799 88.7718 262.248 88.7498 264.129Z" fill="#191B20"/>
<path fill-rule="evenodd" clip-rule="evenodd" d="M71.4558 262.551C73.3996 269.059 76.9451 264.656 75.5988 259.797C74.1912 254.719 71.6345 259.651 71.4558 262.551Z" fill="#191B20"/>
<path fill-rule="evenodd" clip-rule="evenodd" d="M80.927 262.873C81.4669 264.019 82.0412 266.491 83.4963 266.231C85.2802 265.911 85.3375 262.12 85.1418 260.708C84.9711 259.472 84.4684 257.412 82.9753 257.439C80.8177 257.477 80.9624 261.39 80.927 262.873Z" fill="#191B20"/>
<path fill-rule="evenodd" clip-rule="evenodd" d="M42.1521 264.123C43.5991 267.709 45.5895 264.62 44.9525 262.073C44.0077 258.296 42.2341 261.642 42.1521 264.123Z" fill="#191B20"/>
<path fill-rule="evenodd" clip-rule="evenodd" d="M77.5899 275.44C79.17 275.433 80.751 275.427 82.3311 275.42C80.7496 275.091 79.1682 274.963 77.5899 275.44Z" fill="#191B20"/>
<path fill-rule="evenodd" clip-rule="evenodd" d="M46.1851 272.806C47.556 272.816 48.9264 272.826 50.2964 272.835C48.9282 272.382 47.5578 272.372 46.1851 272.806Z" fill="#191B20"/>
<path fill-rule="evenodd" clip-rule="evenodd" d="M88.7493 264.129C88.7592 263.259 88.7699 262.389 88.7793 261.521C88.3739 262.386 88.4021 263.255 88.7493 264.129Z" fill="#191B20"/>
<path fill-rule="evenodd" clip-rule="evenodd" d="M80.1504 278.933C79.5142 278.939 78.8781 278.945 78.2473 278.952C78.8853 278.945 79.5178 278.939 80.1504 278.933Z" fill="#191B20"/>
<path fill-rule="evenodd" clip-rule="evenodd" d="M90.8335 278.31C90.1893 278.31 89.5446 278.31 88.9049 278.31C89.5518 278.31 90.1924 278.31 90.8335 278.31Z" fill="#191B20"/>
<path fill-rule="evenodd" clip-rule="evenodd" d="M85.5508 275.515C86.4468 275.597 87.3427 275.678 88.2383 275.759C87.3423 275.678 86.4468 275.597 85.5508 275.515Z" fill="#191B20"/>
<path fill-rule="evenodd" clip-rule="evenodd" d="M73.4369 275.429C74.3217 275.431 75.206 275.433 76.0908 275.435C75.2065 275.023 74.3221 275.012 73.4369 275.429Z" fill="#191B20"/>
<path fill-rule="evenodd" clip-rule="evenodd" d="M80.9267 262.873C80.9486 261.967 80.9701 261.06 80.9907 260.155C80.9688 261.062 80.9477 261.968 80.9267 262.873Z" fill="#191B20"/>
<path fill-rule="evenodd" clip-rule="evenodd" d="M93.3828 260.829C93.3877 261.713 93.3927 262.597 93.3989 263.478C93.394 262.593 93.3886 261.711 93.3828 260.829Z" fill="#191B20"/>
<path fill-rule="evenodd" clip-rule="evenodd" d="M56.7993 273.891C57.5815 273.969 58.3632 274.046 59.1445 274.125C58.3623 274.046 57.5806 273.969 56.7993 273.891Z" fill="#191B20"/>
<path fill-rule="evenodd" clip-rule="evenodd" d="M75.4238 278.959C74.8795 278.947 74.3352 278.936 73.7963 278.925C74.3424 278.937 74.8831 278.948 75.4238 278.959Z" fill="#191B20"/>
<path fill-rule="evenodd" clip-rule="evenodd" d="M52.1999 262.551C52.2478 261.996 52.2958 261.441 52.3433 260.887C52.2953 261.443 52.2474 261.997 52.1999 262.551Z" fill="#191B20"/>
<path fill-rule="evenodd" clip-rule="evenodd" d="M71.4557 262.551C71.4907 261.981 71.5261 261.411 71.561 260.842C71.5256 261.413 71.4907 261.982 71.4557 262.551Z" fill="#191B20"/>
<path fill-rule="evenodd" clip-rule="evenodd" d="M352.186 95.0495C354.327 94.429 354.728 91.106 354.384 89.065C353.994 88.0813 353.604 87.0982 353.213 86.1145C353.366 85.7509 353.519 85.3872 353.671 85.0235C353.475 82.9978 353.976 82.1176 351.868 82.938C347.952 84.4629 347.326 94.8931 352.186 95.0495Z" fill="#191B20"/>
<path fill-rule="evenodd" clip-rule="evenodd" d="M320.494 88.6246C318.73 88.4712 315.526 90.7398 317.282 92.9347C318.37 94.2944 321.954 93.6512 323.416 93.9352C325.356 94.3118 327.378 94.8268 326.329 91.6186C325.505 89.0991 322.563 88.5588 320.494 88.6246Z" fill="#191B20"/>
<path fill-rule="evenodd" clip-rule="evenodd" d="M322.35 103.715C324.141 102.128 323.342 94.9011 320.615 96.2014C317.81 97.5398 320.855 102.672 322.35 103.715Z" fill="#191B20"/>
<path fill-rule="evenodd" clip-rule="evenodd" d="M354.384 89.065C354.384 89.8255 354.385 90.5865 354.386 91.3435C354.76 90.5815 354.748 89.823 354.384 89.065Z" fill="#191B20"/>
<path fill-rule="evenodd" clip-rule="evenodd" d="M352.186 95.0495C351.82 95.0381 351.455 95.0262 351.094 95.0158C351.461 95.0287 351.823 95.0391 352.186 95.0495Z" fill="#191B20"/>
<path fill-rule="evenodd" clip-rule="evenodd" d="M130.974 303.192C131.141 306.479 134.338 304.049 134.111 301.85C133.699 297.859 131.656 301.803 130.974 303.192Z" fill="#191B20"/>
</svg>
