<svg width="50" height="41" viewBox="0 0 50 41" fill="none" xmlns="http://www.w3.org/2000/svg">
<g clip-path="url(#clip0_316_273)">
<path d="M25 0.5C26.3828 0.5 27.5 1.61719 27.5 3V8H36.875C39.9844 8 42.5 10.5156 42.5 13.625V34.875C42.5 37.9844 39.9844 40.5 36.875 40.5H13.125C10.0156 40.5 7.5 37.9844 7.5 34.875V13.625C7.5 10.5156 10.0156 8 13.125 8H22.5V3C22.5 1.61719 23.6172 0.5 25 0.5ZM16.25 30.5C15.5625 30.5 15 31.0625 15 31.75C15 32.4375 15.5625 33 16.25 33H18.75C19.4375 33 20 32.4375 20 31.75C20 31.0625 19.4375 30.5 18.75 30.5H16.25ZM23.75 30.5C23.0625 30.5 22.5 31.0625 22.5 31.75C22.5 32.4375 23.0625 33 23.75 33H26.25C26.9375 33 27.5 32.4375 27.5 31.75C27.5 31.0625 26.9375 30.5 26.25 30.5H23.75ZM31.25 30.5C30.5625 30.5 30 31.0625 30 31.75C30 32.4375 30.5625 33 31.25 33H33.75C34.4375 33 35 32.4375 35 31.75C35 31.0625 34.4375 30.5 33.75 30.5H31.25ZM20.625 20.5C20.625 19.6712 20.2958 18.8763 19.7097 18.2903C19.1237 17.7042 18.3288 17.375 17.5 17.375C16.6712 17.375 15.8763 17.7042 15.2903 18.2903C14.7042 18.8763 14.375 19.6712 14.375 20.5C14.375 21.3288 14.7042 22.1237 15.2903 22.7097C15.8763 23.2958 16.6712 23.625 17.5 23.625C18.3288 23.625 19.1237 23.2958 19.7097 22.7097C20.2958 22.1237 20.625 21.3288 20.625 20.5ZM32.5 23.625C33.3288 23.625 34.1237 23.2958 34.7097 22.7097C35.2958 22.1237 35.625 21.3288 35.625 20.5C35.625 19.6712 35.2958 18.8763 34.7097 18.2903C34.1237 17.7042 33.3288 17.375 32.5 17.375C31.6712 17.375 30.8763 17.7042 30.2903 18.2903C29.7042 18.8763 29.375 19.6712 29.375 20.5C29.375 21.3288 29.7042 22.1237 30.2903 22.7097C30.8763 23.2958 31.6712 23.625 32.5 23.625ZM3.75 18H5V33H3.75C1.67969 33 0 31.3203 0 29.25V21.75C0 19.6797 1.67969 18 3.75 18ZM46.25 18C48.3203 18 50 19.6797 50 21.75V29.25C50 31.3203 48.3203 33 46.25 33H45V18H46.25Z" fill="#A3BF98"/>
</g>
<defs>
<clipPath id="clip0_316_273">
<rect width="50" height="40" fill="white" transform="translate(0 0.5)"/>
</clipPath>
</defs>
</svg>
