<svg width="693" height="554" viewBox="0 0 693 554" fill="none" xmlns="http://www.w3.org/2000/svg">
<path d="M346.5 0C365.666 0 381.15 15.473 381.15 34.625V103.875H511.088C554.183 103.875 589.05 138.716 589.05 181.781V476.094C589.05 519.159 554.183 554 511.088 554H181.913C138.817 554 103.95 519.159 103.95 476.094V181.781C103.95 138.716 138.817 103.875 181.913 103.875H311.85V34.625C311.85 15.473 327.334 0 346.5 0ZM225.225 415.5C215.696 415.5 207.9 423.291 207.9 432.812C207.9 442.334 215.696 450.125 225.225 450.125H259.875C269.404 450.125 277.2 442.334 277.2 432.812C277.2 423.291 269.404 415.5 259.875 415.5H225.225ZM329.175 415.5C319.646 415.5 311.85 423.291 311.85 432.812C311.85 442.334 319.646 450.125 329.175 450.125H363.825C373.354 450.125 381.15 442.334 381.15 432.812C381.15 423.291 373.354 415.5 363.825 415.5H329.175ZM433.125 415.5C423.596 415.5 415.8 423.291 415.8 432.812C415.8 442.334 423.596 450.125 433.125 450.125H467.775C477.304 450.125 485.1 442.334 485.1 432.812C485.1 423.291 477.304 415.5 467.775 415.5H433.125ZM285.863 277C285.863 265.521 281.299 254.512 273.177 246.396C265.054 238.279 254.037 233.719 242.55 233.719C231.063 233.719 220.046 238.279 211.923 246.396C203.801 254.512 199.238 265.521 199.238 277C199.238 288.479 203.801 299.488 211.923 307.604C220.046 315.721 231.063 320.281 242.55 320.281C254.037 320.281 265.054 315.721 273.177 307.604C281.299 299.488 285.863 288.479 285.863 277ZM450.45 320.281C461.937 320.281 472.954 315.721 481.077 307.604C489.199 299.488 493.763 288.479 493.763 277C493.763 265.521 489.199 254.512 481.077 246.396C472.954 238.279 461.937 233.719 450.45 233.719C438.963 233.719 427.946 238.279 419.823 246.396C411.701 254.512 407.138 265.521 407.138 277C407.138 288.479 411.701 299.488 419.823 307.604C427.946 315.721 438.963 320.281 450.45 320.281ZM51.975 242.375H69.3V450.125H51.975C23.2805 450.125 0 426.861 0 398.188V294.312C0 265.639 23.2805 242.375 51.975 242.375ZM641.025 242.375C669.72 242.375 693 265.639 693 294.312V398.188C693 426.861 669.72 450.125 641.025 450.125H623.7V242.375H641.025Z" fill="black"/>
</svg>
