<svg width="20" height="21" viewBox="0 0 20 21" fill="none" xmlns="http://www.w3.org/2000/svg">
<path d="M16.25 8.53125C16.25 10.4139 15.668 12.1529 14.6875 13.5639L19.6328 18.7605C20.1211 19.2732 20.1211 20.1059 19.6328 20.6186C19.1445 21.1313 18.3516 21.1313 17.8633 20.6186L12.918 15.4219C11.5742 16.4555 9.91797 17.0625 8.125 17.0625C3.63672 17.0625 0 13.2439 0 8.53125C0 3.81855 3.63672 0 8.125 0C12.6133 0 16.25 3.81855 16.25 8.53125ZM8.125 14.4375C8.86369 14.4375 9.59514 14.2847 10.2776 13.9879C10.9601 13.6911 11.5801 13.256 12.1025 12.7076C12.6248 12.1592 13.0391 11.5081 13.3218 10.7915C13.6045 10.0749 13.75 9.30687 13.75 8.53125C13.75 7.75563 13.6045 6.98761 13.3218 6.27103C13.0391 5.55445 12.6248 4.90335 12.1025 4.3549C11.5801 3.80645 10.9601 3.3714 10.2776 3.07459C9.59514 2.77777 8.86369 2.625 8.125 2.625C7.38632 2.625 6.65486 2.77777 5.97241 3.07459C5.28995 3.3714 4.66985 3.80645 4.14752 4.3549C3.6252 4.90335 3.21086 5.55445 2.92818 6.27103C2.64549 6.98761 2.5 7.75563 2.5 8.53125C2.5 9.30687 2.64549 10.0749 2.92818 10.7915C3.21086 11.5081 3.6252 12.1592 4.14752 12.7076C4.66985 13.256 5.28995 13.6911 5.97241 13.9879C6.65486 14.2847 7.38632 14.4375 8.125 14.4375Z" fill="#4D5E4A"/>
</svg>
