<svg width="20" height="20" viewBox="0 0 20 20" fill="none" xmlns="http://www.w3.org/2000/svg">
<path d="M15.4762 8.125C15.4762 9.91797 14.9219 11.5742 13.9881 12.918L18.6979 17.8672C19.1629 18.3555 19.1629 19.1484 18.6979 19.6367C18.2329 20.125 17.4777 20.125 17.0126 19.6367L12.3028 14.6875C11.0231 15.6719 9.44569 16.25 7.7381 16.25C3.46354 16.25 0 12.6133 0 8.125C0 3.63672 3.46354 0 7.7381 0C12.0126 0 15.4762 3.63672 15.4762 8.125ZM7.7381 13.75C8.44161 13.75 9.13823 13.6045 9.78819 13.3218C10.4381 13.0391 11.0287 12.6248 11.5262 12.1025C12.0236 11.5801 12.4182 10.9601 12.6875 10.2776C12.9567 9.59514 13.0952 8.86369 13.0952 8.125C13.0952 7.38631 12.9567 6.65486 12.6875 5.97241C12.4182 5.28995 12.0236 4.66985 11.5262 4.14752C11.0287 3.62519 10.4381 3.21086 9.78819 2.92818C9.13823 2.6455 8.44161 2.5 7.7381 2.5C7.03459 2.5 6.33796 2.6455 5.68801 2.92818C5.03805 3.21086 4.44748 3.62519 3.95002 4.14752C3.45257 4.66985 3.05796 5.28995 2.78874 5.97241C2.51952 6.65486 2.38095 7.38631 2.38095 8.125C2.38095 8.86369 2.51952 9.59514 2.78874 10.2776C3.05796 10.9601 3.45257 11.5801 3.95002 12.1025C4.44748 12.6248 5.03805 13.0391 5.68801 13.3218C6.33796 13.6045 7.03459 13.75 7.7381 13.75Z" fill="#A3BF98"/>
</svg>
