<svg width="20" height="18" viewBox="0 0 20 18" fill="none" xmlns="http://www.w3.org/2000/svg">
<path d="M0 15C0 15.6638 0.558594 16.2 1.25 16.2H3.38672C3.86719 17.2613 4.96875 18 6.25 18C7.53125 18 8.63281 17.2613 9.11328 16.2H18.75C19.4414 16.2 20 15.6638 20 15C20 14.3363 19.4414 13.8 18.75 13.8H9.11328C8.63281 12.7388 7.53125 12 6.25 12C4.96875 12 3.86719 12.7388 3.38672 13.8H1.25C0.558594 13.8 0 14.3363 0 15ZM5 15C5 14.6817 5.1317 14.3765 5.36612 14.1515C5.60054 13.9264 5.91848 13.8 6.25 13.8C6.58152 13.8 6.89946 13.9264 7.13388 14.1515C7.3683 14.3765 7.5 14.6817 7.5 15C7.5 15.3183 7.3683 15.6235 7.13388 15.8485C6.89946 16.0736 6.58152 16.2 6.25 16.2C5.91848 16.2 5.60054 16.0736 5.36612 15.8485C5.1317 15.6235 5 15.3183 5 15ZM12.5 9C12.5 8.68174 12.6317 8.37652 12.8661 8.15147C13.1005 7.92643 13.4185 7.8 13.75 7.8C14.0815 7.8 14.3995 7.92643 14.6339 8.15147C14.8683 8.37652 15 8.68174 15 9C15 9.31826 14.8683 9.62348 14.6339 9.84853C14.3995 10.0736 14.0815 10.2 13.75 10.2C13.4185 10.2 13.1005 10.0736 12.8661 9.84853C12.6317 9.62348 12.5 9.31826 12.5 9ZM13.75 6C12.4688 6 11.3672 6.73875 10.8867 7.8H1.25C0.558594 7.8 0 8.33625 0 9C0 9.66375 0.558594 10.2 1.25 10.2H10.8867C11.3672 11.2613 12.4688 12 13.75 12C15.0312 12 16.1328 11.2613 16.6133 10.2H18.75C19.4414 10.2 20 9.66375 20 9C20 8.33625 19.4414 7.8 18.75 7.8H16.6133C16.1328 6.73875 15.0312 6 13.75 6ZM7.5 4.2C7.16848 4.2 6.85054 4.07357 6.61612 3.84853C6.3817 3.62348 6.25 3.31826 6.25 3C6.25 2.68174 6.3817 2.37652 6.61612 2.15147C6.85054 1.92643 7.16848 1.8 7.5 1.8C7.83152 1.8 8.14946 1.92643 8.38388 2.15147C8.6183 2.37652 8.75 2.68174 8.75 3C8.75 3.31826 8.6183 3.62348 8.38388 3.84853C8.14946 4.07357 7.83152 4.2 7.5 4.2ZM10.3633 1.8C9.88281 0.73875 8.78125 0 7.5 0C6.21875 0 5.11719 0.73875 4.63672 1.8H1.25C0.558594 1.8 0 2.33625 0 3C0 3.66375 0.558594 4.2 1.25 4.2H4.63672C5.11719 5.26125 6.21875 6 7.5 6C8.78125 6 9.88281 5.26125 10.3633 4.2H18.75C19.4414 4.2 20 3.66375 20 3C20 2.33625 19.4414 1.8 18.75 1.8H10.3633Z" fill="#4D5E4A"/>
</svg>
