<svg width="616" height="554" viewBox="0 0 616 554" fill="none" xmlns="http://www.w3.org/2000/svg">
<path d="M0 461.667C0 482.095 17.2047 498.6 38.5 498.6H104.311C119.109 531.263 153.038 554 192.5 554C231.962 554 265.891 531.263 280.689 498.6H577.5C598.795 498.6 616 482.095 616 461.667C616 441.238 598.795 424.733 577.5 424.733H280.689C265.891 392.07 231.962 369.333 192.5 369.333C153.038 369.333 119.109 392.07 104.311 424.733H38.5C17.2047 424.733 0 441.238 0 461.667ZM154 461.667C154 451.871 158.056 442.477 165.276 435.551C172.497 428.625 182.289 424.733 192.5 424.733C202.711 424.733 212.503 428.625 219.724 435.551C226.944 442.477 231 451.871 231 461.667C231 471.462 226.944 480.856 219.724 487.782C212.503 494.709 202.711 498.6 192.5 498.6C182.289 498.6 172.497 494.709 165.276 487.782C158.056 480.856 154 471.462 154 461.667ZM385 277C385 267.205 389.056 257.811 396.276 250.884C403.497 243.958 413.289 240.067 423.5 240.067C433.711 240.067 443.503 243.958 450.724 250.884C457.944 257.811 462 267.205 462 277C462 286.795 457.944 296.189 450.724 303.116C443.503 310.042 433.711 313.933 423.5 313.933C413.289 313.933 403.497 310.042 396.276 303.116C389.056 296.189 385 286.795 385 277ZM423.5 184.667C384.038 184.667 350.109 207.404 335.311 240.067H38.5C17.2047 240.067 0 256.571 0 277C0 297.429 17.2047 313.933 38.5 313.933H335.311C350.109 346.596 384.038 369.333 423.5 369.333C462.962 369.333 496.891 346.596 511.689 313.933H577.5C598.795 313.933 616 297.429 616 277C616 256.571 598.795 240.067 577.5 240.067H511.689C496.891 207.404 462.962 184.667 423.5 184.667ZM231 129.267C220.789 129.267 210.997 125.375 203.776 118.449C196.556 111.523 192.5 102.129 192.5 92.3333C192.5 82.538 196.556 73.1439 203.776 66.2175C210.997 59.2912 220.789 55.4 231 55.4C241.211 55.4 251.003 59.2912 258.224 66.2175C265.444 73.1439 269.5 82.538 269.5 92.3333C269.5 102.129 265.444 111.523 258.224 118.449C251.003 125.375 241.211 129.267 231 129.267ZM319.189 55.4C304.391 22.7371 270.462 0 231 0C191.538 0 157.609 22.7371 142.811 55.4H38.5C17.2047 55.4 0 71.9046 0 92.3333C0 112.762 17.2047 129.267 38.5 129.267H142.811C157.609 161.93 191.538 184.667 231 184.667C270.462 184.667 304.391 161.93 319.189 129.267H577.5C598.795 129.267 616 112.762 616 92.3333C616 71.9046 598.795 55.4 577.5 55.4H319.189Z" fill="black"/>
</svg>
