<svg width="611" height="535" viewBox="0 0 611 535" fill="none" xmlns="http://www.w3.org/2000/svg">
<path d="M450.971 88.2511L597.515 234.898C606.149 243.548 610.999 255.274 610.999 267.5C610.999 279.726 606.149 291.452 597.515 300.102L450.971 446.749C445.304 452.401 438.091 456.247 430.242 457.802C422.393 459.357 414.26 458.55 406.869 455.484C399.477 452.418 393.159 447.23 388.711 440.575C384.263 433.92 381.884 426.095 381.875 418.088V343.929H229.125C218.997 343.929 209.284 339.902 202.122 332.736C194.961 325.569 190.938 315.849 190.938 305.714V229.286C190.938 219.151 194.961 209.431 202.122 202.264C209.284 195.098 218.997 191.071 229.125 191.071H381.875V116.912C381.884 108.905 384.263 101.08 388.711 94.425C393.159 87.7696 399.477 82.5816 406.869 79.5157C414.26 76.4498 422.393 75.6433 430.242 77.1979C438.091 78.7526 445.304 82.5987 450.971 88.2511ZM190.938 76.4286H114.562C104.435 76.4286 94.7214 80.4547 87.5599 87.6213C80.3983 94.7878 76.375 104.508 76.375 114.643V420.357C76.375 430.492 80.3983 440.212 87.5599 447.379C94.7214 454.545 104.435 458.571 114.562 458.571H190.938C201.065 458.571 210.779 462.598 217.94 469.764C225.102 476.931 229.125 486.651 229.125 496.786C229.125 506.921 225.102 516.641 217.94 523.807C210.779 530.974 201.065 535 190.938 535H114.562C84.1786 535 55.0392 522.922 33.5546 501.422C12.0699 479.922 0 450.762 0 420.357L0 114.643C0 84.2377 12.0699 55.0778 33.5546 33.5781C55.0392 12.0784 84.1786 0 114.562 0L190.938 0C201.065 0 210.779 4.02614 217.94 11.1927C225.102 18.3593 229.125 28.0792 229.125 38.2143C229.125 48.3493 225.102 58.0693 217.94 65.2359C210.779 72.4024 201.065 76.4286 190.938 76.4286Z" fill="black"/>
</svg>
