<svg id="Layer_1" data-name="Layer 1" xmlns="http://www.w3.org/2000/svg" viewBox="0 0 554.88 439.52"><defs><style>.cls-1{fill:#021602;}.cls-2{fill:#d0a13d;}</style></defs><path class="cls-1" d="M274.39,201.13c-.83.33-1.5.93-.94,1.81s1.28.29,2-.1c1.7-.92,3.48-1.67,5.23-2.48,6.58-1.8,13.2-3.45,19.72-5.43q35.37-10.69,71.26-19.44c16.35-4,31-1,42.36,12.85,5.06,6.18,10.47,12.09,16.07,17.79,24,24.43,43.54,52.06,60.12,81.89,1,1.88,2.93,4.35,2.41,5.84-1.63,4.64,1.67,6,4.26,7.77,10.12,6.86,21.26,11.66,32.72,15.79a96.62,96.62,0,0,1,18.59,8.49c6,3.73,8.2,10.15,5.6,15.38-3.53,7.09-11.65,11.38-17.75,9.41-9.49-3.06-18.79-6.88-28.68-8.5-7.38-1.21-14.88-1.64-22.28-2.76-8.23-1.24-13.7-5.7-15.17-14.27-.58-3.45-1.2-6.89-1.8-10.33-.28-1.64-.37-3.82-1.79-4.48-3.7-1.71-4.88-5.3-6.82-8.25-5-7.69-10.39-15-17.13-21.39-9.71-9.13-20.62-16.88-29.93-26.46-2.91-3-4.14-2.41-5.12,1.78-9.5,40.71-20.81,80.86-38.27,119-1.05,2.29-2,4.87-4.3,5.95-2.79,1.29-4.13,2.9-3.8,6.09.29,2.8-1.6,5.46-.94,8.35.29,1.25,1.42,1.79,2.37,2.45,10.13,7,20,14.46,31.11,19.89a51.8,51.8,0,0,1,11.73,7.54,10.56,10.56,0,0,1,3.87,6.24c.56,3.42-.47,5.62-4.33,5.54a18.63,18.63,0,0,0-7.81,1.33c-4.09,1.75-8,1.22-12.06-.49-12.31-5.16-24.93-9.31-38.31-10.78a38.74,38.74,0,0,1-12.07-3c-5.55-2.54-8.47-6.7-8.37-12.95a44.48,44.48,0,0,1,4.21-17.86c2.28-5,5.48-9.62,2.76-15.5-.41-.9.14-2.28.35-3.42,3.78-20.44,9.23-40.57,11.38-61.32.85-8.31,2-16.58,3.13-25.35-2.73,1.09-4.86,2.59-7,2.69-10,.46-10.38,7-10.83,14.82a592.27,592.27,0,0,1-12.94,92.39c-1.63,7.41-3,15.07-6.93,21.78-2,3.43-5.08,4.6-9,3.22s-3.67-4.28-3.29-7.39c.91-7.27,2-14.52,2.74-21.8,3.46-32,5.61-64,1.13-96.14-.41-3-1.36-4.11-4.34-3.83a110.24,110.24,0,0,1-12.95.74c-12.15-.3-24.32-.25-36.34-2.54-2.07-.39-4.35-1-3.6,3,2.4,12.68,2,25.56,1.92,38.36-.08,8.29-.43,16.67-3,24.7-.83,2.59-2.19,5.55-5.16,5.32s-3.12-3.6-3.27-6c-1.4-21.47-8-42.23-8.7-63.78-.13-4.06-2.25-5.56-5.86-6.74-7.31-2.39-14.8-4.54-21.3-9.66.16,1.7.24,3,.42,4.33,4.2,29.4,7.1,58.87,4.48,88.61-1,11.91-.25,24-3.87,35.66-1.2,3.87-2.8,7.52-6,10.15-3.55,2.91-7.14,2.08-8.81-2.14a18.93,18.93,0,0,1-1.23-6.32c-.12-4.83,0-9.66.14-14.48,1.19-57.55-5.74-114.32-16.45-170.72-3.35-17.66-7.48-35.16-9.87-53-.36-2.7-.86-5.6-4.84-4.53-6.42,1.73-13.16,2.58-19.1,5.69-10.34,5.41-21.12,5.34-32.13,3.35-3.44-.62-6.87-1.48-9.56-4-2.31-2.14-.26-4.75-.64-7.12-1.75-11.14,2.17-20.78,8.76-29.3,13.85-17.89,27.3-36.09,41.93-53.41C149.76,71,157.62,68,168.3,70c7.8,1.47,14.87,4.78,22.11,7.72,1,.4,2.61,1.92,3.09-.29.77-3.58,1.09-7.27,1.69-11.6l-2.69,1.73c-6.36,4.19-7.92,3.86-11.6-2.6a6.36,6.36,0,0,0-3.63-3.2c-5.22-1.72-9-7.67-8.24-12.91.36-2.58,2-3.51,3.65-1.68,4,4.53,4.47-1.41,6.68-2,2.82-.76,1.2-2.88.7-4.5-2.18-6.94-2.24-13.42,3.72-18.79a6.28,6.28,0,0,0,2.08-3.34c.83-5.73,7.46-7.31,8.85-12.6.12-.46,1-.85,1.64-1C204,2.48,211.43-1.41,220,.52a13.14,13.14,0,0,0,6,0c5.47-1.39,9.25,2.38,13.82,3.73,8.47,2.49,3.58,8.26,4.36,12.6a29.58,29.58,0,0,1,.15,5,4.63,4.63,0,0,1-1.17,3.63C239.7,29,241.44,36,246,37.08c2.23.53,4.33,1,4.95,3.46.69,2.72-1.1,4.5-3,5.83-3.11,2.17-4,5-3.71,8.62a81.19,81.19,0,0,1-.09,11.46c-.25,3.68-2,6.08-6.1,6.62-4.31.57-8.51,1.45-12.81-.1-2.57-.92-3.52,1-4.42,2.91-.57,1.18-.87,2.1.73,2.76,4.29,1.76,8.25,4.85,13,4.87,9.9,0,16.49,5.23,21.93,12.72,3.05,4.2,5.09,9,8.06,13.19,4.48,6.3,8.69,12.83,14.64,18,9.57,8.35,18.21,17.58,24.88,28.49,3.41,5.58,6.15,11.45,6.52,18.13.42,7.34-2.47,10.22-9.81,9.35-3.86-.45-7.64-1.55-11.76-2.42.72,3.47,2.38,6,3.91,8.48,1.92,3.15,1.89,5.08-2.31,5.9A41.53,41.53,0,0,0,279.81,199C278,199.73,276.19,200.42,274.39,201.13Zm96.61,40c-23.32,12.19-48.26,17.5-74.43,18.43-11.95.43-23.75,3.24-35.79,3.24-5,0-10,0-15-.21a25.62,25.62,0,0,1-16.65-7.08c-2.42-2.22-4.4-5-8.33-4.81-1.55.08-2.33-1.38-1.62-2.88,2-4.3-.91-2.78-2.46-2-4.88,2.53-9.68,5.26-13.65,9.15-9.43,9.25-6.74,12.34,2.82,18.6,10.81,7.07,23.52,8.86,36.09,10.51a279.24,279.24,0,0,0,61.77,1.6c3.09-.28,5.22-.56,4.34-4.42-.21-.93,0-2.24,1.24-2.32s1.57,1.15,1.46,2.13c-.51,4.3,1.95,4.43,5.22,4.15,9.44-.8,19-.34,28.3-2.65,4.11-1,6.34-2.78,7.68-7.18,2.57-8.4,6.19-16.48,9.48-24.65,1.22-3,4.1-4.2,6.86-5.44,5.85-2.64,11.67-5.34,17.5-8l-.51-1.25C380.13,236.42,375.53,238.73,371,241.09ZM201.94,195.67q3.9,7.25,7.58,14.61c1.68,3.37,3.94,4.16,7.25,2.24,15.75-9.13,33-13.73,50.7-17.29a64.66,64.66,0,0,1,18.89-.67c1.28.12,2.81.46,3.52-1.08.58-1.25-.31-2.31-1.08-3.12-13.21-14-20.94-22.19-40.11-17.45-5.26,1.3-10.87,3-16.4-.6-1.66-1.08-4.56.85-6.3,2.15-8,5.95-14.89,6.69-22.79-.92-5-4.79-11.92-7.54-18-11.2l-.87.93Q193.16,179.47,201.94,195.67ZM191,135.45c-1.59-.28-3.69.17-4.32-1.77-.75-2.31,2.27-2.42,3.1-4.29-7.8-.67-13.36,2.94-17.25,8.85-3.55,5.38-8.06,7.2-14.3,7.06-10.31-.22-20.64.25-31,.35-1.69,0-4.19.8-4.68-1.54-.43-2,1.76-2.92,3.39-3.78,5.57-3,11.15-5.88,16.69-8.88a15,15,0,0,0,5.37-4.38c3.74-5.28,2.6-9.33-3.42-11.52-4.84-1.76-9.75-3.33-14.67-4.85-1.9-.59-4-1-5.41,1.09C116,124.6,104.82,135.67,98.79,150.2c-1.6,3.87-2.87,7.76-2.77,12.06.07,3.07,1.12,4.65,4.41,4.54,11.29-.38,22.44-.52,33-5.92,11.58-5.91,24.3-7.82,37.32-7.34A27.29,27.29,0,0,0,185.63,150c.29-.17.57-.35.86-.5a4.46,4.46,0,0,0,2.16-6.42c-1.39-2.61.36-3.33,2.35-3.56a66.12,66.12,0,0,1,6.65-.05A10.47,10.47,0,0,0,191,135.45Zm8.19,256.36c.21-24.44,2.68-48.87.13-73.32-2.19-21-7-41.69-9.58-62.65-3.38-27.16-11.29-53.34-16.82-80-.84-4.07-1.94-8.12-2.4-12.24-.37-3.29-1.79-3.23-4.27-2.41-2.13.71-4.49.27-3.45,4.19a595.65,595.65,0,0,1,13.78,65.41c7.48,50.71,14.58,101.48,14.81,152.91,0,8.32-.9,16.64-.05,25a16.57,16.57,0,0,0,.65,2.3A27.82,27.82,0,0,0,199.23,391.81ZM222,26.18c-2.74,1.34-2.71,3.83-2.8,6.4C219,38.8,216.86,40,211.38,37c-2.34-1.27-4.58-2.83-7.3-3a3.41,3.41,0,0,0-3.71,2c-.62,1.61.79,2.43,1.85,3.14,2.21,1.49,4.53,2.8,6.77,4.24,1.39.89,2,2,.06,2.92-5.71,2.56-8,6.72-7.87,13.11A39.16,39.16,0,0,1,196.05,79a4.5,4.5,0,0,0-.26,4.62,73.13,73.13,0,0,0,14.57,20.75c2.76,2.77,6.27,4.21,10,2.27,3.53-1.84,2.84-5.37,2.07-8.45-1.53-6.11-.54-13.09-6.34-17.81-1.56-1.26-.34-3.48.21-5.2.46-1.42,1.35-2.75,1.6-4.19.81-4.76,2.63-6.52,7.7-4.24,4.07,1.82,8.54-.17,12.81-.6,2.13-.22,2.34-2,2.47-3.75.18-2.49-1.54-2-3-2.08a18.32,18.32,0,0,1-3.41-.72c-1.54-.46-3-1.47-2.58-3.13.61-2.27,2.47-.94,3.68-.51,4.24,1.53,6.16.52,5.58-4.3a6.91,6.91,0,0,1,3.29-6.84c.73-.5,2-1,1.49-2.17a2.46,2.46,0,0,0-2-1.1c-3.61.44-4-2.15-4.6-4.6-1.59-6.82-2.46-7.29-9.16-4.86a8.46,8.46,0,0,1-1.87.69c-1.81.21-3.78,3.3-5,1.15-1.17-2,1.6-3.66,3.28-4.95,1.88-1.44,4.1-2.67,6.45-2.28,4.36.74,4.67-1.3,3.81-4.64a39.14,39.14,0,0,1-.56-4.28A101.48,101.48,0,0,1,222,26.18Zm-46.89,86c-.38-5.09,1.14-6.7,6.29-6.2,8.67.84,16.21,4.64,23.36,9.32,1.39.91,2.63,2,4,3,1.77,1.2,2.84-.39,3.8-1.32,1.47-1.43-.3-1.93-1.11-2.53-8.34-6.11-12.77-15.17-18-23.64a4.34,4.34,0,0,1-.93-2.28c.56-7.3-4.52-8.19-9.87-8.94-7.54-1.05-15-3-22.72-2.3A17.16,17.16,0,0,0,148.22,83c-5.18,5.84-10.31,11.74-15.43,17.63-2.14,2.48-2.29,4.1,1.62,4.94,6.39,1.38,12.61,3.36,16.47,9.29,1,1.56,1.76,1.19,3.19.43,5.05-2.72,8-1.78,11.11,3.21,2.37,3.86,3.63,8.18,5,12.45.29.89.06,2.35,1.35,2.29a4,4,0,0,0,2.38-1.61c1.87-2.33,2.05-5.18,2.16-7.32C175.72,119.79,175.41,116,175.14,112.16Zm28.74,32.52c-.44.65-.1,1.19.1,1.84,1.66,5.48-.71,9.89-7.44,12.71,6.16,3.62,10.85,8.25,15.25,13.16a1.93,1.93,0,0,0,2.59.54c4.25-1.9,8.67-3.44,12.84-5.5,4.91-2.44,5.46-6.53,1.9-10.65-2-2.37-.64-4.5,1.17-6.05s3.88-2.45,6.21-3.87c-2.65-1-5-1.65-7.23-2.68-4.26-2-4.41-5.18-.52-7.85,3.26-2.23,6.69-1.45,10.11-.64,2.21.52,4.4,1.12,6.83,1.75-.8-5.36-.64-10.32-1.9-15.14-.61-2.34-1.64-3.14-4.13-3.11-7.57.08-14.85,1.81-22.18,3.31-2.63.53-3.73,2.18-3.06,4.72,2.19,8.33,1.32,16.9,2.11,25.33.19,2,.36,4.58-2.19,4.83-2.73.27-2.67-2.61-2.93-4.38q-1.77-12.1-3.12-24.25c-.27-2.45-.68-4.88-2.95-6-6.42-3.11-12.48-7-19.37-9.12-3.54-1.07-5.83-.33-5,4.15a15.13,15.13,0,0,1,.09,4c-.21,2.65,1,3.17,3.31,2.54a33.16,33.16,0,0,1,12.39-.76,6.71,6.71,0,0,1,6,4.57c1,2.81-.79,4.33-2.78,5.84C203.51,136.85,207.46,139.46,203.88,144.68ZM476.27,326.06c1.33,3.42,4.82,4.53,8.15,5,8.2,1.28,16.42,2.6,24.68,3.36a85.48,85.48,0,0,1,28.81,7.43c4,1.89,10.12.28,12-3.62s-1.89-5-4.32-5.71c-7.22-2.11-13.93-5.46-21-7.87a140.49,140.49,0,0,1-20-8.87c-5.6-3-10.27-6.85-12.75-12.81-1.53-3.66-3.77-4.38-7.41-3.1-4.13,1.45-7.66,4-11.57,5.82-1.65.77-1.95,2.1-1.92,3.8C472.62,315.05,474.17,320.67,476.27,326.06ZM359.61,405.68c-7.05-3.87-8.36-7-5.05-14.4.86-1.92,2.57-3.47,2.63-6.17-5.5,1.16-10.9,1.8-16.34.84-1.45-.25-2.17.48-2.46,1.81-1.61,7.31-5.45,13.92-6.64,21.37-.9,5.66.5,8.1,6.11,9.34,7.63,1.68,15.55.95,23.21,2.78s15.25,3.18,22.37,6.63c4.62,2.25,9.47,2.12,15.6.42C384.69,421.17,372.54,412.76,359.61,405.68ZM194.94,251.19c6-6.14,12.31-9.88,20.1-10.6,1.8-.17,2.19-.93,1.63-2.65-1.74-5.35-3.59-10.4-7.11-15.14a197,197,0,0,1-30.23-58.05c-.81-2.53-.73-2.56-3.16-5.19C184,189.84,189.71,220.08,194.94,251.19Zm70.69-94c-4.08-1.73-4.51,0-4.49,3.31,0,3.6,2,5.52,5.08,6.61,7,2.52,13.91,5.49,21.41,6.64,4.42.68,8.75,2,13.12,3,1.74.41,3.83,1.55,5.16-.06s-.07-3.54-.77-5.16a60.65,60.65,0,0,0-11.52-18q-12.57-13.22-24.16-27.3c-1-1.21-2-2.5-3.7-1.73-2.09,1-.85,2.66-.32,3.86a14.73,14.73,0,0,1,.62,10.62c-1.38,4.78,5,14,10.21,15.49,3.36,1,6.75,1.81,10.08,2.86,1.43.45,3.92.3,3.39,2.67-.43,1.94-2.63,1.63-4.27,1.75-.5,0-1,0-1.28,0A56.29,56.29,0,0,1,265.63,157.23Zm42.7,247.6c5.54-27.93,9.52-56.09,12.95-84.35.94-7.74,2.75-15.39,4.31-23,.6-2.93.29-4.34-3.25-4a95.71,95.71,0,0,1-11,.11c-2.52,0-3.72.86-3.38,3.55,4.89,38.78,2.61,77.35-3.49,115.8a14.12,14.12,0,0,0,.25,2.23A28.75,28.75,0,0,0,308.33,404.83Zm-45.82-269.5c.6-3.35-1.84-6.3-3.3-9.27-1.54-3.13-3.4-6.1-4.9-9.25-.88-1.85-2.67-4.62-.56-5.74,1.82-1,3.4,2,4.58,3.68s2.21,3.71,3.38,5.53c.65,1,1.1,2.78,2.9,1.3,1.07-.88,2.21-2,1-3.34-7.16-7.4-10.84-17.69-19.69-23.66a38.91,38.91,0,0,0-14.72-5.87c-3.26-.63-4.73.13-4,3.75,1.14,5.43,1.64,10.84-.71,16.18-1.07,2.44.63,2.4,2.3,2a53.49,53.49,0,0,1,11.37-1.38c4.37,0,6.78,2,8,6.06,1.53,5.22,1.31,10.57,1.08,15.87-.19,4.18,1,7,5,8.72,3.81,1.59,5.58,5,7.28,8.52.79,1.63,1,3.93,4.72,4.15C261.67,147.05,261.43,141.41,262.51,135.33ZM245,145c1.42.69,3.07,1.83,2.4,3.84-.57,1.73-2.31,1.61-3.81,1.7a8.12,8.12,0,0,0-1,0c-2.56.41-7.19-.88-6.81,2.49.35,3.06,4.79,1.23,7.45,1,2.35-.23,5.23-.95,5.63,2.22.37,2.83-2.68,2.84-4.65,3.4-1.75.5-3.57.78-5.73,1.23,6.75,4.66-.27,5.21-2.07,7.36,6.32,2.16,18.95-3.06,20.64-8.42,2.25-7.1-2.76-15.71-10.79-18.31-3.92-1.27-7.9-2.46-12.11-1.23C237.82,141.84,241.5,143.28,245,145Zm-5,148.21c0-1.87-.8-2.71-2.58-2.95-2.27-.3-4.49-1.39-6.79-.45-.23.1-.2,1.2-.07,1.78,2.73,11.94,5.05,24,9.3,37C240.84,315.84,239.8,304.53,240,293.21ZM165.27,134.66A38.34,38.34,0,0,0,161.22,124a2.48,2.48,0,0,0-3.38-1.27,3,3,0,0,0-1.89,3.19c.17,3.47,1.11,6.82,1.07,10.38,0,3,3.42.71,4.34,2C164.4,138.41,165.71,137.18,165.27,134.66Zm-15.48-3.58-7.91,6.82C152.59,137.94,152.68,137.85,149.79,131.08Z"/><path class="cls-1" d="M127.13,333.76c1,.25,2.45,1.23,2.84-.54.29-1.32-1.18-1.31-2.09-1.49-3.88-.74-7.77-1.44-11.66-2.16-4.42-.74-8.82-1.7-13.27-2.19-9.09-1-18.21-1.73-27.3-2.68-1.38-.14-3.35-.12-3.53-2.06-.15-1.65,1.6-1.26,2.62-1.6,1.52-.51,1.06-1.8,1.19-2.91.21-1.8.24-3.75,1-5.33,1.14-2.43-.09-2.86-1.94-3.27a19.13,19.13,0,0,1-3.83-1.1c-2.5-1.13-6.09-1.77-5.83-5.25.3-4,4-4.31,7.18-4.78l1-.1c13.86-1.52,27.87-.32,41.71-2.82,9.89-1.78,19.92-.73,29.84.55,4.1.53,7.65,2.1,7,7.17-.64,5.29,1.35,7.83,6.69,8.68,2.75.44,5.74,2.62,3.43,6-1.79,2.66-2.38,4.89-1.16,7.78.37.87.38,2.32-.55,2.75-3.23,1.5-1.35,3.44-.32,4.85,2.19,3,2.21,6.12,1.24,9.43-.84,2.89-.25,5.22,2.42,6.85,1.09,3.27.22,4.45-3.27,3.26a49.4,49.4,0,0,0-5.32-1.19l-2-.3c-6.61-.63-12.65,2.51-19.11,2.85l-2.89.35A68.51,68.51,0,0,1,112.91,353c-1.21-.25-2.89-.91-3,1.17-.13,1.6,1.43,1.65,2.53,1.74A89,89,0,0,1,130.05,359c7,2.08,8.07,3.74,7.06,10.75s-.39,7.62,6.59,5.84c2.58-.66,5.1-1.73,7.71-2,5-.55,7.38-2.6,7.47-8.12.06-3.28-.33-3.64-3.18-3a72.22,72.22,0,0,1-9.36,1.44c-2.77.24-5.67.5-8.05-1.62.75-2,3-1.39,4.09-2.55l1.85-.52c6.08-1.31,12-3.45,18.36-3.16,5,.23,5.87,1.75,4.09,6.51a.38.38,0,0,0-.26.44l-.66.81-.14.17c-3.1,2.94-4.4,5.81-1.24,9.85,1.5,1.93.93,5.16,4.55,6,1.6.35,1.52,2.67.7,4.35-1.1,2.23-1,4.15,1.57,5.3,2.87,5.08,2.31,7.77-3.06,9.59-6.92,2.34-14.12,3.84-21.17,5.82-3.67,1-7.22,2.53-11.16,2.44-24-.55-47.73-4.32-71.46-7.69-4.34-.62-6.66-3.22-7.63-7.44-1.92-8.41.15-13.73,8.37-18.2,4.53-2.46,7.26-5.19,7.23-10.7,0-3.79,1-7.58,5.32-9.39,1.59-.67,1.88-2.54,2.08-4.33-2.72-.34-5.36-.6-8-1a5.7,5.7,0,0,1-4.51-2.75c-3.39-6.16,1.18-16.08,8.08-17.49a27.5,27.5,0,0,1,8-.31c10.28.89,20.57,1.68,30.86,2.51C118.46,331.58,122.79,332.69,127.13,333.76ZM67.45,383.19c-2.45.08-6-2.22-6.13,2.89-.09,3.85-.8,7.09,5.2,7.88,17,2.22,34.13,3.22,51.13,5.39a48.67,48.67,0,0,1,9.64,2.53c2.23.77,2.81.11,3-2.18.67-7.51.13-8-7.44-9-15.17-2.06-30.3-4.44-45.46-6.65-2.8-.41-5.62-.61-8.43-.9l0,.14C68.45,383.23,68,383.17,67.45,383.19Zm65.72-11.43c-.09-6.95.28-7.23-6.71-8-14.55-1.62-29.14-3-43.72-4.32-4.84-.43-8.55,4.54-7.26,9.24.41,1.47,1.53,1.65,2.69,1.71,16.81.9,33.42,3.47,50,6.06C132.29,377.41,133.22,375.8,133.17,371.76Zm-9.52-24.25c1.65.21,4.57,2.42,4.8-1.72.19-3.4.43-7.13-4.06-7.91a307.78,307.78,0,0,0-38.67-4.28c-3-.14-6-.27-9-.31-5.08-.07-5.82,3.42-6,7.39-.18,4.36,3.19,3.58,5.61,3.68,5,.2,10,.06,15,.06C102.15,345.07,112.91,346.18,123.65,347.51ZM90.19,313.77a16.12,16.12,0,0,0-7.35,1c-2.24.76-2.89,2.66-2.67,4.81.26,2.47,2.34,2,3.87,2,14.7,0,29.13,1.78,43.12,6.52,1.52.51,3.08,1.05,3-1.5-.15-3,.93-5.79,2-8.83C117.78,317.52,104,315.57,90.19,313.77Zm49.35,76.7c-2.45.66-4.77,1.58-5.4,4.48-.5,2.28-1.44,5.13,0,6.72,1.63,1.77,3.87-.55,5.68-1.34a122,122,0,0,1,21.68-7.13c3.16-.73,6.36-1.33,4-5.92-.46-.9-.07-2.22-.07-3.72C156.48,386,148,388.19,139.54,390.47ZM99.68,301.2c-1.71,0-3.88-.1-4.45,2.29-.52,2.13-1.26,4.31,2.58,3.85,16.19-2,32.47-1.83,48.74-1.91,1.66,0,2.83-.05,2.87-2.27s-.82-2.8-2.92-2.77c-7.64.1-15.28,0-22.91,0v.72C115.62,301.15,107.65,301.09,99.68,301.2Zm25.8,84.86c7.44,1.42,10.46.8,18.23-3.8-3.8-1-3.81-1-7,.54-2.72,1.33-5.59.91-8.32.46-16-2.65-32.1-5.21-48-8.36-5.06-1-7.93,2.3-11.77,3.77C87.73,380.45,106.7,382.49,125.48,386.06Zm29.94-42.37c2.07-.09,2.16-1.63,2.36-3.16.25-1.92-.91-2.18-2.39-2.27-5.63-.35-11.23-.65-16.81.73-7.42,1.84-7.66,2-7.09,10.14C139.73,347.7,147.2,344.06,155.42,343.69Zm-6.25-25.49c-3.08.51-6.29.14-9.3,1.27s-5.14,2.93-5.92,6.16c-.36,1.46-1.08,3.09.29,4.15s2.38-.47,3.47-1.09c6.23-3.49,13.34-3.05,19.88-4.69C157.27,318.77,154.19,317.38,149.17,318.2Zm-41,37.38c1.16,0,2.5.05,2.6-1.54.09-1.31-1-1.53-2-1.65q-11.42-1.29-22.82-2.55c-2.17-.24-2.38,1.65-2.72,2.92-.63,2.32,1.46,1.67,2.53,1.76,3.81.33,7.64.5,11.46.73v.34C100.84,355.59,104.5,355.6,108.15,355.58ZM88.45,307c2.68.62,2.43-1.33,2.83-2.86.53-2-.24-2.63-2.2-2.64-5.94,0-11.87,0-19,1.46C77,304.48,82.74,305.68,88.45,307Zm26.72,5.05,24,1.82C131.51,309.3,123.28,311.89,115.17,312.06Zm41.74,21.58c-7.71-.8-15.42-2.41-23,.63C141.57,333.57,149.21,332.63,156.91,333.64Z"/><path class="cls-1" d="M4.43,416.36c-4.71-3.6-2.93-9.21-4.25-13.84-1-3.67,2.85-1.78,4.19-2.88a2.25,2.25,0,0,0,.44-.89c1.11-2.78,3.58-3.79,6.12-4.7A120.66,120.66,0,0,1,28.1,388.8c3.72-.72,7.52-2.4,9.7,2.8.42,1,2.56,1.35,4,1.81,13.65,4.41,26.63,10.45,39.69,16.29,2.71,1.22,4.93,3,4.67,6.38a6.67,6.67,0,0,1-5.51,6.32c-14.27,3.22-28.55,6.4-44,8.11C25.07,428.92,14.24,423.86,4.43,416.36Zm54.2-9.79A195.84,195.84,0,0,1,37,396.37c-1.75-1-3.42-1.92-5.62-1.35-7.24,1.87-14.52,3.58-21.77,5.44-1,.26-2.5.36-2.61,1.84-.09,1.16,1.14,1.53,1.92,2.06C17.6,410.2,26.33,416,35,421.82a6.31,6.31,0,0,0,6.22.55c8.58-3.81,17.59-6,26.79-7.58a6.67,6.67,0,0,0,4.3-2.29C67.67,410.48,63.18,408.44,58.63,406.57ZM4.7,409.28c2.09,5.84,7,8,12.64,9.31Z"/><path class="cls-2" d="M184.35,163.27q8.81,16.2,17.59,32.4,3.9,7.25,7.58,14.61c1.68,3.37,3.94,4.16,7.25,2.24,15.75-9.13,33-13.73,50.7-17.29a64.66,64.66,0,0,1,18.89-.67c1.28.12,2.81.46,3.52-1.08.58-1.25-.31-2.31-1.08-3.12-13.21-14-20.94-22.19-40.11-17.45-5.26,1.3-10.87,3-16.4-.6-1.66-1.08-4.56.85-6.3,2.15-8,5.95-14.89,6.69-22.79-.92-5-4.79-11.92-7.54-18-11.2Z"/><path class="cls-2" d="M176.07,124.31c-.35-4.52-.66-8.33-.93-12.15-.38-5.09,1.14-6.7,6.29-6.2,8.67.84,16.21,4.64,23.36,9.32,1.39.91,2.63,2,4,3,1.77,1.2,2.84-.39,3.8-1.32,1.47-1.43-.3-1.93-1.11-2.53-8.34-6.11-12.77-15.17-18-23.64a4.34,4.34,0,0,1-.93-2.28c.56-7.3-4.52-8.19-9.87-8.94-7.54-1.05-15-3-22.72-2.3A17.16,17.16,0,0,0,148.22,83c-5.18,5.84-10.31,11.74-15.43,17.63-2.14,2.48-2.29,4.1,1.62,4.94,6.39,1.38,12.61,3.36,16.47,9.29,1,1.56,1.76,1.19,3.19.43,5.05-2.72,8-1.78,11.11,3.21,2.37,3.86,3.63,8.18,5,12.45.29.89.06,2.35,1.35,2.29a4,4,0,0,0,2.38-1.61C175.78,129.3,176,126.45,176.07,124.31Z"/><path class="cls-2" d="M266.17,152.6c-4.5-5.55-4.74-11.19-3.66-17.27.6-3.35-1.84-6.3-3.3-9.27-1.54-3.13-3.4-6.1-4.9-9.25-.88-1.85-2.67-4.62-.56-5.74,1.82-1,3.4,2,4.58,3.68s2.21,3.71,3.38,5.53c.65,1,1.1,2.78,2.9,1.3,1.07-.88,2.21-2,1-3.34-7.16-7.4-10.84-17.69-19.69-23.66a38.91,38.91,0,0,0-14.72-5.87c-3.26-.63-4.73.13-4,3.75,1.14,5.43,1.64,10.84-.71,16.18-1.07,2.44.63,2.4,2.3,2a53.49,53.49,0,0,1,11.37-1.38c4.37,0,6.78,2,8,6.06,1.53,5.22,1.31,10.57,1.08,15.87-.19,4.18,1,7,5,8.72,3.81,1.59,5.58,5,7.28,8.52C262.24,150.08,262.46,152.38,266.17,152.6Z"/><path class="cls-1" d="M330.46,271.47c-.56-1.34.35-4.29-1.92-3.67-3.15.86-3.65,4.39-4.21,7.29-.27,1.43.58,2.87,2.22,2.57C329.9,277,330,274.09,330.46,271.47Z"/><path class="cls-1" d="M210.6,260.47c2-.19,4.22-.41,4.08-2.36-.21-3.05-3.11-3.52-5.55-3.78-1.64-.18-3.77.21-3.45,2.44C206.06,259.47,208.4,260.26,210.6,260.47Z"/><path class="cls-1" d="M267.37,269c.93,2.65,2.1,5.24,5.38,5.62,1.42.16,2.86-.76,2.51-2.31-.72-3.2-3.5-4.68-6.22-5.72C267.71,266.06,267.41,267.71,267.37,269Z"/><path class="cls-1" d="M273.73,280.36c.16,1.86,1.22,2.66,2.67,2.34,2.7-.59,3.35-2.87,3.51-5.24.07-1.07-.36-3-1.36-2.64C276,275.72,274.66,278.06,273.73,280.36Z"/><path class="cls-1" d="M256.33,270.76c-1.44,3.11-2.39,5.18-3.37,7.25-.44.92-.91,1.86.26,2.57a2.13,2.13,0,0,0,2.7-.56C258.56,277.48,258.64,274.71,256.33,270.76Z"/><path class="cls-1" d="M340.63,264.25a8.75,8.75,0,0,0,4.69,5.38c1,.54,1.55-.45,1.45-1.31-.3-2.49-.61-5.1-3.62-5.86C341.88,262.14,340.91,262.74,340.63,264.25Z"/><path class="cls-1" d="M300.29,267.41c-2.5.75-3.47,3-4.05,5.45-.2.86.09,1.9,1.17,1.63,2.64-.68,4-2.74,4.77-5.2C302.52,268.15,301.86,267.4,300.29,267.41Z"/><path class="cls-1" d="M315.37,263.38c.31,1.13,0,3,1.7,2.88s2.2-1.78,2.12-3.34c-.07-1.38-.71-2.84-2.2-2.7S315.65,262.14,315.37,263.38Z"/><path class="cls-1" d="M218.77,269.16c0,1.29.4,2.39,1.88,2.27,1.84-.14,2.33-1.67,2.37-3.17,0-1.22,0-3.07-1.72-2.88C219.45,265.6,219.22,267.62,218.77,269.16Z"/><path class="cls-1" d="M233.46,269.64c-1.1,1-2.82,1.79-2.78,3.64a1.9,1.9,0,0,0,2.33,1.93c1.94-.57,1.67-2.58,1.91-4.11C235,270.32,234.76,269.44,233.46,269.64Z"/><path class="cls-1" d="M234,40.82c2.69-2.58,2.11-5,1.94-7.79C232.34,34.86,232.81,37.34,234,40.82Z"/><path class="cls-1" d="M44.91,403.24c-4.56-3.28-8.57-3.27-12.66-2.43-1.22.25-2.86.69-2.67,2.35a2.61,2.61,0,0,0,2.92,2.14A45,45,0,0,0,44.91,403.24Z"/></svg>