<svg width="21" height="18" viewBox="0 0 21 18" fill="none" xmlns="http://www.w3.org/2000/svg">
<g clip-path="url(#clip0_684_713)">
<path d="M11.1418 0.632812C10.9555 0.246094 10.5617 0 10.1293 0C9.69691 0 9.30667 0.246094 9.11683 0.632812L6.85628 5.28398L1.80784 6.0293C1.38597 6.09258 1.03441 6.38789 0.904328 6.79219C0.77425 7.19648 0.879719 7.64297 1.18206 7.9418L4.84534 11.5664L3.9805 16.6887C3.91019 17.1105 4.08597 17.5395 4.43402 17.7891C4.78206 18.0387 5.24261 18.0703 5.6223 17.8699L10.1328 15.4617L14.6434 17.8699C15.0231 18.0703 15.4836 18.0422 15.8317 17.7891C16.1797 17.5359 16.3555 17.1105 16.2852 16.6887L15.4168 11.5664L19.0801 7.9418C19.3825 7.64297 19.4914 7.19648 19.3578 6.79219C19.2242 6.38789 18.8762 6.09258 18.4543 6.0293L13.4024 5.28398L11.1418 0.632812Z" fill="#4D5E4A"/>
</g>
<defs>
<clipPath id="clip0_684_713">
<rect width="20.25" height="18" fill="white"/>
</clipPath>
</defs>
</svg>
