<svg width="18" height="16" viewBox="0 0 18 16" fill="none" xmlns="http://www.w3.org/2000/svg">
<path d="M11.018 0.156643C11.932 0.339455 12.5262 1.22891 12.3434 2.14297L12.2625 2.54375C12.0762 3.48242 11.7316 4.37539 11.25 5.1875H16.3125C17.2441 5.1875 18 5.94336 18 6.875C18 7.52539 17.6309 8.09141 17.0895 8.37266C17.4727 8.68203 17.7188 9.15664 17.7188 9.6875C17.7188 10.5102 17.1281 11.1957 16.3512 11.3434C16.5059 11.6 16.5938 11.8988 16.5938 12.2188C16.5938 12.9676 16.1051 13.6039 15.4301 13.8219C15.4547 13.9379 15.4688 14.0609 15.4688 14.1875C15.4688 15.1191 14.7129 15.875 13.7812 15.875H10.3535C9.68555 15.875 9.03516 15.6781 8.47969 15.309L7.12617 14.4055C6.1875 13.7797 5.625 12.725 5.625 11.5965V10.25V8.5625V7.68711C5.625 6.66055 6.09258 5.69375 6.89062 5.05039L7.15078 4.84297C8.08242 4.09766 8.71875 3.05 8.95078 1.88282L9.03164 1.48203C9.21445 0.567971 10.1039 -0.0261695 11.018 0.156643ZM1.125 5.75H3.375C3.99727 5.75 4.5 6.25274 4.5 6.875V14.75C4.5 15.3723 3.99727 15.875 3.375 15.875H1.125C0.502734 15.875 0 15.3723 0 14.75V6.875C0 6.25274 0.502734 5.75 1.125 5.75Z" fill="#4D5E4A"/>
</svg>
