<svg width="553" height="554" viewBox="0 0 553 554" fill="none" xmlns="http://www.w3.org/2000/svg">
<path d="M276.5 0C123.808 0 0 124.032 0 277C0 429.968 123.808 554 276.5 554C429.192 554 553 429.968 553 277C553 124.032 429.192 0 276.5 0ZM409.38 208.801C409.565 211.707 409.565 214.737 409.565 217.704C409.565 308.472 340.564 413.027 214.472 413.027C175.59 413.027 139.546 401.712 109.18 382.236C114.735 382.854 120.043 383.101 125.721 383.101C157.815 383.101 187.317 372.219 210.831 353.793C180.713 353.175 155.407 333.389 146.767 306.184C157.321 307.729 166.826 307.729 177.688 304.947C162.181 301.79 148.24 293.353 138.239 281.067C128.236 268.782 122.788 253.406 122.82 237.552V236.687C131.893 241.819 142.57 244.972 153.742 245.404C144.351 239.135 136.649 230.64 131.32 220.675C125.99 210.708 123.198 199.58 123.191 188.274C123.191 175.475 126.523 163.789 132.51 153.649C149.724 174.877 171.203 192.239 195.554 204.607C219.904 216.974 246.579 224.071 273.846 225.434C264.156 178.751 298.966 140.973 340.811 140.973C360.56 140.973 378.336 149.259 390.865 162.613C406.357 159.708 421.169 153.896 434.377 146.105C429.254 161.995 418.515 175.413 404.257 183.884C418.082 182.4 431.414 178.566 443.758 173.187C434.438 186.913 422.773 199.094 409.38 208.801Z" fill="black"/>
</svg>
