<svg width="17" height="18" viewBox="0 0 17 18" fill="none" xmlns="http://www.w3.org/2000/svg">
<g clip-path="url(#clip0_684_709)">
<path d="M8.14286 9C9.37693 9 10.5605 8.52589 11.4331 7.68198C12.3057 6.83807 12.7959 5.69347 12.7959 4.5C12.7959 3.30653 12.3057 2.16193 11.4331 1.31802C10.5605 0.474106 9.37693 0 8.14286 0C6.90879 0 5.72526 0.474106 4.85265 1.31802C3.98003 2.16193 3.4898 3.30653 3.4898 4.5C3.4898 5.69347 3.98003 6.83807 4.85265 7.68198C5.72526 8.52589 6.90879 9 8.14286 9ZM6.48157 10.6875C2.90089 10.6875 0 13.493 0 16.9559C0 17.5324 0.483482 18 1.07966 18H15.2061C15.8022 18 16.2857 17.5324 16.2857 16.9559C16.2857 13.493 13.3848 10.6875 9.80415 10.6875H6.48157Z" fill="#4D5E4A"/>
</g>
<defs>
<clipPath id="clip0_684_709">
<rect width="16.2857" height="18" fill="white"/>
</clipPath>
</defs>
</svg>
