<svg width="484" height="535" viewBox="0 0 484 535" fill="none" xmlns="http://www.w3.org/2000/svg">
<path d="M241.891 267.5C278.55 267.5 313.709 253.408 339.63 228.326C365.552 203.243 380.114 169.223 380.114 133.75C380.114 98.2774 365.552 64.2574 339.63 39.1745C313.709 14.0915 278.55 0 241.891 0C205.232 0 170.074 14.0915 144.152 39.1745C118.23 64.2574 103.668 98.2774 103.668 133.75C103.668 169.223 118.23 203.243 144.152 228.326C170.074 253.408 205.232 267.5 241.891 267.5ZM192.541 317.656C86.1735 317.656 0 401.042 0 503.967C0 521.102 14.3623 535 32.0723 535H451.711C469.418 535 483.781 521.102 483.781 503.967C483.781 401.042 397.607 317.656 291.241 317.656H192.541Z" fill="black"/>
</svg>
