<svg width="16" height="16" viewBox="0 0 16 16" fill="none" xmlns="http://www.w3.org/2000/svg">
<path d="M6.9995 3C6.9995 2.73478 7.10486 2.48043 7.2924 2.29289C7.47993 2.10536 7.73429 2 7.9995 2C8.26472 2 8.51907 2.10536 8.70661 2.29289C8.89415 2.48043 8.9995 2.73478 8.9995 3C8.9995 3.26522 8.89415 3.51957 8.70661 3.70711C8.51907 3.89464 8.26472 4 7.9995 4C7.73429 4 7.47993 3.89464 7.2924 3.70711C7.10486 3.51957 6.9995 3.26522 6.9995 3ZM10.8276 4C10.937 3.6875 10.9995 3.35 10.9995 3C10.9995 1.34375 9.65575 0 7.9995 0C6.34325 0 4.9995 1.34375 4.9995 3C4.9995 3.35 5.05888 3.6875 5.17138 4H3.7495C3.062 4 2.462 4.46875 2.29325 5.1375L0.0432519 14.1375C-0.0692482 14.5844 0.0307519 15.0594 0.315127 15.425C0.599502 15.7906 1.037 16 1.4995 16H14.4995C14.962 16 15.3964 15.7875 15.6808 15.4219C15.9651 15.0563 16.0651 14.5844 15.9526 14.1344L13.7026 5.13438C13.537 4.46875 12.937 4 12.2495 4H10.8276Z" fill="#4D5E4A"/>
</svg>
