<svg width="554" height="554" viewBox="0 0 554 554" fill="none" xmlns="http://www.w3.org/2000/svg">
<path d="M242.375 103.875C242.375 94.6919 246.023 85.8849 252.516 79.3914C259.01 72.898 267.817 69.25 277 69.25C286.183 69.25 294.99 72.898 301.483 79.3914C307.977 85.8849 311.625 94.6919 311.625 103.875C311.625 113.058 307.977 121.865 301.483 128.359C294.99 134.852 286.183 138.5 277 138.5C267.817 138.5 259.01 134.852 252.516 128.359C246.023 121.865 242.375 113.058 242.375 103.875ZM374.923 138.5C378.711 127.68 380.875 115.994 380.875 103.875C380.875 46.5273 334.347 0 277 0C219.652 0 173.125 46.5273 173.125 103.875C173.125 115.994 175.18 127.68 179.076 138.5H129.843C106.039 138.5 85.2637 154.73 79.4207 177.886L1.51444 489.511C-2.38087 504.984 1.08163 521.431 10.9281 534.091C20.7746 546.75 35.923 554 51.9371 554H502.062C518.076 554 533.116 546.642 542.963 533.982C552.809 521.323 556.272 504.984 552.377 489.403L474.47 177.778C468.736 154.73 447.961 138.5 424.156 138.5H374.923Z" fill="black"/>
</svg>
