<svg width="321" height="321" viewBox="0 0 321 321" fill="none" xmlns="http://www.w3.org/2000/svg">
<g clip-path="url(#clip0_813_285)">
<path d="M310.68 54.68C316.687 48.6728 320.062 40.5254 320.062 32.03C320.062 23.5346 316.687 15.3871 310.68 9.37998C304.673 3.37283 296.525 -0.00195312 288.03 -0.00195312C279.535 -0.00195312 271.387 3.37283 265.38 9.37998L160.08 114.77L54.67 9.46998C48.6628 3.46416 40.5159 0.090645 32.0215 0.0915827C23.527 0.0925205 15.3808 3.46783 9.37498 9.47498C3.36916 15.4821 -0.00435539 23.6291 -0.00341777 32.1235C-0.00248015 40.618 3.37283 48.7642 9.37998 54.77L114.77 160.07L9.47998 265.47C3.47283 271.476 0.09752 279.622 0.0965825 288.116C0.0956449 296.611 3.46916 304.758 9.47498 310.765C15.4808 316.772 23.627 320.147 32.1214 320.148C40.6159 320.149 48.7628 316.776 54.77 310.77L160.08 205.37L265.47 310.68C271.477 316.687 279.625 320.062 288.12 320.062C296.615 320.062 304.763 316.687 310.77 310.68C316.777 304.673 320.152 296.525 320.152 288.03C320.152 279.535 316.777 271.387 310.77 265.38L205.38 160.07L310.68 54.68Z" fill="#F8F4EE"/>
</g>
<defs>
<clipPath id="clip0_813_285">
<rect width="320.15" height="320.15" fill="white"/>
</clipPath>
</defs>
</svg>
