<svg width="322" height="322" viewBox="0 0 322 322" fill="none" xmlns="http://www.w3.org/2000/svg">
<path d="M311.68 55.68C317.687 49.6728 321.062 41.5254 321.062 33.03C321.062 24.5346 317.687 16.3871 311.68 10.38C305.673 4.37283 297.525 0.998047 289.03 0.998047C280.535 0.998047 272.387 4.37283 266.38 10.38L161.08 115.77L55.67 10.47C49.6628 4.46416 41.5159 1.09065 33.0215 1.09158C24.527 1.09252 16.3808 4.46783 10.375 10.475C4.36916 16.4821 0.995645 24.6291 0.996582 33.1235C0.99752 41.618 4.37283 49.7642 10.38 55.77L115.77 161.07L10.48 266.47C4.47283 272.476 1.09752 280.622 1.09658 289.116C1.09564 297.611 4.46916 305.758 10.475 311.765C16.4808 317.772 24.627 321.147 33.1214 321.148C41.6159 321.149 49.7628 317.776 55.77 311.77L161.08 206.37L266.47 311.68C272.477 317.687 280.625 321.062 289.12 321.062C297.615 321.062 305.763 317.687 311.77 311.68C317.777 305.673 321.152 297.525 321.152 289.03C321.152 280.535 317.777 272.387 311.77 266.38L206.38 161.07L311.68 55.68Z" fill="#A3BF98"/>
</svg>
