<svg width="512" height="512" viewBox="0 0 512 512" fill="none" xmlns="http://www.w3.org/2000/svg">
<path d="M496.852 87.45C506.459 77.8431 511.856 64.8133 511.856 51.227C511.856 37.6408 506.459 24.611 496.852 15.0041C487.245 5.39712 474.216 0 460.63 0C447.044 0 434.014 5.39712 424.407 15.0041L256.009 183.549L87.435 15.148C77.8282 5.54317 64.7995 0.148087 51.2149 0.149587C37.6304 0.151087 24.6028 5.54905 14.9982 15.156C5.3935 24.7629 -0.00149915 37.7919 3.12482e-07 51.3766C0.00149977 64.9614 5.39938 77.9891 15.0062 87.5939L183.548 255.995L15.1661 424.556C5.5593 434.16 0.161422 447.188 0.159923 460.773C0.158424 474.358 5.55342 487.387 15.1581 496.994C24.7627 506.601 37.7903 511.998 51.3748 512C64.9594 512.001 77.9881 506.606 87.5949 497.002L256.009 328.441L424.551 496.858C434.158 506.465 447.188 511.862 460.774 511.862C474.36 511.862 487.389 506.465 496.996 496.858C506.603 487.251 512 474.221 512 460.635C512 447.048 506.603 434.019 496.996 424.412L328.454 255.995L496.852 87.45Z" fill="black"/>
</svg>
